<?xml version="1.0" standalone="no"?>
<!DOCTYPE svg PUBLIC "-//W3C//DTD SVG 1.1//EN" "http://www.w3.org/Graphics/SVG/1.1/DTD/svg11.dtd" >
<svg>
<metadata>
Created by FontForge 20120731 at Wed Jun 24 20:36:14 2015
 By ,,,
Copyright (c) Feliciano Type Foundry, 2004. All rights reserved.
</metadata>
<defs>
<font id="FlamaMedium-Italic" horiz-adv-x="500" >
  <font-face 
    font-family="FlamaMedium-Italic"
    font-weight="500"
    font-style="italic"
    font-stretch="normal"
    units-per-em="1000"
    panose-1="2 0 6 3 0 0 0 0 0 0"
    ascent="800"
    descent="-200"
    x-height="512"
    cap-height="713"
    bbox="-71 -203 1108 965"
    underline-thickness="20"
    underline-position="-100"
    slope="-12"
    unicode-range="U+0020-FFFD"
  />
<missing-glyph horiz-adv-x="1000" 
 />
    <glyph glyph-name=".notdef" unicode="&#xfffd;" horiz-adv-x="1000" 
 />
    <glyph glyph-name=".null" horiz-adv-x="0" 
 />
    <glyph glyph-name="nonmarkingreturn" horiz-adv-x="333" 
 />
    <glyph glyph-name="space" unicode=" " horiz-adv-x="210" 
 />
    <glyph glyph-name="exclam" unicode="!" horiz-adv-x="292" 
d="M304 713l-38 -220l-75 -265h-74l19 265l39 220h129zM203 146l-26 -146h-127l26 146h127z" />
    <glyph glyph-name="quotedbl" unicode="&#x22;" horiz-adv-x="433" 
d="M450 719l-20 -117l-45 -149h-71l7 149l21 117h108zM271 719l-20 -117l-46 -149h-71l8 149l20 117h109z" />
    <glyph glyph-name="numbersign" unicode="#" horiz-adv-x="589" 
d="M572 462l-12 -64h-96l-35 -183h98l-12 -65h-99l-31 -162h-63l31 162h-140l-32 -162h-62l31 162h-98l14 65h97l36 183h-101l14 64h98l28 149h63l-27 -149h139l29 149h62l-28 -149h96zM401 398h-140l-35 -183h139z" />
    <glyph glyph-name="dollar" unicode="$" horiz-adv-x="570" 
d="M557 576l-79 -71q-44 68 -134 68q-42 0 -73 -20.5t-31 -59.5q0 -22 18.5 -36t55.5 -29q11 -5 45.5 -19t52.5 -23q50 -25 78 -59t28 -89q0 -94 -63.5 -143t-154.5 -58l-17 -98h-87l18 99q-134 17 -180 127l82 63q40 -95 149 -95q49 0 83.5 21.5t34.5 64.5q0 21 -12.5 36.5
t-27 23t-41.5 18.5q-95 36 -128 59q-63 45 -63 118q0 90 62 141.5t153 56.5l14 84h87l-16 -90q91 -14 146 -90z" />
    <glyph glyph-name="percent" unicode="%" horiz-adv-x="806" 
d="M765 252l-25 -140q-11 -60 -59 -91.5t-107 -31.5q-61 0 -96 31t-24 92l25 141q11 63 57 94t106 31q62 0 98 -31t25 -95zM415 598l-25 -140q-11 -59 -58.5 -90.5t-106.5 -31.5q-60 0 -95.5 30.5t-24.5 92.5l25 140q11 63 57.5 94.5t106.5 31.5q61 0 96.5 -31.5t24.5 -95.5
zM681 258q4 23 -8 38.5t-41 15.5q-60 0 -68 -54l-26 -147q-10 -55 48 -55q30 0 47.5 15.5t21.5 40.5zM332 605q4 24 -8 39.5t-41 15.5q-59 0 -68 -55l-26 -147q-10 -54 48 -54q30 0 47.5 15.5t21.5 38.5zM732 722l-520 -734h-82l521 734h81z" />
    <glyph glyph-name="ampersand" unicode="&#x26;" horiz-adv-x="703" 
d="M732 424l-17 -99h-82l-21 -118q-20 -110 -105 -166t-213 -56q-59 0 -110.5 18.5t-88 63t-36.5 106.5q0 72 47 127t119 75l1 4q-35 14 -55 51.5t-20 78.5q0 107 72 160.5t182 53.5q78 0 141.5 -31.5t91.5 -100.5l-98 -49q-20 41 -59 63.5t-83 22.5q-55 0 -88.5 -30.5
t-33.5 -83.5q0 -42 29 -66t70 -24h357zM506 325h-181q-52 0 -92 -40.5t-40 -93.5q0 -50 37.5 -80.5t86.5 -30.5q146 0 168 126z" />
    <glyph glyph-name="quotesingle" unicode="'" horiz-adv-x="253" 
d="M275 719l-21 -117l-45 -149h-71l8 149l20 117h109z" />
    <glyph glyph-name="parenleft" unicode="(" horiz-adv-x="380" 
d="M284 -191h-68q-69 101 -69 319q0 87 13 166q22 128 82 259t143 219h69q-79 -123 -121 -230t-67 -248q-19 -109 -19 -210q0 -143 37 -275z" />
    <glyph glyph-name="parenright" unicode=")" horiz-adv-x="380" 
d="M46 -191h-68q142 227 189 485q21 124 21 214q0 121 -40 264h69q70 -119 70 -311q0 -81 -14 -167q-22 -124 -86 -267t-141 -218z" />
    <glyph glyph-name="asterisk" unicode="*" horiz-adv-x="438" 
d="M464 619l-134 -68l60 -113l-61 -36l-62 120l-104 -120l-50 37l97 114l-106 66l44 56l101 -62l21 122h69l-22 -122l122 62z" />
    <glyph glyph-name="plus" unicode="+" horiz-adv-x="599" 
d="M554 351l-12 -68h-198l-35 -201h-71l36 201h-199l12 68h199l36 202h70l-36 -202h198z" />
    <glyph glyph-name="comma" unicode="," horiz-adv-x="260" 
d="M194 148l-25 -141l-74 -124h-62l51 120h-43l25 145h128z" />
    <glyph glyph-name="hyphen" unicode="-" horiz-adv-x="363" 
d="M349 323l-17 -94h-286l17 94h286z" />
    <glyph glyph-name="period" unicode="." horiz-adv-x="260" 
d="M193 149l-26 -149h-128l26 149h128z" />
    <glyph glyph-name="slash" unicode="/" horiz-adv-x="349" 
d="M424 727l-376 -763h-81l379 763h78z" />
    <glyph glyph-name="zero" unicode="0" horiz-adv-x="596" 
d="M571 506l-54 -303q-18 -101 -100 -158t-183 -57q-66 0 -116.5 20.5t-78.5 70t-15 121.5l54 307q12 70 57 121t104 74t126 23q103 0 163.5 -56t42.5 -163zM442 511q9 49 -16 80.5t-79 31.5q-55 0 -92 -33t-46 -83l-53 -302q-9 -49 16 -82t80 -33q54 0 90.5 33.5t45.5 82.5
z" />
    <glyph glyph-name="one" unicode="1" horiz-adv-x="550" 
d="M480 91l-16 -91h-423l16 91h155l90 511l-148 -15l12 89l250 41l30 1l-111 -627h145z" />
    <glyph glyph-name="two" unicode="2" horiz-adv-x="572" 
d="M572 561q0 -32 -6.5 -61.5t-22.5 -58.5t-29.5 -50.5t-40.5 -50t-42 -43t-47.5 -45t-43.5 -40.5l-111 -103l-1 -5h276l-18 -104h-439l15 82l287 281q78 77 92 156q5 20 5 29q0 37 -28 57.5t-65 20.5q-98 0 -115 -114h-111q29 212 242 212q86 0 144.5 -40t58.5 -123z" />
    <glyph glyph-name="three" unicode="3" horiz-adv-x="580" 
d="M574 572q0 -64 -38 -121.5t-98 -76.5l2 -3q46 -14 71.5 -51t25.5 -87q0 -17 -3 -33q-18 -100 -98 -156t-186 -56q-38 0 -71.5 7t-63 23t-47 45t-17.5 69q0 14 7 58h121q-4 -22 -4 -34q0 -37 29 -53t70 -16q56 0 93 42.5t37 99.5q0 42 -29.5 66.5t-72.5 24.5h-50l16 89h49
q108 0 127 111q3 10 3 22q0 37 -24 59t-61 22q-105 0 -120 -102h-118l4 23q15 87 88 134t167 47q82 0 136.5 -38t54.5 -115z" />
    <glyph glyph-name="four" unicode="4" horiz-adv-x="592" 
d="M566 280l-18 -99h-85l-32 -181h-121l32 181h-303l17 96l345 436h156l-76 -433h85zM415 595h-7l-249 -315h201z" />
    <glyph glyph-name="five" unicode="5" horiz-adv-x="572" 
d="M581 713l-18 -103h-295l-47 -203q74 46 151 46q68 0 120 -36.5t52 -101.5q0 -17 -17 -113q-19 -105 -92.5 -159.5t-184.5 -54.5q-36 0 -69 7t-63.5 22.5t-48.5 44t-18 66.5q0 17 9 62h120q-5 -25 -5 -31q0 -36 29 -53t67 -17q107 0 130 129q10 63 10 69q0 38 -27 58
t-66 20q-60 0 -114 -47l-106 17l88 378h395z" />
    <glyph glyph-name="six" unicode="6" horiz-adv-x="584" 
d="M600 580q0 -13 -7 -57h-121q4 20 4 31q0 36 -29.5 53.5t-69.5 17.5q-51 0 -82.5 -29.5t-40.5 -80.5q-14 -87 -25 -143q36 41 78.5 55.5t98.5 14.5q67 0 111.5 -32t44.5 -96q0 -20 -2 -30l-24 -117q-19 -94 -92 -136.5t-178 -42.5q-85 0 -143.5 44t-58.5 127q0 22 4 39
l55 313q18 99 92.5 156.5t176.5 57.5q52 0 96.5 -12.5t78 -46.5t33.5 -86zM434 289q0 37 -27 53.5t-66 16.5q-46 0 -84 -34t-47 -74l-12 -55q-2 -14 -2 -22q0 -41 26 -63.5t68 -22.5q48 0 83.5 25.5t43.5 71.5q17 95 17 104z" />
    <glyph glyph-name="seven" unicode="7" horiz-adv-x="562" 
d="M615 713l-17 -97l-408 -616h-131l407 610h-336l18 103h467z" />
    <glyph glyph-name="eight" unicode="8" horiz-adv-x="578" 
d="M592 579q0 -14 -5 -51t-9 -47q-7 -39 -38 -70.5t-71 -46.5q36 -13 56 -45.5t20 -71.5q0 -12 -10 -69q-17 -93 -96 -141.5t-179 -48.5q-40 0 -74.5 7t-66 23t-49.5 46.5t-18 72.5q0 19 3 37l8 44q9 48 41.5 86.5t78.5 58.5q-64 28 -64 106q0 17 9 64q17 90 92 141t171 51
q51 0 94 -13t75 -47t32 -86zM469 553q0 38 -28 57t-68 19q-44 0 -79 -24t-42 -66q-10 -50 -10 -62q0 -37 27.5 -55t66.5 -18q45 0 81 25t43 68l7 38q2 12 2 18zM416 245q0 38 -27.5 55t-68.5 17q-48 0 -83.5 -22t-43.5 -67q-10 -50 -10 -64q0 -38 27.5 -59t66.5 -21
q50 0 85.5 26t44.5 73q9 45 9 62z" />
    <glyph glyph-name="nine" unicode="9" horiz-adv-x="580" 
d="M593 554q0 -20 -3 -38l-56 -316q-17 -97 -99 -154.5t-185 -57.5q-81 0 -137 34t-56 109q0 12 7 59h121q0 -4 -2 -15t-2 -17q0 -36 26.5 -53.5t65.5 -17.5q51 0 86 30t44 81l23 134q-55 -67 -176 -67q-66 0 -110.5 34.5t-44.5 98.5q0 16 3 31l17 100q17 95 95.5 145.5
t180.5 50.5q85 0 143.5 -44t58.5 -127zM461 539q0 42 -25.5 65t-67.5 23q-48 0 -83.5 -25.5t-44.5 -71.5l-15 -87q-2 -12 -2 -18q0 -37 26 -56t64 -19q48 0 88.5 35t49.5 83l8 49q2 14 2 22z" />
    <glyph glyph-name="colon" unicode=":" horiz-adv-x="260" 
d="M238 497l-26 -147h-128l26 147h128zM177 147l-26 -147h-128l26 147h128z" />
    <glyph glyph-name="semicolon" unicode=";" horiz-adv-x="260" 
d="M249 497l-26 -147h-128l26 147h128zM187 146l-25 -140l-74 -123h-62l51 120h-44l26 143h128z" />
    <glyph glyph-name="less" unicode="&#x3c;" horiz-adv-x="599" 
d="M542 469l-360 -149l309 -151l-43 -64l-371 186l10 57l435 185z" />
    <glyph glyph-name="equal" unicode="=" horiz-adv-x="599" 
d="M556 443l-12 -70h-468l12 70h468zM523 257l-12 -70h-468l12 70h468z" />
    <glyph glyph-name="greater" unicode="&#x3e;" horiz-adv-x="599" 
d="M523 348l-10 -57l-437 -186l-20 64l361 151l-308 149l43 64z" />
    <glyph glyph-name="question" unicode="?" horiz-adv-x="537" 
d="M521 531q-9 -56 -39 -93.5t-77 -72.5q-6 -5 -29 -20.5t-29 -20.5q-50 -38 -57 -77l-8 -45h-109l8 46q12 65 75 118q44 36 57 45q36 29 48 42q33 34 39 71q8 43 -14.5 72t-66.5 29q-42 0 -78.5 -21.5t-44.5 -65.5l-7 -40l-2 -1h-109l8 43q16 89 90 136t169 47
q98 0 145 -51.5t31 -140.5zM281 147l-26 -147h-128l26 147h128z" />
    <glyph glyph-name="at" unicode="@" horiz-adv-x="944" 
d="M885 394q0 -69 -27 -135t-82.5 -112t-126.5 -46q-35 0 -59.5 21t-35.5 55q-60 -73 -130 -73q-54 0 -82 45t-28 103q0 95 59 172t152 77h145l-49 -270q-1 -5 1 -15q4 -19 17 -30.5t32 -11.5q46 0 79 42t46 91.5t13 94.5q0 111 -80.5 176t-194.5 65q-155 0 -251 -104.5
t-96 -260.5q0 -113 56 -190t160 -104q55 -13 121 -13q97 0 228 47l18 -65q-124 -54 -249 -54q-76 0 -140 16q-128 33 -200 129.5t-72 234.5q0 188 122 310.5t311 122.5q149 0 246 -85.5t97 -232.5zM575 428h-60q-51 0 -84 -52.5t-33 -105.5q0 -18 1.5 -30.5t6 -27t16 -22.5
t29.5 -8q77 0 103 137z" />
    <glyph glyph-name="A" unicode="A" horiz-adv-x="672" 
d="M634 0h-134l-25 153h-274l-81 -153h-132l390 713h120zM458 264l-47 290h-4l-151 -290h202z" />
    <glyph glyph-name="B" unicode="B" horiz-adv-x="662" 
d="M664 557q0 -137 -132 -178v-3q46 -13 71.5 -53.5t25.5 -90.5q0 -105 -77.5 -168.5t-185.5 -63.5h-322l126 713h304q80 0 135 -39t55 -117zM532 524q0 40 -29.5 59.5t-69.5 19.5h-153l-32 -184h158q55 0 90.5 26.5t35.5 78.5zM500 223q0 42 -30 64t-72 22h-169l-36 -199
h169q61 0 99.5 27.5t38.5 85.5z" />
    <glyph glyph-name="C" unicode="C" horiz-adv-x="660" 
d="M670 535q0 -28 -7 -65h-123q4 22 4 34q0 51 -37 78.5t-90 27.5q-67 0 -117 -38t-62 -103q-28 -152 -41 -228q-2 -16 -2 -25q0 -54 41 -83.5t97 -29.5q65 0 111 38t56 102h123l-4 -21q-21 -109 -107 -171.5t-200 -62.5q-103 0 -176 51.5t-73 149.5q0 24 4 44
q28 166 40 229q21 120 113.5 191.5t216.5 71.5q97 0 165 -48.5t68 -141.5z" />
    <glyph glyph-name="D" unicode="D" horiz-adv-x="685" 
d="M684 502q0 -28 -4 -49l-36 -208q-20 -114 -110.5 -179.5t-211.5 -65.5h-278l126 713h276q102 0 170 -56t68 -155zM555 486q0 54 -41 83.5t-97 29.5h-137l-86 -485h143q69 0 117 33.5t60 97.5l38 216q3 24 3 25z" />
    <glyph glyph-name="E" unicode="E" horiz-adv-x="625" 
d="M662 713l-20 -114h-362l-32 -178h321l-20 -115h-321l-34 -192h366l-20 -114h-496l126 713h492z" />
    <glyph glyph-name="F" unicode="F" horiz-adv-x="583" 
d="M646 713l-20 -114h-345l-33 -184h296l-20 -114h-296l-53 -301h-131l126 713h476z" />
    <glyph glyph-name="G" unicode="G" horiz-adv-x="665" 
d="M669 543q0 -22 -8 -64h-120q4 22 4 33q0 51 -37.5 74.5t-90.5 23.5q-67 0 -117 -38t-62 -103l-41 -228q-2 -18 -2 -25q0 -54 41 -83.5t97 -29.5q63 0 108 35.5t57 96.5q1 3 2 9t2 9h-184l20 118h307q-7 -41 -26 -149q-20 -109 -106.5 -171.5t-200.5 -62.5q-103 0 -176 51
t-73 150q0 25 4 44l40 229q22 121 114 192t216 71q97 0 164.5 -45t67.5 -137z" />
    <glyph glyph-name="H" unicode="H" horiz-adv-x="695" 
d="M718 713l-126 -713h-130l54 306h-288l-54 -306h-130l126 713h130l-52 -292h288l52 292h130z" />
    <glyph glyph-name="I" unicode="I" horiz-adv-x="542" 
d="M582 713l-20 -114h-151l-86 -485h151l-20 -114h-431l20 114h151l86 485h-151l20 114h431z" />
    <glyph glyph-name="J" unicode="J" horiz-adv-x="600" 
d="M624 713l-91 -510q-18 -98 -96.5 -156t-182.5 -58q-91 0 -147.5 44.5t-56.5 127.5q0 30 13 104h125q-9 -52 -9 -71q0 -88 103 -88q53 0 85 33.5t42 86.5l85 487h130z" />
    <glyph glyph-name="K" unicode="K" horiz-adv-x="686" 
d="M747 713l-306 -285l206 -428h-146l-159 337l-128 -113l-40 -224h-130l126 713h130l-59 -332h3l345 332h158z" />
    <glyph glyph-name="L" unicode="L" horiz-adv-x="578" 
d="M541 114l-20 -114h-477l126 713h130l-106 -599h347z" />
    <glyph glyph-name="M" unicode="M" horiz-adv-x="833" 
d="M856 713l-126 -713h-125l84 477h-4l-232 -395h-103l-93 393h-4l-84 -475h-125l126 713h155l106 -448h3l258 448h164z" />
    <glyph glyph-name="N" unicode="N" horiz-adv-x="711" 
d="M734 713l-126 -713h-126l-221 495h-5l-87 -495h-125l126 713h126l223 -498h3l87 498h125z" />
    <glyph glyph-name="O" unicode="O" horiz-adv-x="683" 
d="M684 512q0 -26 -4 -47l-38 -214q-21 -116 -116 -189.5t-214 -73.5q-103 0 -176 51t-73 150q0 25 4 44l40 229q21 116 116 189.5t214 73.5q103 0 175 -56.5t72 -156.5zM554 497q0 54 -40.5 83.5t-96.5 29.5q-67 0 -117 -38t-62 -103l-41 -228q-2 -18 -2 -25
q0 -54 41 -83.5t97 -29.5q67 0 117 38t62 103l40 228q2 9 2 25z" />
    <glyph glyph-name="P" unicode="P" horiz-adv-x="630" 
d="M664 517q0 -114 -79.5 -181.5t-197.5 -67.5h-166l-47 -268h-130l126 713h288q87 0 146.5 -53.5t59.5 -142.5zM535 507q0 48 -33 72.5t-81 24.5h-141l-39 -226h142q69 0 110.5 32t41.5 97z" />
    <glyph glyph-name="Q" unicode="Q" horiz-adv-x="683" 
d="M684 512q0 -26 -4 -47l-38 -214q-14 -78 -62 -138l77 -80l-87 -82l-83 85q-85 -48 -174 -48q-103 0 -176.5 51t-73.5 150q0 15 4 45l41 228q21 116 116 189.5t214 73.5q102 0 174 -57t72 -156zM555 497q0 54 -41 83.5t-97 29.5q-67 0 -117 -38t-62 -102l-40 -229
q-3 -13 -3 -25q0 -54 40.5 -83t97.5 -29q38 0 74 14l-66 68l87 82l69 -71q11 23 15 47l41 229q2 16 2 24z" />
    <glyph glyph-name="R" unicode="R" horiz-adv-x="651" 
d="M655 513q0 -85 -51 -147t-133 -80l117 -286h-142l-101 268h-124l-47 -268h-130l126 713h260q97 0 161 -48t64 -152zM527 504q0 100 -114 100h-133l-39 -226h134q69 0 110.5 30.5t41.5 95.5z" />
    <glyph glyph-name="S" unicode="S" horiz-adv-x="623" 
d="M634 575l-105 -43q-21 41 -61.5 62.5t-88.5 21.5q-55 0 -94.5 -21.5t-39.5 -69.5q0 -18 9 -33t31 -28.5t39 -21.5t52 -22t52 -22q27 -12 43.5 -20.5t40.5 -24.5t37.5 -32.5t24 -41.5t10.5 -54q0 -61 -24.5 -108.5t-66 -74t-89.5 -40t-101 -13.5q-218 0 -287 165l119 55
q21 -53 71 -80.5t109 -27.5q32 0 61 7t53 27.5t24 51.5q0 43 -38.5 70.5t-112.5 56.5q-42 16 -68.5 29.5t-57.5 36t-46.5 54t-15.5 71.5q0 105 75 162.5t191 57.5q40 0 76.5 -7.5t72 -23.5t63.5 -46.5t42 -72.5z" />
    <glyph glyph-name="T" unicode="T" horiz-adv-x="596" 
d="M662 713l-20 -111h-205l-106 -602h-129l106 602h-205l20 111h539z" />
    <glyph glyph-name="U" unicode="U" horiz-adv-x="692" 
d="M720 713l-81 -457q-22 -125 -109.5 -196t-214.5 -71q-106 0 -172 48t-66 150q0 26 5 59l83 467h130l-80 -451q-4 -28 -4 -41q0 -58 33 -86.5t91 -28.5q148 0 175 156l80 451h130z" />
    <glyph glyph-name="V" unicode="V" horiz-adv-x="600" 
d="M688 713l-361 -713h-128l-107 713h135l68 -524h5l253 524h135z" />
    <glyph glyph-name="W" unicode="W" horiz-adv-x="898" 
d="M972 713l-310 -713h-120l-40 502h-4l-217 -502h-121l-58 713h131l24 -498h4l219 498h115l42 -501h4l202 501h129z" />
    <glyph glyph-name="X" unicode="X" horiz-adv-x="602" 
d="M676 713l-276 -344l168 -369h-144l-111 258l-204 -258h-146l298 370l-155 343h140l100 -239l187 239h143z" />
    <glyph glyph-name="Y" unicode="Y" horiz-adv-x="608" 
d="M696 713l-315 -429l-50 -284h-126l51 286l-163 427h136l110 -302l215 302h142z" />
    <glyph glyph-name="Z" unicode="Z" horiz-adv-x="597" 
d="M651 713l-18 -100l-443 -499h360l-20 -114h-526l19 105l441 497h-332l20 111h499z" />
    <glyph glyph-name="bracketleft" unicode="[" horiz-adv-x="380" 
d="M451 774l-12 -67h-133l-147 -834h133l-12 -67h-238l171 968h238z" />
    <glyph glyph-name="backslash" unicode="\" horiz-adv-x="349" 
d="M271 -36h-81l-108 763h79z" />
    <glyph glyph-name="bracketright" unicode="]" horiz-adv-x="380" 
d="M355 774l-171 -968h-238l12 67h133l147 834h-133l12 67h238z" />
    <glyph glyph-name="asciicircum" unicode="^" horiz-adv-x="773" 
d="M778 713l-125 -713h-658l125 713h658z" />
    <glyph glyph-name="underscore" unicode="_" 
d="M500 -131h-500v62h500v-62z" />
    <glyph glyph-name="grave" unicode="`" horiz-adv-x="344" 
d="M347 581h-86l-128 174h129z" />
    <glyph glyph-name="a" unicode="a" horiz-adv-x="570" 
d="M560 513l-91 -513h-116l10 57h-3q-26 -28 -72.5 -48.5t-83.5 -20.5q-76 0 -122.5 41t-46.5 116q0 24 4 44q4 23 11.5 65t10.5 60q17 94 78.5 150.5t155.5 56.5q41 0 79 -16t55 -47h5l11 55h115zM408 337q0 41 -31.5 62.5t-73.5 21.5q-48 0 -80 -27.5t-40 -75.5l-23 -128
q-2 -12 -2 -19q0 -40 28 -60.5t69 -20.5q49 0 85 27.5t44 75.5l22 127q2 12 2 17z" />
    <glyph glyph-name="b" unicode="b" horiz-adv-x="574" 
d="M552 364q0 -24 -4 -44q-4 -23 -11.5 -65t-10.5 -60q-17 -94 -86 -150.5t-165 -56.5q-37 0 -69 16.5t-49 46.5h-5l-11 -51h-112l126 713h119l-46 -261h3q64 69 152 69q76 0 122.5 -41t46.5 -116zM429 338q0 40 -28 60.5t-69 20.5q-48 0 -85 -31.5t-45 -79.5l-21 -119
q-1 -6 -1 -19q0 -40 28.5 -61t69.5 -21q49 0 84 27.5t43 75.5l22 128q2 12 2 19z" />
    <glyph glyph-name="c" unicode="c" horiz-adv-x="524" 
d="M510 359q0 -20 -5 -47h-116q3 15 3 29q0 38 -26 58.5t-65 20.5q-98 0 -121 -107q-6 -24 -12.5 -73t-6.5 -69q0 -41 29 -62t72 -21q69 0 127 65l96 -47q-42 -56 -106.5 -87t-136.5 -31q-85 0 -146.5 43.5t-61.5 125.5q0 53 19 140q21 103 91.5 163.5t174.5 60.5
q80 0 135.5 -42t55.5 -120z" />
    <glyph glyph-name="d" unicode="d" horiz-adv-x="574" 
d="M594 713l-125 -713h-116l10 57h-3q-26 -28 -72.5 -48.5t-83.5 -20.5q-76 0 -122.5 41t-46.5 116q0 24 4 44q4 23 11.5 65t10.5 60q17 95 78.5 151t156.5 56q38 0 76.5 -16.5t55.5 -46.5h2l45 255h119zM408 339q0 40 -29 61t-70 21q-49 0 -83 -27.5t-43 -75.5l-23 -128
q-2 -12 -2 -19q0 -40 28 -60.5t69 -20.5q49 0 85 27.5t44 75.5l22 127q2 12 2 19z" />
    <glyph glyph-name="e" unicode="e" horiz-adv-x="540" 
d="M516 360q0 -18 -3.5 -41t-9.5 -55.5t-8 -41.5h-329q-7 -37 -7 -49q0 -42 30 -63.5t73 -21.5q33 0 66 19t57 47l90 -44q-43 -58 -104.5 -90t-132.5 -32q-86 0 -145 42.5t-59 125.5q0 18 3 41t10 58t8 42q19 101 94.5 162.5t178.5 61.5q80 0 134 -41.5t54 -119.5zM396 343
q0 38 -23.5 57.5t-61.5 19.5q-54 0 -88 -31t-42 -84h210q5 33 5 38z" />
    <glyph glyph-name="f" unicode="f" horiz-adv-x="316" 
d="M392 720l-18 -99q-24 3 -44 3q-43 0 -51 -41l-12 -72h88l-17 -92h-88l-108 -606l-118 -13l108 619h-73l17 92h73l12 68q26 146 172 146q9 0 59 -5z" />
    <glyph glyph-name="g" unicode="g" horiz-adv-x="569" 
d="M557 512l-86 -490q-19 -108 -94.5 -166.5t-187.5 -58.5q-41 0 -79.5 12t-69 40.5t-36.5 69.5l109 31q22 -58 103 -58q56 0 92 32.5t46 88.5q2 11 5.5 32t5.5 31l-5 -2q-58 -66 -147 -66q-78 0 -124.5 37.5t-46.5 113.5q0 16 2.5 37t5.5 36.5t7.5 40t6.5 34.5
q17 96 76 155.5t151 59.5q43 0 82.5 -17.5t55.5 -53.5h2l11 61h115zM410 339q0 41 -28 61t-76 20q-101 0 -119 -103l-20 -114q-2 -12 -2 -19q0 -40 27.5 -61t68.5 -21q49 0 84 27.5t43 75.5l20 115q2 12 2 19z" />
    <glyph glyph-name="h" unicode="h" horiz-adv-x="571" 
d="M538 389q0 -16 -8 -61l-58 -328h-119l52 297q6 26 6 47q0 33 -21 53t-60 20q-57 0 -88.5 -35.5t-41.5 -94.5l-51 -287h-119l126 713h119l-47 -264h4q69 73 155 73q67 0 109 -38.5t42 -94.5z" />
    <glyph glyph-name="i" unicode="i" horiz-adv-x="254" 
d="M275 713l-19 -106h-119l19 106h119zM239 511l-90 -511h-119l90 511h119z" />
    <glyph glyph-name="j" unicode="j" horiz-adv-x="268" 
d="M293 713l-18 -106h-119l18 106h119zM258 511l-98 -556q-27 -148 -190 -148q-21 0 -41 2l18 101q2 0 15 -0.5t18 -0.5q52 0 62 53l97 549h119z" />
    <glyph glyph-name="k" unicode="k" horiz-adv-x="553" 
d="M570 511l-222 -198l150 -313h-128l-111 236l-81 -74l-29 -162h-119l126 713h119l-73 -416l227 214h141z" />
    <glyph glyph-name="l" unicode="l" horiz-adv-x="308" 
d="M277 713l-102 -576q0 -1 -0.5 -8t-0.5 -9q0 -27 32 -27q11 0 34.5 2t27.5 2l-16 -90q-54 -14 -93 -14q-54 0 -81 26.5t-27 70.5q0 19 5 46l102 577h119z" />
    <glyph glyph-name="m" unicode="m" horiz-adv-x="894" 
d="M861 389q0 -16 -8 -61l-58 -328h-119l52 297q6 36 6 47q0 33 -21 53t-60 20q-107 0 -130 -130l-51 -287h-119l52 297q6 36 6 47q0 33 -21 53t-60 20q-107 0 -130 -130l-51 -287h-119l90 512h116l-11 -63h4q63 73 158 73q54 0 92.5 -26t52.5 -67l20 20q63 73 158 73
q67 0 109 -38.5t42 -94.5z" />
    <glyph glyph-name="n" unicode="n" horiz-adv-x="571" 
d="M538 389q0 -16 -8 -61l-58 -328h-119l52 297q6 36 6 47q0 33 -21 53t-60 20q-107 0 -130 -130l-51 -287h-119l90 512h116l-11 -63h4q63 73 158 73q67 0 109 -38.5t42 -94.5z" />
    <glyph glyph-name="o" unicode="o" horiz-adv-x="550" 
d="M525 346q0 -21 -4 -38l-18 -105q-17 -94 -94 -154.5t-173 -60.5q-84 0 -143 42t-59 122q0 18 3 37l21 117q17 94 94 154.5t173 60.5q84 0 142 -47t58 -128zM404 339q0 40 -27.5 60t-68.5 20q-50 0 -84.5 -27.5t-42.5 -75.5l-22 -126q-2 -7 -2 -20q0 -40 27.5 -60.5
t68.5 -20.5q50 0 84.5 27.5t42.5 75.5l22 127q2 7 2 20z" />
    <glyph glyph-name="p" unicode="p" horiz-adv-x="574" 
d="M554 365q0 -24 -4 -44q-4 -23 -11.5 -65t-10.5 -60q-17 -94 -83.5 -150.5t-162.5 -56.5q-37 0 -69 16.5t-49 46.5h-5l-44 -245h-119l125 705h116l-11 -59h4q69 69 155 69q76 0 122.5 -41t46.5 -116zM431 339q0 40 -28 60.5t-69 20.5q-48 0 -85 -31t-45 -79l-21 -120
q-2 -12 -2 -19q0 -40 29 -61t70 -21q49 0 83 27.5t43 75.5l23 128q2 12 2 19z" />
    <glyph glyph-name="q" unicode="q" horiz-adv-x="574" 
d="M559 513l-126 -713h-116l46 258h-3q-26 -28 -72.5 -48.5t-83.5 -20.5q-76 0 -122.5 41t-46.5 116q0 24 4 44q4 23 11.5 65t10.5 60q17 96 78 151.5t155 55.5q39 0 78 -16.5t56 -46.5h2l10 54h119zM408 340q0 39 -32 60.5t-74 21.5q-48 0 -79 -27.5t-40 -75.5l-23 -128
q-2 -12 -2 -19q0 -40 28 -60.5t69 -20.5q49 0 85 27.5t44 75.5l22 127q2 12 2 19z" />
    <glyph glyph-name="r" unicode="r" horiz-adv-x="407" 
d="M448 519l-20 -109q-10 2 -44 2q-25 0 -47 -5q-122 -31 -142 -145l-46 -262h-119l90 512h116l-15 -86h5q29 40 83 68t100 28q21 0 39 -3z" />
    <glyph glyph-name="s" unicode="s" horiz-adv-x="507" 
d="M491 444l-84 -65q-47 52 -114 52q-36 0 -66 -16t-30 -49q0 -21 27 -34t65.5 -23t76.5 -23.5t65 -43t27 -73.5q0 -49 -20 -85t-54 -56t-73 -29.5t-84 -9.5q-69 0 -127.5 24t-86.5 79l87 59q19 -33 55 -50t77 -17q110 0 110 64q0 25 -26.5 40t-64 24.5t-74.5 22.5t-63.5 43
t-26.5 76q0 80 62 124.5t153 44.5q124 0 189 -79z" />
    <glyph glyph-name="t" unicode="t" horiz-adv-x="332" 
d="M354 511l-16 -94h-111l-47 -268q-2 -10 -2 -15q0 -36 42 -36q27 0 62 5l-17 -101q-46 -8 -90 -8q-54 0 -88 23t-34 74q0 19 2 29l53 297h-69l16 94h69l28 156h119l-28 -156h111z" />
    <glyph glyph-name="u" unicode="u" horiz-adv-x="565" 
d="M561 512l-91 -512h-115l11 63h-5q-63 -73 -156 -73q-71 0 -110 37t-39 107q0 23 5 51l58 327h119l-53 -297q-4 -24 -4 -46q0 -74 80 -74q106 0 130 131l51 286h119z" />
    <glyph glyph-name="v" unicode="v" horiz-adv-x="495" 
d="M545 512l-269 -512h-119l-91 512h124l51 -356h4l177 356h123z" />
    <glyph glyph-name="w" unicode="w" horiz-adv-x="772" 
d="M809 512l-251 -512h-116l-37 353h-4l-159 -353h-117l-72 512h126l33 -355h4l164 355h104l38 -354h5l158 354h124z" />
    <glyph glyph-name="x" unicode="x" horiz-adv-x="523" 
d="M540 512l-211 -245l134 -267h-131l-79 168l-139 -168h-137l226 266l-124 246h132l70 -151l122 151h137z" />
    <glyph glyph-name="y" unicode="y" horiz-adv-x="565" 
d="M555 512l-87 -490q-19 -108 -94.5 -166.5t-187.5 -58.5q-41 0 -79.5 12t-69 40.5t-36.5 69.5l109 31q22 -58 103 -58q56 0 92 32.5t46 88.5l11 63h-5q-60 -69 -150 -69q-69 0 -109.5 39.5t-40.5 103.5q0 16 5 44l51 318h119l-51 -289q-4 -24 -4 -46q0 -74 80 -74
q57 0 89 36t42 95l48 278h119z" />
    <glyph glyph-name="z" unicode="z" horiz-adv-x="482" 
d="M488 512l-16 -93l-305 -319h258l-18 -100h-414l16 93l302 323h-237l17 96h397z" />
    <glyph glyph-name="braceleft" unicode="{" horiz-adv-x="381" 
d="M452 774l-12 -67h-133l-57 -319l-49 -52l30 -55l-72 -409h132l-12 -66h-235l82 460l-32 69l55 63l66 376h237z" />
    <glyph glyph-name="bar" unicode="|" horiz-adv-x="326" 
d="M272 725l-135 -764h-83l135 764h83z" />
    <glyph glyph-name="braceright" unicode="}" horiz-adv-x="380" 
d="M352 774l-67 -376l33 -63l-56 -69l-81 -460h-235l12 66h131l72 409l50 55l-31 52l56 319h-133l12 67h237z" />
    <glyph glyph-name="asciitilde" unicode="~" horiz-adv-x="773" 
d="M778 713l-125 -713h-658l125 713h658zM702 648h-528l-103 -583h528z" />
    <glyph glyph-name="nbspace" unicode="&#xa0;" horiz-adv-x="210" 
 />
    <glyph glyph-name="exclamdown" unicode="&#xa1;" horiz-adv-x="292" 
d="M272 530l-25 -146h-128l25 146h128zM207 319l-21 -282l-38 -220h-130l39 220l79 282h71z" />
    <glyph glyph-name="cent" unicode="&#xa2;" horiz-adv-x="550" 
d="M518 434q0 -7 -8 -60h-113q4 22 4 34q0 33 -24 50t-58 17q-44 0 -77 -24t-40 -67l-29 -159q-1 -6 -1 -16q0 -36 27 -54.5t64 -18.5q41 0 70 22t37 62l3 18h113l-5 -26q-13 -76 -67 -120.5t-133 -53.5l-16 -85h-73l16 85q-68 8 -112 45t-44 102q0 19 4 35l28 159
q15 83 73.5 133.5t144.5 60.5l13 72h73l-13 -73q63 -8 103 -42.5t40 -95.5z" />
    <glyph glyph-name="sterling" unicode="&#xa3;" horiz-adv-x="599" 
d="M613 577q0 -30 -9 -71h-121q7 37 7 49q0 32 -21.5 51t-53.5 19q-37 0 -64.5 -24.5t-34.5 -61.5q-4 -22 -12.5 -71t-13.5 -75h195l-13 -77h-195l-38 -216h310l-41 -100h-489l18 100h81l38 216h-68l13 77h68l24 132q17 95 85 147.5t166 52.5q74 0 121.5 -38t47.5 -110z" />
    <glyph glyph-name="currency" unicode="&#xa4;" horiz-adv-x="726" 
d="M727 535q0 -23 -8 -65h-123q4 22 4 34q0 51 -37 78.5t-90 27.5q-64 0 -102.5 -38t-50.5 -104h199l-12 -67h-199l-16 -92h199l-12 -67h-199q-3 -18 -3 -36q0 -51 30 -77t82 -26q65 0 111.5 38t55.5 102h123l-3 -21q-20 -109 -106.5 -171.5t-200.5 -62.5q-99 0 -161.5 48
t-62.5 144q0 32 6 62h-99l12 67h99l16 92h-99l12 67h99q23 119 103 188t200 69q96 0 164.5 -49t68.5 -141z" />
    <glyph glyph-name="yen" unicode="&#xa5;" horiz-adv-x="614" 
d="M686 713l-276 -386l-2 -6h175l-13 -74h-192l-43 -247h-133l44 247h-195l13 74h178v6l-139 386h133l105 -312l218 312h127z" />
    <glyph glyph-name="brokenbar" unicode="&#xa6;" horiz-adv-x="491" 
d="M383 725l-62 -354h-74l63 354h73zM308 297l-66 -374h-74l66 374h74z" />
    <glyph glyph-name="section" unicode="&#xa7;" horiz-adv-x="570" 
d="M557 602q0 -17 -9 -64h-87q6 39 6 40q0 33 -32.5 47.5t-69.5 14.5q-43 0 -79.5 -20t-36.5 -59q0 -29 34.5 -46.5t77.5 -29t52 -22.5q50 -19 79.5 -45.5t29.5 -71.5q0 -92 -97 -141q55 -37 55 -96q0 -19 -4 -35q-18 -78 -88.5 -119.5t-156.5 -41.5q-41 0 -79 10.5
t-68 39.5t-30 71q0 14 9 63h90q-5 -32 -5 -38q0 -36 32 -51.5t72 -15.5q48 0 90 24t42 69q0 30 -27.5 45.5t-63.5 24t-45 17.5q-30 10 -49 18.5t-41.5 24t-33.5 37t-11 49.5q0 94 97 143q-56 34 -56 94q0 89 68.5 134.5t161.5 45.5q30 0 58.5 -5.5t55.5 -18t43 -36.5t16 -56
zM425 323q0 36 -54 53q-6 6 -21.5 11t-36.5 10t-26 6q-32 -11 -56 -33t-24 -51q0 -22 24.5 -37t68.5 -27t49 -14q31 9 53.5 31t22.5 51z" />
    <glyph glyph-name="dieresis" unicode="&#xa8;" horiz-adv-x="444" 
d="M447 709l-20 -115h-93l21 115h92zM247 709l-20 -115h-93l20 115h93z" />
    <glyph glyph-name="copyright" unicode="&#xa9;" horiz-adv-x="937" 
d="M911 426q0 -129 -65.5 -241.5t-177.5 -179.5t-241 -67q-152 0 -244 87t-92 238q0 129 64.5 242t175.5 180.5t240 67.5q151 0 245.5 -88.5t94.5 -238.5zM839 419q0 124 -77 201t-201 77q-111 0 -203.5 -60t-143 -157t-50.5 -208q0 -123 75.5 -199.5t198.5 -76.5
q109 0 202.5 60t146 157t52.5 206zM717 477q0 -21 -8 -61h-94q5 22 5 39q0 71 -85 71q-47 0 -77.5 -27.5t-38.5 -75.5q-13 -61 -28 -157q-2 -8 -2 -25q0 -74 84 -74q38 0 73 31q36 30 43 68l2 10h18h75q0 -1 -1 -10t-2.5 -16t-3.5 -9q-15 -74 -76.5 -114t-144.5 -40
q-73 0 -121.5 34.5t-48.5 104.5q0 21 4 38l28 159q15 84 79 133.5t152 49.5q70 0 119 -31.5t49 -97.5z" />
    <glyph glyph-name="ordfeminine" unicode="&#xaa;" horiz-adv-x="419" 
d="M421 635q0 -12 -3 -24q-3 -17 -10.5 -57.5t-11.5 -63.5t-8.5 -57t-6.5 -62h-82l3 41q-49 -49 -112 -49q-41 0 -70 19.5t-29 58.5q0 134 207 134h28q7 31 7 46q0 44 -50 44q-59 0 -69 -48l-3 -14h-78l3 14q10 55 57.5 82t107.5 27q50 0 85 -22t35 -69zM356 304l-11 -64
h-271l11 64h271zM317 525h-47q-87 0 -87 -63q0 -35 46 -35q29 0 53.5 18t28.5 46z" />
    <glyph glyph-name="guillemotleft" unicode="&#xab;" horiz-adv-x="559" 
d="M549 416l-172 -150l120 -150l-68 -51l-171 201l242 203zM326 416l-172 -150l120 -150l-68 -51l-171 201l243 203z" />
    <glyph glyph-name="logicalnot" unicode="&#xac;" horiz-adv-x="535" 
d="M499 478l-182 -157l127 -159l-59 -51l-127 159l-183 -158l-40 49l183 158l-127 159l59 51l127 -159l183 157z" />
    <glyph glyph-name="registered" unicode="&#xae;" horiz-adv-x="526" 
d="M528 619q0 -96 -71 -168t-167 -72q-75 0 -120 43.5t-45 117.5q0 97 70 169t166 72q74 0 120.5 -44t46.5 -118zM482 615q0 58 -35 94t-93 36q-78 0 -131 -60t-53 -139q0 -57 35 -93t92 -36q77 0 131 60t54 138zM422 646q0 -23 -12 -39.5t-33 -21.5l-1 -5q27 -9 27 -35
q0 -7 -1.5 -22t-1.5 -22q0 -13 4 -18h-50q-3 6 -3 12q0 7 2 21t2 21q0 24 -26 24h-36l-14 -78h-49l36 205h100q56 0 56 -42zM371 632q0 21 -26 21h-35l-11 -60h37q16 0 25.5 11.5t9.5 27.5z" />
    <glyph glyph-name="macron" unicode="&#xaf;" horiz-adv-x="415" 
d="M452 694l-16 -90h-323l16 90h323z" />
    <glyph glyph-name="degree" unicode="&#xb0;" horiz-adv-x="297" 
d="M245 641q-7 -40 -40.5 -68t-73.5 -28q-42 0 -64 27.5t-15 66.5t40 68t73 29q42 0 64.5 -28t15.5 -67zM196 639q4 22 -7 37.5t-32 15.5q-20 0 -36 -15.5t-20 -37.5q-4 -21 7 -35.5t31 -14.5t36.5 14.5t20.5 35.5z" />
    <glyph glyph-name="plusminus" unicode="&#xb1;" 
 />
    <glyph glyph-name="twosuperior" unicode="&#xb2;" 
 />
    <glyph glyph-name="threesuperior" unicode="&#xb3;" 
 />
    <glyph glyph-name="acute" unicode="&#xb4;" horiz-adv-x="297" 
d="M343 748l-148 -165h-67l111 165h104z" />
    <glyph glyph-name="paragraph" unicode="&#xb6;" horiz-adv-x="621" 
d="M646 713l-11 -66h-53l-130 -737h-78l129 737h-100l-130 -737h-77l55 315q-95 8 -129 75.5t-17 166.5q17 98 86.5 172t156.5 74h298z" />
    <glyph glyph-name="periodcentered" unicode="&#xb7;" horiz-adv-x="260" 
d="M238 468l-26 -148h-128l27 148h127z" />
    <glyph glyph-name="cedilla" unicode="&#xb8;" horiz-adv-x="384" 
d="M305 -102q0 -48 -44.5 -71.5t-97.5 -23.5q-49 0 -101 18l9 45q52 -16 95 -16q60 0 60 35q0 20 -39 23l-50 1l41 100h53l-23 -60q20 0 32 -1t29.5 -5t26.5 -15.5t9 -29.5z" />
    <glyph glyph-name="onesuperior" unicode="&#xb9;" 
 />
    <glyph glyph-name="ordmasculine" unicode="&#xba;" horiz-adv-x="425" 
d="M435 620q0 -24 -17 -114q-13 -68 -61.5 -106.5t-119.5 -38.5q-59 0 -95.5 26.5t-36.5 82.5q0 20 18 113q12 69 60.5 109t119.5 40q59 0 95.5 -27.5t36.5 -84.5zM365 304l-11 -64h-271l11 64h271zM345 613q0 51 -52 51q-67 0 -79 -78q-12 -12 -17 -95q-1 -5 -1 -13
q0 -50 53 -50q65 0 79 77q17 99 17 108z" />
    <glyph glyph-name="guillemotright" unicode="&#xbb;" horiz-adv-x="559" 
d="M524 268l-243 -203l-48 53l172 150l-120 150l68 51zM301 268l-243 -203l-48 53l172 150l-120 150l68 51z" />
    <glyph glyph-name="onequarter" unicode="&#xbc;" 
 />
    <glyph glyph-name="onehalf" unicode="&#xbd;" 
 />
    <glyph glyph-name="threequarters" unicode="&#xbe;" 
 />
    <glyph glyph-name="questiondown" unicode="&#xbf;" horiz-adv-x="537" 
d="M417 530l-25 -146h-128l25 146h128zM466 33l-8 -42q-16 -89 -90.5 -136.5t-169.5 -47.5q-98 0 -144.5 51.5t-30.5 141.5q9 55 39 93t77 73q42 28 58 40q50 38 57 77l8 45h109l-8 -45q-12 -66 -75 -119q-44 -36 -57 -45q-36 -29 -48 -42q-31 -33 -38 -70q-8 -43 14 -72
t66 -29q42 0 78.5 21t44.5 65l8 41h110z" />
    <glyph glyph-name="Agrave" unicode="&#xc0;" horiz-adv-x="672" 
d="M474 783h-86l-132 182h129zM634 0h-134l-25 153h-274l-81 -153h-132l390 713h120zM458 264l-47 290h-4l-151 -290h202z" />
    <glyph glyph-name="Aacute" unicode="&#xc1;" horiz-adv-x="672" 
d="M650 965l-164 -182h-85l120 182h129zM634 0h-134l-25 153h-274l-81 -153h-132l390 713h120zM458 264l-47 290h-4l-151 -290h202z" />
    <glyph glyph-name="Acircumflex" unicode="&#xc2;" horiz-adv-x="672" 
d="M591 770h-97l-30 100l-72 -100h-95l131 174h98zM634 0h-134l-25 153h-274l-81 -153h-132l390 713h120zM458 264l-47 290h-4l-151 -290h202z" />
    <glyph glyph-name="Atilde" unicode="&#xc3;" horiz-adv-x="672" 
d="M640 901q-40 -123 -125 -123q-23 0 -79 15q-55 17 -82 17t-41 -23q-8 -12 -13 -22l-58 13q45 123 131 123q30 0 77 -15q52 -16 80 -16q22 0 39 21q2 3 7 11t8 13zM634 0h-134l-25 153h-274l-81 -153h-132l390 713h120zM458 264l-47 290h-4l-151 -290h202z" />
    <glyph glyph-name="Adieresis" unicode="&#xc4;" horiz-adv-x="672" 
d="M615 910l-23 -131h-110l23 131h110zM415 910l-24 -131h-110l24 131h110zM634 0h-134l-25 153h-274l-81 -153h-132l390 713h120zM458 264l-47 290h-4l-151 -290h202z" />
    <glyph glyph-name="Aring" unicode="&#xc5;" horiz-adv-x="672" 
d="M566 874q0 -49 -38.5 -84.5t-88.5 -35.5q-39 0 -65 20t-26 58q0 49 38.5 84.5t87.5 35.5q40 0 66 -20t26 -58zM634 0h-134l-25 153h-274l-81 -153h-132l390 713h120zM504 863q0 37 -39 37q-22 0 -38.5 -16.5t-16.5 -39.5q0 -16 11 -27t27 -11q22 0 39 17t17 40zM458 264
l-47 290h-4l-151 -290h202z" />
    <glyph glyph-name="AE" unicode="&#xc6;" horiz-adv-x="1001" 
d="M1033 713l-18 -105h-340l-34 -192h268l-19 -104h-268l-36 -207h340l-18 -105h-472l31 175h-229l-126 -175h-134l507 713h548zM545 617l-241 -342h181z" />
    <glyph glyph-name="Ccedilla" unicode="&#xc7;" horiz-adv-x="660" 
d="M670 535q0 -28 -7 -65h-123q4 22 4 34q0 51 -37 78.5t-90 27.5q-67 0 -117 -38t-62 -103q-28 -152 -41 -228q-2 -16 -2 -25q0 -54 41 -83.5t97 -29.5q65 0 111 38t56 102h123l-4 -21q-20 -103 -97.5 -164.5t-184.5 -68.5l-16 -40q20 0 32 -1t29.5 -5t26.5 -15.5t9 -29.5
q0 -48 -44.5 -71.5t-97.5 -23.5q-50 0 -100 18l8 45q52 -16 95 -16q61 0 61 35q0 20 -39 23l-51 1l33 80q-94 7 -157 57.5t-63 142.5q0 24 4 44q28 166 40 229q21 120 113.5 191.5t216.5 71.5q97 0 165 -48.5t68 -141.5z" />
    <glyph glyph-name="Egrave" unicode="&#xc8;" horiz-adv-x="625" 
d="M474 783h-86l-132 182h129zM662 713l-20 -114h-362l-32 -178h321l-20 -115h-321l-34 -192h366l-20 -114h-496l126 713h492z" />
    <glyph glyph-name="Eacute" unicode="&#xc9;" horiz-adv-x="625" 
d="M631 965l-164 -182h-85l120 182h129zM662 713l-20 -114h-362l-32 -178h321l-20 -115h-321l-34 -192h366l-20 -114h-496l126 713h492z" />
    <glyph glyph-name="Ecircumflex" unicode="&#xca;" horiz-adv-x="625" 
d="M572 770h-97l-30 100l-72 -100h-95l131 174h98zM662 713l-20 -114h-362l-32 -178h321l-20 -115h-321l-34 -192h366l-20 -114h-496l126 713h492z" />
    <glyph glyph-name="Edieresis" unicode="&#xcb;" horiz-adv-x="625" 
d="M603 910l-23 -131h-110l23 131h110zM403 910l-24 -131h-110l24 131h110zM662 713l-20 -114h-362l-32 -178h321l-20 -115h-321l-34 -192h366l-20 -114h-496l126 713h492z" />
    <glyph glyph-name="Igrave" unicode="&#xcc;" horiz-adv-x="542" 
d="M407 783h-85l-132 182h129zM582 713l-20 -114h-151l-86 -485h151l-20 -114h-431l20 114h151l86 485h-151l20 114h431z" />
    <glyph glyph-name="Iacute" unicode="&#xcd;" horiz-adv-x="542" 
d="M580 965l-164 -182h-85l120 182h129zM582 713l-20 -114h-151l-86 -485h151l-20 -114h-431l20 114h151l86 485h-151l20 114h431z" />
    <glyph glyph-name="Icircumflex" unicode="&#xce;" horiz-adv-x="542" 
d="M513 770h-97l-30 100l-72 -100h-95l131 174h98zM582 713l-20 -114h-151l-86 -485h151l-20 -114h-431l20 114h151l86 485h-151l20 114h431z" />
    <glyph glyph-name="Idieresis" unicode="&#xcf;" horiz-adv-x="542" 
d="M550 910l-23 -131h-110l23 131h110zM350 910l-24 -131h-110l24 131h110zM582 713l-20 -114h-151l-86 -485h151l-20 -114h-431l20 114h151l86 485h-151l20 114h431z" />
    <glyph glyph-name="Eth" unicode="&#xd0;" horiz-adv-x="685" 
d="M684 502q0 -28 -4 -49l-36 -208q-20 -114 -110.5 -179.5t-211.5 -65.5h-278l56 317h-63l16 92h63l54 304h276q102 0 170 -56t68 -155zM555 486q0 54 -41 83.5t-97 29.5h-137l-34 -190h165l-16 -92h-165l-36 -203h143q69 0 117 33.5t60 97.5l38 216q3 24 3 25z" />
    <glyph glyph-name="Ntilde" unicode="&#xd1;" horiz-adv-x="711" 
d="M670 901q-40 -123 -125 -123q-23 0 -79 15q-55 17 -81 17q-28 0 -42 -23q-4 -6 -12 -22l-59 13q45 123 131 123q31 0 78 -15q50 -16 79 -16q22 0 39 21q11 16 15 24zM734 713l-126 -713h-126l-221 495h-5l-87 -495h-125l126 713h126l223 -498h3l87 498h125z" />
    <glyph glyph-name="Ograve" unicode="&#xd2;" horiz-adv-x="683" 
d="M482 783h-85l-132 182h129zM684 512q0 -26 -4 -47l-38 -214q-21 -116 -116 -189.5t-214 -73.5q-103 0 -176 51t-73 150q0 25 4 44l40 229q21 116 116 189.5t214 73.5q103 0 175 -56.5t72 -156.5zM554 497q0 54 -40.5 83.5t-96.5 29.5q-67 0 -117 -38t-62 -103l-41 -228
q-2 -18 -2 -25q0 -54 41 -83.5t97 -29.5q67 0 117 38t62 103l40 228q2 9 2 25z" />
    <glyph glyph-name="Oacute" unicode="&#xd3;" horiz-adv-x="683" 
d="M632 965l-164 -182h-85l120 182h129zM684 512q0 -26 -4 -47l-38 -214q-21 -116 -116 -189.5t-214 -73.5q-103 0 -176 51t-73 150q0 25 4 44l40 229q21 116 116 189.5t214 73.5q103 0 175 -56.5t72 -156.5zM554 497q0 54 -40.5 83.5t-96.5 29.5q-67 0 -117 -38t-62 -103
l-41 -228q-2 -18 -2 -25q0 -54 41 -83.5t97 -29.5q67 0 117 38t62 103l40 228q2 9 2 25z" />
    <glyph glyph-name="Ocircumflex" unicode="&#xd4;" horiz-adv-x="683" 
d="M591 770h-97l-30 100l-72 -100h-95l131 174h98zM684 512q0 -26 -4 -47l-38 -214q-21 -116 -116 -189.5t-214 -73.5q-103 0 -176 51t-73 150q0 25 4 44l40 229q21 116 116 189.5t214 73.5q103 0 175 -56.5t72 -156.5zM554 497q0 54 -40.5 83.5t-96.5 29.5q-67 0 -117 -38
t-62 -103l-41 -228q-2 -18 -2 -25q0 -54 41 -83.5t97 -29.5q67 0 117 38t62 103l40 228q2 9 2 25z" />
    <glyph glyph-name="Otilde" unicode="&#xd5;" horiz-adv-x="683" 
d="M639 901q-40 -123 -125 -123q-23 0 -79 15q-55 17 -82 17t-41 -23q-8 -12 -13 -22l-58 13q45 123 131 123q30 0 77 -15q52 -16 80 -16q23 0 39 21q2 3 7 11t8 13zM684 512q0 -26 -4 -47l-38 -214q-21 -116 -116 -189.5t-214 -73.5q-103 0 -176 51t-73 150q0 25 4 44
l40 229q21 116 116 189.5t214 73.5q103 0 175 -56.5t72 -156.5zM554 497q0 54 -40.5 83.5t-96.5 29.5q-67 0 -117 -38t-62 -103l-41 -228q-2 -18 -2 -25q0 -54 41 -83.5t97 -29.5q67 0 117 38t62 103l40 228q2 9 2 25z" />
    <glyph glyph-name="Odieresis" unicode="&#xd6;" horiz-adv-x="683" 
d="M611 910l-23 -131h-110l23 131h110zM411 910l-23 -131h-110l23 131h110zM684 512q0 -26 -4 -47l-38 -214q-21 -116 -116 -189.5t-214 -73.5q-103 0 -176 51t-73 150q0 25 4 44l40 229q21 116 116 189.5t214 73.5q103 0 175 -56.5t72 -156.5zM554 497q0 54 -40.5 83.5
t-96.5 29.5q-67 0 -117 -38t-62 -103l-41 -228q-2 -18 -2 -25q0 -54 41 -83.5t97 -29.5q67 0 117 38t62 103l40 228q2 9 2 25z" />
    <glyph glyph-name="multiply" unicode="&#xd7;" horiz-adv-x="535" 
d="M499 478l-182 -157l127 -159l-59 -51l-127 159l-183 -158l-40 49l183 158l-127 159l59 51l127 -159l183 157z" />
    <glyph glyph-name="Oslash" unicode="&#xd8;" horiz-adv-x="683" 
d="M200 181l307 404q-37 25 -90 25q-67 0 -117 -38t-62 -103l-41 -228q-2 -18 -2 -25q0 -18 5 -35zM551 527l-305 -402q39 -22 87 -22q67 0 117 38t62 103l40 228q2 9 2 25q0 17 -3 30zM693 715l-55 -72q46 -54 46 -131q0 -26 -4 -47l-38 -214q-21 -116 -116 -189.5
t-214 -73.5q-84 0 -145 32l-55 -72l-56 42l54 72q-47 50 -47 127q0 25 4 44l40 229q21 116 116 189.5t214 73.5q82 0 147 -37l53 69z" />
    <glyph glyph-name="Ugrave" unicode="&#xd9;" horiz-adv-x="692" 
d="M501 783h-85l-132 182h129zM720 713l-81 -457q-22 -125 -109.5 -196t-214.5 -71q-106 0 -172 48t-66 150q0 26 5 59l83 467h130l-80 -451q-4 -28 -4 -41q0 -58 33 -86.5t91 -28.5q148 0 175 156l80 451h130z" />
    <glyph glyph-name="Uacute" unicode="&#xda;" horiz-adv-x="692" 
d="M646 965l-164 -182h-86l121 182h129zM720 713l-81 -457q-22 -125 -109.5 -196t-214.5 -71q-106 0 -172 48t-66 150q0 26 5 59l83 467h130l-80 -451q-4 -28 -4 -41q0 -58 33 -86.5t91 -28.5q148 0 175 156l80 451h130z" />
    <glyph glyph-name="Ucircumflex" unicode="&#xdb;" horiz-adv-x="692" 
d="M593 770h-98l-30 100l-71 -100h-95l130 174h99zM720 713l-81 -457q-22 -125 -109.5 -196t-214.5 -71q-106 0 -172 48t-66 150q0 26 5 59l83 467h130l-80 -451q-4 -28 -4 -41q0 -58 33 -86.5t91 -28.5q148 0 175 156l80 451h130z" />
    <glyph glyph-name="Udieresis" unicode="&#xdc;" horiz-adv-x="692" 
d="M625 910l-23 -131h-110l23 131h110zM425 910l-24 -131h-110l24 131h110zM720 713l-81 -457q-22 -125 -109.5 -196t-214.5 -71q-106 0 -172 48t-66 150q0 26 5 59l83 467h130l-80 -451q-4 -28 -4 -41q0 -58 33 -86.5t91 -28.5q148 0 175 156l80 451h130z" />
    <glyph glyph-name="Yacute" unicode="&#xdd;" horiz-adv-x="608" 
d="M611 965l-164 -182h-85l120 182h129zM696 713l-315 -429l-50 -284h-126l51 286l-163 427h136l110 -302l215 302h142z" />
    <glyph glyph-name="Thorn" unicode="&#xde;" horiz-adv-x="630" 
d="M640 428q0 -25 -4 -45q-18 -105 -96 -166.5t-186 -61.5h-153l-27 -155h-130l125 713h130l-19 -110h153q90 0 148.5 -44t58.5 -131zM509 406q0 90 -119 90h-128l-42 -235h130q63 0 105 30t52 90q2 16 2 25z" />
    <glyph glyph-name="germandbls" unicode="&#xdf;" horiz-adv-x="628" 
d="M604 569q0 -62 -38 -113.5t-98 -74.5l-1 -6q56 -19 90 -60t34 -99q0 -99 -72 -163.5t-174 -64.5q-78 0 -123 20l18 98q47 -19 86 -19q58 0 97.5 32.5t39.5 88.5q0 52 -44.5 76.5t-100.5 24.5l15 87h28q1 0 5 2l9 4.5t6 3.5q42 23 69.5 59.5t27.5 79.5q0 49 -31 70t-77 21
q-50 0 -82 -33.5t-41 -86.5l-125 -705l-125 -11l124 700q20 110 91 168t177 58q88 0 151.5 -38t63.5 -119z" />
    <glyph glyph-name="agrave" unicode="&#xe0;" horiz-adv-x="570" 
d="M378 581h-85l-128 174h129zM560 513l-91 -513h-116l10 57h-3q-26 -28 -72.5 -48.5t-83.5 -20.5q-76 0 -122.5 41t-46.5 116q0 24 4 44q4 23 11.5 65t10.5 60q17 94 78.5 150.5t155.5 56.5q41 0 79 -16t55 -47h5l11 55h115zM408 337q0 41 -31.5 62.5t-73.5 21.5
q-48 0 -80 -27.5t-40 -75.5l-23 -128q-2 -12 -2 -19q0 -40 28 -60.5t69 -20.5q49 0 85 27.5t44 75.5l22 127q2 12 2 17z" />
    <glyph glyph-name="aacute" unicode="&#xe1;" horiz-adv-x="570" 
d="M500 755l-159 -174h-85l115 174h129zM560 513l-91 -513h-116l10 57h-3q-26 -28 -72.5 -48.5t-83.5 -20.5q-76 0 -122.5 41t-46.5 116q0 24 4 44q4 23 11.5 65t10.5 60q17 94 78.5 150.5t155.5 56.5q41 0 79 -16t55 -47h5l11 55h115zM408 337q0 41 -31.5 62.5t-73.5 21.5
q-48 0 -80 -27.5t-40 -75.5l-23 -128q-2 -12 -2 -19q0 -40 28 -60.5t69 -20.5q49 0 85 27.5t44 75.5l22 127q2 12 2 17z" />
    <glyph glyph-name="acircumflex" unicode="&#xe2;" horiz-adv-x="570" 
d="M453 581h-91l-30 100l-72 -100h-95l131 174h98zM560 513l-91 -513h-116l10 57h-3q-26 -28 -72.5 -48.5t-83.5 -20.5q-76 0 -122.5 41t-46.5 116q0 24 4 44q4 23 11.5 65t10.5 60q17 94 78.5 150.5t155.5 56.5q41 0 79 -16t55 -47h5l11 55h115zM408 337q0 41 -31.5 62.5
t-73.5 21.5q-48 0 -80 -27.5t-40 -75.5l-23 -128q-2 -12 -2 -19q0 -40 28 -60.5t69 -20.5q49 0 85 27.5t44 75.5l22 127q2 12 2 17z" />
    <glyph glyph-name="atilde" unicode="&#xe3;" horiz-adv-x="570" 
d="M534 715q-41 -123 -125 -123q-28 0 -80 15.5t-81 15.5q-27 0 -42 -22q-2 -4 -12 -22l-59 12q46 124 131 124q28 0 79.5 -15.5t78.5 -15.5q22 0 39 21q11 16 15 24zM560 513l-91 -513h-116l10 57h-3q-26 -28 -72.5 -48.5t-83.5 -20.5q-76 0 -122.5 41t-46.5 116q0 24 4 44
q4 23 11.5 65t10.5 60q17 94 78.5 150.5t155.5 56.5q41 0 79 -16t55 -47h5l11 55h115zM408 337q0 41 -31.5 62.5t-73.5 21.5q-48 0 -80 -27.5t-40 -75.5l-23 -128q-2 -12 -2 -19q0 -40 28 -60.5t69 -20.5q49 0 85 27.5t44 75.5l22 127q2 12 2 17z" />
    <glyph glyph-name="adieresis" unicode="&#xe4;" horiz-adv-x="570" 
d="M511 718l-24 -132h-110l24 132h110zM310 718l-23 -132h-110l23 132h110zM560 513l-91 -513h-116l10 57h-3q-26 -28 -72.5 -48.5t-83.5 -20.5q-76 0 -122.5 41t-46.5 116q0 24 4 44q4 23 11.5 65t10.5 60q17 94 78.5 150.5t155.5 56.5q41 0 79 -16t55 -47h5l11 55h115z
M408 337q0 41 -31.5 62.5t-73.5 21.5q-48 0 -80 -27.5t-40 -75.5l-23 -128q-2 -12 -2 -19q0 -40 28 -60.5t69 -20.5q49 0 85 27.5t44 75.5l22 127q2 12 2 17z" />
    <glyph glyph-name="aring" unicode="&#xe5;" horiz-adv-x="570" 
d="M451 696q0 -49 -39 -84.5t-89 -35.5q-39 0 -65 20t-26 58q0 48 38.5 84t87.5 36q40 0 66.5 -20t26.5 -58zM560 513l-91 -513h-116l10 57h-3q-26 -28 -72.5 -48.5t-83.5 -20.5q-76 0 -122.5 41t-46.5 116q0 24 4 44q4 23 11.5 65t10.5 60q17 94 78.5 150.5t155.5 56.5
q41 0 79 -16t55 -47h5l11 55h115zM388 684q0 38 -39 38q-22 0 -38.5 -16.5t-16.5 -39.5q0 -17 11 -28t27 -11q23 0 39.5 17t16.5 40zM408 337q0 41 -31.5 62.5t-73.5 21.5q-48 0 -80 -27.5t-40 -75.5l-23 -128q-2 -12 -2 -19q0 -40 28 -60.5t69 -20.5q49 0 85 27.5t44 75.5
l22 127q2 12 2 17z" />
    <glyph glyph-name="ae" unicode="&#xe6;" horiz-adv-x="857" 
d="M835 360q0 -18 -3.5 -41t-9.5 -55.5t-8 -41.5h-329q-7 -37 -7 -49q0 -42 29.5 -63.5t72.5 -21.5q33 0 66 19t57 47l90 -44q-91 -122 -236 -122q-61 0 -111 22.5t-75 70.5q-73 -91 -199 -91q-65 0 -108.5 30.5t-43.5 92.5q0 84 66 136.5t152 52.5h138q1 7 3.5 20.5t4.5 25
t2 21.5q0 60 -87 60q-92 0 -103 -52q0 -3 -1 -8.5t-2 -8.5h-107l2 13q9 52 45.5 87t82.5 48.5t100 13.5q118 0 166 -53q73 52 165 52q80 0 134 -41.5t54 -119.5zM714 343q0 38 -23.5 57.5t-61.5 19.5q-54 0 -87.5 -30.5t-42.5 -84.5h210q5 33 5 38zM360 215h-121
q-43 0 -71.5 -18.5t-28.5 -58.5q0 -54 83 -54q60 0 92 24t42 81z" />
    <glyph glyph-name="ccedilla" unicode="&#xe7;" horiz-adv-x="524" 
d="M510 359q0 -20 -5 -47h-116q3 15 3 29q0 38 -26 58.5t-65 20.5q-98 0 -121 -107q-6 -24 -12.5 -73t-6.5 -69q0 -41 29 -62t72 -21q69 0 127 65l96 -47q-78 -104 -214 -117l-16 -40q20 0 32 -1t30 -5t27 -15.5t9 -29.5q0 -48 -45 -71.5t-97 -23.5q-49 0 -101 18l8 45
q52 -16 96 -16q60 0 60 35q0 20 -39 23l-51 1l34 80q-78 7 -131 49.5t-53 118.5q0 53 19 140q21 103 91.5 163.5t174.5 60.5q80 0 135.5 -42t55.5 -120z" />
    <glyph glyph-name="egrave" unicode="&#xe8;" horiz-adv-x="540" 
d="M378 581h-85l-128 174h129zM516 360q0 -18 -3.5 -41t-9.5 -55.5t-8 -41.5h-329q-7 -37 -7 -49q0 -42 30 -63.5t73 -21.5q33 0 66 19t57 47l90 -44q-43 -58 -104.5 -90t-132.5 -32q-86 0 -145 42.5t-59 125.5q0 18 3 41t10 58t8 42q19 101 94.5 162.5t178.5 61.5
q80 0 134 -41.5t54 -119.5zM396 343q0 38 -23.5 57.5t-61.5 19.5q-54 0 -88 -31t-42 -84h210q5 33 5 38z" />
    <glyph glyph-name="eacute" unicode="&#xe9;" horiz-adv-x="540" 
d="M518 755l-159 -174h-85l115 174h129zM516 360q0 -18 -3.5 -41t-9.5 -55.5t-8 -41.5h-329q-7 -37 -7 -49q0 -42 30 -63.5t73 -21.5q33 0 66 19t57 47l90 -44q-43 -58 -104.5 -90t-132.5 -32q-86 0 -145 42.5t-59 125.5q0 18 3 41t10 58t8 42q19 101 94.5 162.5t178.5 61.5
q80 0 134 -41.5t54 -119.5zM396 343q0 38 -23.5 57.5t-61.5 19.5q-54 0 -88 -31t-42 -84h210q5 33 5 38z" />
    <glyph glyph-name="ecircumflex" unicode="&#xea;" horiz-adv-x="540" 
d="M467 581h-91l-30 100l-72 -100h-95l131 174h98zM516 360q0 -18 -3.5 -41t-9.5 -55.5t-8 -41.5h-329q-7 -37 -7 -49q0 -42 30 -63.5t73 -21.5q33 0 66 19t57 47l90 -44q-43 -58 -104.5 -90t-132.5 -32q-86 0 -145 42.5t-59 125.5q0 18 3 41t10 58t8 42q19 101 94.5 162.5
t178.5 61.5q80 0 134 -41.5t54 -119.5zM396 343q0 38 -23.5 57.5t-61.5 19.5q-54 0 -88 -31t-42 -84h210q5 33 5 38z" />
    <glyph glyph-name="edieresis" unicode="&#xeb;" horiz-adv-x="540" 
d="M511 718l-24 -132h-110l24 132h110zM310 718l-23 -132h-110l23 132h110zM516 360q0 -18 -3.5 -41t-9.5 -55.5t-8 -41.5h-329q-7 -37 -7 -49q0 -42 30 -63.5t73 -21.5q33 0 66 19t57 47l90 -44q-43 -58 -104.5 -90t-132.5 -32q-86 0 -145 42.5t-59 125.5q0 18 3 41t10 58
t8 42q19 101 94.5 162.5t178.5 61.5q80 0 134 -41.5t54 -119.5zM396 343q0 38 -23.5 57.5t-61.5 19.5q-54 0 -88 -31t-42 -84h210q5 33 5 38z" />
    <glyph glyph-name="igrave" unicode="&#xec;" horiz-adv-x="254" 
d="M226 581h-85l-129 174h129zM239 511l-90 -511h-119l90 511h119z" />
    <glyph glyph-name="iacute" unicode="&#xed;" horiz-adv-x="254" 
d="M390 755l-159 -174h-85l115 174h129zM239 511l-90 -511h-119l90 511h119z" />
    <glyph glyph-name="icircumflex" unicode="&#xee;" horiz-adv-x="254" 
d="M330 581h-91l-30 100l-72 -100h-95l131 174h98zM239 511l-90 -511h-119l90 511h119z" />
    <glyph glyph-name="idieresis" unicode="&#xef;" horiz-adv-x="254" 
d="M371 718l-23 -132h-110l23 132h110zM171 718l-24 -132h-110l24 132h110zM239 511l-90 -511h-119l90 511h119z" />
    <glyph glyph-name="eth" unicode="&#xf0;" horiz-adv-x="550" 
d="M524 359q0 -20 -5 -47q-4 -29 -19 -111q-17 -97 -92 -155t-175 -58q-86 0 -142 40t-56 122q0 24 4 43q1 5 9.5 56t10.5 60q16 91 87.5 151t160.5 60q5 0 15 -0.5t14 -0.5l-24 62l-91 -23l-25 75l87 21l-28 61l121 20l23 -54l93 23l25 -75l-86 -22l78 -189q15 -36 15 -59z
M401 345q0 39 -25.5 58.5t-66.5 19.5q-51 0 -85 -28.5t-42 -77.5l-22 -124q-2 -9 -2 -27q0 -39 26 -58.5t68 -19.5q50 0 83 28.5t42 77.5l22 126q2 16 2 25z" />
    <glyph glyph-name="ntilde" unicode="&#xf1;" horiz-adv-x="571" 
d="M560 715q-41 -123 -125 -123q-28 0 -80 15.5t-81 15.5q-28 0 -41 -22q-5 -7 -13 -22l-58 12q44 124 131 124q27 0 78 -15.5t79 -15.5q23 0 39 21l15 24zM538 389q0 -16 -8 -61l-58 -328h-119l52 297q6 36 6 47q0 33 -21 53t-60 20q-107 0 -130 -130l-51 -287h-119l90 512
h116l-11 -63h4q63 73 158 73q67 0 109 -38.5t42 -94.5z" />
    <glyph glyph-name="ograve" unicode="&#xf2;" horiz-adv-x="550" 
d="M378 581h-85l-128 174h129zM525 346q0 -21 -4 -38l-18 -105q-17 -94 -94 -154.5t-173 -60.5q-84 0 -143 42t-59 122q0 18 3 37l21 117q17 94 94 154.5t173 60.5q84 0 142 -47t58 -128zM404 339q0 40 -27.5 60t-68.5 20q-50 0 -84.5 -27.5t-42.5 -75.5l-22 -126
q-2 -7 -2 -20q0 -40 27.5 -60.5t68.5 -20.5q50 0 84.5 27.5t42.5 75.5l22 127q2 7 2 20z" />
    <glyph glyph-name="oacute" unicode="&#xf3;" horiz-adv-x="550" 
d="M518 755l-159 -174h-85l115 174h129zM525 346q0 -21 -4 -38l-18 -105q-17 -94 -94 -154.5t-173 -60.5q-84 0 -143 42t-59 122q0 18 3 37l21 117q17 94 94 154.5t173 60.5q84 0 142 -47t58 -128zM404 339q0 40 -27.5 60t-68.5 20q-50 0 -84.5 -27.5t-42.5 -75.5l-22 -126
q-2 -7 -2 -20q0 -40 27.5 -60.5t68.5 -20.5q50 0 84.5 27.5t42.5 75.5l22 127q2 7 2 20z" />
    <glyph glyph-name="ocircumflex" unicode="&#xf4;" horiz-adv-x="550" 
d="M467 581h-91l-30 100l-72 -100h-95l131 174h98zM525 346q0 -21 -4 -38l-18 -105q-17 -94 -94 -154.5t-173 -60.5q-84 0 -143 42t-59 122q0 18 3 37l21 117q17 94 94 154.5t173 60.5q84 0 142 -47t58 -128zM404 339q0 40 -27.5 60t-68.5 20q-50 0 -84.5 -27.5t-42.5 -75.5
l-22 -126q-2 -7 -2 -20q0 -40 27.5 -60.5t68.5 -20.5q50 0 84.5 27.5t42.5 75.5l22 127q2 7 2 20z" />
    <glyph glyph-name="otilde" unicode="&#xf5;" horiz-adv-x="550" 
d="M534 715q-41 -123 -125 -123q-28 0 -80 15.5t-81 15.5q-27 0 -42 -22q-2 -4 -12 -22l-59 12q46 124 131 124q28 0 79.5 -15.5t78.5 -15.5q22 0 39 21q11 16 15 24zM525 346q0 -21 -4 -38l-18 -105q-17 -94 -94 -154.5t-173 -60.5q-84 0 -143 42t-59 122q0 18 3 37l21 117
q17 94 94 154.5t173 60.5q84 0 142 -47t58 -128zM404 339q0 40 -27.5 60t-68.5 20q-50 0 -84.5 -27.5t-42.5 -75.5l-22 -126q-2 -7 -2 -20q0 -40 27.5 -60.5t68.5 -20.5q50 0 84.5 27.5t42.5 75.5l22 127q2 7 2 20z" />
    <glyph glyph-name="odieresis" unicode="&#xf6;" horiz-adv-x="550" 
d="M511 718l-24 -132h-110l24 132h110zM310 718l-23 -132h-110l23 132h110zM525 346q0 -21 -4 -38l-18 -105q-17 -94 -94 -154.5t-173 -60.5q-84 0 -143 42t-59 122q0 18 3 37l21 117q17 94 94 154.5t173 60.5q84 0 142 -47t58 -128zM404 339q0 40 -27.5 60t-68.5 20
q-50 0 -84.5 -27.5t-42.5 -75.5l-22 -126q-2 -7 -2 -20q0 -40 27.5 -60.5t68.5 -20.5q50 0 84.5 27.5t42.5 75.5l22 127q2 7 2 20z" />
    <glyph glyph-name="divide" unicode="&#xf7;" horiz-adv-x="599" 
d="M391 539l-19 -109h-106l19 109h106zM535 352l-12 -70h-460l12 70h460zM333 207l-19 -108h-106l19 108h106z" />
    <glyph glyph-name="oslash" unicode="&#xf8;" horiz-adv-x="550" 
d="M545 529l-59 -73q39 -48 39 -111q0 -11 -4 -37l-18 -105q-17 -94 -94 -154.5t-174 -60.5q-63 0 -111 24l-52 -65l-57 30l58 71q-39 42 -39 104q0 18 3 37l21 117q17 94 94 154.5t173 60.5q64 0 112 -27l53 65zM365 406q-23 13 -58 13q-49 0 -83.5 -27.5t-42.5 -75.5
l-23 -126q-1 -7 -1 -19t1 -18zM404 341v13l-207 -252q22 -13 56 -13q49 0 83.5 27.5t43.5 75.5l22 127q2 16 2 22z" />
    <glyph glyph-name="ugrave" unicode="&#xf9;" horiz-adv-x="565" 
d="M398 581h-85l-129 174h129zM561 512l-91 -512h-115l11 63h-5q-63 -73 -156 -73q-71 0 -110 37t-39 107q0 23 5 51l58 327h119l-53 -297q-4 -24 -4 -46q0 -74 80 -74q106 0 130 131l51 286h119z" />
    <glyph glyph-name="uacute" unicode="&#xfa;" horiz-adv-x="565" 
d="M545 755l-159 -174h-85l115 174h129zM561 512l-91 -512h-115l11 63h-5q-63 -73 -156 -73q-71 0 -110 37t-39 107q0 23 5 51l58 327h119l-53 -297q-4 -24 -4 -46q0 -74 80 -74q106 0 130 131l51 286h119z" />
    <glyph glyph-name="ucircumflex" unicode="&#xfb;" horiz-adv-x="565" 
d="M500 581h-91l-30 100l-72 -100h-95l131 174h98zM561 512l-91 -512h-115l11 63h-5q-63 -73 -156 -73q-71 0 -110 37t-39 107q0 23 5 51l58 327h119l-53 -297q-4 -24 -4 -46q0 -74 80 -74q106 0 130 131l51 286h119z" />
    <glyph glyph-name="udieresis" unicode="&#xfc;" horiz-adv-x="565" 
d="M531 718l-23 -132h-110l23 132h110zM331 718l-24 -132h-110l24 132h110zM561 512l-91 -512h-115l11 63h-5q-63 -73 -156 -73q-71 0 -110 37t-39 107q0 23 5 51l58 327h119l-53 -297q-4 -24 -4 -46q0 -74 80 -74q106 0 130 131l51 286h119z" />
    <glyph glyph-name="yacute" unicode="&#xfd;" horiz-adv-x="565" 
d="M545 755l-159 -174h-85l115 174h129zM555 512l-87 -490q-19 -108 -94.5 -166.5t-187.5 -58.5q-41 0 -79.5 12t-69 40.5t-36.5 69.5l109 31q22 -58 103 -58q56 0 92 32.5t46 88.5l11 63h-5q-60 -69 -150 -69q-69 0 -109.5 39.5t-40.5 103.5q0 16 5 44l51 318h119l-51 -289
q-4 -24 -4 -46q0 -74 80 -74q57 0 89 36t42 95l48 278h119z" />
    <glyph glyph-name="thorn" unicode="&#xfe;" horiz-adv-x="574" 
d="M555 375q0 -17 -4 -36q-26 -150 -27 -158q-16 -88 -83 -140t-156 -52q-37 0 -71 16t-50 46h-5l-44 -246h-121l162 908h120l-47 -265h4q55 73 155 73q71 0 119 -39.5t48 -106.5zM430 347q0 37 -27.5 55t-68.5 18q-50 0 -85.5 -29.5t-43.5 -77.5l-21 -126q-2 -6 -2 -20
q0 -39 31.5 -59t73.5 -20q100 0 118 107q21 109 23 131q2 14 2 21z" />
    <glyph glyph-name="ydieresis" unicode="&#xff;" horiz-adv-x="565" 
d="M521 709l-20 -112h-94l20 112h94zM320 709l-20 -112h-93l20 112h93zM555 512l-87 -490q-19 -108 -94.5 -166.5t-187.5 -58.5q-41 0 -79.5 12t-69 40.5t-36.5 69.5l109 31q22 -58 103 -58q56 0 92 32.5t46 88.5l11 63h-5q-60 -69 -150 -69q-69 0 -109.5 39.5t-40.5 103.5
q0 16 5 44l51 318h119l-51 -289q-4 -24 -4 -46q0 -74 80 -74q57 0 89 36t42 95l48 278h119z" />
    <glyph glyph-name="dotlessi" unicode="&#x131;" horiz-adv-x="254" 
d="M239 511l-90 -511h-119l90 511h119z" />
    <glyph glyph-name="Lslash" unicode="&#x141;" horiz-adv-x="578" 
d="M541 114l-20 -114h-477l51 291l-73 -32l16 103l76 33l56 318h130l-46 -257l110 47l-16 -103l-112 -48l-42 -238h347z" />
    <glyph glyph-name="lslash" unicode="&#x142;" horiz-adv-x="308" 
d="M317 490l-16 -100l-87 -36l-39 -217q0 -1 -0.5 -8t-0.5 -9q0 -27 32 -27q11 0 34.5 2t27.5 2l-16 -90q-54 -14 -93 -14q-54 0 -81 26.5t-27 70.5q0 19 5 46l29 165l-60 -25l16 100l62 26l55 311h119l-46 -258z" />
    <glyph glyph-name="OE" unicode="&#x152;" horiz-adv-x="1050" 
d="M1087 713l-20 -115h-362l-32 -177h321l-20 -115h-321l-34 -191h366l-20 -115h-494l5 29q-80 -41 -173 -41q-102 0 -171 49.5t-69 147.5q0 18 4 48l41 229q20 115 111 189t209 74q98 0 164 -41l5 29h490zM555 497q0 54 -41 83.5t-97 29.5q-67 0 -117 -38t-62 -103
l-40 -228q-3 -13 -3 -25q0 -54 41 -83.5t97 -29.5q67 0 117 38t62 103l41 228q2 18 2 25z" />
    <glyph glyph-name="oe" unicode="&#x153;" horiz-adv-x="882" 
d="M859 360q0 -18 -3.5 -41t-9.5 -55.5t-8 -41.5h-329q-7 -37 -7 -49q0 -42 30 -63.5t73 -21.5q33 0 66 19t57 47l90 -44q-43 -58 -104.5 -90t-131.5 -32q-112 0 -168 64q-80 -64 -178 -64q-84 0 -143 42t-59 122q0 18 3 37l21 117q17 94 94 154.5t173 60.5q105 0 162 -66
q78 66 184 66q80 0 134 -41.5t54 -119.5zM739 343q0 38 -23.5 57.5t-61.5 19.5q-54 0 -88 -31t-42 -84h210q5 33 5 38zM404 339q0 40 -27.5 60t-68.5 20q-50 0 -84.5 -27.5t-42.5 -75.5l-22 -126q-2 -7 -2 -20q0 -40 27.5 -60.5t68.5 -20.5q52 0 85.5 28.5t42.5 79.5l21 122
q2 7 2 20z" />
    <glyph glyph-name="Scaron" unicode="&#x160;" horiz-adv-x="623" 
d="M580 951l-131 -174h-98l-60 174h92l30 -100l72 100h95zM634 575l-105 -43q-21 41 -61.5 62.5t-88.5 21.5q-55 0 -94.5 -21.5t-39.5 -69.5q0 -18 9 -33t31 -28.5t39 -21.5t52 -22t52 -22q27 -12 43.5 -20.5t40.5 -24.5t37.5 -32.5t24 -41.5t10.5 -54q0 -61 -24.5 -108.5
t-66 -74t-89.5 -40t-101 -13.5q-218 0 -287 165l119 55q21 -53 71 -80.5t109 -27.5q32 0 61 7t53 27.5t24 51.5q0 43 -38.5 70.5t-112.5 56.5q-42 16 -68.5 29.5t-57.5 36t-46.5 54t-15.5 71.5q0 105 75 162.5t191 57.5q40 0 76.5 -7.5t72 -23.5t63.5 -46.5t42 -72.5z" />
    <glyph glyph-name="scaron" unicode="&#x161;" horiz-adv-x="507" 
d="M482 762l-130 -174h-99l-58 174h91l30 -100l72 100h94zM491 444l-84 -65q-47 52 -114 52q-36 0 -66 -16t-30 -49q0 -21 27 -34t65.5 -23t76.5 -23.5t65 -43t27 -73.5q0 -49 -20 -85t-54 -56t-73 -29.5t-84 -9.5q-69 0 -127.5 24t-86.5 79l87 59q19 -33 55 -50t77 -17
q110 0 110 64q0 25 -26.5 40t-64 24.5t-74.5 22.5t-63.5 43t-26.5 76q0 80 62 124.5t153 44.5q124 0 189 -79z" />
    <glyph glyph-name="Ydieresis" unicode="&#x178;" horiz-adv-x="608" 
d="M557 896l-20 -112h-93l20 112h93zM357 896l-20 -112h-93l20 112h93zM696 713l-315 -429l-50 -284h-126l51 286l-163 427h136l110 -302l215 302h142z" />
    <glyph glyph-name="Zcaron" unicode="&#x17d;" horiz-adv-x="597" 
d="M599 951l-131 -174h-98l-60 174h92l30 -100l72 100h95zM651 713l-18 -100l-443 -499h360l-20 -114h-526l19 105l441 497h-332l20 111h499z" />
    <glyph glyph-name="zcaron" unicode="&#x17e;" horiz-adv-x="482" 
d="M482 762l-130 -174h-99l-58 174h91l30 -100l72 100h94zM488 512l-16 -93l-305 -319h258l-18 -100h-414l16 93l302 323h-237l17 96h397z" />
    <glyph glyph-name="florin" unicode="&#x192;" horiz-adv-x="343" 
d="M399 720l-18 -99q-24 3 -44 3q-43 0 -51 -41l-33 -187h88l-13 -78h-88l-90 -511h-118l90 511h-85l13 78h85l33 183q26 146 172 146q9 0 59 -5z" />
    <glyph glyph-name="circumflex" unicode="&#x2c6;" horiz-adv-x="384" 
d="M400 581h-91l-30 100l-72 -100h-95l131 174h98z" />
    <glyph glyph-name="caron" unicode="&#x2c7;" horiz-adv-x="384" 
d="M442 762l-130 -174h-99l-58 174h91l30 -100l72 100h94z" />
    <glyph glyph-name="breve" unicode="&#x2d8;" horiz-adv-x="401" 
d="M455 742q-13 -75 -69 -116.5t-118 -41.5q-67 0 -105.5 43.5t-26.5 114.5h76q-3 -84 74 -84q30 0 57.5 22.5t36.5 61.5h75z" />
    <glyph glyph-name="dotaccent" unicode="&#x2d9;" horiz-adv-x="255" 
d="M274 730l-23 -133h-124l23 133h124z" />
    <glyph glyph-name="ring" unicode="&#x2da;" horiz-adv-x="331" 
d="M312 696q0 -49 -39 -84.5t-88 -35.5q-39 0 -65 20t-26 58q0 48 38.5 84t86.5 36q40 0 66.5 -20t26.5 -58zM250 684q0 38 -40 38q-22 0 -38 -16.5t-16 -39.5q0 -17 11 -28t27 -11q22 0 39 17t17 40z" />
    <glyph glyph-name="ogonek" unicode="&#x2db;" horiz-adv-x="400" 
d="M249 1q-23 -11 -37.5 -18.5t-35.5 -22.5t-32 -33t-11 -38q0 -38 46 -38q18 0 50 6l-8 -44q-51 -11 -77 -11q-39 0 -68.5 14.5t-29.5 48.5q0 36 28.5 68.5t61.5 51t70 30.5z" />
    <glyph glyph-name="tilde" unicode="&#x2dc;" horiz-adv-x="508" 
d="M524 715q-39 -123 -125 -123q-28 0 -80 15.5t-80 15.5q-27 0 -42 -22q-2 -3 -6 -11t-6 -11l-59 12q44 124 131 124q28 0 79 -15.5t79 -15.5q23 0 38 21q6 7 15 24z" />
    <glyph glyph-name="hungarumlaut" unicode="&#x2dd;" horiz-adv-x="497" 
d="M556 755l-160 -174h-85l116 174h129zM367 755l-159 -174h-85l115 174h129z" />
    <glyph glyph-name="Delta" unicode="&#x394;" 
 />
    <glyph glyph-name="Omega" unicode="&#x3a9;" 
 />
    <glyph glyph-name="mu" unicode="&#x3bc;" 
 />
    <glyph glyph-name="pi" unicode="&#x3c0;" 
 />
    <glyph glyph-name="endash" unicode="&#x2013;" horiz-adv-x="590" 
d="M565 323l-13 -77h-527l13 77h527z" />
    <glyph glyph-name="emdash" unicode="&#x2014;" horiz-adv-x="948" 
d="M923 323l-13 -77h-885l13 77h885z" />
    <glyph glyph-name="quoteleft" unicode="&#x2018;" horiz-adv-x="265" 
d="M205 718l-51 -120h44l-26 -145h-128l25 141l74 124h62z" />
    <glyph glyph-name="quoteright" unicode="&#x2019;" horiz-adv-x="265" 
d="M221 718l-25 -141l-73 -124h-62l51 120h-45l26 145h128z" />
    <glyph glyph-name="quotesinglbase" unicode="&#x201a;" horiz-adv-x="267" 
d="M193 148l-25 -141l-74 -124h-61l51 121h-44l25 144h128z" />
    <glyph glyph-name="quotedblleft" unicode="&#x201c;" horiz-adv-x="458" 
d="M397 718l-51 -120h44l-26 -145h-128l25 141l74 124h62zM205 718l-51 -120h44l-26 -145h-128l25 141l74 124h62z" />
    <glyph glyph-name="quotedblright" unicode="&#x201d;" horiz-adv-x="458" 
d="M413 718l-25 -141l-73 -124h-62l51 120h-45l26 145h128zM221 718l-25 -141l-73 -124h-62l51 120h-45l26 145h128z" />
    <glyph glyph-name="quotedblbase" unicode="&#x201e;" horiz-adv-x="457" 
d="M386 148l-25 -141l-74 -124h-62l52 121h-45l26 144h128zM194 148l-25 -141l-74 -124h-62l52 121h-45l26 144h128z" />
    <glyph glyph-name="dagger" unicode="&#x2020;" horiz-adv-x="558" 
d="M542 546l-13 -74h-175l-110 -625h-83l110 625h-175l13 74h175l30 169h83l-30 -169h175z" />
    <glyph glyph-name="daggerdbl" unicode="&#x2021;" horiz-adv-x="558" 
d="M555 546l-13 -74h-174l-66 -375h174l-13 -74h-174l-31 -175h-83l30 175h-174l13 74h174l67 375h-175l13 74h175l30 170h83l-30 -170h174z" />
    <glyph glyph-name="bullet" unicode="&#x2022;" horiz-adv-x="402" 
d="M323 380q0 -41 -32 -73.5t-72 -32.5q-32 0 -53 21t-21 53q0 41 32 73t73 32q32 0 52.5 -20.5t20.5 -52.5z" />
    <glyph glyph-name="ellipsis" unicode="&#x2026;" horiz-adv-x="731" 
d="M663 149l-27 -149h-128l27 149h128zM443 149l-27 -149h-128l27 149h128zM223 149l-27 -149h-128l27 149h128z" />
    <glyph glyph-name="perthousand" unicode="&#x2030;" horiz-adv-x="1149" 
d="M1108 279q0 -18 -2 -27l-25 -140q-10 -58 -57 -90.5t-108 -32.5q-52 0 -87.5 24t-35.5 74q0 9 2 25l25 141q11 61 56 93t108 32q53 0 88.5 -24.5t35.5 -74.5zM766 279q0 -18 -2 -27l-25 -140q-10 -58 -57 -90.5t-109 -32.5q-52 0 -87 23.5t-35 73.5q0 10 2 26l25 141
q11 60 55.5 92.5t107.5 32.5q54 0 89.5 -24t35.5 -75zM417 625q0 -13 -3 -27l-25 -140q-10 -58 -57 -90t-108 -32q-52 0 -87 23.5t-35 73.5q0 17 2 26l25 140q11 60 56 93t108 33q53 0 88.5 -24.5t35.5 -75.5zM1023 270q0 42 -50 42q-59 0 -68 -54l-26 -147q-1 -5 -1 -15
q0 -40 49 -40q27 0 46 14.5t23 41.5l26 146q1 4 1 12zM681 270q0 42 -50 42q-59 0 -68 -54l-26 -147q-1 -5 -1 -15q0 -40 49 -40q27 0 46 14.5t23 41.5l26 146q1 4 1 12zM332 617q0 43 -50 43q-59 0 -68 -55l-26 -147q-1 -5 -1 -14q0 -40 49 -40q27 0 46 14t23 40l26 147
q1 4 1 12zM732 722l-520 -734h-82l521 734h81z" />
    <glyph glyph-name="guilsinglleft" unicode="&#x2039;" horiz-adv-x="336" 
d="M334 416l-172 -150l121 -150l-68 -51l-171 201l242 204z" />
    <glyph glyph-name="guilsinglright" unicode="&#x203a;" horiz-adv-x="336" 
d="M301 267l-242 -202l-49 53l174 149l-121 150l67 53z" />
    <glyph glyph-name="fraction" unicode="&#x2044;" horiz-adv-x="561" 
d="M638 727l-577 -764h-88l578 764h87z" />
    <glyph glyph-name="Euro" unicode="&#x20ac;" horiz-adv-x="726" 
d="M727 535q0 -23 -8 -65h-123q4 22 4 34q0 51 -37 78.5t-90 27.5q-64 0 -102.5 -38t-50.5 -104h199l-12 -67h-199l-16 -92h199l-12 -67h-199q-3 -18 -3 -36q0 -51 30 -77t82 -26q65 0 111.5 38t55.5 102h123l-3 -21q-20 -109 -106.5 -171.5t-200.5 -62.5q-99 0 -161.5 48
t-62.5 144q0 32 6 62h-99l12 67h99l16 92h-99l12 67h99q23 119 103 188t200 69q96 0 164.5 -49t68.5 -141z" />
    <glyph glyph-name="trademark" unicode="&#x2122;" horiz-adv-x="661" 
d="M686 720l-55 -311h-63l36 205l-81 -148h-46l-29 147l-36 -204h-63l55 311h85l30 -151l83 151h84zM362 720l-10 -60h-81l-44 -251h-69l44 251h-82l11 60h231z" />
    <glyph glyph-name="partialdiff" unicode="&#x2202;" 
 />
    <glyph glyph-name="product" unicode="&#x220f;" 
 />
    <glyph glyph-name="summation" unicode="&#x2211;" 
 />
    <glyph glyph-name="minus" unicode="&#x2212;" horiz-adv-x="599" 
d="M527 352l-13 -71h-404l13 71h404z" />
    <glyph glyph-name="radical" unicode="&#x221a;" 
 />
    <glyph glyph-name="infinity" unicode="&#x221e;" 
 />
    <glyph glyph-name="integral" unicode="&#x222b;" 
 />
    <glyph glyph-name="approxequal" unicode="&#x2248;" 
 />
    <glyph glyph-name="notequal" unicode="&#x2260;" 
 />
    <glyph glyph-name="lessequal" unicode="&#x2264;" 
 />
    <glyph glyph-name="greaterequal" unicode="&#x2265;" 
 />
    <glyph glyph-name="lozenge" unicode="&#x25ca;" 
 />
    <glyph glyph-name="fi" unicode="&#xfb01;" horiz-adv-x="584" 
d="M605 713l-19 -106h-119l19 106h119zM569 511l-90 -511h-119l90 511h119zM392 720l-18 -99q-24 3 -44 3q-43 0 -51 -41l-12 -72h88l-17 -92h-88l-108 -606l-118 -13l108 619h-73l17 92h73l12 68q26 146 172 146q9 0 59 -5z" />
    <glyph glyph-name="fl" unicode="&#xfb02;" horiz-adv-x="636" 
d="M605 713l-102 -576q0 -1 -0.5 -8t-0.5 -9q0 -27 32 -27q11 0 34.5 2t27.5 2l-16 -90q-54 -14 -93 -14q-54 0 -81 26.5t-27 70.5q0 19 5 46l102 577h119zM392 720l-18 -99q-24 3 -44 3q-43 0 -51 -41l-12 -72h88l-17 -92h-88l-108 -606l-118 -13l108 619h-73l17 92h73
l12 68q26 146 172 146q9 0 59 -5z" />
    <glyph glyph-name="apple" horiz-adv-x="599" 
d="M527 352l-13 -71h-404l13 71h404z" />
    <glyph glyph-name="_259" 
 />
    </font>
</defs>
</svg>
