<?xml version="1.0" standalone="no"?>
<!DOCTYPE svg PUBLIC "-//W3C//DTD SVG 1.1//EN" "http://www.w3.org/Graphics/SVG/1.1/DTD/svg11.dtd" >
<svg>
<metadata>
Created by FontForge 20120731 at Wed Jun 24 20:36:15 2015
 By ,,,
Copyright (c) Feliciano Type Foundry, 2004. All rights reserved.
</metadata>
<defs>
<font id="FlamaBlack-Italic" horiz-adv-x="500" >
  <font-face 
    font-family="FlamaBlack-Italic"
    font-weight="900"
    font-style="italic"
    font-stretch="normal"
    units-per-em="1000"
    panose-1="2 0 10 3 0 0 0 0 0 0"
    ascent="800"
    descent="-200"
    x-height="539"
    cap-height="713"
    bbox="-68 -200 1297 977"
    underline-thickness="20"
    underline-position="-100"
    slope="-12"
    unicode-range="U+0020-FFFD"
  />
<missing-glyph horiz-adv-x="1000" 
 />
    <glyph glyph-name=".notdef" unicode="&#xfffd;" horiz-adv-x="1000" 
 />
    <glyph glyph-name=".null" horiz-adv-x="0" 
 />
    <glyph glyph-name="nonmarkingreturn" horiz-adv-x="333" 
 />
    <glyph glyph-name="space" unicode=" " horiz-adv-x="210" 
 />
    <glyph glyph-name="exclam" unicode="!" horiz-adv-x="322" 
d="M356 713l-45 -256l-86 -215h-117l-9 215l45 256h212zM259 191l-34 -191h-202l34 191h202z" />
    <glyph glyph-name="quotedbl" unicode="&#x22;" horiz-adv-x="518" 
d="M547 725l-26 -152l-57 -183h-111l9 183l26 152h159zM320 725l-26 -152l-57 -183h-111l9 183l26 152h159z" />
    <glyph glyph-name="numbersign" unicode="#" horiz-adv-x="637" 
d="M622 469l-16 -91h-107l-29 -155h111l-16 -93h-113l-26 -140h-90l25 140h-111l-28 -140h-90l28 140h-111l20 93h107l30 155h-115l20 91h110l24 129h91l-22 -129h111l24 129h90l-24 -129h107zM408 378h-112l-28 -155h110z" />
    <glyph glyph-name="dollar" unicode="$" horiz-adv-x="643" 
d="M613 603l-113 -128q-25 22 -60.5 37t-63.5 15q-74 0 -74 -35q0 -14 21.5 -24.5t53.5 -18.5t69 -22.5t69 -34t53.5 -56t21.5 -84.5q0 -100 -65 -156t-165 -70l-13 -74h-135l12 73q-121 13 -207 82l112 134q78 -66 157 -66q77 0 77 40q0 19 -29 29q-8 3 -32 10.5t-34 11
t-32 12t-33 14.5t-29.5 16.5t-28 20t-22 23.5t-18.5 28t-10.5 32.5t-4.5 39.5q0 108 71.5 167.5t179.5 65.5l11 63h135l-13 -75q74 -19 139 -70z" />
    <glyph glyph-name="percent" unicode="%" horiz-adv-x="931" 
d="M914 300q0 -12 -3 -26l-28 -154q-11 -62 -64.5 -96t-120.5 -34q-59 0 -102.5 25t-43.5 80q0 9 2 25l28 157q12 65 64.5 97.5t122.5 32.5q59 0 102 -26t43 -81zM826 718l-544 -726h-110l545 726h109zM447 616q0 -12 -3 -26l-27 -154q-11 -62 -65 -95.5t-121 -33.5
q-59 0 -102 24.5t-43 79.5q0 9 2 25l28 157q12 65 64.5 98.5t121.5 33.5q59 0 102 -27t43 -82zM786 286q0 25 -33 25q-37 0 -43 -30l-29 -161v-5q0 -27 33 -27q16 0 28 9.5t15 24.5l28 159q0 1 0.5 2.5t0.5 2.5zM320 601q0 13 -10.5 19.5t-23.5 6.5q-36 0 -42 -30l-29 -161
v-5q0 -27 33 -27q16 0 28 9.5t15 24.5l28 159l1 1v3z" />
    <glyph glyph-name="ampersand" unicode="&#x26;" horiz-adv-x="743" 
d="M763 440l-28 -157h-63l-16 -86q-11 -59 -48 -103t-91 -67.5t-110 -34t-116 -10.5q-46 0 -89 9.5t-83 29t-64.5 57t-24.5 87.5q0 70 44 123t113 69l1 6q-33 15 -51.5 50.5t-18.5 74.5q0 65 28 112.5t76.5 73t102 37.5t114.5 12q52 0 104 -15t93 -52.5t41 -90.5
q0 -11 -7 -53h-183q3 12 3 24q0 50 -72 50q-38 0 -68 -26t-30 -64q0 -56 88 -56h355zM459 283h-128q-33 0 -57 -26.5t-24 -60.5q0 -30 22 -49t53 -19q107 0 122 88z" />
    <glyph glyph-name="quotesingle" unicode="'" horiz-adv-x="291" 
d="M321 725l-26 -152l-57 -183h-111l9 183l26 152h159z" />
    <glyph glyph-name="parenleft" unicode="(" horiz-adv-x="360" 
d="M424 772q-72 -130 -109 -232t-61 -236q-45 -252 3 -482h-82q-53 87 -72.5 213t3.5 269q22 129 85.5 254t150.5 214h82z" />
    <glyph glyph-name="parenright" unicode=")" horiz-adv-x="360" 
d="M293 304q-24 -136 -89.5 -265.5t-149.5 -216.5h-82q130 230 173 482q24 137 22.5 237.5t-28.5 230.5h83q55 -89 74 -212.5t-3 -255.5z" />
    <glyph glyph-name="asterisk" unicode="*" horiz-adv-x="464" 
d="M504 604l-130 -64l60 -108l-87 -48l-60 110l-100 -110l-68 48l96 108l-107 64l60 75l95 -56l19 109h94l-19 -109l113 56z" />
    <glyph glyph-name="plus" unicode="+" horiz-adv-x="602" 
d="M582 366l-18 -100h-202l-36 -204h-101l36 204h-203l18 100h203l36 205h101l-36 -205h202z" />
    <glyph glyph-name="comma" unicode="," horiz-adv-x="306" 
d="M254 193l-32 -181l-103 -153h-90l61 143h-72l34 191h202z" />
    <glyph glyph-name="hyphen" unicode="-" horiz-adv-x="362" 
d="M358 352l-23 -133h-304l23 133h304z" />
    <glyph glyph-name="period" unicode="." horiz-adv-x="306" 
d="M253 194l-34 -194h-202l34 194h202z" />
    <glyph glyph-name="slash" unicode="/" horiz-adv-x="370" 
d="M450 726l-378 -761h-113l381 761h110z" />
    <glyph glyph-name="zero" unicode="0" horiz-adv-x="642" 
d="M661 534q0 -25 -4 -45l-48 -273q-20 -110 -113.5 -169t-211.5 -59q-47 0 -89.5 9.5t-80.5 29.5t-60.5 57.5t-22.5 87.5q0 16 4 44l49 278q21 114 112.5 172.5t213.5 58.5q65 0 119 -17.5t93 -62t39 -111.5zM441 510q0 23 -17.5 34.5t-41.5 11.5q-27 0 -50 -14.5
t-28 -40.5l-50 -285q-1 -3 -1 -10q0 -24 17.5 -36.5t42.5 -12.5q29 0 51 17t27 45l49 283q1 3 1 8z" />
    <glyph glyph-name="one" unicode="1" horiz-adv-x="538" 
d="M485 143l-25 -143h-436l25 143h122l70 394l-121 -4l26 145q23 5 121 24.5t105 19.5h105l-102 -579h110z" />
    <glyph glyph-name="two" unicode="2" horiz-adv-x="612" 
d="M614 549q0 -15 -4 -45q-4 -23 -14 -46t-28.5 -47.5t-31.5 -41.5t-42 -43.5t-39.5 -36t-44 -37.5t-36.5 -31l-52 -46l-1 -5h237l-30 -170h-510l20 116l219 207q8 7 38 35t47.5 45t36 43.5t22.5 47.5q4 18 4 27q0 43 -52 43q-21 0 -35.5 -8t-22.5 -25t-11.5 -30t-7.5 -36
h-198l7 41q20 110 106.5 163.5t204.5 53.5q95 0 156.5 -42t61.5 -132z" />
    <glyph glyph-name="three" unicode="3" horiz-adv-x="618" 
d="M625 549q0 -68 -33.5 -117.5t-97.5 -68.5l-1 -6q47 -12 74.5 -45t27.5 -82q0 -16 -3 -31q-13 -73 -64 -122.5t-115 -69t-139 -19.5q-46 0 -85 7.5t-74.5 25t-56 52t-20.5 82.5q0 33 8 68h194q0 -4 -2 -13t-2 -15q0 -45 71 -45q31 0 52 22t21 53q0 60 -114 60l25 138h19.5
h20.5t17.5 0.5t17.5 2.5t14.5 5t14 8.5t10.5 12.5t10 17t6 22q2 10 2 14q0 24 -14.5 37t-38.5 13q-39 0 -57 -16t-24 -53h-191l4 23q19 107 100.5 161.5t194.5 54.5q42 0 81 -10t73 -30t54 -55t20 -81z" />
    <glyph glyph-name="four" unicode="4" horiz-adv-x="633" 
d="M629 713l-70 -402h64l-29 -162h-64l-26 -149h-202l26 149h-311l27 154l331 410h254zM394 525h-4l-181 -214h148z" />
    <glyph glyph-name="five" unicode="5" horiz-adv-x="613" 
d="M624 713l-30 -170h-294l-26 -125q73 43 161 43q71 0 118 -34t47 -103q0 -27 -19 -127q-9 -47 -32.5 -83.5t-54 -59.5t-70 -38.5t-78 -21.5t-80.5 -6q-40 0 -78.5 7.5t-75 24t-59 48.5t-22.5 75q0 41 14 79h196q-3 -24 -3 -25q0 -44 61 -44q66 0 78 65q9 57 9 60
q0 25 -17 37t-42 12q-33 0 -65 -30l-183 22l88 394h457z" />
    <glyph glyph-name="six" unicode="6" horiz-adv-x="628" 
d="M648 563q0 -25 -10 -73h-201q5 25 5 30q0 42 -55 42q-29 0 -50.5 -15t-26.5 -43q-3 -15 -6 -32t-6.5 -38t-5.5 -32q89 48 170 48q68 0 112 -33.5t44 -98.5q0 -28 -19 -123q-12 -69 -65 -118t-118.5 -69t-136.5 -20q-60 0 -113.5 17.5t-92.5 60t-39 104.5q0 18 3 36
l53 298q13 72 66 123.5t121 74.5t141 23q59 0 107.5 -13t85.5 -51t37 -98zM405 276q0 23 -19.5 35t-43.5 12q-63 0 -77 -72q-8 -45 -8 -53q0 -23 16 -34.5t41 -11.5q28 0 51.5 14.5t27.5 40.5q12 63 12 69z" />
    <glyph glyph-name="seven" unicode="7" horiz-adv-x="616" 
d="M669 712l-25 -145l-370 -567h-217l361 543h-316l29 169h538z" />
    <glyph glyph-name="eight" unicode="8" horiz-adv-x="627" 
d="M643 558q0 -17 -3 -35q-4 -26 -7 -38q-16 -85 -93 -127q28 -16 45 -45.5t17 -62.5q0 -19 -11 -70q-9 -51 -41.5 -89.5t-78 -60t-94.5 -32t-99 -10.5q-250 0 -250 159q0 23 4 40l6 34q8 45 37 81t71 56q-26 14 -39.5 42t-13.5 59q0 17 9 62q12 68 61 115.5t111 68
t131 20.5q59 0 109.5 -14t89.5 -53.5t39 -99.5zM439 525q0 24 -18 35t-43 11q-27 0 -49 -12t-26 -36q-9 -54 -9 -55q0 -43 60 -43q68 0 78 55q7 33 7 45zM389 239q0 24 -17.5 35.5t-43.5 11.5t-48.5 -12.5t-26.5 -36.5q-9 -38 -9 -55q0 -22 17.5 -32t41.5 -10q69 0 79 54
q7 35 7 45z" />
    <glyph glyph-name="nine" unicode="9" horiz-adv-x="628" 
d="M653 542q0 -18 -3 -36l-53 -298q-13 -72 -66 -123.5t-121 -74.5t-141 -23q-42 0 -80 8t-73.5 25t-56 50.5t-20.5 78.5q0 25 10 73h201q-5 -25 -5 -30q0 -42 55 -42q29 0 50.5 15t26.5 43q15 82 20 113q-64 -59 -172 -59q-68 0 -112 33.5t-44 98.5q0 28 19 123
q12 70 65 118.5t119 69t137 20.5q60 0 113.5 -17.5t92 -60.5t38.5 -105zM431 520q0 23 -16 34.5t-40 11.5q-29 0 -52.5 -14.5t-27.5 -40.5q-12 -66 -12 -73q0 -22 17 -34t41 -12q33 0 54.5 21t27.5 54q8 45 8 53z" />
    <glyph glyph-name="colon" unicode=":" horiz-adv-x="306" 
d="M312 540l-34 -191h-202l34 191h202zM251 191l-34 -191h-202l34 191h202z" />
    <glyph glyph-name="semicolon" unicode=";" horiz-adv-x="306" 
d="M312 540l-34 -191h-202l34 191h202zM251 193l-32 -181l-103 -153h-90l61 143h-72l34 191h202z" />
    <glyph glyph-name="less" unicode="&#x3c;" horiz-adv-x="602" 
d="M570 456l-336 -144l281 -146l-59 -86l-377 198l14 77l439 197z" />
    <glyph glyph-name="equal" unicode="=" horiz-adv-x="602" 
d="M598 460l-18 -102h-506l18 102h506zM563 259l-18 -101h-506l18 101h506z" />
    <glyph glyph-name="greater" unicode="&#x3e;" horiz-adv-x="602" 
d="M559 355l-14 -77l-439 -197l-39 95l334 149l-275 142l58 87z" />
    <glyph glyph-name="question" unicode="?" horiz-adv-x="573" 
d="M609 562q0 -129 -126 -206q-11 -7 -32.5 -18.5t-31.5 -17.5q-39 -24 -45 -55q-2 -9 -4 -23h-181l4 22q8 43 27.5 71.5t57.5 56.5q9 7 36.5 24t45 29.5t33 33t15.5 40.5q0 21 -15 32.5t-37 11.5q-30 0 -55 -14t-31 -41l-3 -18h-179q1 5 2.5 15t2.5 15q18 98 104.5 150.5
t193.5 52.5q43 0 79.5 -8t69 -25t51 -50t18.5 -78zM370 191l-33 -191h-202l33 191h202z" />
    <glyph glyph-name="at" unicode="@" horiz-adv-x="932" 
d="M872 400q0 -113 -67 -204.5t-175 -91.5q-32 0 -59.5 18.5t-42.5 48.5q-62 -64 -122 -64q-59 0 -87 47t-28 110q0 98 62.5 170.5t158.5 72.5h156l-47 -262q-3 -13 8.5 -22.5t24.5 -9.5q38 0 64.5 36.5t36 78t9.5 78.5q0 98 -72.5 154.5t-173.5 56.5q-141 0 -232.5 -95.5
t-91.5 -237.5q0 -129 84.5 -200.5t216.5 -71.5q80 0 146.5 17.5t153.5 54.5l29 -98q-155 -79 -335 -79q-174 0 -289.5 103t-115.5 276q0 187 124.5 310.5t312.5 123.5q149 0 250 -86.5t101 -233.5zM537 408h-31q-41 0 -69 -41.5t-28 -84.5q0 -18 1 -28.5t9.5 -21.5t24.5 -11
q19 0 32.5 9.5t22 28.5t12.5 32.5t8 34.5z" />
    <glyph glyph-name="A" unicode="A" horiz-adv-x="750" 
d="M703 0h-216l-14 115h-237l-54 -115h-208l366 714h255zM454 277l-28 236h-3l-111 -236h142z" />
    <glyph glyph-name="B" unicode="B" horiz-adv-x="712" 
d="M704 558q0 -69 -36.5 -121.5t-103.5 -69.5l-1 -4q45 -13 70.5 -48.5t25.5 -83.5q0 -10 -2 -30q-16 -90 -84.5 -145.5t-160.5 -55.5h-421l126 713h411q74 0 125 -40.5t51 -114.5zM483 508q0 45 -54 45h-121l-21 -117h124q30 0 51 20.5t21 51.5zM436 238q0 24 -18 35.5
t-43 11.5h-115l-21 -120h119q31 0 54.5 21t23.5 52z" />
    <glyph glyph-name="C" unicode="C" horiz-adv-x="681" 
d="M703 532q0 -23 -11 -85h-206q5 30 5 38q0 33 -23 51t-56 18q-45 0 -75 -24t-38 -69l-36 -205q-2 -16 -2 -25q0 -72 81 -72q40 0 70 23t38 62l4 22h206l-8 -46q-14 -78 -68.5 -132t-124.5 -77t-150 -23q-54 0 -101 11t-86.5 34.5t-62.5 66t-23 99.5q0 24 5 56l37 209
q22 125 123.5 193t234.5 68q66 0 123.5 -17t100.5 -62.5t43 -113.5z" />
    <glyph glyph-name="D" unicode="D" horiz-adv-x="700" 
d="M718 507q0 -24 -5 -51q-3 -20 -40 -220q-43 -236 -339 -236h-317l126 713h315q67 0 123.5 -19.5t96.5 -67.5t40 -119zM490 469q0 35 -23.5 53.5t-59.5 18.5h-75l-65 -370h80q41 0 71 25.5t37 66.5l33 188q2 12 2 18z" />
    <glyph glyph-name="E" unicode="E" horiz-adv-x="651" 
d="M694 713l-30 -170h-331l-18 -103h262l-30 -168h-262l-18 -101h331l-30 -171h-551l126 713h551z" />
    <glyph glyph-name="F" unicode="F" horiz-adv-x="629" 
d="M694 713l-30 -170h-331l-20 -113h262l-30 -171h-262l-46 -259h-220l126 713h551z" />
    <glyph glyph-name="G" unicode="G" horiz-adv-x="681" 
d="M704 531q0 -25 -8 -69h-206q0 3 2 14t2 17q0 33 -23 51t-57 18q-45 0 -77 -24.5t-40 -68.5l-38 -213q-2 -16 -2 -26q0 -37 21 -57t59 -20q53 0 78 25t33 78h-104l25 142h316q-20 -118 -31 -178q-14 -77 -70.5 -131.5t-128 -77.5t-150.5 -23q-54 0 -101 11.5t-86.5 35
t-62.5 65.5t-23 99q0 26 5 56l37 209q15 84 69.5 144.5t129 88.5t159.5 28q48 0 94 -10.5t87 -32t66 -60.5t25 -91z" />
    <glyph glyph-name="H" unicode="H" horiz-adv-x="728" 
d="M767 713l-126 -713h-220l47 264h-184l-47 -264h-220l126 713h220l-46 -258h184l46 258h220z" />
    <glyph glyph-name="I" unicode="I" horiz-adv-x="324" 
d="M363 713l-126 -713h-220l126 713h220z" />
    <glyph glyph-name="J" unicode="J" horiz-adv-x="666" 
d="M707 713l-81 -459q-23 -128 -112.5 -197t-221.5 -69q-52 0 -95 9.5t-80.5 30t-59 59.5t-21.5 93q0 26 11 83h200q-6 -30 -6 -48q0 -58 68 -58q80 0 94 82l84 474h220z" />
    <glyph glyph-name="K" unicode="K" horiz-adv-x="707" 
d="M786 713l-259 -300l148 -413h-229l-95 276l-80 -85l-34 -191h-220l126 713h220l-57 -322l268 322h212z" />
    <glyph glyph-name="L" unicode="L" horiz-adv-x="625" 
d="M598 171l-30 -171h-551l126 713h220l-96 -542h331z" />
    <glyph glyph-name="M" unicode="M" horiz-adv-x="870" 
d="M909 713l-126 -713h-198l77 435h-6l-166 -324h-139l-57 324h-3l-77 -435h-197l126 713h276l55 -300l160 300h275z" />
    <glyph glyph-name="N" unicode="N" horiz-adv-x="748" 
d="M787 713l-126 -713h-181l-197 374h-3l-65 -374h-198l126 713h193l194 -339h1l58 339h198z" />
    <glyph glyph-name="O" unicode="O" horiz-adv-x="702" 
d="M715 509q0 -32 -6 -62l-32 -182q-25 -135 -125 -206t-241 -71q-56 0 -103 10.5t-86.5 34t-62 66t-22.5 101.5q0 32 6 63l32 184q24 133 124 205.5t239 72.5q119 0 198 -51.5t79 -164.5zM491 477q0 36 -22.5 56t-58.5 20q-94 0 -111 -98l-34 -192q-3 -14 -3 -28
q0 -75 81 -75q45 0 74 27t37 72l35 196q2 14 2 22z" />
    <glyph glyph-name="P" unicode="P" horiz-adv-x="693" 
d="M713 503q0 -125 -86 -200.5t-217 -75.5h-133l-40 -227h-220l126 713h353q95 0 156 -55t61 -155zM494 484q0 31 -18.5 47.5t-49.5 16.5h-92l-29 -161h91q40 0 69 28.5t29 68.5z" />
    <glyph glyph-name="Q" unicode="Q" horiz-adv-x="702" 
d="M715 509q0 -31 -6 -61l-32 -183q-12 -69 -49 -127l50 -42l-106 -117l-66 55q-82 -46 -195 -46q-56 0 -103 10.5t-86.5 34t-62 66t-22.5 101.5q0 33 6 64q8 48 32 184q24 132 124.5 204.5t238.5 72.5q119 0 198 -51.5t79 -164.5zM490 477q0 35 -22 55.5t-58 20.5
q-95 0 -112 -98l-33 -191q-3 -15 -3 -29q0 -75 80 -75q8 0 35 5l-59 49l95 105l45 -38l30 174q2 7 2 22z" />
    <glyph glyph-name="R" unicode="R" horiz-adv-x="703" 
d="M713 508q0 -85 -46 -149t-125 -86l102 -273h-230l-76 237h-59l-42 -237h-220l126 713h340q99 0 164.5 -54t65.5 -151zM493 484q0 31 -18.5 47.5t-49.5 16.5h-91l-29 -161h90q41 0 69.5 28.5t28.5 68.5z" />
    <glyph glyph-name="S" unicode="S" horiz-adv-x="643" 
d="M644 637l-119 -134q-25 23 -65.5 39.5t-73.5 16.5q-91 0 -91 -46q0 -10 7 -18.5t20.5 -14.5t24 -10t26 -8.5t18.5 -5.5q46 -15 72.5 -24.5t60.5 -28t52.5 -38.5t31.5 -51.5t13 -71.5q0 -66 -28 -116.5t-75.5 -79.5t-104.5 -43.5t-120 -14.5q-188 0 -304 91l119 141
q83 -72 176 -72q94 0 94 53q0 25 -38 38q-8 3 -43 14.5t-47.5 16t-43 17.5t-44.5 23t-35.5 27.5t-31.5 35t-18 42.5t-8 53q0 124 85.5 190t213.5 66q164 0 276 -87z" />
    <glyph glyph-name="T" unicode="T" horiz-adv-x="668" 
d="M738 713l-30 -170h-199l-96 -543h-222l96 543h-199l30 170h620z" />
    <glyph glyph-name="U" unicode="U" horiz-adv-x="725" 
d="M761 713l-77 -449q-24 -141 -124.5 -209t-242.5 -68q-113 0 -189 54.5t-76 160.5q0 23 6 56l80 455h220l-78 -446q-3 -15 -3 -34q0 -75 83 -75q92 0 112 109l78 446h211z" />
    <glyph glyph-name="V" unicode="V" horiz-adv-x="692" 
d="M770 713l-352 -714h-230l-92 714h216l34 -484h5l211 484h208z" />
    <glyph glyph-name="W" unicode="W" horiz-adv-x="985" 
d="M1028 713l-298 -714h-207l-30 400h-3l-173 -400h-195l-49 714h212l20 -373h3l154 373h193l16 -373h2l149 373h206z" />
    <glyph glyph-name="X" unicode="X" horiz-adv-x="698" 
d="M767 713l-256 -349l144 -364h-218l-83 227l-155 -227h-219l273 369l-132 344h220l72 -209l142 209h212z" />
    <glyph glyph-name="Y" unicode="Y" horiz-adv-x="682" 
d="M763 713l-306 -436l-49 -277h-221l49 278l-152 435h219l80 -260l173 260h207z" />
    <glyph glyph-name="Z" unicode="Z" horiz-adv-x="657" 
d="M707 713l-26 -147l-354 -395h280l-30 -171h-575l22 127l376 416h-292l30 170h569z" />
    <glyph glyph-name="bracketleft" unicode="[" horiz-adv-x="360" 
d="M425 741l-15 -86h-96l-131 -744h95l-15 -84h-234l161 914h235z" />
    <glyph glyph-name="backslash" unicode="\" horiz-adv-x="370" 
d="M324 -35h-107l-110 761h105z" />
    <glyph glyph-name="bracketright" unicode="]" horiz-adv-x="360" 
d="M362 741l-161 -914h-234l15 84h95l131 744h-96l15 86h235z" />
    <glyph glyph-name="asciicircum" unicode="^" horiz-adv-x="773" 
d="M778 713l-125 -713h-658l125 713h658z" />
    <glyph glyph-name="underscore" unicode="_" 
d="M505 -60l-14 -80h-496l14 80h496z" />
    <glyph glyph-name="grave" unicode="`" horiz-adv-x="335" 
d="M327 592h-94l-104 170h149z" />
    <glyph glyph-name="a" unicode="a" horiz-adv-x="621" 
d="M633 540l-96 -540h-199l12 66h-4q-73 -78 -166 -78q-73 0 -115 35.5t-42 106.5q0 25 4 45q11 65 35 195q15 81 78 131t146 50q39 0 77 -13.5t57 -40.5h2l8 43h203zM396 360q0 26 -16 40t-42 14q-32 0 -52.5 -24.5t-26.5 -57.5l-21 -120q-2 -12 -2 -18q0 -25 13.5 -41.5
t38.5 -16.5q34 0 56 23t28 57l23 127q1 5 1 17z" />
    <glyph glyph-name="b" unicode="b" horiz-adv-x="622" 
d="M618 409q0 -26 -4 -46l-34 -195q-14 -80 -84.5 -130.5t-154.5 -50.5q-81 0 -121 60h-3l-8 -48h-201l126 714h204l-42 -237h2q72 75 163 75q73 0 115 -35.5t42 -106.5zM406 348q0 25 -14 40t-38 15q-71 0 -86 -84l-22 -124q-1 -5 -1 -16q0 -26 16.5 -40.5t42.5 -14.5
q31 0 51 21.5t26 53.5l23 131q2 12 2 18z" />
    <glyph glyph-name="c" unicode="c" horiz-adv-x="584" 
d="M568 392q0 -21 -8 -63h-179q4 24 4 35q0 45 -48 45q-66 0 -77 -68q-26 -134 -26 -146q0 -32 29 -46.5t65 -14.5q76 0 187 30l9 -130q-118 -47 -246 -47q-46 0 -88.5 9t-80.5 28.5t-60.5 55.5t-22.5 84q0 14 4 44q4 19 10.5 56t9.5 54q20 110 104 172t198 62
q86 0 151 -39.5t65 -120.5z" />
    <glyph glyph-name="d" unicode="d" horiz-adv-x="621" 
d="M663 713l-126 -713h-199l12 66h-5q-66 -78 -165 -78q-72 0 -114.5 35t-42.5 106q0 26 4 46l35 195q15 80 82 130.5t150 50.5q38 0 73 -13.5t54 -40.5h1l38 216h203zM397 360q0 25 -16.5 39.5t-42.5 14.5q-32 0 -52.5 -24.5t-26.5 -57.5l-21 -120q-1 -6 -1 -18
q0 -25 13.5 -41.5t37.5 -16.5q34 0 56 23t28 57l23 127q2 12 2 17z" />
    <glyph glyph-name="e" unicode="e" horiz-adv-x="582" 
d="M573 372q0 -27 -22 -148h-313q-4 -20 -4 -29q0 -32 29 -46.5t65 -14.5q55 0 166 30l9 -130q-117 -47 -237 -47q-46 0 -86.5 9t-76 28.5t-56.5 55.5t-21 85q0 27 21 140q21 116 110 181.5t209 65.5q89 0 148 -46.5t59 -133.5zM387 366q0 49 -54 49q-29 0 -48.5 -18
t-24.5 -46l-4 -24h126q5 32 5 39z" />
    <glyph glyph-name="f" unicode="f" horiz-adv-x="410" 
d="M472 718l-21 -119q-45 3 -54 3q-18 0 -31 -10t-16 -27l-7 -39h89l-25 -141h-89l-102 -569l-206 -16l105 585h-74l25 141h74l9 47q10 56 45.5 93.5t77 51t87.5 13.5q36 0 56 -1q34 -4 57 -12z" />
    <glyph glyph-name="g" unicode="g" horiz-adv-x="627" 
d="M639 540l-84 -476q-22 -126 -112.5 -191t-221.5 -65q-129 0 -236 41l81 146q78 -28 164 -28q104 0 120 88q2 7 3.5 22t3.5 22h-5q-64 -63 -154 -63q-73 0 -116.5 35.5t-43.5 106.5q0 24 4 43l26 146q15 85 73.5 135t150.5 50q37 0 79.5 -14.5t61.5 -39.5h3l7 42h196z
M401 353q0 26 -17 40.5t-44 14.5q-31 0 -50 -24t-25 -57q-15 -81 -15 -90q0 -25 14 -39.5t40 -14.5q34 0 55 21t27 56q1 8 5.5 28.5t7 37t2.5 27.5z" />
    <glyph glyph-name="h" unicode="h" horiz-adv-x="632" 
d="M621 428q0 -22 -4 -42l-67 -386h-204l56 317q0 1 2 12.5t2 16.5q0 23 -15.5 38t-42.5 15q-32 0 -54 -29t-28 -64l-54 -306h-204l125 713h205l-43 -250h2q42 45 83.5 67t95.5 22q60 0 102.5 -33t42.5 -91z" />
    <glyph glyph-name="i" unicode="i" horiz-adv-x="300" 
d="M340 725l-24 -134h-204l24 134h204zM307 538l-95 -538h-204l95 538h204z" />
    <glyph glyph-name="j" unicode="j" horiz-adv-x="316" 
d="M359 725l-23 -134h-204l23 134h204zM327 539l-99 -561q-15 -84 -76.5 -127t-136.5 -43q-37 0 -83 8l25 140q6 -1 25 -1q38 0 45 40l96 544h204z" />
    <glyph glyph-name="k" unicode="k" horiz-adv-x="601" 
d="M646 539l-171 -195l73 -344h-207l-44 218l-57 -60l-28 -158h-204l126 713h204l-68 -382l178 207z" />
    <glyph glyph-name="l" unicode="l" horiz-adv-x="351" 
d="M335 713l-91 -517q-1 -5 -1 -14q0 -25 35 -25q14 0 38 4l-27 -154q-59 -19 -115 -19q-63 0 -106 27t-43 87q0 14 3 29l102 582h205z" />
    <glyph glyph-name="m" unicode="m" horiz-adv-x="970" 
d="M959 428q0 -22 -4 -42l-67 -386h-204l56 317q0 1 2 12.5t2 16.5q0 23 -15.5 38t-42.5 15q-32 0 -54 -29t-28 -64l-54 -306h-204l59 338v11q0 23 -15 36.5t-42 13.5q-32 0 -54 -29t-28 -64l-54 -306h-204l95 540h200l-12 -71h2q78 83 183 83q52 0 92.5 -25.5t49.5 -72.5
q41 50 86 74t110 24q60 0 102.5 -33t42.5 -91z" />
    <glyph glyph-name="n" unicode="n" horiz-adv-x="632" 
d="M621 428q0 -22 -4 -42l-67 -386h-204l56 317q0 1 2 12.5t2 16.5q0 23 -15.5 38t-42.5 15q-32 0 -54 -29t-28 -64l-54 -306h-204l95 540h200l-12 -71h2q78 83 183 83q60 0 102.5 -33t42.5 -91z" />
    <glyph glyph-name="o" unicode="o" horiz-adv-x="600" 
d="M591 371q0 -27 -4 -48l-20 -113q-20 -109 -106 -165.5t-201 -56.5q-63 0 -112.5 14t-85.5 54.5t-36 104.5q0 27 4 48l20 110q20 110 105.5 171.5t200.5 61.5q63 0 113.5 -16t86 -58.5t35.5 -106.5zM384 352q0 24 -13.5 39.5t-37.5 15.5q-31 0 -50 -21t-25 -54l-23 -134
q-2 -12 -2 -18q0 -48 53 -48q30 0 48.5 19t24.5 50l24 134q1 5 1 17z" />
    <glyph glyph-name="p" unicode="p" horiz-adv-x="622" 
d="M619 410q0 -16 -4 -46q-3 -16 -15 -87t-20 -108q-19 -87 -86 -134t-153 -47q-33 0 -66.5 15t-51.5 41h-3l-40 -228h-204l128 724h200l-12 -68h3q73 80 167 80q72 0 114.5 -36t42.5 -106zM406 348q0 25 -13.5 40.5t-37.5 15.5q-71 0 -86 -84l-22 -124q-1 -6 -1 -17
q0 -25 15.5 -39.5t41.5 -14.5q31 0 52 20t26 51l24 134q1 6 1 18z" />
    <glyph glyph-name="q" unicode="q" horiz-adv-x="622" 
d="M634 540l-128 -724h-204l44 250h-5q-77 -77 -160 -77q-73 0 -115.5 35t-42.5 106q0 25 4 45l34 191q15 84 80.5 135t152.5 51q39 0 75 -16t57 -46h3l9 50h196zM396 361q0 26 -16 40t-41 14q-32 0 -53 -24.5t-27 -57.5l-21 -120q-2 -12 -2 -18q0 -25 13.5 -41.5
t38.5 -16.5q34 0 56.5 23t28.5 57l22 127q1 6 1 17z" />
    <glyph glyph-name="r" unicode="r" horiz-adv-x="472" 
d="M519 541l-29 -169q-53 8 -91 8q-120 0 -137 -94l-50 -286h-204l95 540h200l-16 -90h5q29 40 74.5 68.5t93.5 28.5q39 0 59 -6z" />
    <glyph glyph-name="s" unicode="s" horiz-adv-x="551" 
d="M523 503l-78 -129q-23 17 -62 30.5t-67 13.5q-68 0 -68 -35q0 -12 14 -17q19 -8 58 -18t68 -20t59.5 -27.5t47 -47.5t16.5 -73q0 -53 -25 -92t-66 -59.5t-86.5 -30.5t-95.5 -10q-129 0 -241 59l88 132q73 -58 150 -58q69 0 69 32q0 14 -25 23.5t-61 19.5t-71.5 25.5
t-60.5 49.5t-25 83q0 68 36.5 114t90.5 65t121 19q68 0 114.5 -11t99.5 -38z" />
    <glyph glyph-name="t" unicode="t" horiz-adv-x="432" 
d="M438 526l-25 -141h-104l-33 -185q0 -2 -0.5 -6t-0.5 -5q0 -31 39 -31q35 0 63 4l-27 -151q-80 -22 -143 -22q-64 0 -106 28t-42 91q0 21 4 38l42 239h-60l25 141h60l25 143h204l-25 -143h104z" />
    <glyph glyph-name="u" unicode="u" horiz-adv-x="632" 
d="M642 540l-95 -540h-200l12 71h-2q-78 -83 -183 -83q-60 0 -102.5 33t-42.5 91q0 22 4 42l67 386h204l-56 -317q0 -1 -2 -12.5t-2 -16.5q0 -23 15.5 -38t42.5 -15q32 0 54 29t28 64l54 306h204z" />
    <glyph glyph-name="v" unicode="v" horiz-adv-x="597" 
d="M634 540l-277 -541h-208l-94 541h211l31 -313h4l145 313h188z" />
    <glyph glyph-name="w" unicode="w" horiz-adv-x="897" 
d="M926 540l-262 -541h-180l-28 316h-4l-143 -316h-182l-71 541h203l17 -281h5l122 281h193l22 -281h4l119 281h185z" />
    <glyph glyph-name="x" unicode="x" horiz-adv-x="585" 
d="M620 539l-203 -262l119 -276h-207l-61 155l-114 -155h-180l214 283l-116 255h210l55 -144l105 144h178z" />
    <glyph glyph-name="y" unicode="y" horiz-adv-x="632" 
d="M642 539l-83 -475q-22 -125 -112.5 -190.5t-221.5 -65.5q-129 0 -236 41l81 146q78 -28 164 -28q104 0 122 88l13 63h-2q-78 -83 -183 -83q-60 0 -102.5 33t-42.5 91q0 22 4 42l57 338h204l-47 -273q0 -1 -2 -12.5t-2 -16.5q0 -23 15.5 -38t42.5 -15q32 0 54 28.5
t28 64.5l45 262h204z" />
    <glyph glyph-name="z" unicode="z" horiz-adv-x="564" 
d="M569 540l-23 -127l-271 -264h226l-27 -149h-480l22 123l272 269h-219l27 148h473z" />
    <glyph glyph-name="braceleft" unicode="{" horiz-adv-x="360" 
d="M427 741l-15 -85h-70q-23 0 -28 -26l-34 -190q-9 -47 -26.5 -75.5t-56.5 -42.5l-1 -5q25 -11 36.5 -25.5t11.5 -40.5q0 -18 -6 -50l-46 -263q0 -1 -0.5 -3.5t-0.5 -3.5q0 -19 20 -19h70l-15 -85h-127q-43 0 -66 24t-23 67q0 17 3 35l45 255q4 22 4 33q0 19 -8.5 27.5
t-27.5 10.5l14 80q30 5 39.5 14.5t14.5 39.5l36 201q10 56 43 91.5t87 35.5h127z" />
    <glyph glyph-name="bar" unicode="|" horiz-adv-x="328" 
d="M319 725l-135 -765h-120l135 765h120z" />
    <glyph glyph-name="braceright" unicode="}" horiz-adv-x="360" 
d="M341 650q0 -18 -3 -36l-36 -201q0 -3 -1 -7.5t-1.5 -8.5t-0.5 -8q0 -24 39 -30l-14 -80q-30 -3 -41 -19.5t-17 -51.5l-45 -255q-10 -56 -43 -91t-87 -35h-127l15 85h70q24 0 29 26l46 263q9 51 24 74.5t58 39.5l1 7q-46 18 -46 72q0 21 5 46l34 190v7q0 19 -20 19h-70
l15 85h127q43 0 66 -24t23 -67z" />
    <glyph glyph-name="asciitilde" unicode="~" horiz-adv-x="773" 
d="M778 713l-125 -713h-658l125 713h658zM702 648h-528l-103 -583h528z" />
    <glyph glyph-name="nbspace" unicode="&#xa0;" horiz-adv-x="210" 
 />
    <glyph glyph-name="exclamdown" unicode="&#xa1;" horiz-adv-x="322" 
d="M332 552l-34 -191h-202l34 191h202zM256 95l-45 -256h-212l45 256l86 215h116z" />
    <glyph glyph-name="cent" unicode="&#xa2;" horiz-adv-x="596" 
d="M597 415q0 -20 -8 -58h-193q4 20 4 32q0 49 -54 49q-70 0 -83 -74q-4 -21 -11 -63.5t-11 -64.5q-2 -14 -2 -20q0 -56 58 -56q67 0 79 81h193l-7 -37q-13 -74 -74.5 -118t-143.5 -57l-13 -76h-143l13 76q-75 13 -120.5 55t-45.5 115q0 32 21 142q16 91 81 149.5t159 77.5
l14 80h143l-14 -80q67 -13 112.5 -51.5t45.5 -101.5z" />
    <glyph glyph-name="sterling" unicode="&#xa3;" horiz-adv-x="651" 
d="M667 568q0 -18 -12 -88h-173q5 35 5 42q0 43 -48 43q-58 0 -69 -58q-6 -30 -19 -109h160l-19 -111h-160l-22 -125h298l-62 -162h-545l29 162h79l22 125h-55l19 111h55l20 110q22 107 102.5 162t193.5 55q83 0 142 -39t59 -118z" />
    <glyph glyph-name="currency" unicode="&#xa4;" horiz-adv-x="757" 
d="M772 532q0 -23 -11 -85h-206q5 32 5 38q0 33 -23 51t-57 18q-71 0 -93 -67h129l-17 -95h-130l-11 -63h130l-17 -95h-129q0 -2 -0.5 -5t-0.5 -5q0 -65 70 -65q40 0 70 23t38 62q2 14 3 22h206q-1 -9 -3.5 -24t-3.5 -22q-15 -77 -69.5 -131t-124.5 -77.5t-149 -23.5
q-54 0 -99 11t-82 34.5t-58 65t-21 97.5q0 26 2 38h-84l17 95h83l11 63h-83l17 95h83q29 115 123 176.5t218 61.5q66 0 123.5 -17t100.5 -62.5t43 -113.5z" />
    <glyph glyph-name="yen" unicode="&#xa5;" horiz-adv-x="682" 
d="M763 713l-255 -363h131l-18 -105h-170l-43 -245h-221l43 245h-173l18 105h136l-127 363h219l80 -260l173 260h207z" />
    <glyph glyph-name="brokenbar" unicode="&#xa6;" 
 />
    <glyph glyph-name="section" unicode="&#xa7;" horiz-adv-x="552" 
d="M553 560l-5 -30h-127l4 24q4 23 -14.5 40.5t-64.5 17.5q-39 0 -61 -14.5t-26 -36.5q-1 -7 4 -14t14 -12t17.5 -8.5t19.5 -7t14 -4.5l81 -31q28 -11 45 -20t37.5 -26.5t28 -43t1.5 -59.5q-13 -76 -72 -122q44 -46 33 -114q-15 -81 -87.5 -133.5t-177.5 -52.5
q-37 0 -70.5 8t-64 25.5t-45 51.5t-6.5 80l6 33h130l-3 -17q-5 -29 13.5 -48t66.5 -19q47 0 72.5 19t29.5 40q3 6 0 12t-3 9.5t-5.5 7.5t-7.5 6t-9.5 5.5t-10 4.5t-10 3.5t-9.5 3.5l-90 28q-137 44 -117 156q12 70 73 119q-45 39 -32 113q14 78 80 124.5t166 46.5
q94 0 145 -42.5t37 -122.5zM386 317q2 14 -7 23t-34 17q-50 16 -74 23q-46 -16 -52 -52q-1 -4 0 -7.5t3.5 -6.5t5 -5.5t7.5 -5l8 -4t9 -3.5t8.5 -3t8 -2.5t6.5 -1.5t12 -3.5t26 -8l25 -7.5q41 14 48 47z" />
    <glyph glyph-name="dieresis" unicode="&#xa8;" horiz-adv-x="480" 
d="M509 744l-26 -149h-133l26 149h133zM288 744l-26 -149h-133l26 149h133z" />
    <glyph glyph-name="copyright" unicode="&#xa9;" horiz-adv-x="925" 
d="M908 425q0 -97 -40 -187.5t-106.5 -156t-157 -105t-187.5 -39.5q-154 0 -248.5 87.5t-94.5 239.5q0 129 66.5 242.5t179 180.5t241.5 67q154 0 250.5 -89t96.5 -240zM807 415q0 116 -71.5 190t-187.5 74q-104 0 -190.5 -57.5t-134 -149.5t-47.5 -195q0 -114 70.5 -187.5
t184.5 -73.5q102 0 189.5 57.5t137 149t49.5 192.5zM722 462q0 -7 -8 -63h-153q0 3 2 14t2 17q0 18 -13 28t-32 10q-56 0 -65 -53l-24 -131q0 -2 -0.5 -7t-0.5 -8q0 -41 48 -41q23 0 40 13t21 36q2 7 4 21h153l-7 -37q-9 -53 -47 -89.5t-86 -52t-102 -15.5q-79 0 -134 34.5
t-55 108.5q0 19 3 37l24 133q15 85 85.5 130.5t160.5 45.5q73 0 128.5 -32t55.5 -99z" />
    <glyph glyph-name="ordfeminine" unicode="&#xaa;" horiz-adv-x="455" 
d="M454 621q0 -7 -2 -23q-3 -17 -10 -54t-10.5 -58.5t-8 -53t-5.5 -58.5h-124l4 48q-46 -56 -121 -56q-40 0 -67 19t-27 58q0 49 34 81.5t77.5 44t91.5 11.5h29q0 3 2 13t2 15q0 28 -35 28q-42 0 -48 -43h-118l3 15q10 58 66.5 87t122.5 29q58 0 101 -24.5t43 -78.5z
M397 313l-16 -89h-313l16 89h313zM304 518h-23q-57 0 -57 -40q0 -22 30 -22q16 0 29.5 12.5t16.5 28.5z" />
    <glyph glyph-name="guillemotleft" unicode="&#xab;" horiz-adv-x="649" 
d="M657 398l-175 -140l127 -141l-102 -75l-193 216l270 218zM358 398l-175 -140l127 -141l-102 -75l-193 216l270 218z" />
    <glyph glyph-name="logicalnot" unicode="&#xac;" horiz-adv-x="572" 
d="M565 482l-186 -164l128 -164l-83 -73l-129 163l-187 -163l-57 73l186 163l-128 165l83 73l129 -164l187 163z" />
    <glyph glyph-name="registered" unicode="&#xae;" horiz-adv-x="529" 
d="M528 620q0 -97 -71 -169t-167 -72q-75 0 -120.5 44t-45.5 118q0 97 70.5 169t166.5 72q74 0 120.5 -44t46.5 -118zM477 615q0 56 -34 91.5t-89 35.5q-75 0 -126.5 -58.5t-51.5 -135.5q0 -55 33.5 -91t87.5 -36q75 0 127.5 59.5t52.5 134.5zM430 643q0 -21 -11.5 -36.5
t-30.5 -19.5l-1 -7q26 -6 26 -30q0 -8 -1.5 -23t-1.5 -22q0 -11 4 -15h-62q-3 8 -3 14t1.5 17.5t1.5 17.5q0 18 -20 18h-35l-11 -67h-62l33 192h118q55 0 55 -39zM364 625q0 14 -16 14h-36l-8 -42h37q23 0 23 28z" />
    <glyph glyph-name="macron" unicode="&#xaf;" horiz-adv-x="433" 
d="M495 702l-18 -101h-377l18 101h377z" />
    <glyph glyph-name="degree" unicode="&#xb0;" horiz-adv-x="303" 
d="M323 658q0 -45 -35.5 -81.5t-80.5 -36.5q-36 0 -59 21t-23 57q0 46 35 82t81 36q37 0 59.5 -21t22.5 -57zM264 646q0 16 -8.5 26t-23.5 10q-20 0 -33.5 -17t-13.5 -37q0 -15 8.5 -24.5t22.5 -9.5q20 0 34 16.5t14 35.5z" />
    <glyph glyph-name="plusminus" unicode="&#xb1;" 
 />
    <glyph glyph-name="twosuperior" unicode="&#xb2;" 
 />
    <glyph glyph-name="threesuperior" unicode="&#xb3;" 
 />
    <glyph glyph-name="acute" unicode="&#xb4;" horiz-adv-x="335" 
d="M393 762l-164 -170h-94l109 170h149z" />
    <glyph glyph-name="paragraph" unicode="&#xb6;" horiz-adv-x="621" 
d="M657 713l-15 -88h-43l-126 -715h-110l126 715h-69l-126 -715h-109l52 294q-49 6 -82.5 29.5t-48.5 58t-19.5 77.5t5.5 87q17 101 90 179t166 78h309z" />
    <glyph glyph-name="periodcentered" unicode="&#xb7;" horiz-adv-x="306" 
d="M303 498l-34 -194h-202l34 194h202z" />
    <glyph glyph-name="cedilla" unicode="&#xb8;" horiz-adv-x="364" 
d="M291 -96q0 -50 -51.5 -75t-108.5 -25q-47 0 -111 16l11 60q66 -14 104 -14q43 0 43 26q0 4 -2 7t-5 4.5t-7.5 3t-7.5 1.5t-8.5 0.5t-6.5 0.5l-51 3l46 102h71l-24 -53h8q100 0 100 -57z" />
    <glyph glyph-name="onesuperior" unicode="&#xb9;" 
 />
    <glyph glyph-name="ordmasculine" unicode="&#xba;" horiz-adv-x="455" 
d="M469 615q0 -19 -15 -104q-13 -70 -69.5 -107t-131.5 -37q-30 0 -55.5 5.5t-48.5 17.5t-36 35t-13 55q0 20 15 102q13 71 69.5 110.5t131.5 39.5q64 0 108.5 -28.5t44.5 -88.5zM404 313l-16 -89h-313l16 89h313zM332 602q0 14 -8.5 23.5t-22.5 9.5q-40 0 -47 -45l-16 -86
q0 -2 -0.5 -5.5t-0.5 -5.5q0 -30 33 -30q37 0 46 42q16 92 16 97z" />
    <glyph glyph-name="guillemotright" unicode="&#xbb;" horiz-adv-x="649" 
d="M646 260l-270 -218l-73 78l175 140l-127 141l102 75zM347 260l-270 -218l-73 78l175 140l-127 141l102 75z" />
    <glyph glyph-name="onequarter" unicode="&#xbc;" 
 />
    <glyph glyph-name="onehalf" unicode="&#xbd;" 
 />
    <glyph glyph-name="threequarters" unicode="&#xbe;" 
 />
    <glyph glyph-name="questiondown" unicode="&#xbf;" horiz-adv-x="573" 
d="M475 552l-34 -191h-202l34 191h202zM521 62l-5 -30q-18 -99 -104 -151t-194 -52q-43 0 -79.5 8t-69 25t-51 50t-18.5 78q0 131 126 206q10 6 31.5 17.5t32.5 18.5q39 24 45 55q0 3 1.5 11t2.5 12h181l-4 -22q-8 -43 -27.5 -71.5t-57.5 -56.5q-8 -6 -35.5 -24t-45 -30.5
t-33.5 -33t-16 -39.5q0 -21 15 -32.5t37 -11.5q30 0 55 14t31 41l3 18h179z" />
    <glyph glyph-name="Agrave" unicode="&#xc0;" horiz-adv-x="750" 
d="M515 767h-94l-104 167h148zM703 0h-216l-14 115h-237l-54 -115h-208l366 714h255zM454 277l-28 236h-3l-111 -236h142z" />
    <glyph glyph-name="Aacute" unicode="&#xc1;" horiz-adv-x="750" 
d="M686 934l-163 -167h-94l109 167h148zM703 0h-216l-14 115h-237l-54 -115h-208l366 714h255zM454 277l-28 236h-3l-111 -236h142z" />
    <glyph glyph-name="Acircumflex" unicode="&#xc2;" horiz-adv-x="750" 
d="M626 763h-112l-30 97l-67 -97h-112l136 175h109zM703 0h-216l-14 115h-237l-54 -115h-208l366 714h255zM454 277l-28 236h-3l-111 -236h142z" />
    <glyph glyph-name="Atilde" unicode="&#xc3;" horiz-adv-x="750" 
d="M686 897q-43 -131 -138 -131q-29 0 -82 15.5t-83 15.5q-22 0 -33.5 -9.5t-25.5 -34.5l-65 14q46 133 145 133q28 0 80.5 -15.5t81.5 -15.5q34 0 58 44zM703 0h-216l-14 115h-237l-54 -115h-208l366 714h255zM454 277l-28 236h-3l-111 -236h142z" />
    <glyph glyph-name="Adieresis" unicode="&#xc4;" horiz-adv-x="750" 
d="M682 919l-26 -146h-133l26 146h133zM461 919l-26 -146h-133l26 146h133zM703 0h-216l-14 115h-237l-54 -115h-208l366 714h255zM454 277l-28 236h-3l-111 -236h142z" />
    <glyph glyph-name="Aring" unicode="&#xc5;" horiz-adv-x="750" 
d="M603 895q0 -52 -41.5 -91.5t-94.5 -39.5q-42 0 -70 21t-28 62q0 53 41 91.5t95 38.5q42 0 70 -21t28 -61zM703 0h-216l-14 115h-237l-54 -115h-208l366 714h255zM540 881q0 20 -12.5 31t-32.5 11q-25 0 -43.5 -18t-18.5 -43q0 -19 12.5 -31t31.5 -12q25 0 44 18.5
t19 43.5zM454 277l-28 236h-3l-111 -236h142z" />
    <glyph glyph-name="AE" unicode="&#xc6;" horiz-adv-x="1070" 
d="M1114 713l-30 -170h-331l-18 -103h262l-30 -168h-262l-18 -101h331l-30 -171h-551l20 116h-195l-70 -116h-221l456 713h687zM537 567l-177 -290h126z" />
    <glyph glyph-name="Ccedilla" unicode="&#xc7;" horiz-adv-x="681" 
d="M432 -96q0 -50 -51.5 -75t-108.5 -25q-47 0 -111 16l11 60q68 -14 104 -14q44 0 44 26q0 4 -1.5 6.5t-4 4t-5.5 3t-7 2t-7 0.5t-7.5 0.5t-5.5 0.5l-51 3l35 78q-101 8 -165.5 59t-64.5 150q0 24 5 56l37 209q22 125 123.5 193t234.5 68q66 0 123.5 -17t100.5 -62.5
t43 -113.5q0 -23 -11 -85h-206q5 30 5 38q0 33 -23 51t-56 18q-45 0 -75 -24t-38 -69l-36 -205q-2 -16 -2 -25q0 -72 81 -72q40 0 70 23t38 62l4 22h206l-8 -46q-20 -108 -109 -166t-206 -65l-12 -28h7q100 0 100 -57z" />
    <glyph glyph-name="Egrave" unicode="&#xc8;" horiz-adv-x="651" 
d="M479 767h-94l-104 167h148zM694 713l-30 -170h-331l-18 -103h262l-30 -168h-262l-18 -101h331l-30 -171h-551l126 713h551z" />
    <glyph glyph-name="Eacute" unicode="&#xc9;" horiz-adv-x="651" 
d="M619 934l-163 -167h-94l109 167h148zM694 713l-30 -170h-331l-18 -103h262l-30 -168h-262l-18 -101h331l-30 -171h-551l126 713h551z" />
    <glyph glyph-name="Ecircumflex" unicode="&#xca;" horiz-adv-x="651" 
d="M585 763h-112l-30 97l-67 -97h-112l135 175h110zM694 713l-30 -170h-331l-18 -103h262l-30 -168h-262l-18 -101h331l-30 -171h-551l126 713h551z" />
    <glyph glyph-name="Edieresis" unicode="&#xcb;" horiz-adv-x="651" 
d="M638 919l-26 -146h-133l26 146h133zM417 919l-26 -146h-133l26 146h133zM694 713l-30 -170h-331l-18 -103h262l-30 -168h-262l-18 -101h331l-30 -171h-551l126 713h551z" />
    <glyph glyph-name="Igrave" unicode="&#xcc;" horiz-adv-x="324" 
d="M310 767h-94l-104 167h148zM363 713l-126 -713h-220l126 713h220z" />
    <glyph glyph-name="Iacute" unicode="&#xcd;" horiz-adv-x="324" 
d="M477 934l-163 -167h-94l109 167h148zM363 713l-126 -713h-220l126 713h220z" />
    <glyph glyph-name="Icircumflex" unicode="&#xce;" horiz-adv-x="324" 
d="M423 763h-112l-30 97l-67 -97h-112l136 175h109zM363 713l-126 -713h-220l126 713h220z" />
    <glyph glyph-name="Idieresis" unicode="&#xcf;" horiz-adv-x="324" 
d="M471 919l-26 -146h-133l26 146h133zM250 919l-26 -146h-133l26 146h133zM363 713l-126 -713h-220l126 713h220z" />
    <glyph glyph-name="Eth" unicode="&#xd0;" 
 />
    <glyph glyph-name="Ntilde" unicode="&#xd1;" horiz-adv-x="748" 
d="M704 897q-43 -131 -138 -131q-29 0 -82 15t-83 15q-22 0 -33.5 -9t-25.5 -34l-65 14q46 133 145 133q28 0 80.5 -15.5t81.5 -15.5q34 0 58 44zM787 713l-126 -713h-181l-197 374h-3l-65 -374h-198l126 713h193l194 -339h1l58 339h198z" />
    <glyph glyph-name="Ograve" unicode="&#xd2;" horiz-adv-x="702" 
d="M496 767h-94l-104 167h148zM715 509q0 -32 -6 -62l-32 -182q-25 -135 -125 -206t-241 -71q-56 0 -103 10.5t-86.5 34t-62 66t-22.5 101.5q0 32 6 63l32 184q24 133 124 205.5t239 72.5q119 0 198 -51.5t79 -164.5zM491 477q0 36 -22.5 56t-58.5 20q-94 0 -111 -98
l-34 -192q-3 -14 -3 -28q0 -75 81 -75q45 0 74 27t37 72l35 196q2 14 2 22z" />
    <glyph glyph-name="Oacute" unicode="&#xd3;" horiz-adv-x="702" 
d="M652 934l-163 -167h-94l109 167h148zM715 509q0 -32 -6 -62l-32 -182q-25 -135 -125 -206t-241 -71q-56 0 -103 10.5t-86.5 34t-62 66t-22.5 101.5q0 32 6 63l32 184q24 133 124 205.5t239 72.5q119 0 198 -51.5t79 -164.5zM491 477q0 36 -22.5 56t-58.5 20
q-94 0 -111 -98l-34 -192q-3 -14 -3 -28q0 -75 81 -75q45 0 74 27t37 72l35 196q2 14 2 22z" />
    <glyph glyph-name="Ocircumflex" unicode="&#xd4;" horiz-adv-x="702" 
d="M612 763h-112l-30 97l-67 -97h-112l136 175h109zM715 509q0 -32 -6 -62l-32 -182q-25 -135 -125 -206t-241 -71q-56 0 -103 10.5t-86.5 34t-62 66t-22.5 101.5q0 32 6 63l32 184q24 133 124 205.5t239 72.5q119 0 198 -51.5t79 -164.5zM491 477q0 36 -22.5 56t-58.5 20
q-94 0 -111 -98l-34 -192q-3 -14 -3 -28q0 -75 81 -75q45 0 74 27t37 72l35 196q2 14 2 22z" />
    <glyph glyph-name="Otilde" unicode="&#xd5;" horiz-adv-x="702" 
d="M651 897q-43 -131 -138 -131q-29 0 -82 15.5t-83 15.5q-22 0 -33.5 -9.5t-25.5 -34.5l-65 14q46 133 145 133q28 0 80.5 -15.5t81.5 -15.5q34 0 58 44zM715 509q0 -32 -6 -62l-32 -182q-25 -135 -125 -206t-241 -71q-56 0 -103 10.5t-86.5 34t-62 66t-22.5 101.5
q0 32 6 63l32 184q24 133 124 205.5t239 72.5q119 0 198 -51.5t79 -164.5zM491 477q0 36 -22.5 56t-58.5 20q-94 0 -111 -98l-34 -192q-3 -14 -3 -28q0 -75 81 -75q45 0 74 27t37 72l35 196q2 14 2 22z" />
    <glyph glyph-name="Odieresis" unicode="&#xd6;" horiz-adv-x="702" 
d="M652 919l-26 -146h-133l26 146h133zM431 919l-26 -146h-133l26 146h133zM715 509q0 -32 -6 -62l-32 -182q-25 -135 -125 -206t-241 -71q-56 0 -103 10.5t-86.5 34t-62 66t-22.5 101.5q0 32 6 63l32 184q24 133 124 205.5t239 72.5q119 0 198 -51.5t79 -164.5zM491 477
q0 36 -22.5 56t-58.5 20q-94 0 -111 -98l-34 -192q-3 -14 -3 -28q0 -75 81 -75q45 0 74 27t37 72l35 196q2 14 2 22z" />
    <glyph glyph-name="multiply" unicode="&#xd7;" 
 />
    <glyph glyph-name="Oslash" unicode="&#xd8;" horiz-adv-x="702" 
d="M736 715l-64 -74q44 -52 44 -133q0 -31 -6 -61l-32 -182q-24 -135 -124.5 -206t-241.5 -71q-98 0 -170 34l-64 -73l-61 38l67 78q-46 51 -46 135q0 33 6 64l32 183q24 132 124.5 205t238.5 73q108 0 180 -40l60 70zM478 522q-21 31 -67 31q-94 0 -111 -98l-31 -176z
M484 422l-205 -238q20 -24 65 -24t74 27.5t37 72.5z" />
    <glyph glyph-name="Ugrave" unicode="&#xd9;" horiz-adv-x="725" 
d="M512 767h-94l-104 167h148zM761 713l-77 -449q-24 -141 -124.5 -209t-242.5 -68q-113 0 -189 54.5t-76 160.5q0 23 6 56l80 455h220l-78 -446q-3 -15 -3 -34q0 -75 83 -75q92 0 112 109l78 446h211z" />
    <glyph glyph-name="Uacute" unicode="&#xda;" horiz-adv-x="725" 
d="M674 934l-163 -167h-94l109 167h148zM761 713l-77 -449q-24 -141 -124.5 -209t-242.5 -68q-113 0 -189 54.5t-76 160.5q0 23 6 56l80 455h220l-78 -446q-3 -15 -3 -34q0 -75 83 -75q92 0 112 109l78 446h211z" />
    <glyph glyph-name="Ucircumflex" unicode="&#xdb;" horiz-adv-x="725" 
d="M623 763h-112l-30 97l-67 -97h-112l136 175h109zM761 713l-77 -449q-24 -141 -124.5 -209t-242.5 -68q-113 0 -189 54.5t-76 160.5q0 23 6 56l80 455h220l-78 -446q-3 -15 -3 -34q0 -75 83 -75q92 0 112 109l78 446h211z" />
    <glyph glyph-name="Udieresis" unicode="&#xdc;" horiz-adv-x="725" 
d="M666 919l-26 -146h-133l26 146h133zM445 919l-26 -146h-133l26 146h133zM761 713l-77 -449q-24 -141 -124.5 -209t-242.5 -68q-113 0 -189 54.5t-76 160.5q0 23 6 56l80 455h220l-78 -446q-3 -15 -3 -34q0 -75 83 -75q92 0 112 109l78 446h211z" />
    <glyph glyph-name="Yacute" unicode="&#xdd;" 
 />
    <glyph glyph-name="Thorn" unicode="&#xde;" 
 />
    <glyph glyph-name="germandbls" unicode="&#xdf;" horiz-adv-x="679" 
d="M669 564q0 -61 -34.5 -107.5t-92.5 -61.5l-2 -8q52 -20 83.5 -61t31.5 -95q0 -100 -78.5 -171.5t-179.5 -71.5q-79 0 -125 16l27 153q30 -7 53 -7q35 0 60.5 19.5t25.5 54.5q0 33 -31.5 46t-70.5 13l25 142h22q75 33 75 98q0 59 -68 59q-70 0 -84 -85l-121 -681l-206 -16
l119 672q22 123 106.5 188t210.5 65q46 0 88 -8t81 -25t62 -50t23 -78z" />
    <glyph glyph-name="agrave" unicode="&#xe0;" horiz-adv-x="621" 
d="M433 595h-94l-104 167h130zM633 540l-96 -540h-199l12 66h-4q-73 -78 -166 -78q-73 0 -115 35.5t-42 106.5q0 25 4 45q11 65 35 195q15 81 78 131t146 50q39 0 77 -13.5t57 -40.5h2l8 43h203zM396 360q0 26 -16 40t-42 14q-32 0 -52.5 -24.5t-26.5 -57.5l-21 -120
q-2 -12 -2 -18q0 -25 13.5 -41.5t38.5 -16.5q34 0 56 23t28 57l23 127q1 5 1 17z" />
    <glyph glyph-name="aacute" unicode="&#xe1;" horiz-adv-x="621" 
d="M544 762l-163 -167h-94l109 167h148zM633 540l-96 -540h-199l12 66h-4q-73 -78 -166 -78q-73 0 -115 35.5t-42 106.5q0 25 4 45q11 65 35 195q15 81 78 131t146 50q39 0 77 -13.5t57 -40.5h2l8 43h203zM396 360q0 26 -16 40t-42 14q-32 0 -52.5 -24.5t-26.5 -57.5
l-21 -120q-2 -12 -2 -18q0 -25 13.5 -41.5t38.5 -16.5q34 0 56 23t28 57l23 127q1 5 1 17z" />
    <glyph glyph-name="acircumflex" unicode="&#xe2;" horiz-adv-x="621" 
d="M543 595h-112l-30 97l-67 -97h-111l136 175h109zM633 540l-96 -540h-199l12 66h-4q-73 -78 -166 -78q-73 0 -115 35.5t-42 106.5q0 25 4 45q11 65 35 195q15 81 78 131t146 50q39 0 77 -13.5t57 -40.5h2l8 43h203zM396 360q0 26 -16 40t-42 14q-32 0 -52.5 -24.5
t-26.5 -57.5l-21 -120q-2 -12 -2 -18q0 -25 13.5 -41.5t38.5 -16.5q34 0 56 23t28 57l23 127q1 5 1 17z" />
    <glyph glyph-name="atilde" unicode="&#xe3;" horiz-adv-x="621" 
d="M594 730q-43 -131 -138 -131q-29 0 -82 15t-83 15q-22 0 -34 -9.5t-25 -34.5l-65 15q46 133 145 133q28 0 80.5 -15.5t81.5 -15.5q34 0 58 44zM633 540l-96 -540h-199l12 66h-4q-73 -78 -166 -78q-73 0 -115 35.5t-42 106.5q0 25 4 45q11 65 35 195q15 81 78 131t146 50
q39 0 77 -13.5t57 -40.5h2l8 43h203zM396 360q0 26 -16 40t-42 14q-32 0 -52.5 -24.5t-26.5 -57.5l-21 -120q-2 -12 -2 -18q0 -25 13.5 -41.5t38.5 -16.5q34 0 56 23t28 57l23 127q1 5 1 17z" />
    <glyph glyph-name="adieresis" unicode="&#xe4;" horiz-adv-x="621" 
d="M580 744l-26 -146h-133l26 146h133zM359 744l-26 -146h-133l26 146h133zM633 540l-96 -540h-199l12 66h-4q-73 -78 -166 -78q-73 0 -115 35.5t-42 106.5q0 25 4 45q11 65 35 195q15 81 78 131t146 50q39 0 77 -13.5t57 -40.5h2l8 43h203zM396 360q0 26 -16 40t-42 14
q-32 0 -52.5 -24.5t-26.5 -57.5l-21 -120q-2 -12 -2 -18q0 -25 13.5 -41.5t38.5 -16.5q34 0 56 23t28 57l23 127q1 5 1 17z" />
    <glyph glyph-name="aring" unicode="&#xe5;" horiz-adv-x="621" 
d="M503 722q0 -52 -41.5 -91.5t-94.5 -39.5q-42 0 -70 21t-28 62q0 53 41 91.5t95 38.5q42 0 70 -21t28 -61zM633 540l-96 -540h-199l12 66h-4q-73 -78 -166 -78q-73 0 -115 35.5t-42 106.5q0 25 4 45q11 65 35 195q15 81 78 131t146 50q39 0 77 -13.5t57 -40.5h2l8 43h203z
M440 708q0 20 -12.5 31t-32.5 11q-25 0 -43.5 -18t-18.5 -43q0 -19 12.5 -31t31.5 -12q25 0 44 18.5t19 43.5zM396 360q0 26 -16 40t-42 14q-32 0 -52.5 -24.5t-26.5 -57.5l-21 -120q-2 -12 -2 -18q0 -25 13.5 -41.5t38.5 -16.5q34 0 56 23t28 57l23 127q1 5 1 17z" />
    <glyph glyph-name="ae" unicode="&#xe6;" horiz-adv-x="910" 
d="M900 372q0 -27 -22 -148h-313q-4 -20 -4 -29q0 -32 29 -46.5t65 -14.5q55 0 166 30l9 -130q-118 -47 -237 -47q-167 0 -220 98q-79 -97 -214 -97q-62 0 -103 29.5t-41 89.5q0 59 29.5 102.5t78.5 66.5t100.5 34t106.5 11h48q8 43 8 49q0 46 -59 46q-66 0 -77 -68h-180
l4 22q8 47 38.5 83.5t74 57t89.5 30.5t93 10q96 0 156 -40q79 41 168 41t148 -46.5t59 -133.5zM715 366q0 49 -54 49q-29 0 -49 -18t-25 -46l-4 -24h126zM362 229h-39q-93 0 -93 -67q0 -37 48 -37q27 0 49.5 20t27.5 47z" />
    <glyph glyph-name="ccedilla" unicode="&#xe7;" horiz-adv-x="584" 
d="M568 392q0 -21 -8 -63h-179q4 24 4 35q0 45 -48 45q-66 0 -77 -68q-26 -134 -26 -146q0 -32 29 -46.5t65 -14.5q76 0 187 30l9 -130q-96 -40 -209 -46l-12 -27h8q99 0 99 -57q0 -35 -28.5 -59t-62.5 -32.5t-68 -8.5q-49 0 -111 16l10 60q68 -14 105 -14q43 0 43 26
q0 4 -1.5 6.5t-4 4t-5.5 3t-7 2t-7 0.5t-7.5 0.5t-5.5 0.5l-51 3l35 76q-92 7 -155 49.5t-63 126.5q0 14 4 44q4 19 10.5 56t9.5 54q20 110 104 172t198 62q86 0 151 -39.5t65 -120.5z" />
    <glyph glyph-name="egrave" unicode="&#xe8;" horiz-adv-x="582" 
d="M433 595h-94l-104 167h130zM573 372q0 -27 -22 -148h-313q-4 -20 -4 -29q0 -32 29 -46.5t65 -14.5q55 0 166 30l9 -130q-117 -47 -237 -47q-46 0 -86.5 9t-76 28.5t-56.5 55.5t-21 85q0 27 21 140q21 116 110 181.5t209 65.5q89 0 148 -46.5t59 -133.5zM387 366
q0 49 -54 49q-29 0 -48.5 -18t-24.5 -46l-4 -24h126q5 32 5 39z" />
    <glyph glyph-name="eacute" unicode="&#xe9;" horiz-adv-x="582" 
d="M544 762l-163 -167h-94l109 167h148zM573 372q0 -27 -22 -148h-313q-4 -20 -4 -29q0 -32 29 -46.5t65 -14.5q55 0 166 30l9 -130q-117 -47 -237 -47q-46 0 -86.5 9t-76 28.5t-56.5 55.5t-21 85q0 27 21 140q21 116 110 181.5t209 65.5q89 0 148 -46.5t59 -133.5zM387 366
q0 49 -54 49q-29 0 -48.5 -18t-24.5 -46l-4 -24h126q5 32 5 39z" />
    <glyph glyph-name="ecircumflex" unicode="&#xea;" horiz-adv-x="582" 
d="M534 595h-112l-30 97l-67 -97h-111l136 175h109zM573 372q0 -27 -22 -148h-313q-4 -20 -4 -29q0 -32 29 -46.5t65 -14.5q55 0 166 30l9 -130q-117 -47 -237 -47q-46 0 -86.5 9t-76 28.5t-56.5 55.5t-21 85q0 27 21 140q21 116 110 181.5t209 65.5q89 0 148 -46.5
t59 -133.5zM387 366q0 49 -54 49q-29 0 -48.5 -18t-24.5 -46l-4 -24h126q5 32 5 39z" />
    <glyph glyph-name="edieresis" unicode="&#xeb;" horiz-adv-x="582" 
d="M580 744l-26 -146h-133l26 146h133zM359 744l-26 -146h-133l26 146h133zM573 372q0 -27 -22 -148h-313q-4 -20 -4 -29q0 -32 29 -46.5t65 -14.5q55 0 166 30l9 -130q-117 -47 -237 -47q-46 0 -86.5 9t-76 28.5t-56.5 55.5t-21 85q0 27 21 140q21 116 110 181.5t209 65.5
q89 0 148 -46.5t59 -133.5zM387 366q0 49 -54 49q-29 0 -48.5 -18t-24.5 -46l-4 -24h126q5 32 5 39z" />
    <glyph glyph-name="igrave" unicode="&#xec;" horiz-adv-x="300" 
d="M277 595h-94l-104 167h130zM307 538l-95 -538h-204l95 538h204z" />
    <glyph glyph-name="iacute" unicode="&#xed;" horiz-adv-x="300" 
d="M417 762l-163 -167h-94l109 167h148zM307 538l-95 -538h-204l95 538h204z" />
    <glyph glyph-name="icircumflex" unicode="&#xee;" horiz-adv-x="300" 
d="M381 595h-112l-30 97l-67 -97h-111l136 175h109zM307 538l-95 -538h-204l95 538h204z" />
    <glyph glyph-name="idieresis" unicode="&#xef;" horiz-adv-x="300" 
d="M425 744l-26 -146h-133l26 146h133zM204 744l-26 -146h-133l26 146h133zM307 538l-95 -538h-204l95 538h204z" />
    <glyph glyph-name="eth" unicode="&#xf0;" 
 />
    <glyph glyph-name="ntilde" unicode="&#xf1;" horiz-adv-x="632" 
d="M614 730q-43 -131 -138 -131q-29 0 -82 15t-83 15q-22 0 -34 -9.5t-25 -34.5l-65 15q46 133 145 133q28 0 80.5 -15.5t81.5 -15.5q34 0 58 44zM621 428q0 -22 -4 -42l-67 -386h-204l56 317q0 1 2 12.5t2 16.5q0 23 -15.5 38t-42.5 15q-32 0 -54 -29t-28 -64l-54 -306
h-204l95 540h200l-12 -71h2q78 83 183 83q60 0 102.5 -33t42.5 -91z" />
    <glyph glyph-name="ograve" unicode="&#xf2;" horiz-adv-x="600" 
d="M433 595h-94l-104 167h130zM591 371q0 -27 -4 -48l-20 -113q-20 -109 -106 -165.5t-201 -56.5q-63 0 -112.5 14t-85.5 54.5t-36 104.5q0 27 4 48l20 110q20 110 105.5 171.5t200.5 61.5q63 0 113.5 -16t86 -58.5t35.5 -106.5zM384 352q0 24 -13.5 39.5t-37.5 15.5
q-31 0 -50 -21t-25 -54l-23 -134q-2 -12 -2 -18q0 -48 53 -48q30 0 48.5 19t24.5 50l24 134q1 5 1 17z" />
    <glyph glyph-name="oacute" unicode="&#xf3;" horiz-adv-x="600" 
d="M544 762l-163 -167h-94l109 167h148zM591 371q0 -27 -4 -48l-20 -113q-20 -109 -106 -165.5t-201 -56.5q-63 0 -112.5 14t-85.5 54.5t-36 104.5q0 27 4 48l20 110q20 110 105.5 171.5t200.5 61.5q63 0 113.5 -16t86 -58.5t35.5 -106.5zM384 352q0 24 -13.5 39.5
t-37.5 15.5q-31 0 -50 -21t-25 -54l-23 -134q-2 -12 -2 -18q0 -48 53 -48q30 0 48.5 19t24.5 50l24 134q1 5 1 17z" />
    <glyph glyph-name="ocircumflex" unicode="&#xf4;" horiz-adv-x="600" 
d="M516 595h-112l-30 97l-67 -97h-111l136 175h109zM591 371q0 -27 -4 -48l-20 -113q-20 -109 -106 -165.5t-201 -56.5q-63 0 -112.5 14t-85.5 54.5t-36 104.5q0 27 4 48l20 110q20 110 105.5 171.5t200.5 61.5q63 0 113.5 -16t86 -58.5t35.5 -106.5zM384 352
q0 24 -13.5 39.5t-37.5 15.5q-31 0 -50 -21t-25 -54l-23 -134q-2 -12 -2 -18q0 -48 53 -48q30 0 48.5 19t24.5 50l24 134q1 5 1 17z" />
    <glyph glyph-name="otilde" unicode="&#xf5;" horiz-adv-x="600" 
d="M574 730q-43 -131 -138 -131q-29 0 -82 15t-83 15q-22 0 -34 -9.5t-25 -34.5l-65 15q46 133 145 133q28 0 80.5 -15.5t81.5 -15.5q34 0 58 44zM591 371q0 -27 -4 -48l-20 -113q-20 -109 -106 -165.5t-201 -56.5q-63 0 -112.5 14t-85.5 54.5t-36 104.5q0 27 4 48l20 110
q20 110 105.5 171.5t200.5 61.5q63 0 113.5 -16t86 -58.5t35.5 -106.5zM384 352q0 24 -13.5 39.5t-37.5 15.5q-31 0 -50 -21t-25 -54l-23 -134q-2 -12 -2 -18q0 -48 53 -48q30 0 48.5 19t24.5 50l24 134q1 5 1 17z" />
    <glyph glyph-name="odieresis" unicode="&#xf6;" horiz-adv-x="600" 
d="M562 744l-26 -146h-133l26 146h133zM341 744l-26 -146h-133l26 146h133zM591 371q0 -27 -4 -48l-20 -113q-20 -109 -106 -165.5t-201 -56.5q-63 0 -112.5 14t-85.5 54.5t-36 104.5q0 27 4 48l20 110q20 110 105.5 171.5t200.5 61.5q63 0 113.5 -16t86 -58.5t35.5 -106.5z
M384 352q0 24 -13.5 39.5t-37.5 15.5q-31 0 -50 -21t-25 -54l-23 -134q-2 -12 -2 -18q0 -48 53 -48q30 0 48.5 19t24.5 50l24 134q1 5 1 17z" />
    <glyph glyph-name="divide" unicode="&#xf7;" horiz-adv-x="602" 
d="M443 570l-25 -140h-150l25 140h150zM576 366l-18 -100h-488l18 100h488zM378 202l-25 -140h-150l25 140h150z" />
    <glyph glyph-name="oslash" unicode="&#xf8;" horiz-adv-x="600" 
d="M601 540l-50 -55q41 -45 41 -113q0 -22 -5 -49q-5 -31 -20 -113q-19 -108 -105.5 -165t-201.5 -57q-79 0 -136 24l-52 -57l-55 33l53 59q-43 43 -43 114q0 27 4 48l20 110q20 111 105 172t201 61q87 0 144 -30l48 53zM377 385q-17 22 -43 22q-31 0 -50 -21t-25 -54
l-17 -96zM376 291l-131 -145q14 -14 42 -14q30 0 48.5 19t24.5 50z" />
    <glyph glyph-name="ugrave" unicode="&#xf9;" horiz-adv-x="632" 
d="M433 595h-94l-104 167h130zM642 540l-95 -540h-200l12 71h-2q-78 -83 -183 -83q-60 0 -102.5 33t-42.5 91q0 22 4 42l67 386h204l-56 -317q0 -1 -2 -12.5t-2 -16.5q0 -23 15.5 -38t42.5 -15q32 0 54 29t28 64l54 306h204z" />
    <glyph glyph-name="uacute" unicode="&#xfa;" horiz-adv-x="632" 
d="M586 762l-163 -167h-94l109 167h148zM642 540l-95 -540h-200l12 71h-2q-78 -83 -183 -83q-60 0 -102.5 33t-42.5 91q0 22 4 42l67 386h204l-56 -317q0 -1 -2 -12.5t-2 -16.5q0 -23 15.5 -38t42.5 -15q32 0 54 29t28 64l54 306h204z" />
    <glyph glyph-name="ucircumflex" unicode="&#xfb;" horiz-adv-x="632" 
d="M542 595h-112l-30 97l-67 -97h-111l136 175h109zM642 540l-95 -540h-200l12 71h-2q-78 -83 -183 -83q-60 0 -102.5 33t-42.5 91q0 22 4 42l67 386h204l-56 -317q0 -1 -2 -12.5t-2 -16.5q0 -23 15.5 -38t42.5 -15q32 0 54 29t28 64l54 306h204z" />
    <glyph glyph-name="udieresis" unicode="&#xfc;" horiz-adv-x="632" 
d="M589 744l-26 -146h-133l26 146h133zM368 744l-26 -146h-133l26 146h133zM642 540l-95 -540h-200l12 71h-2q-78 -83 -183 -83q-60 0 -102.5 33t-42.5 91q0 22 4 42l67 386h204l-56 -317q0 -1 -2 -12.5t-2 -16.5q0 -23 15.5 -38t42.5 -15q32 0 54 29t28 64l54 306h204z" />
    <glyph glyph-name="yacute" unicode="&#xfd;" horiz-adv-x="632" 
d="M642 539l-83 -475q-22 -125 -112.5 -190.5t-221.5 -65.5q-129 0 -236 41l81 146q78 -28 164 -28q104 0 122 88l13 63h-2q-78 -83 -183 -83q-60 0 -102.5 33t-42.5 91q0 22 4 42l57 338h204l-47 -273q0 -1 -2 -12.5t-2 -16.5q0 -23 15.5 -38t42.5 -15q32 0 54 28.5
t28 64.5l45 262h204zM587 762l-163 -167h-94l109 167h148z" />
    <glyph glyph-name="thorn" unicode="&#xfe;" 
 />
    <glyph glyph-name="ydieresis" unicode="&#xff;" horiz-adv-x="632" 
d="M587 744l-25 -146h-133l25 146h133zM366 744l-25 -146h-133l25 146h133zM642 539l-83 -475q-22 -125 -112.5 -190.5t-221.5 -65.5q-129 0 -236 41l81 146q78 -28 164 -28q104 0 122 88l13 63h-2q-78 -83 -183 -83q-60 0 -102.5 33t-42.5 91q0 22 4 42l57 338h204
l-47 -273q0 -1 -2 -12.5t-2 -16.5q0 -23 15.5 -38t42.5 -15q32 0 54 28.5t28 64.5l45 262h204z" />
    <glyph glyph-name="dotlessi" unicode="&#x131;" horiz-adv-x="300" 
d="M307 538l-95 -538h-204l95 538h204z" />
    <glyph glyph-name="Lslash" unicode="&#x141;" 
 />
    <glyph glyph-name="lslash" unicode="&#x142;" 
 />
    <glyph glyph-name="OE" unicode="&#x152;" horiz-adv-x="1045" 
d="M1086 713l-30 -170h-331l-18 -103h262l-30 -168h-262l-17 -101h331l-31 -171h-551l4 21q-59 -33 -126 -33q-250 0 -250 203q0 30 7 72l32 184q24 133 113 205.5t225 72.5q70 0 117 -36l4 24h551zM492 477q0 36 -22.5 56t-58.5 20q-94 0 -111 -98l-34 -192q-3 -14 -3 -28
q0 -75 81 -75q45 0 74 27t37 72l35 196q2 14 2 22z" />
    <glyph glyph-name="oe" unicode="&#x153;" horiz-adv-x="919" 
d="M904 372q0 -27 -22 -148h-313q-4 -20 -4 -29q0 -32 29 -46.5t65 -14.5q55 0 166 30l9 -130q-118 -47 -237 -47q-102 0 -167 40q-77 -39 -170 -39q-63 0 -112.5 14t-85.5 54.5t-36 104.5q0 27 4 48l20 110q20 110 105 171.5t201 61.5q103 0 166 -44q78 44 175 44
q89 0 148 -46.5t59 -133.5zM719 366q0 49 -54 49q-29 0 -49 -18t-25 -46l-4 -24h126zM384 352q0 24 -13.5 39.5t-37.5 15.5q-31 0 -50 -21t-25 -54l-23 -134q-2 -12 -2 -18q0 -48 53 -48q30 0 48.5 19t24.5 50l24 134q1 5 1 17z" />
    <glyph glyph-name="Scaron" unicode="&#x160;" 
 />
    <glyph glyph-name="scaron" unicode="&#x161;" 
 />
    <glyph glyph-name="Ydieresis" unicode="&#x178;" horiz-adv-x="682" 
d="M652 919l-26 -146h-133l26 146h133zM431 919l-26 -146h-133l26 146h133zM763 713l-306 -436l-49 -277h-221l49 278l-152 435h219l80 -260l173 260h207z" />
    <glyph glyph-name="Zcaron" unicode="&#x17d;" 
 />
    <glyph glyph-name="zcaron" unicode="&#x17e;" 
 />
    <glyph glyph-name="florin" unicode="&#x192;" horiz-adv-x="428" 
d="M502 718l-21 -123q-30 4 -57 4q-17 0 -29 -9.5t-15 -25.5l-29 -164h99l-20 -115h-99l-81 -460h-207l81 460h-83l20 115h83l31 172q10 57 46 94.5t78 51t89 13.5q78 0 114 -13z" />
    <glyph glyph-name="circumflex" unicode="&#x2c6;" horiz-adv-x="387" 
d="M419 592h-112l-30 99l-67 -99h-111l136 178h110z" />
    <glyph glyph-name="caron" unicode="&#x2c7;" horiz-adv-x="387" 
d="M460 770l-136 -178h-110l-74 178h112l30 -99l67 99h111z" />
    <glyph glyph-name="breve" unicode="&#x2d8;" horiz-adv-x="457" 
d="M495 736q-19 -76 -73 -115t-125 -39q-64 0 -113 37t-49 98q0 13 1 19h95q15 -68 77 -68q31 0 55.5 19t34.5 49h97z" />
    <glyph glyph-name="dotaccent" unicode="&#x2d9;" horiz-adv-x="259" 
d="M289 735l-26 -149h-133l26 149h133z" />
    <glyph glyph-name="ring" unicode="&#x2da;" horiz-adv-x="330" 
d="M370 721q0 -53 -42 -93t-96 -40q-41 0 -69 22t-28 62q0 53 41 92.5t94 39.5q43 0 71.5 -21t28.5 -62zM305 707q0 20 -12 31t-32 11q-25 0 -43 -18.5t-18 -43.5q0 -19 12 -31t30 -12q26 0 44.5 19t18.5 44z" />
    <glyph glyph-name="ogonek" unicode="&#x2db;" horiz-adv-x="400" 
d="M280 1q-46 -16 -83.5 -42.5t-37.5 -63.5q0 -30 35 -30q20 0 56 8l-11 -61q-44 -9 -88 -9q-118 0 -118 64q0 35 33.5 68t71.5 51t75 28z" />
    <glyph glyph-name="tilde" unicode="&#x2dc;" horiz-adv-x="508" 
d="M541 730q-43 -134 -138 -134q-29 0 -82.5 15.5t-82.5 15.5q-23 0 -34.5 -9.5t-24.5 -35.5l-65 15q45 136 145 136q28 0 80.5 -16t81.5 -16q33 0 58 45z" />
    <glyph glyph-name="hungarumlaut" unicode="&#x2dd;" horiz-adv-x="555" 
d="M612 762l-164 -170h-94l109 170h149zM392 762l-164 -170h-94l109 170h149z" />
    <glyph glyph-name="Delta" unicode="&#x394;" 
 />
    <glyph glyph-name="Omega" unicode="&#x3a9;" 
 />
    <glyph glyph-name="mu" unicode="&#x3bc;" 
 />
    <glyph glyph-name="pi" unicode="&#x3c0;" 
 />
    <glyph glyph-name="endash" unicode="&#x2013;" horiz-adv-x="634" 
d="M625 353l-19 -110h-580l19 110h580z" />
    <glyph glyph-name="emdash" unicode="&#x2014;" horiz-adv-x="1134" 
d="M1129 352l-19 -109h-1080l19 109h1080z" />
    <glyph glyph-name="quoteleft" unicode="&#x2018;" horiz-adv-x="322" 
d="M331 582l-34 -191h-202l32 181l103 153h90l-61 -143h72z" />
    <glyph glyph-name="quoteright" unicode="&#x2019;" horiz-adv-x="322" 
d="M381 725l-32 -181l-103 -153h-91l62 143h-72l34 191h202z" />
    <glyph glyph-name="quotesinglbase" unicode="&#x201a;" horiz-adv-x="322" 
d="M268 193l-32 -181l-103 -153h-91l62 143h-72l34 191h202z" />
    <glyph glyph-name="quotedblleft" unicode="&#x201c;" horiz-adv-x="579" 
d="M586 582l-34 -191h-202l32 181l103 153h90l-61 -143h72zM329 582l-34 -191h-202l32 181l103 153h90l-61 -143h72z" />
    <glyph glyph-name="quotedblright" unicode="&#x201d;" horiz-adv-x="579" 
d="M606 725l-32 -181l-103 -153h-91l62 143h-72l34 191h202zM349 725l-32 -181l-103 -153h-91l62 143h-72l34 191h202z" />
    <glyph glyph-name="quotedblbase" unicode="&#x201e;" horiz-adv-x="579" 
d="M524 193l-32 -181l-103 -153h-91l62 143h-72l34 191h202zM267 193l-32 -181l-103 -153h-91l62 143h-72l34 191h202z" />
    <glyph glyph-name="dagger" unicode="&#x2020;" horiz-adv-x="580" 
d="M597 564l-18 -103h-183l-108 -613h-120l108 613h-183l18 103h183l27 154h120l-27 -154h183z" />
    <glyph glyph-name="daggerdbl" unicode="&#x2021;" horiz-adv-x="580" 
d="M598 565l-19 -104h-183l-60 -343h183l-18 -104h-183l-29 -165h-120l29 165h-184l18 104h184l60 343h-184l19 104h184l27 154h120l-27 -154h183z" />
    <glyph glyph-name="bullet" unicode="&#x2022;" horiz-adv-x="446" 
d="M349 385q0 -48 -37.5 -86.5t-85.5 -38.5q-38 0 -63 25t-25 63q0 49 38 86.5t87 37.5q37 0 61.5 -24.5t24.5 -62.5z" />
    <glyph glyph-name="ellipsis" unicode="&#x2026;" horiz-adv-x="850" 
d="M790 194l-34 -194h-202l34 194h202zM526 194l-34 -194h-202l34 194h202zM262 194l-34 -194h-202l34 194h202z" />
    <glyph glyph-name="perthousand" unicode="&#x2030;" horiz-adv-x="1315" 
d="M1297 300q0 -17 -2 -26l-28 -154q-11 -62 -64.5 -96t-120.5 -34q-59 0 -102.5 25t-43.5 80q0 9 2 25l28 157q11 65 64 97.5t123 32.5q59 0 101.5 -26t42.5 -81zM913 300q0 -17 -2 -26l-28 -154q-11 -62 -64.5 -96t-120.5 -34q-59 0 -102.5 25t-43.5 80q0 9 2 25l28 157
q11 65 64 97.5t123 32.5q59 0 101.5 -26t42.5 -81zM826 718l-544 -726h-110l545 726h109zM447 616q0 -12 -3 -26l-27 -154q-11 -62 -64.5 -95.5t-121.5 -33.5q-59 0 -102 25t-43 80q0 8 2 24l28 157q11 65 63.5 98.5t122.5 33.5q59 0 102 -27t43 -82zM1169 281v4
q0 26 -32 26q-37 0 -43 -30l-29 -161v-6q0 -26 33 -26q16 0 28 9.5t15 24.5zM785 281v4q0 26 -32 26q-37 0 -43 -30l-29 -161v-6q0 -26 33 -26q16 0 28 9.5t15 24.5zM319 597v5q0 25 -33 25q-36 0 -42 -30l-29 -161v-5q0 -27 33 -27q16 0 28 9.5t15 24.5z" />
    <glyph glyph-name="guilsinglleft" unicode="&#x2039;" horiz-adv-x="350" 
d="M367 398l-175 -140l127 -141l-102 -75l-193 216l270 218z" />
    <glyph glyph-name="guilsinglright" unicode="&#x203a;" horiz-adv-x="350" 
d="M345 260l-270 -218l-73 78l175 140l-127 141l102 75z" />
    <glyph glyph-name="fraction" unicode="&#x2044;" horiz-adv-x="590" 
d="M671 727l-593 -763h-124l593 763h124z" />
    <glyph glyph-name="trademark" unicode="&#x2122;" horiz-adv-x="703" 
d="M741 723l-57 -320h-90l31 172l-58 -123h-64l-13 122l-31 -171h-90l57 320h121l16 -119l56 119h122zM393 723l-15 -84h-82l-42 -236h-100l42 236h-82l15 84h264z" />
    <glyph glyph-name="partialdiff" unicode="&#x2202;" horiz-adv-x="600" 
d="M584 326q0 -25 -17 -117q-19 -108 -105 -164.5t-202 -56.5q-63 0 -112.5 14t-85.5 54.5t-36 104.5q0 19 2.5 37.5t8.5 47.5t7 37q17 92 79 149.5t156 75.5l-121 205h236l161 -281q29 -49 29 -106zM378 315q0 24 -13.5 39.5t-37.5 15.5q-31 0 -50 -21t-25 -53l-17 -98
q-2 -12 -2 -18q0 -48 53 -48q30 0 48.5 18.5t24.5 49.5l17 99q2 10 2 16z" />
    <glyph glyph-name="product" unicode="&#x220f;" 
 />
    <glyph glyph-name="summation" unicode="&#x2211;" 
 />
    <glyph glyph-name="minus" unicode="&#x2212;" 
 />
    <glyph glyph-name="radical" unicode="&#x221a;" 
 />
    <glyph glyph-name="infinity" unicode="&#x221e;" 
 />
    <glyph glyph-name="integral" unicode="&#x222b;" 
 />
    <glyph glyph-name="approxequal" unicode="&#x2248;" 
 />
    <glyph glyph-name="notequal" unicode="&#x2260;" 
 />
    <glyph glyph-name="lessequal" unicode="&#x2264;" 
 />
    <glyph glyph-name="greaterequal" unicode="&#x2265;" 
 />
    <glyph glyph-name="lozenge" unicode="&#x25ca;" 
 />
    <glyph glyph-name="fi" unicode="&#xfb01;" horiz-adv-x="703" 
d="M743 725l-24 -134h-204l24 134h204zM710 538l-95 -538h-204l95 538h204zM472 718l-21 -119q-45 3 -54 3q-18 0 -31 -10t-16 -27l-7 -39h89l-25 -141h-89l-102 -569l-206 -16l105 585h-74l25 141h74l9 47q10 56 45.5 93.5t77 51t87.5 13.5q36 0 56 -1q34 -4 57 -12z" />
    <glyph glyph-name="fl" unicode="&#xfb02;" horiz-adv-x="758" 
d="M743 713l-91 -517q-2 -10 -2 -14q0 -25 36 -25q12 0 38 4l-27 -154q-60 -19 -116 -19q-63 0 -105.5 27t-42.5 87q0 9 2 29l103 582h205zM472 718l-21 -119q-45 3 -54 3q-18 0 -31 -10t-16 -27l-7 -39h89l-25 -141h-89l-102 -569l-206 -16l105 585h-74l25 141h74l9 47
q10 56 45.5 93.5t77 51t87.5 13.5q36 0 56 -1q34 -4 57 -12z" />
    <glyph glyph-name="apple" horiz-adv-x="602" 
d="M548 368l-18 -104h-438l18 104h438z" />
    <glyph glyph-name="_257" 
 />
    <glyph glyph-name="_258" horiz-adv-x="773" 
d="M810 713l-126 -713h-657l126 713h657zM712 630h-491l-96 -547h491z" />
    <glyph glyph-name="_259" horiz-adv-x="773" 
d="M807 713l-126 -713h-657l126 713h657z" />
    </font>
</defs>
</svg>
