<?xml version="1.0" standalone="no"?>
<!DOCTYPE svg PUBLIC "-//W3C//DTD SVG 1.1//EN" "http://www.w3.org/Graphics/SVG/1.1/DTD/svg11.dtd" >
<svg>
<metadata>
Created by FontForge 20120731 at Wed Jun 24 20:36:14 2015
 By ,,,
Copyright (c) Feliciano Type Foundry, 2004. All rights reserved.
</metadata>
<defs>
<font id="FlamaBlack" horiz-adv-x="500" >
  <font-face 
    font-family="FlamaBlack"
    font-weight="900"
    font-stretch="normal"
    units-per-em="1000"
    panose-1="2 0 10 3 0 0 0 0 0 0"
    ascent="800"
    descent="-200"
    x-height="539"
    cap-height="713"
    bbox="-38 -200 1277 977"
    underline-thickness="20"
    underline-position="-100"
    unicode-range="U+0020-FFFD"
  />
<missing-glyph horiz-adv-x="1000" 
 />
    <glyph glyph-name=".notdef" unicode="&#xfffd;" horiz-adv-x="1000" 
 />
    <glyph glyph-name=".null" horiz-adv-x="0" 
 />
    <glyph glyph-name="nonmarkingreturn" horiz-adv-x="333" 
 />
    <glyph glyph-name="space" unicode=" " horiz-adv-x="240" 
 />
    <glyph glyph-name="exclam" unicode="!" horiz-adv-x="322" 
d="M269 456l-48 -215h-120l-48 215v257h216v-257zM264 0h-206v194h206v-194z" />
    <glyph glyph-name="quotedbl" unicode="&#x22;" horiz-adv-x="518" 
d="M454 573l-24 -183h-115l-24 183v152h163v-152zM227 573l-24 -183h-115l-24 183v152h163v-152z" />
    <glyph glyph-name="numbersign" unicode="#" horiz-adv-x="637" 
d="M601 470l-13 -95h-107l-23 -150h111l-13 -96h-113l-21 -139h-94l20 139h-107l-23 -139h-94l23 139h-111l17 96h107l24 150h-115l17 95h110l20 128h95l-18 -128h107l20 128h94l-20 -128h107zM386 375h-108l-22 -150h106z" />
    <glyph glyph-name="dollar" unicode="$" horiz-adv-x="614" 
d="M582 245q0 -90 -54.5 -143.5t-137.5 -71.5v-75h-141v68q-133 10 -224 72l98 145q91 -66 170 -66q71 0 71 34q0 11 -6 19t-12.5 11t-17.5 7l-10 3q-9 2 -14 3l-105 30q-69 19 -110 66t-41 116q0 80 54 140.5t147 77.5v66h141v-65q86 -10 171 -61l-109 -137q-26 21 -64 33
t-69 12q-67 0 -67 -35q0 -26 44 -34q19 -4 39.5 -10t45.5 -13.5t40 -11.5q78 -22 119.5 -68t41.5 -112z" />
    <glyph glyph-name="percent" unicode="%" horiz-adv-x="931" 
d="M893 121q0 -66 -50.5 -98.5t-114.5 -32.5q-67 0 -117.5 31.5t-50.5 99.5v156q0 68 49.5 100t116.5 32t117 -33t50 -102v-153zM732 718l-419 -726h-114l419 726h114zM371 436q0 -66 -50.5 -98.5t-114.5 -32.5q-67 0 -117.5 31.5t-50.5 99.5v156q0 68 49 100.5t116 32.5
t117.5 -33.5t50.5 -102.5v-153zM762 123v158q0 12 -9.5 20t-25.5 8q-17 0 -26.5 -8t-9.5 -20v-160q0 -12 9 -21t27 -9q17 0 26 9.5t9 22.5zM240 438v158q0 12 -10 20t-26 8q-17 0 -26 -8t-9 -20v-160q0 -12 9 -21t27 -9q17 0 26 9.5t9 22.5z" />
    <glyph glyph-name="ampersand" unicode="&#x26;" horiz-adv-x="850" 
d="M844 -1h-278l-44 50q-95 -67 -231 -67q-108 0 -184 57t-76 158q0 73 52 123.5t123 73.5q-26 26 -47 63t-21 68q0 95 69 147.5t202 52.5q104 0 168 -47.5t64 -127.5q0 -123 -139 -176l62 -69q13 44 17 67l160 -15q-15 -104 -57 -181zM478 547q0 18 -16 32t-37 14
q-55 0 -55 -49q0 -20 56 -86q22 12 37 36.5t15 52.5zM422 158l-130 145q-43 -29 -43 -90q0 -34 23 -58.5t67 -24.5q49 0 83 28z" />
    <glyph glyph-name="quotesingle" unicode="'" horiz-adv-x="291" 
d="M227 573l-24 -183h-115l-24 183v152h163v-152z" />
    <glyph glyph-name="parenleft" unicode="(" horiz-adv-x="360" 
d="M325 -178h-86q-69 87 -112 216.5t-43 265.5q0 129 42 254t113 214h86q-50 -131 -69.5 -232.5t-19.5 -235.5q0 -255 89 -482z" />
    <glyph glyph-name="parenright" unicode=")" horiz-adv-x="360" 
d="M276 304q0 -136 -43 -265.5t-112 -216.5h-86q89 227 89 482q0 134 -19.5 235.5t-69.5 232.5h86q71 -89 113 -214t42 -254z" />
    <glyph glyph-name="asterisk" unicode="*" horiz-adv-x="464" 
d="M433 603l-119 -63l79 -107l-82 -50l-79 108l-80 -108l-80 50l77 107l-118 63l49 77l103 -54v106h98v-106l102 54z" />
    <glyph glyph-name="plus" unicode="+" horiz-adv-x="602" 
d="M556 264h-202v-202h-105v202h-203v104h203v203h105v-203h202v-104z" />
    <glyph glyph-name="comma" unicode="," horiz-adv-x="306" 
d="M256 12l-77 -153h-94l36 141h-71v193h206v-181z" />
    <glyph glyph-name="hyphen" unicode="-" horiz-adv-x="362" 
d="M335 219h-308v133h308v-133z" />
    <glyph glyph-name="period" unicode="." horiz-adv-x="306" 
d="M256 0h-206v194h206v-194z" />
    <glyph glyph-name="slash" unicode="/" horiz-adv-x="370" 
d="M363 726l-245 -761h-117l248 761h114z" />
    <glyph glyph-name="zero" unicode="0" horiz-adv-x="642" 
d="M610 217q0 -60 -26.5 -106t-69.5 -72t-91.5 -38.5t-99.5 -12.5q-42 0 -81 7t-78 23.5t-67.5 42t-46.5 65.5t-18 91v276q0 61 25 107.5t67.5 73t91.5 39t103 12.5q42 0 82 -7.5t78.5 -25.5t67 -44.5t46 -67.5t17.5 -92v-271zM387 220v281q0 22 -18.5 37t-47.5 15
q-30 0 -48 -15.5t-18 -37.5v-283q0 -23 17.5 -40t49.5 -17t48.5 18t16.5 42z" />
    <glyph glyph-name="one" unicode="1" horiz-adv-x="538" 
d="M499 0h-440v146h122v388l-120 -4v148l220 44h108v-576h110v-146z" />
    <glyph glyph-name="two" unicode="2" horiz-adv-x="612" 
d="M575 0h-514v118l182 207q11 13 34 38t33 36.5t23.5 30t18.5 33t5 30.5v11q0 57 -58 57t-58 -77v-22h-202v43q0 106 76 162t199 56t188.5 -60.5t65.5 -159.5q0 -23 -6 -46t-19.5 -47t-24.5 -41.5t-33.5 -42.5t-33.5 -37t-37 -37.5t-32 -31.5l-44 -45v-2h237v-173z" />
    <glyph glyph-name="three" unicode="3" horiz-adv-x="618" 
d="M590 200q0 -59 -26.5 -102.5t-70 -66t-90 -33t-96.5 -10.5q-128 0 -199.5 53.5t-71.5 159.5v25h205v-19q0 -29 17 -41.5t54 -12.5q26 0 41.5 18t15.5 49q0 34 -29 48.5t-58 14.5h-37v142h41q40 0 59 13.5t19 51.5q0 30 -17 46t-44 16q-59 0 -59 -50v-19h-203v25
q0 98 71.5 157.5t194.5 59.5q122 0 192.5 -54.5t70.5 -150.5q0 -58 -28.5 -98.5t-78.5 -56.5v-6q59 -14 93 -57t34 -102z" />
    <glyph glyph-name="four" unicode="4" horiz-adv-x="633" 
d="M612 148h-64v-148h-206v148h-311v156l259 409h258v-400h64v-165zM342 313v209h-5l-141 -209h146z" />
    <glyph glyph-name="five" unicode="5" horiz-adv-x="613" 
d="M585 198q0 -99 -83.5 -154.5t-196.5 -55.5q-116 0 -191.5 48.5t-75.5 137.5v51h203v-16q0 -23 16.5 -38t51.5 -15q64 0 64 63v48q0 26 -18 42t-49 16q-33 0 -59 -30l-189 22l18 396h461v-173h-294l-4 -119q63 41 152 41q78 0 136 -42.5t58 -131.5v-90z" />
    <glyph glyph-name="six" unicode="6" horiz-adv-x="628" 
d="M600 196q0 -67 -41.5 -115t-105 -70.5t-139.5 -22.5q-115 0 -198.5 58.5t-83.5 160.5v296q0 104 85.5 163t205.5 59q121 0 192.5 -52.5t71.5 -146.5v-39h-205v21q0 25 -16.5 38t-44.5 13q-30 0 -47.5 -15t-17.5 -41v-98q76 46 160 46q87 0 135.5 -46t48.5 -118v-91z
M388 208v59q0 28 -22.5 41t-47.5 13q-62 0 -62 -69v-42q0 -25 17 -40t47 -15q31 0 49.5 15t18.5 38z" />
    <glyph glyph-name="seven" unicode="7" horiz-adv-x="616" 
d="M586 566l-271 -566h-221l265 541h-315v172h542v-147z" />
    <glyph glyph-name="eight" unicode="8" horiz-adv-x="627" 
d="M596 181q0 -90 -80.5 -141.5t-201.5 -51.5q-130 0 -206.5 47.5t-76.5 152.5v34q0 46 23.5 82t58.5 54q-31 15 -51 50.5t-20 71.5v40q0 95 77 150t192 55q118 0 195.5 -52.5t77.5 -150.5v-38q0 -41 -19.5 -74.5t-49.5 -51.5q33 -16 57 -52.5t24 -76.5v-48zM380 479v33
q0 29 -19.5 42.5t-48.5 13.5q-27 0 -46 -12t-19 -34v-45q0 -24 18 -37t48 -13q31 0 49 13.5t18 38.5zM380 195v33q0 29 -19.5 42.5t-48.5 13.5q-27 0 -46 -12t-19 -34v-45q0 -24 18 -37t48 -13q31 0 49 13.5t18 38.5z" />
    <glyph glyph-name="nine" unicode="9" horiz-adv-x="628" 
d="M600 209q0 -104 -85.5 -163t-205.5 -59q-121 0 -192.5 52.5t-71.5 146.5v39h205v-21q0 -25 16.5 -38t44.5 -13q30 0 47.5 15t17.5 41v107q-51 -55 -160 -55q-87 0 -135.5 46t-48.5 118v91q0 99 84 154t202 55q114 0 198 -59t84 -161v-296zM376 466v42q0 25 -17 40t-47 15
q-31 0 -49.5 -15t-18.5 -38v-61q0 -28 20.5 -41.5t44.5 -13.5q26 0 46.5 17t20.5 55z" />
    <glyph glyph-name="colon" unicode=":" horiz-adv-x="306" 
d="M256 346h-206v194h206v-194zM256 0h-206v194h206v-194z" />
    <glyph glyph-name="semicolon" unicode=";" horiz-adv-x="306" 
d="M256 346h-206v194h206v-194zM256 12l-77 -153h-94l36 141h-71v193h206v-181z" />
    <glyph glyph-name="less" unicode="&#x3c;" horiz-adv-x="602" 
d="M532 173l-47 -94l-415 198v79l413 199l47 -95l-303 -143z" />
    <glyph glyph-name="equal" unicode="=" horiz-adv-x="602" 
d="M556 355h-510v105h510v-105zM556 158h-510v104h510v-104z" />
    <glyph glyph-name="greater" unicode="&#x3e;" horiz-adv-x="602" 
d="M532 277l-415 -198l-47 94l305 144l-303 143l47 95l413 -199v-79z" />
    <glyph glyph-name="question" unicode="?" horiz-adv-x="573" 
d="M550 520q0 -101 -94 -166q-7 -5 -27 -16.5t-32 -19.5t-22.5 -22t-10.5 -30v-25h-185v24q0 42 15 70.5t48 57.5q6 5 42 31.5t51 44.5t15 39q0 23 -16.5 37.5t-42.5 14.5q-30 0 -52 -14t-22 -39v-20h-183v32q0 67 39.5 114.5t97.5 68.5t127 21q121 0 186.5 -54t65.5 -149z
M373 0h-206v194h206v-194z" />
    <glyph glyph-name="at" unicode="@" horiz-adv-x="932" 
d="M863 404q0 -119 -71 -210t-178 -91q-34 0 -61 19t-40 46q-62 -62 -122 -62q-33 0 -57 15.5t-36 40.5t-17 49t-5 49q0 99 63.5 173.5t162.5 74.5h159l-52 -263q1 -15 10 -22.5t21 -7.5q34 0 60.5 32t38.5 75.5t12 86.5q0 95 -70.5 150t-170.5 55q-143 0 -235 -96.5
t-92 -238.5q0 -126 83 -195t212 -69q79 0 145 17t158 56l28 -101q-156 -80 -338 -80q-171 0 -286.5 100t-115.5 272q0 188 126.5 314.5t318.5 126.5q149 0 249 -85t100 -231zM523 406h-28q-37 0 -67 -39.5t-30 -84.5q0 -43 12 -53q8 -6 20 -6q19 0 32.5 10t22.5 30t12 31
t8 32z" />
    <glyph glyph-name="A" unicode="A" horiz-adv-x="750" 
d="M744 0h-225l-34 114h-237l-34 -114h-208l241 714h261zM436 279l-68 231h-3l-68 -231h139z" />
    <glyph glyph-name="B" unicode="B" horiz-adv-x="712" 
d="M686 202q0 -83 -55 -142.5t-156 -59.5h-423v713h420q101 0 153.5 -51t52.5 -127q0 -57 -29.5 -105t-84.5 -65v-3q57 -15 89.5 -60t32.5 -100zM455 500q0 21 -16 35.5t-47 14.5h-117v-112h115q32 0 48.5 18t16.5 44zM456 229q0 23 -18 38.5t-50 15.5h-113v-115h117
q31 0 47.5 18t16.5 43z" />
    <glyph glyph-name="C" unicode="C" horiz-adv-x="681" 
d="M653 221q0 -49 -18 -89t-48 -66.5t-70 -44t-82 -25.5t-86 -8q-62 0 -117 14.5t-101 45t-72.5 84t-26.5 124.5v207q0 65 26.5 116.5t71 82.5t100 47t116.5 16q56 0 108 -13t98 -40t73.5 -74t27.5 -109v-44h-210v23q0 40 -27 61.5t-64 21.5q-44 0 -69 -23.5t-25 -67.5v-203
q0 -45 24 -70t70 -25q37 0 64 21.5t27 61.5v23h210v-47z" />
    <glyph glyph-name="D" unicode="D" horiz-adv-x="700" 
d="M668 259q0 -131 -84.5 -195t-214.5 -64h-319v713h317q132 0 216.5 -60t84.5 -183v-211zM442 264v186q0 40 -26 64t-69 24h-73v-364h78q44 0 67 27t23 63z" />
    <glyph glyph-name="E" unicode="E" horiz-adv-x="651" 
d="M605 0h-555v713h555v-173h-331v-98h262v-172h-262v-96h331v-174z" />
    <glyph glyph-name="F" unicode="F" horiz-adv-x="629" 
d="M605 540h-331v-108h262v-174h-262v-258h-224v713h555v-173z" />
    <glyph glyph-name="G" unicode="G" horiz-adv-x="681" 
d="M659 221q0 -61 -28 -107.5t-74.5 -73t-99 -39.5t-108.5 -13q-63 0 -117.5 14.5t-100.5 45t-72.5 84t-26.5 124.5v207q0 65 26.5 116.5t71 82.5t100 47t116.5 16q56 0 109 -13t99.5 -40t75 -74t28.5 -109v-30h-210v17q0 40 -27 61.5t-64 21.5q-44 0 -71.5 -23.5
t-27.5 -67.5v-211q0 -46 24.5 -73.5t69.5 -27.5q91 0 91 80v19h-104v145h320v-179z" />
    <glyph glyph-name="H" unicode="H" horiz-adv-x="728" 
d="M678 0h-224v263h-180v-263h-224v713h224v-257h180v257h224v-713z" />
    <glyph glyph-name="I" unicode="I" horiz-adv-x="324" 
d="M274 0h-224v713h224v-713z" />
    <glyph glyph-name="J" unicode="J" horiz-adv-x="666" 
d="M618 255q0 -126 -77 -196.5t-212 -70.5q-150 0 -227 56t-77 191v30h213v-27q0 -78 78 -78t78 80v473h224v-458z" />
    <glyph glyph-name="K" unicode="K" horiz-adv-x="707" 
d="M701 0h-236l-128 273l-63 -82v-191h-224v713h224v-316l208 316h217l-197 -292z" />
    <glyph glyph-name="L" unicode="L" horiz-adv-x="625" 
d="M605 0h-555v713h224v-539h331v-174z" />
    <glyph glyph-name="M" unicode="M" horiz-adv-x="870" 
d="M820 0h-202v433h-2l-109 -323h-142l-111 323h-3v-433h-201v713h280l106 -294l106 294h278v-713z" />
    <glyph glyph-name="N" unicode="N" horiz-adv-x="754" 
d="M704 0h-202l-248 350h-2v-350h-202v713h217l233 -320h2v320h202v-713z" />
    <glyph glyph-name="O" unicode="O" horiz-adv-x="702" 
d="M670 265q0 -73 -27 -128.5t-73.5 -87t-101.5 -46.5t-117 -15q-51 0 -96 8.5t-87 28.5t-71.5 51t-47 79t-17.5 109v183q0 70 26 124.5t70.5 87.5t100 49.5t119.5 16.5t119.5 -14.5t102 -45.5t73.5 -87t27 -131v-182zM444 260v194q0 46 -27 71t-67 25q-92 0 -92 -96v-190
q0 -101 94 -101q43 0 67.5 26t24.5 71z" />
    <glyph glyph-name="P" unicode="P" horiz-adv-x="693" 
d="M661 478q0 -104 -63.5 -178t-192.5 -74h-131v-226h-224v713h355q125 0 190.5 -68.5t65.5 -166.5zM443 467q0 32 -20.5 55t-58.5 23h-90v-156h89q37 0 58.5 23t21.5 55z" />
    <glyph glyph-name="Q" unicode="Q" horiz-adv-x="702" 
d="M702 98l-88 -120l-76 55q-72 -45 -187 -45q-51 0 -96 8.5t-87 28.5t-71.5 51t-47 79t-17.5 109v183q0 70 26 124.5t70.5 87.5t100 49.5t119.5 16.5t119.5 -14.5t102 -45.5t73.5 -87t27 -131v-182q0 -68 -26 -125zM444 285v169q0 46 -27 71t-67 25q-92 0 -92 -96v-190
q0 -101 94 -101q11 0 29 4l-66 47l79 108z" />
    <glyph glyph-name="R" unicode="R" horiz-adv-x="703" 
d="M682 0h-246l-115 236h-47v-236h-224v713h342q134 0 201 -65t67 -162q0 -69 -32 -126t-96 -87zM442 467q0 32 -20.5 55t-58.5 23h-89v-156h88q37 0 58.5 22.5t21.5 55.5z" />
    <glyph glyph-name="S" unicode="S" horiz-adv-x="643" 
d="M622 234q0 -64 -27 -113.5t-72 -77t-96 -41.5t-106 -14q-100 0 -173.5 16.5t-141.5 63.5l106 156q96 -73 190 -73q83 0 83 41q0 16 -9.5 26.5t-20 14.5t-32.5 10h-1q-1 0 -7 2l-118 33q-76 21 -121.5 72.5t-45.5 127.5q0 103 80 174.5t210 71.5q95 0 154 -16t123 -54
l-118 -147q-27 22 -70.5 35.5t-77.5 13.5q-80 0 -80 -43q0 -7 2 -12.5t7 -9.5t9.5 -7t14 -6.5t16 -5t20 -5t20.5 -5.5l103 -29q88 -25 133.5 -76t45.5 -123z" />
    <glyph glyph-name="T" unicode="T" horiz-adv-x="668" 
d="M646 540h-199v-540h-226v540h-199v173h624v-173z" />
    <glyph glyph-name="U" unicode="U" horiz-adv-x="725" 
d="M677 264q0 -133 -92 -205t-228 -72q-150 0 -229.5 67.5t-79.5 204.5v454h224v-446q0 -52 27 -79t70 -27q41 0 66 28.5t25 77.5v446h217v-449z" />
    <glyph glyph-name="V" unicode="V" horiz-adv-x="692" 
d="M687 713l-227 -714h-236l-219 714h224l120 -481h4l126 481h208z" />
    <glyph glyph-name="W" unicode="W" horiz-adv-x="985" 
d="M977 713l-174 -714h-212l-100 398h-4l-103 -398h-201l-175 714h220l85 -371h3l88 371h201l81 -371h1l83 371h207z" />
    <glyph glyph-name="X" unicode="X" horiz-adv-x="698" 
d="M697 0h-237l-121 223l-114 -223h-224l209 369l-194 344h239l107 -205l104 205h217l-195 -349z" />
    <glyph glyph-name="Y" unicode="Y" horiz-adv-x="682" 
d="M684 713l-231 -436v-277h-225v278l-230 435h229l124 -256l126 256h207z" />
    <glyph glyph-name="Z" unicode="Z" horiz-adv-x="657" 
d="M619 564l-291 -390h287v-174h-579v129l312 411h-302v173h573v-149z" />
    <glyph glyph-name="bracketleft" unicode="[" horiz-adv-x="360" 
d="M323 651h-96v-736h95v-88h-238v914h239v-90z" />
    <glyph glyph-name="backslash" unicode="\" horiz-adv-x="370" 
d="M367 -35h-117l-245 761h114z" />
    <glyph glyph-name="bracketright" unicode="]" horiz-adv-x="360" 
d="M276 -173h-238v88h95v736h-96v90h239v-914z" />
    <glyph glyph-name="asciicircum" unicode="^" horiz-adv-x="773" 
d="M717 0h-661v713h661v-713z" />
    <glyph glyph-name="underscore" unicode="_" 
d="M500 -140h-500v80h500v-80z" />
    <glyph glyph-name="grave" unicode="`" horiz-adv-x="335" 
d="M285 592h-98l-137 170h154z" />
    <glyph glyph-name="a" unicode="a" horiz-adv-x="604" 
d="M570 0h-193l-6 70h-6q-28 -46 -77 -64t-93 -18q-75 0 -122.5 39.5t-47.5 112.5q0 53 27.5 91t72.5 57t89.5 27t92.5 8h46v35q0 24 -17 39.5t-49 15.5q-35 0 -49 -17t-14 -39v-12h-184v24q0 84 76 133t189 49q106 0 181 -50t75 -149v-230q0 -41 9 -122zM353 193v34h-37
q-80 0 -80 -51q0 -48 54 -48q21 0 42 17.5t21 47.5z" />
    <glyph glyph-name="b" unicode="b" horiz-adv-x="622" 
d="M592 169q0 -78 -60.5 -130t-148.5 -52q-80 0 -130 60h-2v-47h-205v713h208v-236h2q58 75 148 75q91 0 139.5 -51t48.5 -138v-194zM384 200v130q0 34 -18 52.5t-43 18.5q-69 0 -69 -82v-123q0 -37 21.5 -53t46.5 -16q27 0 44.5 19t17.5 54z" />
    <glyph glyph-name="c" unicode="c" horiz-adv-x="584" 
d="M560 170q0 -88 -75.5 -135.5t-184.5 -47.5q-50 0 -95.5 11.5t-86 36t-64.5 69.5t-24 104v110q0 60 24 106.5t64 73.5t86.5 40.5t95.5 13.5q108 0 184 -51t76 -140v-34h-201v21q0 58 -56 58q-63 0 -63 -66v-139q0 -68 63 -68q56 0 56 58v21h201v-42z" />
    <glyph glyph-name="d" unicode="d" horiz-adv-x="621" 
d="M575 0h-203v66h-4q-60 -78 -150 -78q-91 0 -139.5 50.5t-48.5 137.5v194q0 78 57.5 130t144.5 52t134 -54h2v215h207v-713zM368 217v126q0 37 -21 53t-46 16q-26 0 -44.5 -20.5t-18.5 -59.5v-119q0 -34 18.5 -54t43.5 -20q28 0 48 19.5t20 58.5z" />
    <glyph glyph-name="e" unicode="e" horiz-adv-x="582" 
d="M552 222h-313v-15q0 -37 32 -53.5t72 -16.5q59 0 162 30l33 -132q-110 -48 -231 -48q-54 0 -101.5 12t-88 37t-64 70t-23.5 104v95q0 63 24 112t64.5 77.5t88.5 43t100 14.5q103 0 174 -59.5t71 -166.5v-104zM361 329v21q0 29 -17 45.5t-45 16.5q-27 0 -43.5 -17
t-16.5 -45v-21h122z" />
    <glyph glyph-name="f" unicode="f" horiz-adv-x="410" 
d="M391 383h-99v-383h-207v383h-64v144h64v45q0 83 55 121t130 38q78 0 117 -13v-123q-30 4 -57 4q-17 0 -27.5 -9.5t-10.5 -25.5v-37h99v-144z" />
    <glyph glyph-name="g" unicode="g" horiz-adv-x="627" 
d="M581 61q0 -128 -81.5 -193.5t-213.5 -67.5q-140 8 -242 46l57 149q84 -29 170 -29q102 0 102 86v45h-2q-53 -62 -144 -62q-92 0 -141.5 50t-49.5 136v145q0 78 60.5 132t148.5 54q36 0 73.5 -14.5t60.5 -39.5h2v42h200v-479zM373 260v76q0 37 -22.5 53t-47.5 16
q-26 0 -42.5 -20t-16.5 -59v-71q0 -34 17.5 -52t45.5 -18t47 18t19 57z" />
    <glyph glyph-name="h" unicode="h" horiz-adv-x="632" 
d="M592 0h-208v317q0 79 -66 79q-26 0 -45 -23.5t-19 -66.5v-306h-208v713h208v-249h2q61 88 170 88q65 0 115.5 -38t50.5 -115v-399z" />
    <glyph glyph-name="i" unicode="i" horiz-adv-x="300" 
d="M254 588h-208v137h208v-137zM254 0h-208v539h208v-539z" />
    <glyph glyph-name="j" unicode="j" horiz-adv-x="316" 
d="M274 588h-208v137h208v-137zM274 -21q0 -84 -54.5 -127.5t-130.5 -43.5q-36 0 -86 8v144q8 -2 28 -2q35 0 35 38v544h208v-561z" />
    <glyph glyph-name="k" unicode="k" horiz-adv-x="601" 
d="M595 539l-131 -189l127 -350h-222l-71 215l-44 -57v-158h-208v713h208v-375l138 201h203z" />
    <glyph glyph-name="l" unicode="l" horiz-adv-x="351" 
d="M327 7q-59 -19 -114 -19q-78 0 -125.5 37t-47.5 107v581h209v-516q0 -19 7.5 -28t31.5 -9q9 0 39 4v-157z" />
    <glyph glyph-name="m" unicode="m" horiz-adv-x="970" 
d="M930 0h-208v317q0 79 -66 79q-26 0 -45 -23.5t-19 -66.5v-306h-208v317q0 79 -66 79q-26 0 -45 -23.5t-19 -66.5v-306h-208v540h204v-76h2q61 88 174 88q51 0 94.5 -20.5t61.5 -67.5h3q61 88 179 88q65 0 115.5 -38t50.5 -115v-399z" />
    <glyph glyph-name="n" unicode="n" horiz-adv-x="632" 
d="M592 0h-208v317q0 79 -66 79q-26 0 -45 -23.5t-19 -66.5v-306h-208v540h204v-70h2q65 82 174 82q65 0 115.5 -38t50.5 -115v-399z" />
    <glyph glyph-name="o" unicode="o" horiz-adv-x="600" 
d="M570 210q0 -59 -24.5 -104t-64.5 -69.5t-86 -36.5t-95 -12q-41 0 -77.5 6t-72.5 22t-62 40t-42 63.5t-16 89.5v110q0 115 78.5 174t188.5 59q52 0 98 -12t86.5 -37t64.5 -71.5t24 -108.5v-113zM360 201v134q0 30 -16.5 49.5t-43.5 19.5q-30 0 -45 -20t-15 -52v-133
q0 -64 61 -64q59 0 59 66z" />
    <glyph glyph-name="p" unicode="p" horiz-adv-x="622" 
d="M592 169q0 -78 -60.5 -130t-148.5 -52q-34 0 -70 15.5t-57 40.5h-2v-227h-208v724h204v-68h2q29 38 69.5 59t82.5 21q91 0 139.5 -51t48.5 -138v-194zM384 196v133q0 34 -18 53t-43 19q-69 0 -69 -82v-123q0 -37 21 -53t45 -16q26 0 45 17.5t19 51.5z" />
    <glyph glyph-name="q" unicode="q" horiz-adv-x="622" 
d="M576 -184h-208v249h-2q-64 -77 -147 -77q-91 0 -140 50t-49 137v190q0 84 56.5 135.5t145.5 51.5q87 0 142 -62h2v50h200v-724zM368 217v126q0 37 -21 53t-46 16q-26 0 -44.5 -20.5t-18.5 -59.5v-119q0 -34 18.5 -54t43.5 -20q28 0 48 19.5t20 58.5z" />
    <glyph glyph-name="r" unicode="r" horiz-adv-x="472" 
d="M466 369q-54 8 -94 8q-22 0 -38.5 -2.5t-36.5 -10.5t-31.5 -28t-11.5 -50v-286h-208v540h204v-89h1q22 39 63.5 67.5t89.5 28.5q40 0 62 -6v-172z" />
    <glyph glyph-name="s" unicode="s" horiz-adv-x="561" 
d="M537 180q0 -49 -23.5 -87.5t-62.5 -60.5t-82.5 -33t-89.5 -11q-84 0 -141.5 12t-119.5 50l86 132q82 -58 160 -58q62 0 62 25q0 21 -38 31q-6 1 -16 3l-102 29q-132 38 -132 148q0 80 65 136t175 56q78 0 126.5 -12t108.5 -44l-100 -121q-27 18 -62.5 29t-62.5 11
q-60 0 -60 -27q0 -15 16 -21q10 -3 29 -6.5t24 -4.5l86 -22q75 -19 114.5 -59t39.5 -95z" />
    <glyph glyph-name="t" unicode="t" horiz-adv-x="432" 
d="M405 383h-111v-182q0 -40 43 -40q37 0 64 4v-154q-75 -22 -141 -22q-73 0 -123.5 35.5t-50.5 122.5v236h-65v144h65v142h208v-142h111v-144z" />
    <glyph glyph-name="u" unicode="u" horiz-adv-x="644" 
d="M596 0h-204v81h-2q-64 -93 -174 -93q-65 0 -115.5 37.5t-50.5 114.5v399h208v-317q0 -79 66 -79q26 0 45 24t19 66v306h208v-539z" />
    <glyph glyph-name="v" unicode="v" horiz-adv-x="597" 
d="M593 539l-183 -540h-215l-191 540h222l87 -310h5l89 310h186z" />
    <glyph glyph-name="w" unicode="w" horiz-adv-x="897" 
d="M706 539h187l-169 -540h-187l-84 314h-3l-87 -314h-189l-168 540h211l67 -278h6l72 278h198l72 -278h5z" />
    <glyph glyph-name="x" unicode="x" horiz-adv-x="585" 
d="M582 1h-222l-87 152l-85 -152h-185l167 275l-160 263h221l79 -141l78 141h183l-158 -262z" />
    <glyph glyph-name="y" unicode="y" horiz-adv-x="600" 
d="M601 539l-196 -564q-58 -165 -233 -165q-43 0 -98 11v151q31 -8 71 -8q45 0 56 29l4 11l-196 535h222l89 -311h4l91 311h186z" />
    <glyph glyph-name="z" unicode="z" horiz-adv-x="564" 
d="M524 0h-484v125l235 264h-229v150h478q-1 -42 -1 -128l-229 -259h230v-152z" />
    <glyph glyph-name="braceleft" unicode="{" horiz-adv-x="360" 
d="M322 -173h-129q-50 0 -80 32.5t-30 95.5v253q0 38 -9 52t-36 17v83q31 6 38 15.5t7 37.5v200q0 63 30 95.5t80 32.5h129v-89h-72q-22 0 -22 -23v-190q0 -49 -14 -76.5t-48 -40.5v-6q38 -15 50 -38t12 -77v-262q0 -23 22 -23h72v-89z" />
    <glyph glyph-name="bar" unicode="|" horiz-adv-x="328" 
d="M226 -40h-124v765h124v-765z" />
    <glyph glyph-name="braceright" unicode="}" horiz-adv-x="360" 
d="M322 277q-27 -3 -36 -17t-9 -52v-253q0 -63 -30 -95.5t-80 -32.5h-129v89h72q22 0 22 23v262q0 54 12 77t50 38v6q-34 13 -48 40.5t-14 76.5v190q0 23 -22 23h-72v89h129q50 0 80 -32.5t30 -95.5v-200q0 -28 7 -37.5t38 -15.5v-83z" />
    <glyph glyph-name="asciitilde" unicode="~" horiz-adv-x="773" 
d="M717 0h-661v713h661v-713zM630 87v539h-487v-539h487z" />
    <glyph glyph-name="nbspace" unicode="&#xa0;" horiz-adv-x="250" 
 />
    <glyph glyph-name="exclamdown" unicode="&#xa1;" horiz-adv-x="322" 
d="M264 358h-206v194h206v-194zM269 -161h-216v257l48 215h120l48 -215v-257z" />
    <glyph glyph-name="cent" unicode="&#xa2;" horiz-adv-x="596" 
d="M570 204q0 -71 -52 -116t-135 -59v-76h-143v76q-88 15 -144 67.5t-56 146.5v98q0 95 56.5 152t143.5 75v80h143v-80q83 -15 135 -63t52 -120v-28h-193v15q0 33 -17.5 49.5t-46.5 16.5q-34 0 -52 -19.5t-18 -54.5v-128q0 -36 18 -56t52 -20q29 0 46.5 16.5t17.5 49.5v15
h193v-37z" />
    <glyph glyph-name="sterling" unicode="&#xa3;" horiz-adv-x="651" 
d="M625 165l-34 -165h-549v165h79v120h-55v115h55v107q0 60 24 104t64 68t83 35t89 11q95 0 164.5 -49.5t69.5 -145.5v-53h-177v29q0 56 -56 56q-28 0 -42 -17t-14 -39v-106h160v-115h-160v-120h299z" />
    <glyph glyph-name="currency" unicode="&#xa4;" horiz-adv-x="757" 
d="M729 221q0 -49 -18 -89t-48 -66.5t-70 -44t-82 -25.5t-86 -8q-60 0 -111 13.5t-93.5 41.5t-68.5 76.5t-30 113.5h-84v98h83v59h-83v98h84q9 116 93.5 176.5t206.5 60.5q56 0 108 -13t98 -40t73.5 -74t27.5 -109v-44h-210v23q0 40 -27 61.5t-64 21.5q-68 0 -79 -63h128
v-98h-130v-59h130v-98h-129q8 -71 80 -71q37 0 64 21.5t27 61.5v23h210v-47z" />
    <glyph glyph-name="yen" unicode="&#xa5;" horiz-adv-x="682" 
d="M684 713l-191 -360h140v-110h-180v-243h-225v243h-179v110h139l-190 360h229l124 -256l126 256h207z" />
    <glyph glyph-name="brokenbar" unicode="&#xa6;" 
 />
    <glyph glyph-name="section" unicode="&#xa7;" horiz-adv-x="552" 
d="M503 100q0 -82 -64 -134.5t-170 -52.5q-29 0 -57.5 4.5t-58 16.5t-51.5 30t-36 48t-14 67v35h134v-19q0 -27 21.5 -46t68.5 -19q46 0 68 18.5t22 38.5q0 7 -2 12.5t-6.5 10t-8 7.5t-11.5 6.5t-11.5 5t-12.5 4.5t-11 4l-95 28q-146 42 -146 157q0 72 51 118
q-51 39 -51 113q0 78 58.5 125t159.5 47q95 0 154 -42.5t59 -123.5v-32h-131v26q0 21 -21 38.5t-66 17.5q-39 0 -57.5 -14.5t-18.5 -34.5q0 -8 10 -16t21 -12.5t26.5 -9.5t18.5 -6l86 -31q30 -11 49 -20t43 -26.5t36 -43.5t12 -60q0 -77 -50 -121q52 -45 52 -114zM365 317
q0 24 -47 38q-52 16 -77 23q-41 -16 -41 -50q0 -5 2 -9t7 -7.5t9 -6t12 -5t11 -3.5t11 -3l9 -3q29 -7 66 -19q38 14 38 45z" />
    <glyph glyph-name="dieresis" unicode="&#xa8;" horiz-adv-x="480" 
d="M419 595h-137v149h137v-149zM198 595h-137v149h137v-149z" />
    <glyph glyph-name="copyright" unicode="&#xa9;" horiz-adv-x="925" 
d="M874 347q0 -171 -116 -290.5t-297 -119.5q-187 0 -298.5 118t-111.5 291q0 170 116.5 289t293.5 119q184 0 298.5 -117.5t114.5 -289.5zM770 347q0 146 -91 237t-218 91q-129 0 -217 -90.5t-88 -238.5q0 -146 90 -236t215 -90t217 91t92 236zM678 261q0 -55 -34 -92
t-79.5 -51.5t-96.5 -14.5q-91 0 -155 44t-64 137v133q0 86 64 131.5t153 45.5q51 0 97 -14.5t80.5 -52.5t34.5 -93v-37h-157v23q0 21 -14.5 33t-36.5 12q-54 0 -54 -50v-131q0 -53 54 -53q21 0 36 12t15 34v23h157v-39z" />
    <glyph glyph-name="ordfeminine" unicode="&#xaa;" horiz-adv-x="455" 
d="M401 373h-128l-4 44q-34 -52 -110 -52q-49 0 -80 25.5t-31 72.5q0 34 18 59t47 37t58 17t59 5h27v19q0 33 -39 33q-38 0 -38 -33v-10h-122v17q0 55 49 86t122 31q69 0 117.5 -31.5t48.5 -95.5v-145q0 -31 6 -79zM390 224h-317v92h317v-92zM257 497v19h-21q-48 0 -48 -30
q0 -28 32 -28q12 0 24.5 10.5t12.5 28.5z" />
    <glyph glyph-name="guillemotleft" unicode="&#xab;" horiz-adv-x="649" 
d="M637 118l-92 -77l-234 217l234 219l90 -80l-150 -139zM338 118l-92 -77l-234 217l234 219l90 -80l-150 -139z" />
    <glyph glyph-name="logicalnot" unicode="&#xac;" horiz-adv-x="572" 
d="M517 155l-73 -75l-158 162l-158 -162l-73 75l157 162l-157 164l73 75l158 -163l158 162l73 -74l-157 -163z" />
    <glyph glyph-name="registered" unicode="&#xae;" horiz-adv-x="529" 
d="M465 581q0 -84 -56.5 -143t-144.5 -59q-91 0 -145.5 58.5t-54.5 143.5q0 84 57 142.5t143 58.5q89 0 145 -58t56 -143zM410 581q0 70 -42.5 113.5t-103.5 43.5t-103 -43t-42 -114q0 -69 43 -112.5t102 -43.5t102.5 43.5t43.5 112.5zM370 489h-65q-6 8 -7 21l-2 24
q-1 21 -21 21h-33v-66h-66v194h120q64 0 64 -52q0 -38 -33 -46v-3q30 -9 33 -37l2 -25q2 -23 8 -28v-3zM293 619q0 17 -17 17h-34v-37h35q16 0 16 20z" />
    <glyph glyph-name="macron" unicode="&#xaf;" horiz-adv-x="433" 
d="M407 601h-381v101h381v-101z" />
    <glyph glyph-name="degree" unicode="&#xb0;" horiz-adv-x="303" 
d="M251 640q0 -41 -29 -70.5t-70 -29.5q-46 0 -72.5 28.5t-26.5 67.5q0 41 28.5 70.5t70.5 29.5q45 0 72 -28t27 -68zM189 637q0 17 -10 29.5t-27 12.5q-16 0 -26 -12t-10 -30q0 -17 10.5 -28.5t25.5 -11.5t26 11.5t11 28.5z" />
    <glyph glyph-name="plusminus" unicode="&#xb1;" 
 />
    <glyph glyph-name="twosuperior" unicode="&#xb2;" 
 />
    <glyph glyph-name="threesuperior" unicode="&#xb3;" 
 />
    <glyph glyph-name="acute" unicode="&#xb4;" horiz-adv-x="335" 
d="M285 762l-137 -170h-98l81 170h154z" />
    <glyph glyph-name="paragraph" unicode="&#xb6;" horiz-adv-x="621" 
d="M581 621h-43v-711h-114v711h-65v-711h-113v293q-96 11 -142.5 82t-46.5 170q0 101 59.5 179.5t153.5 78.5h311v-92z" />
    <glyph glyph-name="periodcentered" unicode="&#xb7;" horiz-adv-x="306" 
d="M256 304h-206v194h206v-194z" />
    <glyph glyph-name="cedilla" unicode="&#xb8;" horiz-adv-x="364" 
d="M316 -109q0 -43 -44.5 -65t-100.5 -22q-49 0 -116 16v63q67 -14 109 -14q37 0 37 20q0 16 -35 18h-4l-54 3l29 104h75l-14 -52q118 2 118 -71z" />
    <glyph glyph-name="onesuperior" unicode="&#xb9;" 
 />
    <glyph glyph-name="ordmasculine" unicode="&#xba;" horiz-adv-x="455" 
d="M405 511q0 -74 -53.5 -109.5t-123.5 -35.5q-74 0 -126 33.5t-52 110.5v71q0 75 51.5 113t124.5 38t126 -35.5t53 -113.5v-72zM390 224h-317v92h317v-92zM264 505v86q0 18 -10 29.5t-26 11.5q-37 0 -37 -43v-85q0 -39 37 -39q36 0 36 40z" />
    <glyph glyph-name="guillemotright" unicode="&#xbb;" horiz-adv-x="649" 
d="M637 260l-234 -219l-90 80l150 139l-152 140l92 77zM338 260l-234 -219l-90 80l150 139l-152 140l92 77z" />
    <glyph glyph-name="onequarter" unicode="&#xbc;" 
 />
    <glyph glyph-name="onehalf" unicode="&#xbd;" 
 />
    <glyph glyph-name="threequarters" unicode="&#xbe;" 
 />
    <glyph glyph-name="questiondown" unicode="&#xbf;" horiz-adv-x="573" 
d="M413 358h-206v194h206v-194zM546 33q0 -67 -39.5 -114.5t-97.5 -68.5t-127 -21q-121 0 -186.5 54t-65.5 149q0 101 94 166q7 5 27 16.5t32 19.5t22.5 22t10.5 30v25h185v-24q0 -42 -15 -70.5t-48 -57.5q-6 -5 -42 -31.5t-51 -44.5t-15 -39q0 -23 16.5 -37.5t42.5 -14.5
q30 0 52 14t22 39v20h183v-32z" />
    <glyph glyph-name="Agrave" unicode="&#xc0;" horiz-adv-x="750" 
d="M426 764h-98l-137 170h154zM744 0h-225l-34 114h-237l-34 -114h-208l241 714h261zM436 279l-68 231h-3l-68 -231h139z" />
    <glyph glyph-name="Aacute" unicode="&#xc1;" horiz-adv-x="750" 
d="M560 934l-137 -170h-98l81 170h154zM744 0h-225l-34 114h-237l-34 -114h-208l241 714h261zM436 279l-68 231h-3l-68 -231h139z" />
    <glyph glyph-name="Acircumflex" unicode="&#xc2;" horiz-adv-x="750" 
d="M539 760h-117l-46 94l-48 -94h-117l107 178h112zM744 0h-225l-34 114h-237l-34 -114h-208l241 714h261zM436 279l-68 231h-3l-68 -231h139z" />
    <glyph glyph-name="Atilde" unicode="&#xc3;" horiz-adv-x="750" 
d="M579 897q-19 -134 -117 -134q-29 0 -85 15t-85 15q-22 0 -31.5 -9t-18.5 -35l-71 15q21 136 123 136q29 0 84 -15.5t84 -15.5q19 0 29.5 10.5t19.5 33.5zM744 0h-225l-34 114h-237l-34 -114h-208l241 714h261zM436 279l-68 231h-3l-68 -231h139z" />
    <glyph glyph-name="Adieresis" unicode="&#xc4;" horiz-adv-x="750" 
d="M554 770h-137v149h137v-149zM333 770h-137v149h137v-149zM744 0h-225l-34 114h-237l-34 -114h-208l241 714h261zM436 279l-68 231h-3l-68 -231h139z" />
    <glyph glyph-name="Aring" unicode="&#xc5;" horiz-adv-x="750" 
d="M493 873q0 -47 -35 -79.5t-82 -32.5q-50 0 -83 28t-33 77q0 48 34 79.5t82 31.5q50 0 83.5 -27.5t33.5 -76.5zM744 0h-225l-34 114h-237l-34 -114h-208l241 714h261zM427 869q0 22 -14 36t-37 14q-22 0 -36 -14t-14 -36q0 -20 15 -34.5t35 -14.5q21 0 36 14t15 35z
M436 279l-68 231h-3l-68 -231h139z" />
    <glyph glyph-name="AE" unicode="&#xc6;" horiz-adv-x="1070" 
d="M1024 0h-555v115h-192l-50 -115h-225l332 713h690v-173h-331v-98h262v-172h-262v-96h331v-174zM469 279v277l-121 -277h121z" />
    <glyph glyph-name="Ccedilla" unicode="&#xc7;" horiz-adv-x="681" 
d="M653 221q0 -56 -23 -100t-62.5 -71t-86 -42t-98.5 -19l-7 -27q118 2 118 -71q0 -43 -44.5 -65t-100.5 -22q-50 0 -116 16v63q66 -14 108 -14q38 0 38 20q0 16 -35 18h-4l-54 3l22 80q-120 9 -198 74.5t-78 191.5v207q0 65 26.5 116.5t71 82.5t100 47t116.5 16
q56 0 108 -13t98 -40t73.5 -74t27.5 -109v-44h-210v23q0 40 -27 61.5t-64 21.5q-44 0 -69 -23.5t-25 -67.5v-203q0 -45 24 -70t70 -25q37 0 64 21.5t27 61.5v23h210v-47z" />
    <glyph glyph-name="Egrave" unicode="&#xc8;" horiz-adv-x="651" 
d="M385 764h-98l-137 170h154zM605 0h-555v713h555v-173h-331v-98h262v-172h-262v-96h331v-174z" />
    <glyph glyph-name="Eacute" unicode="&#xc9;" horiz-adv-x="651" 
d="M501 934l-137 -170h-98l81 170h154zM605 0h-555v713h555v-173h-331v-98h262v-172h-262v-96h331v-174z" />
    <glyph glyph-name="Ecircumflex" unicode="&#xca;" horiz-adv-x="651" 
d="M500 760h-117l-46 94l-48 -94h-116l107 178h112zM605 0h-555v713h555v-173h-331v-98h262v-172h-262v-96h331v-174z" />
    <glyph glyph-name="Edieresis" unicode="&#xcb;" horiz-adv-x="651" 
d="M528 770h-137v149h137v-149zM307 770h-137v149h137v-149zM605 0h-555v713h555v-173h-331v-98h262v-172h-262v-96h331v-174z" />
    <glyph glyph-name="Igrave" unicode="&#xcc;" horiz-adv-x="324" 
d="M212 764h-98l-137 170h154zM274 0h-224v713h224v-257v-193v-263z" />
    <glyph glyph-name="Iacute" unicode="&#xcd;" horiz-adv-x="324" 
d="M345 934l-137 -170h-98l81 170h154zM274 0h-224v713h224v-257v-193v-263z" />
    <glyph glyph-name="Icircumflex" unicode="&#xce;" horiz-adv-x="324" 
d="M326 760h-117l-46 94l-48 -94h-117l107 178h112zM274 0h-224v713h224v-257v-193v-263z" />
    <glyph glyph-name="Idieresis" unicode="&#xcf;" horiz-adv-x="324" 
d="M341 770h-137v149h137v-149zM120 770h-137v149h137v-149zM274 0h-224v713h224v-257v-193v-263z" />
    <glyph glyph-name="Eth" unicode="&#xd0;" horiz-adv-x="719" 
d="M687 259q0 -131 -84.5 -195t-214.5 -64h-319v312h-58v110h58v291h317q132 0 216.5 -60t84.5 -183v-211zM461 264v186q0 40 -26 64t-69 24h-73v-116h99v-110h-99v-138h78q44 0 67 27t23 63z" />
    <glyph glyph-name="Ntilde" unicode="&#xd1;" horiz-adv-x="754" 
d="M581 897q-19 -134 -117 -134q-29 0 -85 15t-85 15q-22 0 -31.5 -9t-18.5 -35l-71 15q21 136 123 136q29 0 84 -15.5t84 -15.5q19 0 29.5 10.5t19.5 33.5zM704 0h-202l-248 350h-2v-350h-202v713h217l233 -320h2v320h202v-713z" />
    <glyph glyph-name="Ograve" unicode="&#xd2;" horiz-adv-x="702" 
d="M409 764h-98l-137 170h154zM670 265q0 -73 -27 -128.5t-73.5 -87t-101.5 -46.5t-117 -15q-51 0 -96 8.5t-87 28.5t-71.5 51t-47 79t-17.5 109v183q0 70 26 124.5t70.5 87.5t100 49.5t119.5 16.5t119.5 -14.5t102 -45.5t73.5 -87t27 -131v-182zM444 260v194q0 46 -27 71
t-67 25q-92 0 -92 -96v-190q0 -101 94 -101q43 0 67.5 26t24.5 71z" />
    <glyph glyph-name="Oacute" unicode="&#xd3;" horiz-adv-x="702" 
d="M544 934l-137 -170h-98l81 170h154zM670 265q0 -73 -27 -128.5t-73.5 -87t-101.5 -46.5t-117 -15q-51 0 -96 8.5t-87 28.5t-71.5 51t-47 79t-17.5 109v183q0 70 26 124.5t70.5 87.5t100 49.5t119.5 16.5t119.5 -14.5t102 -45.5t73.5 -87t27 -131v-182zM444 260v194
q0 46 -27 71t-67 25q-92 0 -92 -96v-190q0 -101 94 -101q43 0 67.5 26t24.5 71z" />
    <glyph glyph-name="Ocircumflex" unicode="&#xd4;" horiz-adv-x="702" 
d="M515 760h-117l-46 94l-48 -94h-117l107 178h112zM670 265q0 -73 -27 -128.5t-73.5 -87t-101.5 -46.5t-117 -15q-51 0 -96 8.5t-87 28.5t-71.5 51t-47 79t-17.5 109v183q0 70 26 124.5t70.5 87.5t100 49.5t119.5 16.5t119.5 -14.5t102 -45.5t73.5 -87t27 -131v-182z
M444 260v194q0 46 -27 71t-67 25q-92 0 -92 -96v-190q0 -101 94 -101q43 0 67.5 26t24.5 71z" />
    <glyph glyph-name="Otilde" unicode="&#xd5;" horiz-adv-x="702" 
d="M555 897q-19 -134 -117 -134q-29 0 -85 15t-85 15q-22 0 -31.5 -9t-18.5 -35l-71 15q21 136 123 136q29 0 84 -15.5t84 -15.5q19 0 29.5 10.5t19.5 33.5zM670 265q0 -73 -27 -128.5t-73.5 -87t-101.5 -46.5t-117 -15q-51 0 -96 8.5t-87 28.5t-71.5 51t-47 79t-17.5 109
v183q0 70 26 124.5t70.5 87.5t100 49.5t119.5 16.5t119.5 -14.5t102 -45.5t73.5 -87t27 -131v-182zM444 260v194q0 46 -27 71t-67 25q-92 0 -92 -96v-190q0 -101 94 -101q43 0 67.5 26t24.5 71z" />
    <glyph glyph-name="Odieresis" unicode="&#xd6;" horiz-adv-x="702" 
d="M530 770h-137v149h137v-149zM309 770h-137v149h137v-149zM670 265q0 -73 -27 -128.5t-73.5 -87t-101.5 -46.5t-117 -15q-51 0 -96 8.5t-87 28.5t-71.5 51t-47 79t-17.5 109v183q0 70 26 124.5t70.5 87.5t100 49.5t119.5 16.5t119.5 -14.5t102 -45.5t73.5 -87t27 -131
v-182zM444 260v194q0 46 -27 71t-67 25q-92 0 -92 -96v-190q0 -101 94 -101q43 0 67.5 26t24.5 71z" />
    <glyph glyph-name="multiply" unicode="&#xd7;" horiz-adv-x="572" 
d="M517 155l-73 -75l-158 162l-158 -162l-73 75l157 162l-157 164l73 75l158 -163l158 162l73 -74l-157 -163z" />
    <glyph glyph-name="Oslash" unicode="&#xd8;" horiz-adv-x="702" 
d="M670 265q0 -73 -27 -128.5t-73.5 -87t-101.5 -46.5t-117 -15q-101 0 -176 33l-51 -73l-71 40l54 78q-75 70 -75 198v183q0 70 26 124.5t70.5 87.5t100 49.5t119.5 16.5q109 0 186 -39l48 70l67 -42l-51 -74q72 -70 72 -193v-182zM420 521q-26 29 -70 29q-92 0 -92 -96
v-168zM444 260v155l-158 -230q23 -22 66 -22t67.5 26t24.5 71z" />
    <glyph glyph-name="Ugrave" unicode="&#xd9;" horiz-adv-x="725" 
d="M423 764h-98l-137 170h154zM677 264q0 -133 -92 -205t-228 -72q-150 0 -229.5 67.5t-79.5 204.5v454h224v-446q0 -52 27 -79t70 -27q41 0 66 28.5t25 77.5v446h217v-449z" />
    <glyph glyph-name="Uacute" unicode="&#xda;" horiz-adv-x="725" 
d="M560 934l-137 -170h-98l81 170h154zM677 264q0 -133 -92 -205t-228 -72q-150 0 -229.5 67.5t-79.5 204.5v454h224v-446q0 -52 27 -79t70 -27q41 0 66 28.5t25 77.5v446h217v-449z" />
    <glyph glyph-name="Ucircumflex" unicode="&#xdb;" horiz-adv-x="725" 
d="M532 760h-117l-46 94l-48 -94h-116l107 178h112zM677 264q0 -133 -92 -205t-228 -72q-150 0 -229.5 67.5t-79.5 204.5v454h224v-446q0 -52 27 -79t70 -27q41 0 66 28.5t25 77.5v446h217v-449z" />
    <glyph glyph-name="Udieresis" unicode="&#xdc;" horiz-adv-x="725" 
d="M542 770h-138v149h138v-149zM320 770h-137v149h137v-149zM677 264q0 -133 -92 -205t-228 -72q-150 0 -229.5 67.5t-79.5 204.5v454h224v-446q0 -52 27 -79t70 -27q41 0 66 28.5t25 77.5v446h217v-449z" />
    <glyph glyph-name="Yacute" unicode="&#xdd;" horiz-adv-x="682" 
d="M684 713l-231 -436v-277h-225v278l-230 435h229l124 -256l126 256h207zM544 934l-137 -170h-98l81 170h154z" />
    <glyph glyph-name="Thorn" unicode="&#xde;" horiz-adv-x="693" 
d="M661 372q0 -95 -63.5 -162.5t-192.5 -67.5h-131v-142h-224v713h224v-127h131q126 0 191 -62.5t65 -151.5zM443 362q0 29 -20.5 50t-58.5 21h-90v-142h89q37 0 58.5 21t21.5 50z" />
    <glyph glyph-name="germandbls" unicode="&#xdf;" horiz-adv-x="679" 
d="M652 199q0 -96 -65 -153.5t-155 -57.5q-82 0 -130 16v156q42 -7 56 -7q35 0 53.5 16.5t18.5 44.5q0 31 -28.5 49t-84.5 18v146h23q57 26 57 83q0 69 -67 69q-36 0 -56.5 -23t-20.5 -60v-496h-207v471q0 46 14.5 87.5t45.5 80.5t90 62.5t139 23.5q117 0 194.5 -50
t77.5 -146q0 -48 -26 -85.5t-74 -50.5v-5q66 -23 105.5 -74t39.5 -115z" />
    <glyph glyph-name="agrave" unicode="&#xe0;" horiz-adv-x="604" 
d="M364 592h-98l-137 170h154zM570 0h-193l-6 70h-6q-28 -46 -77 -64t-93 -18q-75 0 -122.5 39.5t-47.5 112.5q0 53 27.5 91t72.5 57t89.5 27t92.5 8h46v35q0 24 -17 39.5t-49 15.5q-35 0 -49 -17t-14 -39v-12h-184v24q0 84 76 133t189 49q106 0 181 -50t75 -149v-230
q0 -41 9 -122zM353 193v34h-37q-80 0 -80 -51q0 -48 54 -48q21 0 42 17.5t21 47.5z" />
    <glyph glyph-name="aacute" unicode="&#xe1;" horiz-adv-x="604" 
d="M480 762l-137 -170h-98l81 170h154zM570 0h-193l-6 70h-6q-28 -46 -77 -64t-93 -18q-75 0 -122.5 39.5t-47.5 112.5q0 53 27.5 91t72.5 57t89.5 27t92.5 8h46v35q0 24 -17 39.5t-49 15.5q-35 0 -49 -17t-14 -39v-12h-184v24q0 84 76 133t189 49q106 0 181 -50t75 -149
v-230q0 -41 9 -122zM353 193v34h-37q-80 0 -80 -51q0 -48 54 -48q21 0 42 17.5t21 47.5z" />
    <glyph glyph-name="acircumflex" unicode="&#xe2;" horiz-adv-x="604" 
d="M469 592h-117l-46 94l-48 -94h-116l107 178h112zM570 0h-193l-6 70h-6q-28 -46 -77 -64t-93 -18q-75 0 -122.5 39.5t-47.5 112.5q0 53 27.5 91t72.5 57t89.5 27t92.5 8h46v35q0 24 -17 39.5t-49 15.5q-35 0 -49 -17t-14 -39v-12h-184v24q0 84 76 133t189 49
q106 0 181 -50t75 -149v-230q0 -41 9 -122zM353 193v34h-37q-80 0 -80 -51q0 -48 54 -48q21 0 42 17.5t21 47.5z" />
    <glyph glyph-name="atilde" unicode="&#xe3;" horiz-adv-x="604" 
d="M512 730q-19 -134 -117 -134q-29 0 -85 15t-85 15q-22 0 -31.5 -9t-18.5 -35l-71 15q21 136 123 136q29 0 84 -15.5t84 -15.5q19 0 29.5 10.5t19.5 33.5zM570 0h-193l-6 70h-6q-28 -46 -77 -64t-93 -18q-75 0 -122.5 39.5t-47.5 112.5q0 53 27.5 91t72.5 57t89.5 27
t92.5 8h46v35q0 24 -17 39.5t-49 15.5q-35 0 -49 -17t-14 -39v-12h-184v24q0 84 76 133t189 49q106 0 181 -50t75 -149v-230q0 -41 9 -122zM353 193v34h-37q-80 0 -80 -51q0 -48 54 -48q21 0 42 17.5t21 47.5z" />
    <glyph glyph-name="adieresis" unicode="&#xe4;" horiz-adv-x="604" 
d="M489 595h-137v149h137v-149zM268 595h-137v149h137v-149zM570 0h-193l-6 70h-6q-28 -46 -77 -64t-93 -18q-75 0 -122.5 39.5t-47.5 112.5q0 53 27.5 91t72.5 57t89.5 27t92.5 8h46v35q0 24 -17 39.5t-49 15.5q-35 0 -49 -17t-14 -39v-12h-184v24q0 84 76 133t189 49
q106 0 181 -50t75 -149v-230q0 -41 9 -122zM353 193v34h-37q-80 0 -80 -51q0 -48 54 -48q21 0 42 17.5t21 47.5z" />
    <glyph glyph-name="aring" unicode="&#xe5;" horiz-adv-x="604" 
d="M419 700q0 -47 -35 -79.5t-82 -32.5q-50 0 -83 28t-33 77q0 48 34 79.5t82 31.5q50 0 83.5 -27.5t33.5 -76.5zM570 0h-193l-6 70h-6q-28 -46 -77 -64t-93 -18q-75 0 -122.5 39.5t-47.5 112.5q0 53 27.5 91t72.5 57t89.5 27t92.5 8h46v35q0 24 -17 39.5t-49 15.5
q-35 0 -49 -17t-14 -39v-12h-184v24q0 84 76 133t189 49q106 0 181 -50t75 -149v-230q0 -41 9 -122zM353 696q0 22 -14 36t-37 14q-22 0 -36 -14t-14 -36q0 -20 15 -34.5t35 -14.5q21 0 36 14t15 35zM353 193v34h-37q-80 0 -80 -51q0 -48 54 -48q21 0 42 17.5t21 47.5z" />
    <glyph glyph-name="ae" unicode="&#xe6;" horiz-adv-x="910" 
d="M874 222h-313v-15q0 -37 32 -53.5t72 -16.5q59 0 162 30l33 -132q-110 -48 -231 -48q-167 0 -237 96q-61 -95 -197 -95q-75 0 -122.5 39.5t-47.5 112.5q0 53 27.5 91t72.5 57t89.5 27t92.5 8h46v35q0 24 -17 39.5t-49 15.5q-35 0 -49 -17t-14 -39v-12h-184v24
q0 84 76 133t189 49q97 0 163 -39q69 40 161 40q103 0 174 -59.5t71 -166.5v-104zM683 329v21q0 29 -17 45.5t-45 16.5q-27 0 -43.5 -17t-16.5 -45v-21h122zM353 193v34h-37q-80 0 -80 -51q0 -48 54 -48q21 0 42 17.5t21 47.5z" />
    <glyph glyph-name="ccedilla" unicode="&#xe7;" horiz-adv-x="584" 
d="M560 170q0 -83 -67 -129.5t-168 -52.5l-7 -26q118 2 118 -71q0 -43 -44.5 -65t-100.5 -22q-50 0 -116 16v63q66 -14 108 -14q38 0 38 20q0 16 -35 18h-4l-54 3l22 80q-94 11 -157 64.5t-63 153.5v110q0 60 24 106.5t64 73.5t86.5 40.5t95.5 13.5q108 0 184 -51t76 -140
v-34h-201v21q0 58 -56 58q-63 0 -63 -66v-139q0 -68 63 -68q56 0 56 58v21h201v-42z" />
    <glyph glyph-name="egrave" unicode="&#xe8;" horiz-adv-x="588" 
d="M364 592h-98l-137 170h154zM552 222h-313v-15q0 -37 32 -53.5t72 -16.5q59 0 162 30l33 -132q-110 -48 -231 -48q-54 0 -101.5 12t-88 37t-64 70t-23.5 104v95q0 63 24 112t64.5 77.5t88.5 43t100 14.5q103 0 174 -59.5t71 -166.5v-104zM361 329v21q0 29 -17 45.5
t-45 16.5q-27 0 -43.5 -17t-16.5 -45v-21h122z" />
    <glyph glyph-name="eacute" unicode="&#xe9;" horiz-adv-x="588" 
d="M480 762l-137 -170h-98l81 170h154zM552 222h-313v-15q0 -37 32 -53.5t72 -16.5q59 0 162 30l33 -132q-110 -48 -231 -48q-54 0 -101.5 12t-88 37t-64 70t-23.5 104v95q0 63 24 112t64.5 77.5t88.5 43t100 14.5q103 0 174 -59.5t71 -166.5v-104zM361 329v21
q0 29 -17 45.5t-45 16.5q-27 0 -43.5 -17t-16.5 -45v-21h122z" />
    <glyph glyph-name="ecircumflex" unicode="&#xea;" horiz-adv-x="588" 
d="M469 592h-117l-46 94l-48 -94h-116l107 178h112zM552 222h-313v-15q0 -37 32 -53.5t72 -16.5q59 0 162 30l33 -132q-110 -48 -231 -48q-54 0 -101.5 12t-88 37t-64 70t-23.5 104v95q0 63 24 112t64.5 77.5t88.5 43t100 14.5q103 0 174 -59.5t71 -166.5v-104zM361 329v21
q0 29 -17 45.5t-45 16.5q-27 0 -43.5 -17t-16.5 -45v-21h122z" />
    <glyph glyph-name="edieresis" unicode="&#xeb;" horiz-adv-x="588" 
d="M498 595h-137v149h137v-149zM277 595h-137v149h137v-149zM552 222h-313v-15q0 -37 32 -53.5t72 -16.5q59 0 162 30l33 -132q-110 -48 -231 -48q-54 0 -101.5 12t-88 37t-64 70t-23.5 104v95q0 63 24 112t64.5 77.5t88.5 43t100 14.5q103 0 174 -59.5t71 -166.5v-104z
M361 329v21q0 29 -17 45.5t-45 16.5q-27 0 -43.5 -17t-16.5 -45v-21h122z" />
    <glyph glyph-name="igrave" unicode="&#xec;" horiz-adv-x="300" 
d="M198 592h-99l-137 170h154zM254 0h-208v539h208v-539z" />
    <glyph glyph-name="iacute" unicode="&#xed;" horiz-adv-x="300" 
d="M324 762l-137 -170h-98l81 170h154zM254 0h-208v539h208v-539z" />
    <glyph glyph-name="icircumflex" unicode="&#xee;" horiz-adv-x="300" 
d="M314 592h-117l-46 94l-48 -94h-117l107 178h112zM254 0h-208v539h208v-539z" />
    <glyph glyph-name="idieresis" unicode="&#xef;" horiz-adv-x="300" 
d="M329 595h-137v149h137v-149zM108 595h-137v149h137v-149zM254 0h-208v539h208v-539z" />
    <glyph glyph-name="eth" unicode="&#xf0;" horiz-adv-x="600" 
d="M570 210q0 -59 -24.5 -104t-64.5 -69.5t-86 -36.5t-95 -12q-41 0 -77.5 6t-72.5 22t-62 40t-42 63.5t-16 89.5v74q0 95 54 151.5t140 74.5l-29 37l-91 -25l-52 90l76 21l-62 81l216 34l45 -60l106 29l52 -90l-92 -26l126 -167q51 -66 51 -146v-77zM360 201v98
q0 30 -16.5 49.5t-43.5 19.5q-30 0 -45 -20t-15 -52v-97q0 -64 61 -64q59 0 59 66z" />
    <glyph glyph-name="ntilde" unicode="&#xf1;" horiz-adv-x="632" 
d="M530 730q-19 -134 -117 -134q-29 0 -85 15t-85 15q-22 0 -31.5 -9t-18.5 -35l-71 15q21 136 123 136q29 0 84 -15.5t84 -15.5q19 0 29.5 10.5t19.5 33.5zM592 0h-208v317q0 79 -66 79q-26 0 -45 -23.5t-19 -66.5v-306h-208v540h204v-70h2q65 82 174 82q65 0 115.5 -38
t50.5 -115v-399z" />
    <glyph glyph-name="ograve" unicode="&#xf2;" horiz-adv-x="600" 
d="M363 592h-98l-137 170h154zM570 210q0 -59 -24.5 -104t-64.5 -69.5t-86 -36.5t-95 -12q-41 0 -77.5 6t-72.5 22t-62 40t-42 63.5t-16 89.5v110q0 115 78.5 174t188.5 59q52 0 98 -12t86.5 -37t64.5 -71.5t24 -108.5v-113zM360 201v134q0 30 -16.5 49.5t-43.5 19.5
q-30 0 -45 -20t-15 -52v-133q0 -64 61 -64q59 0 59 66z" />
    <glyph glyph-name="oacute" unicode="&#xf3;" horiz-adv-x="600" 
d="M480 762l-137 -170h-98l81 170h154zM570 210q0 -59 -24.5 -104t-64.5 -69.5t-86 -36.5t-95 -12q-41 0 -77.5 6t-72.5 22t-62 40t-42 63.5t-16 89.5v110q0 115 78.5 174t188.5 59q52 0 98 -12t86.5 -37t64.5 -71.5t24 -108.5v-113zM360 201v134q0 30 -16.5 49.5
t-43.5 19.5q-30 0 -45 -20t-15 -52v-133q0 -64 61 -64q59 0 59 66z" />
    <glyph glyph-name="ocircumflex" unicode="&#xf4;" horiz-adv-x="600" 
d="M464 592h-117l-46 94l-48 -94h-117l107 178h112zM570 210q0 -59 -24.5 -104t-64.5 -69.5t-86 -36.5t-95 -12q-41 0 -77.5 6t-72.5 22t-62 40t-42 63.5t-16 89.5v110q0 115 78.5 174t188.5 59q52 0 98 -12t86.5 -37t64.5 -71.5t24 -108.5v-113zM360 201v134
q0 30 -16.5 49.5t-43.5 19.5q-30 0 -45 -20t-15 -52v-133q0 -64 61 -64q59 0 59 66z" />
    <glyph glyph-name="otilde" unicode="&#xf5;" horiz-adv-x="600" 
d="M504 730q-19 -134 -117 -134q-29 0 -85 15t-85 15q-22 0 -31.5 -9t-18.5 -35l-71 15q21 136 123 136q29 0 84 -15.5t84 -15.5q19 0 29.5 10.5t19.5 33.5zM570 210q0 -59 -24.5 -104t-64.5 -69.5t-86 -36.5t-95 -12q-41 0 -77.5 6t-72.5 22t-62 40t-42 63.5t-16 89.5v110
q0 115 78.5 174t188.5 59q52 0 98 -12t86.5 -37t64.5 -71.5t24 -108.5v-113zM360 201v134q0 30 -16.5 49.5t-43.5 19.5q-30 0 -45 -20t-15 -52v-133q0 -64 61 -64q59 0 59 66z" />
    <glyph glyph-name="odieresis" unicode="&#xf6;" horiz-adv-x="600" 
d="M479 595h-137v149h137v-149zM258 595h-137v149h137v-149zM570 210q0 -59 -24.5 -104t-64.5 -69.5t-86 -36.5t-95 -12q-41 0 -77.5 6t-72.5 22t-62 40t-42 63.5t-16 89.5v110q0 115 78.5 174t188.5 59q52 0 98 -12t86.5 -37t64.5 -71.5t24 -108.5v-113zM360 201v134
q0 30 -16.5 49.5t-43.5 19.5q-30 0 -45 -20t-15 -52v-133q0 -64 61 -64q59 0 59 66z" />
    <glyph glyph-name="divide" unicode="&#xf7;" horiz-adv-x="602" 
d="M378 427h-154v143h154v-143zM547 264h-492v104h492v-104zM378 62h-154v143h154v-143z" />
    <glyph glyph-name="oslash" unicode="&#xf8;" horiz-adv-x="600" 
d="M570 210q0 -59 -24.5 -104t-64.5 -69.5t-86 -36.5t-95 -12q-80 0 -140 23l-42 -57l-64 35l43 59q-67 57 -67 161v110q0 115 78.5 174t188.5 59q87 0 149 -29l39 53l61 -37l-40 -55q64 -59 64 -161v-113zM344 384q-18 20 -44 20q-30 0 -45 -20t-15 -52v-90zM360 201v84
l-100 -138q14 -12 41 -12q59 0 59 66z" />
    <glyph glyph-name="ugrave" unicode="&#xf9;" horiz-adv-x="644" 
d="M387 592h-98l-137 170h154zM596 0h-204v81h-2q-64 -93 -174 -93q-65 0 -115.5 37.5t-50.5 114.5v399h208v-317q0 -79 66 -79q26 0 45 24t19 66v306h208v-539z" />
    <glyph glyph-name="uacute" unicode="&#xfa;" horiz-adv-x="644" 
d="M512 762l-137 -170h-98l81 170h154zM596 0h-204v81h-2q-64 -93 -174 -93q-65 0 -115.5 37.5t-50.5 114.5v399h208v-317q0 -79 66 -79q26 0 45 24t19 66v306h208v-539z" />
    <glyph glyph-name="ucircumflex" unicode="&#xfb;" horiz-adv-x="644" 
d="M489 592h-117l-46 94l-48 -94h-116l107 178h112zM596 0h-204v81h-2q-64 -93 -174 -93q-65 0 -115.5 37.5t-50.5 114.5v399h208v-317q0 -79 66 -79q26 0 45 24t19 66v306h208v-539z" />
    <glyph glyph-name="udieresis" unicode="&#xfc;" horiz-adv-x="644" 
d="M508 595h-137v149h137v-149zM287 595h-137v149h137v-149zM596 0h-204v81h-2q-64 -93 -174 -93q-65 0 -115.5 37.5t-50.5 114.5v399h208v-317q0 -79 66 -79q26 0 45 24t19 66v306h208v-539z" />
    <glyph glyph-name="yacute" unicode="&#xfd;" horiz-adv-x="600" 
d="M512 762l-137 -170h-98l81 170h154zM601 540l-196 -565q-58 -165 -233 -165q-43 0 -98 11v151q31 -8 71 -8q45 0 56 29l4 11l-196 536h222l89 -312h4l91 312h186z" />
    <glyph glyph-name="thorn" unicode="&#xfe;" horiz-adv-x="622" 
d="M592 169q0 -78 -60.5 -130t-148.5 -52q-34 0 -70 15.5t-57 40.5h-2v-227h-208v897h208v-241h2q29 38 71 59t84 21q90 0 135.5 -50.5t45.5 -138.5v-194zM384 196v133q0 34 -18 53t-43 19q-69 0 -69 -82v-123q0 -37 21 -53t45 -16q26 0 45 17.5t19 51.5z" />
    <glyph glyph-name="ydieresis" unicode="&#xff;" horiz-adv-x="600" 
d="M507 595h-137v149h137v-149zM286 595h-137v149h137v-149zM601 540l-196 -565q-58 -165 -233 -165q-43 0 -98 11v151q31 -8 71 -8q45 0 56 29l4 11l-196 536h222l89 -312h4l91 312h186z" />
    <glyph glyph-name="dotlessi" unicode="&#x131;" horiz-adv-x="300" 
d="M254 0h-208v539h208v-539z" />
    <glyph glyph-name="Lslash" unicode="&#x141;" horiz-adv-x="644" 
d="M624 0h-555v299l-58 -16v110l58 16v304h224v-242l99 27v-110l-99 -27v-187h331v-174z" />
    <glyph glyph-name="lslash" unicode="&#x142;" horiz-adv-x="370" 
d="M346 7q-59 -19 -114 -19q-78 0 -125.5 37t-47.5 107v164l-48 -13v110l48 13v307h209v-250l70 19v-110l-70 -19v-156q0 -19 7.5 -28t31.5 -9q9 0 39 4v-157z" />
    <glyph glyph-name="OE" unicode="&#x152;" horiz-adv-x="1045" 
d="M999 0h-555v19q-49 -31 -118 -31q-294 0 -294 276v183q0 139 80 208.5t211 69.5q72 0 121 -34v22h555v-173h-331v-98h262v-172h-262v-96h331v-174zM444 260v194q0 46 -27 71t-67 25q-92 0 -92 -96v-190q0 -101 94 -101q43 0 67.5 26t24.5 71z" />
    <glyph glyph-name="oe" unicode="&#x153;" horiz-adv-x="919" 
d="M883 222h-313v-15q0 -37 32 -53.5t72 -16.5q59 0 162 30l33 -132q-110 -48 -231 -48q-102 0 -174 39q-69 -38 -164 -38q-41 0 -77.5 6t-72.5 22t-62 40t-42 63.5t-16 89.5v110q0 115 78.5 174t188.5 59q105 0 174 -43q70 43 167 43q103 0 174 -59.5t71 -166.5v-104z
M692 329v21q0 29 -17 45.5t-45 16.5q-27 0 -43.5 -17t-16.5 -45v-21h122zM360 201v134q0 30 -16.5 49.5t-43.5 19.5q-30 0 -45 -20t-15 -52v-133q0 -64 61 -64q59 0 59 66z" />
    <glyph glyph-name="Scaron" unicode="&#x160;" horiz-adv-x="643" 
d="M480 944l-107 -178h-112l-108 178h117l46 -94l48 94h116zM622 234q0 -64 -27 -113.5t-72 -77t-96 -41.5t-106 -14q-100 0 -173.5 16.5t-141.5 63.5l106 156q96 -73 190 -73q83 0 83 41q0 16 -9.5 26.5t-20 14.5t-32.5 10h-1q-1 0 -7 2l-118 33q-76 21 -121.5 72.5
t-45.5 127.5q0 103 80 174.5t210 71.5q95 0 154 -16t123 -54l-118 -147q-27 22 -70.5 35.5t-77.5 13.5q-80 0 -80 -43q0 -7 2 -12.5t7 -9.5t9.5 -7t14 -6.5t16 -5t20 -5t20.5 -5.5l103 -29q88 -25 133.5 -76t45.5 -123z" />
    <glyph glyph-name="scaron" unicode="&#x161;" horiz-adv-x="561" 
d="M441 770l-107 -178h-112l-108 178h117l46 -94l48 94h116zM537 180q0 -49 -23.5 -87.5t-62.5 -60.5t-82.5 -33t-89.5 -11q-84 0 -141.5 12t-119.5 50l86 132q82 -58 160 -58q62 0 62 25q0 21 -38 31q-6 1 -16 3l-102 29q-132 38 -132 148q0 80 65 136t175 56
q78 0 126.5 -12t108.5 -44l-100 -121q-27 18 -62.5 29t-62.5 11q-60 0 -60 -27q0 -15 16 -21q10 -3 29 -6.5t24 -4.5l86 -22q75 -19 114.5 -59t39.5 -95z" />
    <glyph glyph-name="Ydieresis" unicode="&#x178;" horiz-adv-x="682" 
d="M529 770h-137v149h137v-149zM308 770h-137v149h137v-149zM684 713l-231 -436v-277h-225v278l-230 435h229l124 -256l126 256h207z" />
    <glyph glyph-name="Zcaron" unicode="&#x17d;" horiz-adv-x="657" 
d="M495 944l-107 -178h-112l-108 178h117l46 -94l48 94h116zM619 564l-291 -390h287v-174h-579v129l312 411h-302v173h573v-149z" />
    <glyph glyph-name="zcaron" unicode="&#x17e;" horiz-adv-x="564" 
d="M455 770l-107 -178h-112l-108 178h117l46 -94l48 94h116zM524 0h-484v125l235 264h-229v151h477v-129l-229 -259h230v-152z" />
    <glyph glyph-name="florin" unicode="&#x192;" horiz-adv-x="428" 
d="M409 285h-99v-460h-207v460h-83v115h83v172q0 83 55 121t130 38q78 0 117 -13v-123q-30 4 -57 4q-17 0 -27.5 -9.5t-10.5 -25.5v-164h99v-115z" />
    <glyph glyph-name="circumflex" unicode="&#x2c6;" horiz-adv-x="387" 
d="M357 592h-117l-46 94l-48 -94h-116l107 178h112z" />
    <glyph glyph-name="caron" unicode="&#x2c7;" horiz-adv-x="387" 
d="M357 770l-107 -178h-112l-108 178h117l46 -94l48 94h116z" />
    <glyph glyph-name="breve" unicode="&#x2d8;" horiz-adv-x="457" 
d="M410 736q-1 -68 -58 -111t-124 -43q-74 0 -126.5 44.5t-54.5 109.5h98q14 -32 33.5 -49t54.5 -17q30 0 51 18t25 48h101z" />
    <glyph glyph-name="dotaccent" unicode="&#x2d9;" horiz-adv-x="259" 
d="M198 586h-137v149h137v-149z" />
    <glyph glyph-name="ring" unicode="&#x2da;" horiz-adv-x="330" 
d="M282 700q0 -47 -35 -79.5t-83 -32.5q-49 0 -82.5 28t-33.5 77q0 48 34 79.5t82 31.5q50 0 84 -27.5t34 -76.5zM215 696q0 22 -14 36t-37 14q-22 0 -35.5 -14t-13.5 -36q0 -20 14.5 -34.5t34.5 -14.5q21 0 36 14t15 35z" />
    <glyph glyph-name="ogonek" unicode="&#x2db;" horiz-adv-x="400" 
d="M314 0q-109 -38 -109 -97q0 -35 39 -35q25 0 57 8v-64q-42 -9 -89 -9q-58 0 -95 19t-37 57q0 45 47 81t110 54z" />
    <glyph glyph-name="tilde" unicode="&#x2dc;" horiz-adv-x="508" 
d="M458 730q-19 -134 -117 -134q-29 0 -85 15t-85 15q-22 0 -31.5 -9t-18.5 -35l-71 15q21 136 123 136q29 0 84 -15.5t84 -15.5q19 0 29.5 10.5t19.5 33.5z" />
    <glyph glyph-name="hungarumlaut" unicode="&#x2dd;" horiz-adv-x="555" 
d="M505 762l-137 -170h-98l81 170h154zM285 762l-137 -170h-98l81 170h154z" />
    <glyph glyph-name="Delta" unicode="&#x394;" 
 />
    <glyph glyph-name="Omega" unicode="&#x3a9;" 
 />
    <glyph glyph-name="mu" unicode="&#x3bc;" 
 />
    <glyph glyph-name="pi" unicode="&#x3c0;" 
 />
    <glyph glyph-name="endash" unicode="&#x2013;" horiz-adv-x="634" 
d="M609 243h-584v110h584v-110z" />
    <glyph glyph-name="emdash" unicode="&#x2014;" horiz-adv-x="1134" 
d="M1109 243h-1084v109h1084v-109z" />
    <glyph glyph-name="quoteleft" unicode="&#x2018;" horiz-adv-x="322" 
d="M264 391h-206v181l77 153h94l-36 -141h71v-193z" />
    <glyph glyph-name="quoteright" unicode="&#x2019;" horiz-adv-x="322" 
d="M264 544l-77 -153h-94l36 141h-71v193h206v-181z" />
    <glyph glyph-name="quotesinglbase" unicode="&#x201a;" horiz-adv-x="322" 
d="M264 12l-77 -153h-94l36 141h-71v193h206v-181z" />
    <glyph glyph-name="quotedblleft" unicode="&#x201c;" horiz-adv-x="579" 
d="M521 391h-206v181l77 153h94l-36 -141h71v-193zM264 391h-206v181l77 153h94l-36 -141h71v-193z" />
    <glyph glyph-name="quotedblright" unicode="&#x201d;" horiz-adv-x="579" 
d="M521 544l-77 -153h-94l36 141h-71v193h206v-181zM264 544l-77 -153h-94l36 141h-71v193h206v-181z" />
    <glyph glyph-name="quotedblbase" unicode="&#x201e;" horiz-adv-x="579" 
d="M521 12l-77 -153h-94l36 141h-71v193h206v-181zM264 12l-77 -153h-94l36 141h-71v193h206v-181z" />
    <glyph glyph-name="dagger" unicode="&#x2020;" horiz-adv-x="580" 
d="M535 458h-183v-610h-124v610h-183v107h183v153h124v-153h183v-107z" />
    <glyph glyph-name="daggerdbl" unicode="&#x2021;" horiz-adv-x="580" 
d="M535 13h-183v-164h-124v164h-184v108h184v337h-184v108h184v153h124v-153h183v-108h-183v-337h183v-108z" />
    <glyph glyph-name="bullet" unicode="&#x2022;" horiz-adv-x="446" 
d="M329 366q0 -44 -31 -75t-74 -31q-44 0 -75.5 31t-31.5 75t31.5 75t75.5 31t74.5 -31t30.5 -75z" />
    <glyph glyph-name="ellipsis" unicode="&#x2026;" horiz-adv-x="850" 
d="M792 0h-206v194h206v-194zM528 0h-206v194h206v-194zM264 0h-206v194h206v-194z" />
    <glyph glyph-name="perthousand" unicode="&#x2030;" horiz-adv-x="1315" 
d="M1277 121q0 -66 -50.5 -98.5t-114.5 -32.5q-67 0 -117.5 31.5t-50.5 99.5v156q0 68 49.5 100t116.5 32t117 -33t50 -102v-153zM893 121q0 -66 -50.5 -98.5t-114.5 -32.5q-67 0 -117.5 31.5t-50.5 99.5v156q0 68 49.5 100t116.5 32t117 -33t50 -102v-153zM732 718
l-419 -726h-114l419 726h114zM371 436q0 -66 -50.5 -98.5t-114.5 -32.5q-67 0 -117.5 31.5t-50.5 99.5v156q0 68 49 100.5t116 32.5t117.5 -33.5t50.5 -102.5v-153zM1146 123v158q0 12 -9.5 20t-25.5 8q-17 0 -26.5 -8t-9.5 -20v-160q0 -12 9 -21t27 -9q17 0 26 9.5t9 22.5z
M762 123v158q0 12 -9.5 20t-25.5 8q-17 0 -26.5 -8t-9.5 -20v-160q0 -12 9 -21t27 -9q17 0 26 9.5t9 22.5zM240 438v158q0 12 -10 20t-26 8q-17 0 -26 -8t-9 -20v-160q0 -12 9 -21t27 -9q17 0 26 9.5t9 22.5z" />
    <glyph glyph-name="guilsinglleft" unicode="&#x2039;" horiz-adv-x="350" 
d="M338 118l-92 -77l-234 217l234 219l90 -80l-150 -139z" />
    <glyph glyph-name="guilsinglright" unicode="&#x203a;" horiz-adv-x="350" 
d="M338 260l-234 -219l-90 80l150 139l-152 140l92 77z" />
    <glyph glyph-name="fraction" unicode="&#x2044;" horiz-adv-x="590" 
d="M591 727l-461 -763h-129l461 763h129z" />
    <glyph glyph-name="Euro" unicode="&#x20ac;" horiz-adv-x="757" 
d="M729 221q0 -49 -18 -89t-48 -66.5t-70 -44t-82 -25.5t-86 -8q-60 0 -111 13.5t-93.5 41.5t-68.5 76.5t-30 113.5h-84v98h83v59h-83v98h84q9 116 93.5 176.5t206.5 60.5q56 0 108 -13t98 -40t73.5 -74t27.5 -109v-44h-210v23q0 40 -27 61.5t-64 21.5q-68 0 -79 -63h128
v-98h-130v-59h130v-98h-129q8 -71 80 -71q37 0 64 21.5t27 61.5v23h210v-47z" />
    <glyph glyph-name="trademark" unicode="&#x2122;" horiz-adv-x="703" 
d="M660 403h-94v158l-32 -110h-67l-32 109v-157h-94v320h125l35 -113l34 113h125v-320zM312 636h-82v-233h-104v233h-82v87h268v-87z" />
    <glyph glyph-name="partialdiff" unicode="&#x2202;" horiz-adv-x="600" 
d="M570 210q0 -59 -24.5 -104t-64.5 -69.5t-86 -36.5t-95 -12q-41 0 -77.5 6t-72.5 22t-62 40t-42 63.5t-16 89.5v74q0 95 54 151.5t140 74.5l-158 204h242l211 -280q51 -66 51 -146v-77zM360 201v98q0 30 -16.5 49.5t-43.5 19.5q-30 0 -45 -20t-15 -52v-97q0 -64 61 -64
q59 0 59 66z" />
    <glyph glyph-name="product" unicode="&#x220f;" 
 />
    <glyph glyph-name="summation" unicode="&#x2211;" 
 />
    <glyph glyph-name="minus" unicode="&#x2212;" horiz-adv-x="602" 
d="M522 264h-442v104h442v-104z" />
    <glyph glyph-name="radical" unicode="&#x221a;" 
 />
    <glyph glyph-name="infinity" unicode="&#x221e;" 
 />
    <glyph glyph-name="integral" unicode="&#x222b;" 
 />
    <glyph glyph-name="approxequal" unicode="&#x2248;" 
 />
    <glyph glyph-name="notequal" unicode="&#x2260;" 
 />
    <glyph glyph-name="lessequal" unicode="&#x2264;" 
 />
    <glyph glyph-name="greaterequal" unicode="&#x2265;" 
 />
    <glyph glyph-name="lozenge" unicode="&#x25ca;" 
 />
    <glyph glyph-name="fi" unicode="&#xfb01;" horiz-adv-x="710" 
d="M664 588h-208v137h208v-137zM664 0h-208v539h208v-539zM391 383h-99v-383h-207v383h-64v144h64v45q0 83 55 121t130 38q78 0 117 -13v-123q-30 4 -57 4q-17 0 -27.5 -9.5t-10.5 -25.5v-37h99v-144z" />
    <glyph glyph-name="fl" unicode="&#xfb02;" horiz-adv-x="761" 
d="M737 7q-59 -19 -114 -19q-78 0 -125.5 37t-47.5 107v581h209v-516q0 -19 7.5 -28t31.5 -9q9 0 39 4v-157zM391 383h-99v-383h-207v383h-64v144h64v45q0 83 55 121t130 38q78 0 117 -13v-123q-30 4 -57 4q-17 0 -27.5 -9.5t-10.5 -25.5v-37h99v-144z" />
    <glyph glyph-name="LF" 
 />
    <glyph glyph-name="CR" 
 />
    <glyph glyph-name="RS" 
 />
    <glyph glyph-name="US" 
 />
    <glyph glyph-name="apple" horiz-adv-x="602" 
d="M522 264h-442v104h442v-104z" />
    </font>
</defs>
</svg>
