<?xml version="1.0" standalone="no"?>
<!DOCTYPE svg PUBLIC "-//W3C//DTD SVG 1.1//EN" "http://www.w3.org/Graphics/SVG/1.1/DTD/svg11.dtd" >
<svg>
<metadata>
Created by FontForge 20120731 at Wed Jun 24 20:36:14 2015
 By ,,,
Copyright (c) Feliciano Type Foundry, 2004. All rights reserved.
</metadata>
<defs>
<font id="FlamaBook" horiz-adv-x="500" >
  <font-face 
    font-family="FlamaBook"
    font-weight="400"
    font-stretch="normal"
    units-per-em="1000"
    panose-1="2 0 5 3 0 0 0 0 0 0"
    ascent="800"
    descent="-200"
    x-height="503"
    cap-height="713"
    bbox="-26 -201 1045 961"
    underline-thickness="20"
    underline-position="-100"
    unicode-range="U+0020-FFFD"
  />
<missing-glyph horiz-adv-x="1000" 
 />
    <glyph glyph-name=".notdef" unicode="&#xfffd;" horiz-adv-x="1000" 
 />
    <glyph glyph-name=".null" horiz-adv-x="0" 
 />
    <glyph glyph-name="nonmarkingreturn" horiz-adv-x="333" 
 />
    <glyph glyph-name="space" unicode=" " horiz-adv-x="235" 
 />
    <glyph glyph-name="exclam" unicode="!" horiz-adv-x="274" 
d="M179 513l-16 -299h-52l-16 299v200h84v-200zM181 0h-88v122h88v-122z" />
    <glyph glyph-name="quotedbl" unicode="&#x22;" horiz-adv-x="383" 
d="M308 619l-16 -129h-50l-16 128v97h82v-96zM156 619l-15 -129h-50l-17 128v97h82v-96z" />
    <glyph glyph-name="numbersign" unicode="#" horiz-adv-x="562" 
d="M522 460l-9 -52h-90l-35 -196h91l-8 -52h-91l-31 -173h-50l31 173h-154l-30 -173h-50l31 173h-91l9 51h91l35 197h-92l9 51h91l28 160h50l-28 -160h153l28 160h50l-29 -159h91zM373 408h-153l-35 -197h154z" />
    <glyph glyph-name="dollar" unicode="$" horiz-adv-x="520" 
d="M480 231q0 -75 -49.5 -120t-126.5 -55v-82h-60v80q-79 5 -130.5 47t-68.5 113l77 17q31 -110 145 -110q53 0 93 26t40 76q0 35 -21 54.5t-60 33.5q-15 6 -49 15.5t-47 14.5q-67 22 -106.5 57t-39.5 98q0 72 46 115t120 49v70h61v-70q126 -13 163 -125l-69 -23
q-18 41 -45.5 62.5t-84.5 21.5q-46 0 -79 -24.5t-33 -66.5q0 -60 77 -84q95 -29 128 -43q119 -48 119 -147z" />
    <glyph glyph-name="percent" unicode="%" horiz-adv-x="776" 
d="M717 110q0 -57 -38.5 -88.5t-94.5 -31.5q-60 0 -95 30.5t-35 89.5v130q0 61 37 92.5t94 31.5q58 0 95 -31t37 -92v-131zM661 722l-468 -734h-67l470 734h65zM331 470q0 -57 -38.5 -88t-95.5 -31q-58 0 -93.5 30.5t-35.5 88.5v130q0 61 36.5 92.5t93.5 31.5q59 0 96 -31
t37 -92v-131zM655 109v137q0 69 -69 69q-70 0 -70 -68v-138q0 -67 67 -67q36 0 54 18.5t18 48.5zM268 469v137q0 69 -69 69q-70 0 -70 -68v-138q0 -67 67 -67q72 0 72 67z" />
    <glyph glyph-name="ampersand" unicode="&#x26;" horiz-adv-x="738" 
d="M717 0h-109l-83 88q-94 -101 -240 -101q-106 0 -169 56t-63 140q0 63 44 122t138 95q-93 95 -93 158q0 64 54 116t161 52q88 0 139 -46.5t51 -108.5q0 -70 -56.5 -119.5t-129.5 -70.5l170 -182q29 52 51 123l64 -7q-27 -100 -69 -165zM467 569h1q0 45 -34 69.5t-79 24.5
q-59 0 -90.5 -28t-31.5 -73q0 -38 54 -99q2 -3 33 -36q147 39 147 142zM482 134l-207 223q-62 -21 -96.5 -68.5t-34.5 -99.5q0 -62 43.5 -99.5t113.5 -37.5q108 0 181 82z" />
    <glyph glyph-name="quotesingle" unicode="'" horiz-adv-x="232" 
d="M157 619l-16 -129h-50l-17 128v97h83v-96z" />
    <glyph glyph-name="parenleft" unicode="(" horiz-adv-x="370" 
d="M326 -191h-49q-64 87 -103.5 230t-39.5 258q0 121 38 247.5t104 228.5h50q-53 -121 -79.5 -232t-26.5 -243q0 -239 106 -489z" />
    <glyph glyph-name="parenright" unicode=")" horiz-adv-x="370" 
d="M236 298q0 -116 -39.5 -259t-103.5 -230h-49q106 250 106 488q0 132 -26.5 244.5t-79.5 232.5h50q66 -102 104 -229t38 -247z" />
    <glyph glyph-name="asterisk" unicode="*" horiz-adv-x="422" 
d="M383 627l-120 -67l80 -116l-47 -32l-84 124l-85 -124l-47 31l78 116l-119 68l28 47l116 -65v128h56v-128l114 65z" />
    <glyph glyph-name="plus" unicode="+" horiz-adv-x="597" 
d="M522 292h-195v-198h-56v197h-197v53h197v198h55v-198h196v-52z" />
    <glyph glyph-name="comma" unicode="," horiz-adv-x="233" 
d="M160 4l-38 -107h-48l27 106h-28v119h87v-118z" />
    <glyph glyph-name="hyphen" unicode="-" horiz-adv-x="364" 
d="M321 235h-278v71h278v-71z" />
    <glyph glyph-name="period" unicode="." horiz-adv-x="233" 
d="M160 0h-87v122h87v-122z" />
    <glyph glyph-name="slash" unicode="/" horiz-adv-x="337" 
d="M322 727l-241 -764h-66l244 764h63z" />
    <glyph glyph-name="zero" unicode="0" horiz-adv-x="569" 
d="M509 197q0 -94 -64 -151.5t-160 -57.5q-97 0 -161 52.5t-64 151.5v321q0 98 65.5 155t162.5 57q98 0 159.5 -55t61.5 -154v-319zM428 200v315q0 63 -36 103.5t-104 40.5t-107 -41.5t-39 -107.5v-311q0 -62 37.5 -104t105.5 -42q67 0 105 42.5t38 104.5z" />
    <glyph glyph-name="one" unicode="1" horiz-adv-x="558" 
d="M485 0h-418v63h174v574l-159 -22l-7 59l197 40h47v-651h166v-63z" />
    <glyph glyph-name="two" unicode="2" horiz-adv-x="548" 
d="M479 0h-399v54l147 171q10 11 28.5 32t30 34.5t25 30t21.5 28.5t10 19q50 62 46 155q2 4 2 16.5t-3 14.5q-2 49 -33.5 77t-88.5 28q-58 0 -91.5 -27.5t-33.5 -77.5v-18h-75v17q0 83 56 127t150 44t145.5 -53t51.5 -138q0 -42 -10 -81t-20.5 -64.5t-39.5 -65t-42.5 -55
t-54.5 -61.5l-119 -136v-3h297v-68z" />
    <glyph glyph-name="three" unicode="3" horiz-adv-x="558" 
d="M502 201q0 -97 -63 -155t-163 -58q-102 0 -153.5 47t-51.5 111v27h76v-20q0 -48 38.5 -74t95.5 -26q60 0 97.5 38.5t37.5 104.5q0 42 -15.5 72.5t-39 44.5t-44 20.5t-38.5 6.5h-59v61h56q57 0 90 35t33 100q0 63 -38 93.5t-84 30.5q-56 0 -90 -27t-34 -82v-11h-75v24
q0 68 54.5 114.5t147.5 46.5q102 0 150.5 -55t48.5 -123q0 -59 -28.5 -106t-74.5 -63v-4q50 -16 88 -60.5t38 -112.5z" />
    <glyph glyph-name="four" unicode="4" horiz-adv-x="568" 
d="M519 199h-97v-199h-76v198h-298v65l274 450h100v-449h97v-65zM346 264v369h-5l-220 -369h225z" />
    <glyph glyph-name="five" unicode="5" horiz-adv-x="548" 
d="M498 222q7 -106 -59 -170t-167 -64t-152.5 46.5t-51.5 108.5v30h75v-20q0 -47 39.5 -73.5t92.5 -26.5q59 0 101.5 38.5t37.5 119.5q6 8 4 35t-8 32q-3 52 -43 79.5t-92 27.5q-79 0 -132 -56l-66 15l23 369h360v-66h-295l-15 -244q66 48 150 48q72 0 130.5 -40.5
t63.5 -116.5q6 -5 8 -35.5t-4 -36.5z" />
    <glyph glyph-name="six" unicode="6" horiz-adv-x="559" 
d="M494 178q0 -90 -60 -140t-158 -50q-96 0 -153.5 57.5t-57.5 148.5v320q0 94 61.5 152.5t157.5 58.5q94 0 149 -45t55 -122v-18h-76v11q0 51 -35.5 80t-95.5 29q-65 0 -100.5 -39.5t-35.5 -99.5v-162q26 36 72 58t95 22q79 0 130.5 -41.5t51.5 -115.5v-104zM414 173l1 100
q0 56 -36.5 80.5t-89.5 24.5q-52 0 -98 -41t-46 -101v-47q0 -56 35.5 -96t101.5 -40q65 0 98.5 34t33.5 86z" />
    <glyph glyph-name="seven" unicode="7" horiz-adv-x="531" 
d="M481 644l-317 -644h-83l321 646h-349v67h428v-69z" />
    <glyph glyph-name="eight" unicode="8" horiz-adv-x="550" 
d="M492 178q0 -88 -62.5 -139t-158.5 -51q-97 0 -155.5 47t-58.5 132v50q0 48 27 88t71 60q-41 18 -65.5 54.5t-24.5 85.5v33q0 89 61.5 138t147.5 49q89 0 149.5 -43.5t60.5 -128.5v-35q0 -53 -25 -93.5t-73 -56.5q47 -15 76.5 -52.5t29.5 -86.5v-51zM405 507v40
q0 55 -39 84.5t-94 29.5q-51 0 -89.5 -30.5t-38.5 -83.5v-40q0 -58 39 -87t93 -29q51 0 90 31.5t39 84.5zM410 177v48q0 59 -39 85t-96 26q-58 0 -97 -27t-39 -85v-47q0 -55 39 -89.5t94 -34.5q59 0 98.5 32.5t39.5 91.5z" />
    <glyph glyph-name="nine" unicode="9" horiz-adv-x="552" 
d="M486 197q0 -94 -63 -151.5t-159 -57.5q-94 0 -147.5 45t-53.5 122v18h76v-11q0 -51 35.5 -80t95.5 -29q65 0 100.5 40t35.5 100v155q-22 -38 -69 -60t-98 -22q-78 0 -130 45t-52 120v103q0 90 60 140.5t158 50.5q96 0 153.5 -57t57.5 -148v-323zM405 469l1 52
q0 57 -35.5 98t-101.5 41q-65 0 -99 -33.5t-34 -85.5v-101q0 -56 37.5 -84.5t88.5 -28.5q52 0 97.5 41t45.5 101z" />
    <glyph glyph-name="colon" unicode=":" horiz-adv-x="233" 
d="M160 350l-87 -1v123h87v-122zM160 0h-87v122h87v-122z" />
    <glyph glyph-name="semicolon" unicode=";" horiz-adv-x="233" 
d="M160 350l-87 -1v123h87v-122zM160 4l-38 -107h-48l27 106h-28v119h87v-118z" />
    <glyph glyph-name="less" unicode="&#x3c;" horiz-adv-x="597" 
d="M511 171l-25 -50l-400 176v47l399 177l26 -49l-350 -150z" />
    <glyph glyph-name="equal" unicode="=" horiz-adv-x="597" 
d="M522 380h-448v53h448v-53zM522 204h-448v53h448v-53z" />
    <glyph glyph-name="greater" unicode="&#x3e;" horiz-adv-x="597" 
d="M511 298l-400 -177l-25 49l350 151l-350 150l25 50l400 -176v-47z" />
    <glyph glyph-name="question" unicode="?" horiz-adv-x="516" 
d="M462 541q0 -94 -84 -172q-2 -2 -25 -22t-26 -25q-43 -40 -43 -85v-38h-69v38q0 60 48 115q5 5 28.5 27.5t24.5 23.5q34 34 44 49q24 34 24 86q0 54 -32.5 88t-87.5 34q-49 0 -87 -25.5t-38 -80.5v-40h-3h-69v36q0 85 57.5 130t144.5 45t140 -49.5t53 -134.5zM291 0h-87
v122h87v-122z" />
    <glyph glyph-name="at" unicode="@" horiz-adv-x="952" 
d="M863 391q0 -119 -69.5 -210t-169.5 -91q-37 0 -60.5 22.5t-30.5 58.5q-59 -78 -136 -78q-50 0 -77.5 42.5t-27.5 95.5q0 99 61 179t150 80h142l-57 -275q0 -34 15 -52t41 -18q39 0 71.5 27.5t50.5 68.5t27.5 82t9.5 74q0 117 -83 183.5t-201 66.5q-167 0 -267.5 -112.5
t-100.5 -278.5q0 -120 58 -197t160 -103q48 -13 128 -13q92 0 204 38l15 -50q-122 -44 -223 -44q-80 0 -140 15q-122 30 -193.5 121.5t-71.5 232.5q0 192 123.5 318.5t318.5 126.5q148 0 240.5 -82.5t92.5 -227.5zM566 430h-75q-57 0 -94.5 -59.5t-37.5 -118.5
q0 -21 1.5 -33.5t6.5 -30t17.5 -26t33.5 -8.5q25 0 47 15.5t36 39t22.5 44.5t12.5 39z" />
    <glyph glyph-name="A" unicode="A" horiz-adv-x="650" 
d="M620 0h-85l-71 205h-281l-70 -205h-84l259 718h77zM440 274l-116 337h-2l-116 -337h234z" />
    <glyph glyph-name="B" unicode="B" horiz-adv-x="617" 
d="M565 202q0 -97 -66.5 -149.5t-157.5 -52.5h-262v713h263q93 0 147.5 -46.5t54.5 -133.5q0 -57 -30.5 -99.5t-80.5 -61.5v-3q62 -16 97 -60.5t35 -106.5zM457 525h1q0 117 -129 117h-169v-242h163q60 0 97 31.5t37 93.5zM476 203q0 64 -41.5 96.5t-108.5 32.5h-166v-262
h172q66 0 105 33.5t39 99.5z" />
    <glyph glyph-name="C" unicode="C" horiz-adv-x="632" 
d="M579 187q0 -90 -71 -144.5t-179 -54.5q-118 0 -193 61.5t-75 176.5v248q0 109 74.5 180.5t191.5 71.5q111 0 181.5 -55.5t70.5 -143.5v-26h-78v16q0 64 -46.5 101t-130.5 37q-82 0 -130.5 -47.5t-48.5 -126.5v-249q0 -81 49 -127.5t134 -46.5q83 0 127.5 37t44.5 101v17
h79v-26z" />
    <glyph glyph-name="D" unicode="D" horiz-adv-x="646" 
d="M584 240q0 -110 -68.5 -175t-177.5 -65h-259v713h258q112 0 179.5 -61t67.5 -172v-240zM501 235v240q0 74 -44.5 120t-128.5 46h-168v-569h174q81 0 124 46.5t43 116.5z" />
    <glyph glyph-name="E" unicode="E" horiz-adv-x="577" 
d="M514 0h-435v713h434v-72h-353v-236h285v-71h-285v-262h354v-72z" />
    <glyph glyph-name="F" unicode="F" horiz-adv-x="542" 
d="M509 641h-348v-237h278v-71h-278v-333h-82v713h430v-72z" />
    <glyph glyph-name="G" unicode="G" horiz-adv-x="652" 
d="M584 219q0 -114 -72 -172.5t-187 -58.5q-116 0 -190 62t-74 176v242q0 118 74 188t192 70q114 0 184 -53.5t70 -148.5v-26h-78v16q0 68 -46.5 104t-132.5 36q-82 0 -130.5 -48t-48.5 -131v-243q0 -81 49 -127t134 -46q83 0 130.5 39.5t47.5 115.5v75h-180v74h258v-144z
" />
    <glyph glyph-name="H" unicode="H" horiz-adv-x="672" 
d="M593 0h-82v333h-350v-333h-82v713h81v-308h351v308h82v-713z" />
    <glyph glyph-name="I" unicode="I" horiz-adv-x="523" 
d="M457 0h-391v72h155v569h-155v72h391v-72h-155v-569h155v-72z" />
    <glyph glyph-name="J" unicode="J" horiz-adv-x="588" 
d="M515 219q0 -100 -59 -165.5t-169 -65.5q-106 0 -168.5 52t-62.5 155v73h82v-64q0 -145 153 -145q72 0 106.5 47.5t34.5 110.5v496h83v-494z" />
    <glyph glyph-name="K" unicode="K" horiz-adv-x="617" 
d="M587 0h-94l-232 362l-101 -108v-254h-81v713h81v-366h1l322 366h96l-263 -296z" />
    <glyph glyph-name="L" unicode="L" horiz-adv-x="541" 
d="M509 0h-430v713h82v-641h348v-72z" />
    <glyph glyph-name="M" unicode="M" horiz-adv-x="784" 
d="M705 0h-80v603h-4l-198 -464h-65l-196 463h-4v-602h-79v713h119l192 -462h3l193 462h119v-713z" />
    <glyph glyph-name="N" unicode="N" horiz-adv-x="671" 
d="M592 -2h-76l-359 578h-2v-576h-76v713h82l353 -564h3v564h75v-715z" />
    <glyph glyph-name="O" unicode="O" horiz-adv-x="654" 
d="M593 240q0 -116 -76.5 -184t-191.5 -68q-116 0 -190 62t-74 176v242q0 117 74.5 187.5t191.5 70.5q118 0 192 -64.5t74 -178.5v-243zM508 483h1q0 80 -49 125t-136 45q-82 0 -130.5 -48.5t-48.5 -132.5v-240q0 -81 49 -126.5t134 -45.5q83 0 131.5 45.5t48.5 127.5v250z
" />
    <glyph glyph-name="P" unicode="P" horiz-adv-x="605" 
d="M553 502q0 -99 -63.5 -159t-177.5 -60h-151v-283h-82v713h240q107 0 170.5 -56.5t63.5 -154.5zM469 502h1q0 68 -46 104.5t-128 36.5h-136v-290h138q171 0 171 149z" />
    <glyph glyph-name="Q" unicode="Q" horiz-adv-x="654" 
d="M630 1l-46 -55l-103 83q-69 -41 -156 -41q-116 0 -190 62t-74 176v242q0 117 74.5 187.5t191.5 70.5q118 0 192 -64.5t74 -178.5v-243q0 -99 -58 -163zM508 483h1q0 80 -49 125t-136 45q-82 0 -130.5 -48.5t-48.5 -132.5v-240q0 -81 49 -126.5t134 -45.5q54 0 93 19
l-78 63l46 56l86 -71q33 41 33 106v250z" />
    <glyph glyph-name="R" unicode="R" horiz-adv-x="624" 
d="M582 0h-95l-192 283h-134v-283h-82v713h245q97 0 158 -46q76 -59 76 -165q0 -84 -46 -140t-131 -72zM474 502h1q0 69 -47.5 105t-126.5 36h-141v-290h143q171 0 171 149z" />
    <glyph glyph-name="S" unicode="S" horiz-adv-x="603" 
d="M554 202q0 -101 -71.5 -157.5t-178.5 -56.5q-104 0 -172.5 50t-88.5 138l81 19q17 -62 62.5 -99t118.5 -37q65 0 114.5 34.5t49.5 98.5q0 91 -116 123q-5 2 -71 22.5t-72 22.5q-58 20 -95 62.5t-37 103.5q0 93 64 146t163 53q181 0 236 -138l-69 -32q-25 53 -65 76.5
t-101 23.5q-58 0 -101 -31t-43 -85q0 -79 99 -109l148 -47q145 -48 145 -181z" />
    <glyph glyph-name="T" unicode="T" horiz-adv-x="559" 
d="M527 641h-205v-641h-84v641h-206v72h495v-72z" />
    <glyph glyph-name="U" unicode="U" horiz-adv-x="647" 
d="M580 212q0 -108 -77.5 -166t-182.5 -58q-65 0 -120.5 21t-94 71.5t-38.5 123.5v509h83v-496q0 -74 50.5 -115.5t126.5 -41.5q72 0 122.5 39.5t50.5 116.5v497h80v-501z" />
    <glyph glyph-name="V" unicode="V" horiz-adv-x="589" 
d="M565 713l-228 -718h-85l-228 718h84l186 -600h4l182 600h85z" />
    <glyph glyph-name="W" unicode="W" horiz-adv-x="898" 
d="M871 713l-191 -718h-78l-151 587h-3l-153 -587h-79l-189 718h83l145 -587h4l152 587h81l149 -588h3l148 588h79z" />
    <glyph glyph-name="X" unicode="X" horiz-adv-x="559" 
d="M543 0h-95l-171 295l-171 -295h-90l216 370l-199 343h95l156 -276l158 276h88l-202 -347z" />
    <glyph glyph-name="Y" unicode="Y" horiz-adv-x="572" 
d="M554 713l-228 -413v-300h-80v300l-228 413h89l180 -338l182 338h85z" />
    <glyph glyph-name="Z" unicode="Z" horiz-adv-x="564" 
d="M516 659l-368 -588h367v-71h-466v59l368 584h-354v70h453v-54z" />
    <glyph glyph-name="bracketleft" unicode="[" horiz-adv-x="380" 
d="M357 -200h-214v974h214v-53h-137v-868h137v-53z" />
    <glyph glyph-name="backslash" unicode="\" horiz-adv-x="337" 
d="M325 -37h-66l-242 764h63z" />
    <glyph glyph-name="bracketright" unicode="]" horiz-adv-x="380" 
d="M237 -200h-214v52h137v869h-137v53h214v-974z" />
    <glyph glyph-name="asciicircum" unicode="^" horiz-adv-x="773" 
d="M717 0h-661v713h661v-713z" />
    <glyph glyph-name="underscore" unicode="_" 
d="M500 -126h-500v52h500v-52z" />
    <glyph glyph-name="grave" unicode="`" horiz-adv-x="284" 
d="M229 577l-59 -1l-114 171h86z" />
    <glyph glyph-name="a" unicode="a" horiz-adv-x="515" 
d="M449 0h-79q0 7 -1.5 27t-1.5 28h-3q-60 -66 -146 -66q-72 0 -122.5 36.5t-50.5 103.5q0 45 19 78t50.5 50t63.5 24.5t66 7.5h122v66q0 102 -109 102q-47 0 -79.5 -18.5t-32.5 -58.5v-14h-71v9q0 73 53.5 107t133.5 34t130 -35.5t50 -112.5v-264q0 -59 8 -104zM365 173
l1 59h-122q-120 0 -120 -96q0 -42 29.5 -63t73.5 -21q61 0 99.5 33t38.5 88z" />
    <glyph glyph-name="b" unicode="b" horiz-adv-x="532" 
d="M478 172q0 -90 -55.5 -137t-132.5 -47q-42 0 -80.5 18.5t-57.5 47.5h-2v-54h-75v713h77v-286h1q26 39 65 63.5t82 24.5q81 0 129.5 -47.5t48.5 -125.5v-170zM399 171v165q0 49 -29 81t-85 32q-49 0 -91 -40.5t-42 -96.5v-132q0 -58 40.5 -93.5t91.5 -35.5q47 0 81 31
t34 89z" />
    <glyph glyph-name="c" unicode="c" horiz-adv-x="496" 
d="M452 153q0 -73 -50.5 -119t-141.5 -46q-97 0 -152 53t-55 150v115q0 96 56.5 152.5t148.5 56.5q91 0 142.5 -46t51.5 -119v-15h-73v15q0 38 -29.5 69t-89.5 31q-64 0 -95.5 -37.5t-31.5 -105.5v-115q0 -64 31 -102t96 -38q59 0 88.5 31t29.5 68v15h74v-13z" />
    <glyph glyph-name="d" unicode="d" horiz-adv-x="532" 
d="M457 0h-75v69h-1q-25 -36 -65 -58.5t-84 -22.5q-81 0 -129.5 47.5t-48.5 124.5v170q0 90 58 137.5t136 47.5q38 0 74.5 -18t54.5 -47h3v263h77v-713zM380 183v145q0 57 -39.5 90.5t-90.5 33.5q-47 0 -82 -31.5t-35 -88.5v-165q0 -50 29 -81.5t85 -31.5q50 0 91.5 36.5
t41.5 92.5z" />
    <glyph glyph-name="e" unicode="e" horiz-adv-x="507" 
d="M459 90q-65 -102 -182 -102q-99 0 -161.5 52t-62.5 153v109q0 102 59 157.5t152 55.5q88 0 141.5 -53t53.5 -148v-85h-327v-35q0 -62 39.5 -101t109.5 -39q71 0 121 68zM383 288v28q0 59 -28.5 96.5t-91.5 37.5q-62 0 -96.5 -36.5t-34.5 -91.5v-34h251z" />
    <glyph glyph-name="f" unicode="f" horiz-adv-x="358" 
d="M326 652q-32 8 -55 8q-30 0 -49 -18t-19 -53v-90h118v-60h-117v-439h-77v438h-90v60h89v76q0 62 33.5 106t107.5 44q24 0 59 -7v-65z" />
    <glyph glyph-name="g" unicode="g" horiz-adv-x="528" 
d="M457 -2v1q0 -91 -57.5 -145.5t-155.5 -54.5q-132 0 -191 92l67 39q55 -68 134 -68q58 0 92 37.5t34 87.5v98q-54 -81 -146 -81q-83 0 -131 47.5t-48 125.5v151q0 91 56 139t136 48q38 0 76.5 -18.5t56.5 -48.5h2v55h75v-505zM380 198l1 130q0 57 -39.5 90t-90.5 33
q-48 0 -82.5 -31t-34.5 -89v-149q0 -50 29 -82t85 -32q50 0 91 37t41 93z" />
    <glyph glyph-name="h" unicode="h" horiz-adv-x="538" 
d="M467 0h-77v326q0 60 -28 91t-74 31q-55 0 -95.5 -44t-40.5 -110v-294h-77v713h77v-291h1q59 93 156 93q77 0 117.5 -47.5t40.5 -115.5v-352z" />
    <glyph glyph-name="i" unicode="i" horiz-adv-x="227" 
d="M152 610h-77v109h77v-109zM152 0h-77v503h77v-503z" />
    <glyph glyph-name="j" unicode="j" horiz-adv-x="255" 
d="M179 610h-78v109h78v-109zM179 -53h-1v1q0 -146 -147 -146q-36 0 -50 3v64q22 -4 51 -4q68 0 68 82v556h79v-556z" />
    <glyph glyph-name="k" unicode="k" horiz-adv-x="496" 
d="M478 0h-86l-151 269l-89 -96v-173h-77v713h77v-459l226 249h85l-168 -183z" />
    <glyph glyph-name="l" unicode="l" horiz-adv-x="295" 
d="M270 4q-49 -14 -77 -14q-120 0 -120 123v600h78v-598q0 -60 56 -60q21 0 63 8v-59z" />
    <glyph glyph-name="m" unicode="m" horiz-adv-x="842" 
d="M771 0h-77v326q0 60 -26 91t-73 31q-54 0 -93.5 -44.5t-39.5 -107.5v-296h-77v326q0 59 -26 90.5t-73 31.5q-51 0 -92.5 -43.5t-41.5 -106.5v-298h-77v503h74v-81h3q59 93 157 93q104 0 140 -93h5q60 93 162 93q74 0 114.5 -46t40.5 -113v-356z" />
    <glyph glyph-name="n" unicode="n" horiz-adv-x="538" 
d="M467 0h-77v326q0 60 -28 91t-74 31q-55 0 -95.5 -44t-40.5 -110v-294h-77v503h75v-81h2q59 93 157 93q77 0 117.5 -47.5t40.5 -115.5v-352z" />
    <glyph glyph-name="o" unicode="o" horiz-adv-x="513" 
d="M459 194q0 -96 -56 -151t-147 -55q-96 0 -149 52.5t-53 148.5v119q0 96 56 151.5t146 55.5q95 0 149 -54.5t54 -151.5v-115zM379 194l1 118q0 138 -122 138q-125 0 -125 -142v-117q0 -139 121 -139q125 0 125 142z" />
    <glyph glyph-name="p" unicode="p" horiz-adv-x="532" 
d="M478 172q0 -90 -55 -137t-132 -47q-42 0 -79.5 17.5t-56.5 46.5h-3v-249h-77v700h75v-76h1q58 88 149 88q81 0 129.5 -47.5t48.5 -125.5v-170zM399 171v165q0 49 -29 81t-85 32q-49 0 -91 -40.5t-42 -96.5v-132q0 -58 40.5 -93.5t91.5 -35.5q47 0 81 31t34 89z" />
    <glyph glyph-name="q" unicode="q" horiz-adv-x="532" 
d="M457 -197h-77v266q-25 -36 -64.5 -58.5t-83.5 -22.5q-81 0 -129.5 47.5t-48.5 124.5v162q0 91 56 142t134 51q38 0 77.5 -18t57.5 -47h2v54h76v-701zM380 183v145q0 57 -39.5 90.5t-90.5 33.5q-47 0 -82 -31.5t-35 -88.5v-165q0 -50 29 -81.5t85 -31.5q50 0 91.5 36.5
t41.5 92.5z" />
    <glyph glyph-name="r" unicode="r" horiz-adv-x="391" 
d="M365 434q-34 6 -63 6q-34 0 -56 -8q-42 -15 -68.5 -54t-26.5 -95v-283h-78v503h76v-92h2q63 99 167 99q12 0 47 -5v-71z" />
    <glyph glyph-name="s" unicode="s" horiz-adv-x="483" 
d="M440 150q0 -76 -60.5 -119t-140.5 -43q-136 0 -203 77l53 50q64 -64 149 -64q46 0 84.5 22.5t38.5 60.5t-23 55.5t-75 28.5l-69 14q-132 27 -132 130q0 66 49 109.5t133 43.5q117 0 171 -58l-49 -49q-29 24 -56.5 34t-71.5 10t-70.5 -21.5t-26.5 -54.5q0 -32 21 -49.5
t63 -25.5l84 -17q57 -11 94 -43.5t37 -90.5z" />
    <glyph glyph-name="t" unicode="t" horiz-adv-x="367" 
d="M340 12q-52 -21 -103 -21q-55 0 -92.5 26t-37.5 88v333h-90v62h89v170h77v-170h151v-61h-151v-321q0 -63 67 -63q45 0 90 17v-60z" />
    <glyph glyph-name="u" unicode="u" horiz-adv-x="536" 
d="M466 0h-76v81h-3q-57 -93 -156 -93q-76 0 -117 48t-41 115v352h77v-326q0 -60 28 -91t75 -31q55 0 95 43.5t40 108.5v296h78v-503z" />
    <glyph glyph-name="v" unicode="v" horiz-adv-x="481" 
d="M457 503l-177 -505h-80l-176 505h81l136 -411h2l137 411h77z" />
    <glyph glyph-name="w" unicode="w" horiz-adv-x="790" 
d="M760 503l-159 -505h-80l-124 412h-3l-126 -412h-78l-160 505h81l119 -406h3l123 406h83l121 -406h3l123 406h74z" />
    <glyph glyph-name="x" unicode="x" horiz-adv-x="478" 
d="M458 0h-88l-133 200l-132 -200h-86l177 261l-163 242h90l119 -181l121 181h83l-164 -239z" />
    <glyph glyph-name="y" unicode="y" horiz-adv-x="486" 
d="M462 503l-209 -583q-43 -119 -153 -119q-41 0 -73 9v64q38 -9 69 -9q62 0 83 57l32 87l-182 494h83l137 -396h2l133 396h78z" />
    <glyph glyph-name="z" unicode="z" horiz-adv-x="477" 
d="M421 0h-373v63l275 376h-265v64h360v-59l-277 -381h280v-63z" />
    <glyph glyph-name="braceleft" unicode="{" horiz-adv-x="381" 
d="M357 721h-135v-348l-42 -53l41 -62v-405h135v-53h-211v450l-43 70l43 61v393h212v-53z" />
    <glyph glyph-name="bar" unicode="|" horiz-adv-x="325" 
d="M194 -39h-64v764h64v-764z" />
    <glyph glyph-name="braceright" unicode="}" horiz-adv-x="381" 
d="M279 320l-43 -70v-450h-211v52h134v406l42 62l-42 53v348h-136v53h212v-393z" />
    <glyph glyph-name="asciitilde" unicode="~" horiz-adv-x="773" 
d="M717 0h-661v713h661v-713zM661 56v601h-549v-601h549z" />
    <glyph glyph-name="nbspace" unicode="&#xa0;" horiz-adv-x="235" 
 />
    <glyph glyph-name="exclamdown" unicode="&#xa1;" horiz-adv-x="274" 
d="M181 405l-88 -1v123h88v-122zM179 -187h-84v200l16 299h52l16 -298v-201z" />
    <glyph glyph-name="cent" unicode="&#xa2;" horiz-adv-x="515" 
d="M461 209q0 -76 -43 -124t-120 -55v-82h-61v82q-81 8 -126 59t-45 137v129q0 87 46 139t125 61v67h60v-67q78 -7 121 -55t43 -124v-16h-73v14q0 49 -29 83.5t-90 34.5q-62 0 -93.5 -36.5t-31.5 -101.5v-126q0 -61 31 -98t95 -37q60 0 89 34.5t29 82.5v15h73v-16z" />
    <glyph glyph-name="sterling" unicode="&#xa3;" horiz-adv-x="568" 
d="M532 67l-19 -67h-458v67h81v265h-76v58h76v144q0 99 54.5 145t139.5 46t133 -42t48 -121v-35h-73v35q0 48 -30.5 74t-80.5 26q-52 0 -83 -29t-31 -92v-151h215v-58h-215v-265h319z" />
    <glyph glyph-name="currency" unicode="&#xa4;" horiz-adv-x="724" 
d="M659 213q0 -109 -68 -167t-177 -58q-115 0 -186.5 61t-71.5 177v19h-112v58h112v98h-112v58h111v11q0 116 70.5 186t188.5 70q113 0 179 -57.5t66 -161.5v-25h-78v16q0 75 -43 115.5t-126 40.5q-81 0 -127 -48t-46 -131v-15h231v-59h-231v-97h231v-59h-231v-13
q0 -82 46 -127.5t130 -45.5q82 0 123.5 39.5t41.5 113.5v19h79v-18z" />
    <glyph glyph-name="yen" unicode="&#xa5;" horiz-adv-x="572" 
d="M554 713l-222 -403v-4h202v-58h-208v-248h-81v247h-210v59h204v4l-221 403h89l180 -338l182 338h85z" />
    <glyph glyph-name="brokenbar" unicode="&#xa6;" horiz-adv-x="491" 
d="M273 379h-55v346h55v-346zM273 -77h-55v382h55v-382z" />
    <glyph glyph-name="section" unicode="&#xa7;" horiz-adv-x="576" 
d="M490 78q0 -70 -56 -117.5t-154 -47.5q-80 0 -137 34.5t-57 107.5v36h70v-18q0 -47 34.5 -72.5t95.5 -25.5q59 0 95 25t36 64q0 20 -7 34.5t-23 25t-26.5 15t-32.5 12.5l-102 31q-129 40 -129 134q0 90 87 129q-47 20 -67.5 47t-20.5 72q0 67 50.5 108.5t144.5 41.5
q88 0 138.5 -37.5t50.5 -105.5v-32h-67v25q0 41 -34.5 65.5t-92.5 24.5q-50 0 -83 -20.5t-33 -61.5q0 -15 6.5 -27t20 -20.5t23.5 -13.5t29 -11.5t24 -8.5l91 -33q61 -22 92.5 -49t31.5 -79q0 -92 -84 -129q86 -42 86 -123zM416 311q0 52 -73 74q-76 24 -94 29
q-78 -25 -78 -91q0 -47 91 -74q69 -19 79 -24q36 11 55.5 34.5t19.5 51.5z" />
    <glyph glyph-name="dieresis" unicode="&#xa8;" horiz-adv-x="435" 
d="M349 589h-78v103h78v-103zM163 589h-77v103h77v-103z" />
    <glyph glyph-name="copyright" unicode="&#xa9;" horiz-adv-x="944" 
d="M872 347q0 -172 -111.5 -290.5t-290.5 -118.5q-183 0 -291 117.5t-108 291.5q0 170 112 288t287 118q180 0 291 -117t111 -289zM813 347h1q0 161 -100 260t-244 99q-145 0 -242.5 -98t-97.5 -261t98.5 -261.5t241.5 -98.5q144 0 243.5 99.5t99.5 260.5zM658 251h1
q0 -84 -53 -129.5t-136 -45.5t-135.5 45.5t-52.5 130.5v174q0 86 52.5 137.5t138.5 51.5q84 0 135 -43t51 -124v-25h-63v17v5q-1 54 -33 83.5t-92 29.5q-59 0 -90.5 -35.5t-31.5 -94.5v-172q0 -58 32 -90.5t92 -32.5q59 0 91 29.5t32 83.5v20h62v-15z" />
    <glyph glyph-name="ordfeminine" unicode="&#xaa;" horiz-adv-x="397" 
d="M340 369l-62 -1q0 5 -1 18t-1 17q-43 -43 -98 -43q-49 0 -84.5 25t-35.5 73q0 115 163 115h53v37q0 33 -18 51.5t-50 18.5q-30 0 -50.5 -14.5t-20.5 -41.5v-18h-58v16q0 52 38.5 79t95.5 27q53 0 88 -27.5t35 -81.5v-175q0 -36 6 -75zM328 247h-254v55h254v-55zM273 486
v29v13h-55q-21 0 -33.5 -1.5t-29 -7t-25 -19t-8.5 -35.5q0 -26 18 -39.5t45 -13.5q35 0 61.5 20t26.5 54z" />
    <glyph glyph-name="guillemotleft" unicode="&#xab;" horiz-adv-x="545" 
d="M500 117l-43 -40l-195 194l194 196l43 -41l-144 -154zM283 117l-43 -40l-195 194l194 196l43 -41l-144 -154z" />
    <glyph glyph-name="logicalnot" unicode="&#xac;" horiz-adv-x="514" 
d="M449 168l-39 -40l-154 155l-153 -154l-38 37l154 154l-155 154l40 40l153 -155l153 154l38 -37l-153 -153z" />
    <glyph glyph-name="registered" unicode="&#xae;" horiz-adv-x="525" 
d="M462 580q0 -84 -56 -142.5t-144 -58.5q-91 0 -145 58t-54 143q0 84 56 142t142 58q89 0 145 -58t56 -142zM417 580q0 74 -44.5 119t-110.5 45q-67 0 -110.5 -44.5t-43.5 -119.5q0 -74 44.5 -118.5t108.5 -44.5t110 44.5t46 118.5zM354 477h-46q-5 10 -5 21l-3 33
q-3 31 -34 31h-34v-85h-46v215h91q30 0 49 -14t19 -43q0 -41 -38 -53v-2q32 -9 35 -42l2 -25q2 -25 10 -33v-3zM300 627q0 33 -34 33h-35v-68h36q33 0 33 35z" />
    <glyph glyph-name="macron" unicode="&#xaf;" horiz-adv-x="405" 
d="M347 606l-289 -1v64h289v-63z" />
    <glyph glyph-name="degree" unicode="&#xb0;" horiz-adv-x="354" 
d="M291 625q0 -46 -33.5 -78t-81.5 -32t-80.5 32t-32.5 77q0 47 32.5 80t80.5 33t81.5 -33t33.5 -79zM240 625q0 27 -18.5 47.5t-45.5 20.5q-26 0 -44.5 -20t-18.5 -48t18.5 -47t44.5 -19t45 19t19 47z" />
    <glyph glyph-name="plusminus" unicode="&#xb1;" 
 />
    <glyph glyph-name="twosuperior" unicode="&#xb2;" 
 />
    <glyph glyph-name="threesuperior" unicode="&#xb3;" 
 />
    <glyph glyph-name="acute" unicode="&#xb4;" horiz-adv-x="284" 
d="M229 747l-115 -171h-59l87 171h87z" />
    <glyph glyph-name="paragraph" unicode="&#xb6;" horiz-adv-x="621" 
d="M563 657h-58v-747h-63v747h-116v-747h-62v327q-96 5 -142.5 71.5t-46.5 164.5q0 96 55 168t140 72h293v-56z" />
    <glyph glyph-name="periodcentered" unicode="&#xb7;" horiz-adv-x="233" 
d="M160 329h-87v122h87v-122z" />
    <glyph glyph-name="cedilla" unicode="&#xb8;" horiz-adv-x="396" 
d="M305 -119q0 -38 -34.5 -59.5t-85.5 -21.5q-54 0 -97 19v42q45 -19 93 -19q58 0 58 32q0 29 -43 32l-46 1l22 99h45l-13 -61h14q87 0 87 -64z" />
    <glyph glyph-name="onesuperior" unicode="&#xb9;" 
 />
    <glyph glyph-name="ordmasculine" unicode="&#xba;" horiz-adv-x="407" 
d="M347 503q0 -69 -39.5 -108t-105.5 -39q-68 0 -105 38t-37 109v81q0 70 39 109t105 39q69 0 106 -38.5t37 -109.5v-81zM330 247h-253v55h253v-55zM282 505v80q0 93 -76 93q-80 0 -80 -95v-80q0 -45 16.5 -69.5t59.5 -24.5q80 0 80 96z" />
    <glyph glyph-name="guillemotright" unicode="&#xbb;" horiz-adv-x="545" 
d="M500 272l-194 -195l-43 41l144 154l-145 154l43 41zM283 272l-194 -195l-43 41l144 154l-145 154l43 41z" />
    <glyph glyph-name="onequarter" unicode="&#xbc;" 
 />
    <glyph glyph-name="onehalf" unicode="&#xbd;" 
 />
    <glyph glyph-name="threequarters" unicode="&#xbe;" 
 />
    <glyph glyph-name="questiondown" unicode="&#xbf;" horiz-adv-x="516" 
d="M325 404l-88 -1v123h88v-122zM462 -25v1q0 -85 -57.5 -130t-144.5 -45q-88 0 -140.5 49.5t-52.5 134.5q0 83 65 152q12 14 45 44q3 3 12 11.5t16 16t11 11.5q28 35 28 69v37h70v-38q0 -61 -48 -114q-4 -5 -27 -26.5t-26 -25.5q-30 -28 -44 -49q-25 -35 -25 -86
q0 -53 32.5 -87.5t87.5 -34.5q49 0 87.5 25.5t38.5 80.5v41h72v-37z" />
    <glyph glyph-name="Agrave" unicode="&#xc0;" horiz-adv-x="650" 
d="M354 783h-59l-111 178h87zM620 0h-85l-71 205h-281l-70 -205h-84l259 718h77zM440 274l-116 337h-2l-116 -337h234z" />
    <glyph glyph-name="Aacute" unicode="&#xc1;" horiz-adv-x="650" 
d="M472 961l-111 -178h-60l84 178h87zM620 0h-85l-71 205h-281l-70 -205h-84l259 718h77zM440 274l-116 337h-2l-116 -337h234z" />
    <glyph glyph-name="Acircumflex" unicode="&#xc2;" horiz-adv-x="650" 
d="M447 772h-66l-54 110l-59 -110h-66l92 173h67zM620 0h-85l-71 205h-281l-70 -205h-84l259 718h77zM440 274l-116 337h-2l-116 -337h234z" />
    <glyph glyph-name="Atilde" unicode="&#xc3;" horiz-adv-x="650" 
d="M492 885q-18 -95 -87 -95q-25 0 -75 14q-56 15 -79 15q-26 0 -36 -20q-1 -1 -3.5 -7.5t-4.5 -11.5l-46 8q22 96 92 96q26 0 74 -14q54 -15 78 -15q22 0 32 19q3 5 11 21zM620 0h-85l-71 205h-281l-70 -205h-84l259 718h77zM440 274l-116 337h-2l-116 -337h234z" />
    <glyph glyph-name="Adieresis" unicode="&#xc4;" horiz-adv-x="650" 
d="M458 788h-77v105h77v-105zM269 788h-77v105h77v-105zM620 0h-85l-71 205h-281l-70 -205h-84l259 718h77zM440 274l-116 337h-2l-116 -337h234z" />
    <glyph glyph-name="Aring" unicode="&#xc5;" horiz-adv-x="650" 
d="M425 854q0 -40 -28.5 -68.5t-69.5 -28.5q-47 0 -72.5 27t-25.5 64q0 39 28 68t70 29q46 0 72 -26t26 -65zM620 0h-85l-71 205h-281l-70 -205h-84l259 718h77zM376 851q0 22 -12.5 37.5t-36.5 15.5q-23 0 -36 -15t-13 -38q0 -22 14.5 -37t34.5 -15q21 0 35 15t14 37z
M441 273l-117 338h-2l-116 -338h235z" />
    <glyph glyph-name="AE" unicode="&#xc6;" horiz-adv-x="967" 
d="M907 0h-433v210h-246l-122 -210h-88l414 713h474v-72h-352v-236h285v-71h-285v-262h353v-72zM474 279v360l-209 -360h209z" />
    <glyph glyph-name="Ccedilla" unicode="&#xc7;" horiz-adv-x="632" 
d="M579 187q0 -86 -65.5 -140t-166.5 -59l-9 -43h14q86 0 86 -64q0 -38 -34.5 -59.5t-84.5 -21.5q-54 0 -97 19v42q45 -19 92 -19q59 0 59 32q0 29 -43 32l-46 1l18 82q-108 7 -174.5 68t-66.5 169v248q0 109 74.5 180.5t191.5 71.5q111 0 181.5 -55.5t70.5 -143.5v-26h-78
v16q0 64 -46.5 101t-130.5 37q-82 0 -130.5 -47.5t-48.5 -126.5v-249q0 -81 49 -127.5t134 -46.5q83 0 127.5 37t44.5 101v17h79v-26z" />
    <glyph glyph-name="Egrave" unicode="&#xc8;" horiz-adv-x="577" 
d="M340 783h-60l-111 178h87zM514 0h-435v713h434v-72h-353v-236h285v-71h-285v-262h354v-72z" />
    <glyph glyph-name="Eacute" unicode="&#xc9;" horiz-adv-x="577" 
d="M434 961l-111 -178h-59l83 178h87zM514 0h-435v713h434v-72h-353v-236h285v-71h-285v-262h354v-72z" />
    <glyph glyph-name="Ecircumflex" unicode="&#xca;" horiz-adv-x="577" 
d="M432 772h-66l-54 110l-59 -110h-66l91 173h67zM514 0h-435v713h434v-72h-353v-236h285v-71h-285v-262h354v-72z" />
    <glyph glyph-name="Edieresis" unicode="&#xcb;" horiz-adv-x="577" 
d="M431 788h-77v105h77v-105zM242 788h-77v105h77v-105zM514 0h-435v713h434v-72h-353v-236h285v-71h-285v-262h354v-72z" />
    <glyph glyph-name="Igrave" unicode="&#xcc;" horiz-adv-x="523" 
d="M290 783h-60l-111 178h88zM457 0h-391v72h155v569h-155v72h391v-72h-155v-569h155v-72z" />
    <glyph glyph-name="Iacute" unicode="&#xcd;" horiz-adv-x="523" 
d="M405 961l-111 -178h-59l83 178h87zM457 0h-391v72h155v569h-155v72h391v-72h-155v-569h155v-72z" />
    <glyph glyph-name="Icircumflex" unicode="&#xce;" horiz-adv-x="523" 
d="M384 772h-66l-54 110l-59 -110h-66l91 173h67zM457 0h-391v72h155v569h-155v72h391v-72h-155v-569h155v-72z" />
    <glyph glyph-name="Idieresis" unicode="&#xcf;" horiz-adv-x="523" 
d="M394 788h-77v105h77v-105zM205 788h-77v105h77v-105zM457 0h-391v72h155v569h-155v72h391v-72h-155v-569h155v-72z" />
    <glyph glyph-name="Eth" unicode="&#xd0;" horiz-adv-x="651" 
d="M589 240q0 -110 -68.5 -175t-177.5 -65h-258v332h-57v63h56v318h258q112 0 179.5 -61t67.5 -172v-240zM506 235v240q0 74 -44.5 120t-128.5 46h-168v-245h220v-64h-220v-260h174q81 0 124 47t43 116z" />
    <glyph glyph-name="Ntilde" unicode="&#xd1;" horiz-adv-x="671" 
d="M506 885q-18 -95 -87 -95q-25 0 -75 14q-56 15 -80 15q-25 0 -35 -20q-1 -1 -3.5 -7.5t-4.5 -11.5l-46 8q20 96 91 96q27 0 75 -14q54 -15 78 -15q22 0 32 19q3 5 11 21zM592 -2h-76l-359 578h-2v-576h-76v713h82l353 -564h3v564h75v-715z" />
    <glyph glyph-name="Ograve" unicode="&#xd2;" horiz-adv-x="654" 
d="M370 783h-60l-111 178h87zM593 240q0 -116 -76.5 -184t-191.5 -68q-116 0 -190 62t-74 176v242q0 117 74.5 187.5t191.5 70.5q118 0 192 -64.5t74 -178.5v-243zM508 483h1q0 80 -49 125t-136 45q-82 0 -130.5 -48.5t-48.5 -132.5v-240q0 -81 49 -126.5t134 -45.5
q83 0 131.5 45.5t48.5 127.5v250z" />
    <glyph glyph-name="Oacute" unicode="&#xd3;" horiz-adv-x="654" 
d="M472 961l-111 -178h-59l83 178h87zM593 240q0 -116 -76.5 -184t-191.5 -68q-116 0 -190 62t-74 176v242q0 117 74.5 187.5t191.5 70.5q118 0 192 -64.5t74 -178.5v-243zM508 483h1q0 80 -49 125t-136 45q-82 0 -130.5 -48.5t-48.5 -132.5v-240q0 -81 49 -126.5t134 -45.5
q83 0 131.5 45.5t48.5 127.5v250z" />
    <glyph glyph-name="Ocircumflex" unicode="&#xd4;" horiz-adv-x="654" 
d="M450 772h-66l-54 110l-59 -110h-67l92 173h67zM593 240q0 -116 -76.5 -184t-191.5 -68q-116 0 -190 62t-74 176v242q0 117 74.5 187.5t191.5 70.5q118 0 192 -64.5t74 -178.5v-243zM508 483h1q0 80 -49 125t-136 45q-82 0 -130.5 -48.5t-48.5 -132.5v-240
q0 -81 49 -126.5t134 -45.5q83 0 131.5 45.5t48.5 127.5v250z" />
    <glyph glyph-name="Otilde" unicode="&#xd5;" horiz-adv-x="654" 
d="M493 885q-18 -95 -87 -95q-26 0 -76 14q-56 15 -79 15q-26 0 -35 -20q-2 -3 -4.5 -9.5t-4.5 -9.5l-46 8q22 96 92 96q26 0 74 -14q56 -15 78 -15t32 19q3 5 11 21zM593 240q0 -116 -76.5 -184t-191.5 -68q-116 0 -190 62t-74 176v242q0 117 74.5 187.5t191.5 70.5
q118 0 192 -64.5t74 -178.5v-243zM508 483h1q0 80 -49 125t-136 45q-82 0 -130.5 -48.5t-48.5 -132.5v-240q0 -81 49 -126.5t134 -45.5q83 0 131.5 45.5t48.5 127.5v250z" />
    <glyph glyph-name="Odieresis" unicode="&#xd6;" horiz-adv-x="654" 
d="M460 788h-77v105h77v-105zM271 788h-77v105h77v-105zM593 240q0 -116 -76.5 -184t-191.5 -68q-116 0 -190 62t-74 176v242q0 117 74.5 187.5t191.5 70.5q118 0 192 -64.5t74 -178.5v-243zM508 483h1q0 80 -49 125t-136 45q-82 0 -130.5 -48.5t-48.5 -132.5v-240
q0 -81 49 -126.5t134 -45.5q83 0 131.5 45.5t48.5 127.5v250z" />
    <glyph glyph-name="multiply" unicode="&#xd7;" horiz-adv-x="514" 
d="M449 168l-39 -40l-154 155l-153 -154l-38 37l154 154l-155 154l40 40l153 -155l153 154l38 -37l-153 -153z" />
    <glyph glyph-name="Oslash" unicode="&#xd8;" horiz-adv-x="654" 
d="M593 240q0 -116 -76.5 -184t-191.5 -68q-92 0 -156 39l-36 -64l-48 25l41 71q-65 63 -65 167v242q0 117 74.5 187.5t191.5 70.5q94 0 159 -41l35 61l48 -24l-41 -70q65 -67 65 -169v-243zM447 618v-1q-47 36 -123 36q-82 0 -130.5 -48.5t-48.5 -132.5v-240q0 -55 25 -96z
M509 233v250q0 55 -23 93l-278 -481q49 -35 120 -35q83 0 132 46t49 127z" />
    <glyph glyph-name="Ugrave" unicode="&#xd9;" horiz-adv-x="647" 
d="M363 783h-59l-111 178h87zM580 212q0 -108 -77.5 -166t-182.5 -58q-65 0 -120.5 21t-94 71.5t-38.5 123.5v509h83v-496q0 -74 50.5 -115.5t126.5 -41.5q72 0 122.5 39.5t50.5 116.5v497h80v-501z" />
    <glyph glyph-name="Uacute" unicode="&#xda;" horiz-adv-x="647" 
d="M469 961l-111 -178h-60l84 178h87zM580 212q0 -108 -77.5 -166t-182.5 -58q-65 0 -120.5 21t-94 71.5t-38.5 123.5v509h83v-496q0 -74 50.5 -115.5t126.5 -41.5q72 0 122.5 39.5t50.5 116.5v497h80v-501z" />
    <glyph glyph-name="Ucircumflex" unicode="&#xdb;" horiz-adv-x="647" 
d="M446 772h-66l-54 110l-59 -110h-66l91 173h67zM580 212q0 -108 -77.5 -166t-182.5 -58q-65 0 -120.5 21t-94 71.5t-38.5 123.5v509h83v-496q0 -74 50.5 -115.5t126.5 -41.5q72 0 122.5 39.5t50.5 116.5v497h80v-501z" />
    <glyph glyph-name="Udieresis" unicode="&#xdc;" horiz-adv-x="647" 
d="M458 788h-77v105h77v-105zM269 788h-77v105h77v-105zM580 212q0 -108 -77.5 -166t-182.5 -58q-65 0 -120.5 21t-94 71.5t-38.5 123.5v509h83v-496q0 -74 50.5 -115.5t126.5 -41.5q72 0 122.5 39.5t50.5 116.5v497h80v-501z" />
    <glyph glyph-name="Yacute" unicode="&#xdd;" horiz-adv-x="572" 
d="M432 961l-111 -178h-59l83 178h87zM554 713l-228 -413v-300h-80v300l-228 413h89l180 -338l182 338h85z" />
    <glyph glyph-name="Thorn" unicode="&#xde;" horiz-adv-x="605" 
d="M553 388q0 -100 -63.5 -159.5t-177.5 -59.5h-151v-169h-82v713h82v-114h158q107 0 170.5 -56.5t63.5 -154.5zM469 388l1 -1q0 68 -46 104.5t-128 36.5h-135v-289h137q171 0 171 149z" />
    <glyph glyph-name="germandbls" unicode="&#xdf;" horiz-adv-x="599" 
d="M553 180q0 -53 -27 -95.5t-73 -67.5q-52 -29 -114 -29q-70 0 -117 23v68q60 -26 112 -26q64 0 102 36q39 37 39 94q0 41 -19 70.5t-50 43.5t-61.5 20t-63.5 6v57h32q46 18 78 66t32 98q0 55 -36.5 88.5t-99.5 33.5q-65 0 -99.5 -43.5t-34.5 -95.5v-527h-79v518
q0 89 62 148.5t157 59.5q96 0 152 -50t56 -127q0 -57 -30 -105.5t-78 -71.5v-2q160 -48 160 -190z" />
    <glyph glyph-name="agrave" unicode="&#xe0;" horiz-adv-x="515" 
d="M296 576l-60 -1l-111 179h88zM449 0h-79q0 7 -1.5 27t-1.5 28h-3q-60 -66 -146 -66q-72 0 -122.5 36.5t-50.5 103.5q0 45 19 78t50.5 50t63.5 24.5t66 7.5h122v66q0 102 -109 102q-47 0 -79.5 -18.5t-32.5 -58.5v-14h-71v9q0 73 53.5 107t133.5 34t130 -35.5t50 -112.5
v-264q0 -59 8 -104zM365 173l1 59h-122q-120 0 -120 -96q0 -42 29.5 -63t73.5 -21q61 0 99.5 33t38.5 88z" />
    <glyph glyph-name="aacute" unicode="&#xe1;" horiz-adv-x="515" 
d="M384 754l-111 -179h-60l83 179h88zM449 0h-79q0 7 -1.5 27t-1.5 28h-3q-60 -66 -146 -66q-72 0 -122.5 36.5t-50.5 103.5q0 45 19 78t50.5 50t63.5 24.5t66 7.5h122v66q0 102 -109 102q-47 0 -79.5 -18.5t-32.5 -58.5v-14h-71v9q0 73 53.5 107t133.5 34t130 -35.5
t50 -112.5v-264q0 -59 8 -104zM365 173l1 59h-122q-120 0 -120 -96q0 -42 29.5 -63t73.5 -21q61 0 99.5 33t38.5 88z" />
    <glyph glyph-name="acircumflex" unicode="&#xe2;" horiz-adv-x="515" 
d="M381 576h-66l-54 110l-58 -110h-66l91 173h67zM449 0h-79q0 7 -1.5 27t-1.5 28h-3q-60 -66 -146 -66q-72 0 -122.5 36.5t-50.5 103.5q0 45 19 78t50.5 50t63.5 24.5t66 7.5h122v66q0 102 -109 102q-47 0 -79.5 -18.5t-32.5 -58.5v-14h-71v9q0 73 53.5 107t133.5 34
t130 -35.5t50 -112.5v-264q0 -59 8 -104zM365 173l1 59h-122q-120 0 -120 -96q0 -42 29.5 -63t73.5 -21q61 0 99.5 33t38.5 88z" />
    <glyph glyph-name="atilde" unicode="&#xe3;" horiz-adv-x="515" 
d="M424 685q-18 -94 -87 -94q-22 0 -76 13q-47 15 -79 15q-26 0 -35 -19q-2 -4 -8 -20l-47 8q22 96 92 96q26 0 74 -14q52 -14 78 -14q21 0 33 18q3 4 10 21zM448 0h-78q0 3 -1.5 24.5t-2.5 30.5h-2q-60 -66 -146 -66q-72 0 -122.5 36.5t-50.5 103.5q0 45 19 78t50.5 50
t63.5 24.5t66 7.5h121v66q0 102 -108 102q-47 0 -79.5 -18.5t-32.5 -58.5v-14h-71v9q0 73 53.5 107t133.5 34q81 0 130.5 -35.5t49.5 -112.5v-264q0 -55 7 -104zM365 173v59h-122q-119 0 -119 -96q0 -42 29.5 -63t73.5 -21q62 0 100 32.5t38 88.5z" />
    <glyph glyph-name="adieresis" unicode="&#xe4;" horiz-adv-x="515" 
d="M384 598h-77v106h77v-106zM211 598h-77v106h77v-106zM449 0h-79q0 7 -1.5 27t-1.5 28h-3q-60 -66 -146 -66q-72 0 -122.5 36.5t-50.5 103.5q0 45 19 78t50.5 50t63.5 24.5t66 7.5h122v66q0 102 -109 102q-47 0 -79.5 -18.5t-32.5 -58.5v-14h-71v9q0 73 53.5 107t133.5 34
t130 -35.5t50 -112.5v-264q0 -59 8 -104zM365 173l1 59h-122q-120 0 -120 -96q0 -42 29.5 -63t73.5 -21q61 0 99.5 33t38.5 88z" />
    <glyph glyph-name="aring" unicode="&#xe5;" horiz-adv-x="515" 
d="M356 667q0 -40 -28.5 -68.5t-69.5 -28.5q-47 0 -72.5 26.5t-25.5 64.5q0 39 28 68t70 29q46 0 72 -26t26 -65zM449 0h-78q0 4 -1.5 16t-2 22t-0.5 16h-3q-61 -65 -146 -65q-72 0 -122.5 36.5t-50.5 103.5q0 45 19.5 78t51 50t63.5 24.5t66 7.5h121v66q0 101 -109 101
q-47 0 -79.5 -18.5t-32.5 -57.5v-14h-71v9q0 73 53.5 106.5t134.5 33.5q80 0 130 -35t50 -112v-264q0 -66 7 -104zM307 664q0 22 -12.5 37.5t-36.5 15.5q-23 0 -36 -15t-13 -38q0 -22 14.5 -37t34.5 -15q21 0 35 15t14 37zM366 172v59h-122q-120 0 -120 -96q0 -41 29.5 -62
t74.5 -21q61 0 99.5 32.5t38.5 87.5z" />
    <glyph glyph-name="ae" unicode="&#xe6;" horiz-adv-x="815" 
d="M770 228h-326v-39q0 -60 41.5 -98t104.5 -38q64 0 118 56l52 -38q-65 -83 -174 -83q-133 0 -189 92h-3q-59 -91 -176 -91q-73 0 -123 36.5t-50 103.5q0 45 19 78t50.5 50t63.5 24.5t66 7.5h121v64q0 51 -28.5 77.5t-79.5 26.5q-46 0 -79 -19.5t-33 -59.5v-16h-71v11
q0 72 53.5 107.5t133.5 35.5q112 0 156 -67q60 66 161 66q86 0 139 -52t53 -147v-88zM696 286v32q0 60 -31.5 96t-89.5 36q-56 0 -93.5 -34t-37.5 -94v-36h252zM365 171v61h-121q-120 0 -120 -96q0 -42 29.5 -63t73.5 -21q61 0 99.5 32t38.5 87z" />
    <glyph glyph-name="ccedilla" unicode="&#xe7;" horiz-adv-x="496" 
d="M452 153q0 -69 -44.5 -113.5t-126.5 -50.5l-8 -44h13q87 0 87 -64q0 -38 -34.5 -59.5t-84.5 -21.5q-55 0 -98 19v42q47 -19 93 -19q58 0 58 32q0 29 -43 32l-46 1l19 82q-86 6 -135 58.5t-49 143.5v115q0 96 56.5 152.5t148.5 56.5q91 0 142.5 -46t51.5 -119v-15h-73v15
q0 38 -29.5 69t-89.5 31q-64 0 -95.5 -37.5t-31.5 -105.5v-115q0 -64 31 -102t96 -38q59 0 88.5 31t29.5 68v15h74v-13z" />
    <glyph glyph-name="egrave" unicode="&#xe8;" horiz-adv-x="507" 
d="M314 576l-60 -1l-111 179h87zM459 89v1q-65 -102 -182 -102q-99 0 -161.5 52t-62.5 153v109q0 102 59 157.5t152 55.5q88 0 141.5 -53t53.5 -148v-85h-327v-35q0 -62 39.5 -101t109.5 -39q71 0 121 68zM383 288v28q0 59 -28.5 96.5t-91.5 37.5q-62 0 -96.5 -36.5
t-34.5 -91.5v-34h251z" />
    <glyph glyph-name="eacute" unicode="&#xe9;" horiz-adv-x="507" 
d="M390 754l-111 -179h-60l83 179h88zM459 89v1q-65 -102 -182 -102q-99 0 -161.5 52t-62.5 153v109q0 102 59 157.5t152 55.5q88 0 141.5 -53t53.5 -148v-85h-327v-35q0 -62 39.5 -101t109.5 -39q71 0 121 68zM383 288v28q0 59 -28.5 96.5t-91.5 37.5q-62 0 -96.5 -36.5
t-34.5 -91.5v-34h251z" />
    <glyph glyph-name="ecircumflex" unicode="&#xea;" horiz-adv-x="507" 
d="M459 90q-65 -102 -182 -102q-99 0 -161.5 52t-62.5 153v109q0 102 59 157.5t152 55.5q88 0 141.5 -53t53.5 -148v-85h-327v-35q0 -62 39.5 -101t109.5 -39q71 0 121 68zM383 288v28q0 59 -28.5 96.5t-91.5 37.5q-62 0 -96.5 -36.5t-34.5 -91.5v-34h251zM393 576h-66
l-54 110l-59 -110h-66l92 173h66z" />
    <glyph glyph-name="edieresis" unicode="&#xeb;" horiz-adv-x="507" 
d="M390 598h-77v106h77v-106zM217 598h-77v106h77v-106zM459 89v1q-65 -102 -182 -102q-99 0 -161.5 52t-62.5 153v109q0 102 59 157.5t152 55.5q88 0 141.5 -53t53.5 -148v-85h-327v-35q0 -62 39.5 -101t109.5 -39q71 0 121 68zM383 288v28q0 59 -28.5 96.5t-91.5 37.5
q-62 0 -96.5 -36.5t-34.5 -91.5v-34h251z" />
    <glyph glyph-name="igrave" unicode="&#xec;" horiz-adv-x="227" 
d="M145 576l-60 -1l-111 179h87zM152 0h-77v503h77v-503z" />
    <glyph glyph-name="iacute" unicode="&#xed;" horiz-adv-x="227" 
d="M258 754l-111 -179h-60l83 179h88zM152 0h-77v503h77v-503z" />
    <glyph glyph-name="icircumflex" unicode="&#xee;" horiz-adv-x="227" 
d="M152 0h-77v503h77v-503zM236 576h-66l-54 110l-59 -110h-66l92 173h66z" />
    <glyph glyph-name="idieresis" unicode="&#xef;" horiz-adv-x="227" 
d="M238 598h-77v106h77v-106zM65 598h-76v106h76v-106zM152 0h-77v503h77v-503z" />
    <glyph glyph-name="eth" unicode="&#xf0;" horiz-adv-x="513" 
d="M459 194q0 -96 -56 -151t-147 -55q-96 0 -149 52.5t-53 148.5v119q0 96 56 151t146 55q26 0 38 -2l-51 77l-107 -32l-16 56l90 26l-49 74l75 21l47 -73l113 33l16 -56l-97 -28l117 -186q27 -43 27 -115v-115zM379 194l1 118q0 138 -122 138q-125 0 -125 -142v-117
q0 -139 121 -139q125 0 125 142z" />
    <glyph glyph-name="ntilde" unicode="&#xf1;" horiz-adv-x="538" 
d="M441 685q-18 -94 -87 -94q-23 0 -75 13q-49 15 -80 15q-25 0 -35 -19q-2 -4 -8 -20l-46 8q20 96 91 96q26 0 74 -14q52 -14 79 -14q22 0 32 18q3 4 10 21zM467 0h-77v326q0 60 -28 91t-74 31q-55 0 -95.5 -44t-40.5 -110v-294h-77v503h75v-81h2q59 93 157 93
q77 0 117.5 -47.5t40.5 -115.5v-352z" />
    <glyph glyph-name="ograve" unicode="&#xf2;" horiz-adv-x="513" 
d="M296 576l-60 -1l-111 179h88zM459 194q0 -96 -56 -151t-147 -55q-96 0 -149 52.5t-53 148.5v119q0 96 56 151.5t146 55.5q95 0 149 -54.5t54 -151.5v-115zM379 194l1 118q0 138 -122 138q-125 0 -125 -142v-117q0 -139 121 -139q125 0 125 142z" />
    <glyph glyph-name="oacute" unicode="&#xf3;" horiz-adv-x="513" 
d="M384 754l-111 -179h-60l83 179h88zM459 194q0 -96 -56 -151t-147 -55q-96 0 -149 52.5t-53 148.5v119q0 96 56 151.5t146 55.5q95 0 149 -54.5t54 -151.5v-115zM379 194l1 118q0 138 -122 138q-125 0 -125 -142v-117q0 -139 121 -139q125 0 125 142z" />
    <glyph glyph-name="ocircumflex" unicode="&#xf4;" horiz-adv-x="513" 
d="M379 576h-66l-54 110l-59 -110h-66l91 173h67zM459 194q0 -96 -56 -151t-147 -55q-96 0 -149 52.5t-53 148.5v119q0 96 56 151.5t146 55.5q95 0 149 -54.5t54 -151.5v-115zM379 194l1 118q0 138 -122 138q-125 0 -125 -142v-117q0 -139 121 -139q125 0 125 142z" />
    <glyph glyph-name="otilde" unicode="&#xf5;" horiz-adv-x="513" 
d="M422 685q-18 -94 -87 -94q-22 0 -76 13q-47 15 -79 15q-26 0 -35 -19q-2 -4 -8 -20l-46 8q20 96 91 96q26 0 74 -14q52 -14 78 -14q21 0 33 18q3 4 10 21zM459 194q0 -96 -56 -151t-147 -55q-96 0 -149 52.5t-53 148.5v119q0 96 56 151.5t146 55.5q95 0 149 -54.5
t54 -151.5v-115zM379 194l1 118q0 138 -122 138q-125 0 -125 -142v-117q0 -139 121 -139q125 0 125 142z" />
    <glyph glyph-name="odieresis" unicode="&#xf6;" horiz-adv-x="513" 
d="M381 598h-77v106h77v-106zM208 598h-77v106h77v-106zM459 194q0 -96 -56 -151t-147 -55q-96 0 -149 52.5t-53 148.5v119q0 96 56 151.5t146 55.5q95 0 149 -54.5t54 -151.5v-115zM379 194l1 118q0 138 -122 138q-125 0 -125 -142v-117q0 -139 121 -139q125 0 125 142z
" />
    <glyph glyph-name="divide" unicode="&#xf7;" horiz-adv-x="597" 
d="M340 429h-83v91h83v-91zM521 291h-446v53h446v-53zM340 120h-83v92h83v-92z" />
    <glyph glyph-name="oslash" unicode="&#xf8;" horiz-adv-x="513" 
d="M459 194q0 -96 -56 -151t-147 -55q-67 0 -113 26l-32 -51l-46 23l37 59q-48 54 -48 144v119q0 96 56 151.5t146 55.5q68 0 115 -29l30 50l46 -23l-36 -59q48 -54 48 -145v-115zM335 428v-1q-30 23 -77 23q-125 0 -125 -142v-117q0 -47 12 -76zM380 193v119q0 42 -12 73
l-189 -311q28 -22 75 -22q63 0 94.5 37t31.5 104z" />
    <glyph glyph-name="ugrave" unicode="&#xf9;" horiz-adv-x="536" 
d="M312 576l-59 -1l-111 179h87zM466 0h-76v81h-3q-57 -93 -156 -93q-76 0 -117 48t-41 115v352h77v-326q0 -60 28 -91t75 -31q55 0 95 43.5t40 108.5v296h78v-503z" />
    <glyph glyph-name="uacute" unicode="&#xfa;" horiz-adv-x="536" 
d="M406 754l-111 -179h-59l83 179h87zM466 0h-76v81h-3q-57 -93 -156 -93q-76 0 -117 48t-41 115v352h77v-326q0 -60 28 -91t75 -31q55 0 95 43.5t40 108.5v296h78v-503z" />
    <glyph glyph-name="ucircumflex" unicode="&#xfb;" horiz-adv-x="536" 
d="M393 576h-66l-54 110l-59 -110h-66l92 173h66zM466 0h-76v81h-3q-57 -93 -156 -93q-76 0 -117 48t-41 115v352h77v-326q0 -60 28 -91t75 -31q55 0 95 43.5t40 108.5v296h78v-503z" />
    <glyph glyph-name="udieresis" unicode="&#xfc;" horiz-adv-x="536" 
d="M393 598h-77v106h77v-106zM220 598h-77v106h77v-106zM466 0h-76v81h-3q-57 -93 -156 -93q-76 0 -117 48t-41 115v352h77v-326q0 -60 28 -91t75 -31q55 0 95 43.5t40 108.5v296h78v-503z" />
    <glyph glyph-name="yacute" unicode="&#xfd;" horiz-adv-x="486" 
d="M384 754l-111 -179h-60l83 179h88zM462 504l-209 -584q-43 -119 -153 -119q-41 0 -73 9v64q38 -9 69 -9q62 0 83 57l32 87l-182 495h83l137 -397h2l133 397h78z" />
    <glyph glyph-name="thorn" unicode="&#xfe;" horiz-adv-x="532" 
d="M478 172q0 -90 -55 -137t-132 -47q-42 0 -79.5 17.5t-56.5 46.5h-3v-249h-77v910h76v-286h1q58 88 148 88q81 0 129.5 -47.5t48.5 -125.5v-170zM399 171v165q0 49 -29 81t-85 32q-49 0 -91 -40.5t-42 -96.5v-132q0 -58 40.5 -93.5t91.5 -35.5q47 0 81 31t34 89z" />
    <glyph glyph-name="ydieresis" unicode="&#xff;" horiz-adv-x="486" 
d="M375 603h-72v98h72v-98zM198 603h-71v98h71v-98zM462 503l-209 -583q-43 -119 -153 -119q-41 0 -73 9v64q38 -9 69 -9q62 0 83 57l32 87l-182 495h83l137 -397h2l133 396h78z" />
    <glyph glyph-name="dotlessi" unicode="&#x131;" horiz-adv-x="227" 
d="M152 0h-77v503h77v-503z" />
    <glyph glyph-name="Lslash" unicode="&#x141;" horiz-adv-x="546" 
d="M514 0h-429v312l-57 -28v66l56 29v334h82v-292l136 68v-67l-136 -68v-282h348v-72z" />
    <glyph glyph-name="lslash" unicode="&#x142;" horiz-adv-x="295" 
d="M270 4q-49 -14 -77 -14q-119 0 -119 123v213l-51 -25v67l50 25v320h78v-282l78 37v-66l-78 -38v-249q0 -60 56 -60q21 0 63 8v-59z" />
    <glyph glyph-name="OE" unicode="&#x152;" horiz-adv-x="1001" 
d="M941 0h-433v54q-69 -66 -186 -66q-116 0 -188.5 62t-72.5 176v242q0 118 73.5 188t189.5 70q117 0 184 -60v47h432v-72h-352v-236h285v-71h-285v-262h353v-72zM508 216v284q0 72 -50 112.5t-134 40.5q-82 0 -130.5 -48.5t-48.5 -132.5v-240q0 -81 49 -126.5t134 -45.5
q79 0 129.5 41.5t50.5 114.5z" />
    <glyph glyph-name="oe" unicode="&#x153;" horiz-adv-x="834" 
d="M785 90q-65 -102 -181 -102q-125 0 -184 75q-55 -75 -164 -75q-96 0 -149 52.5t-53 148.5v119q0 96 56 151.5t146 55.5q113 0 166 -75q58 75 169 75q88 0 141 -53t53 -148v-85h-326v-35q0 -62 39 -101t109 -39q71 0 121 68zM709 288l1 28q0 58 -29 96t-91 38t-96.5 -36.5
t-34.5 -91.5v-34h250zM379 193l1 119q0 138 -122 138q-125 0 -125 -142v-117q0 -139 121 -139q125 0 125 141z" />
    <glyph glyph-name="Scaron" unicode="&#x160;" horiz-adv-x="603" 
d="M426 954l-92 -173h-66l-87 173h66l54 -110l59 110h66zM554 202q0 -101 -71.5 -157.5t-178.5 -56.5q-104 0 -172.5 50t-88.5 138l81 19q17 -62 62.5 -99t118.5 -37q65 0 114.5 34.5t49.5 98.5q0 91 -116 123q-5 2 -71 22.5t-72 22.5q-58 20 -95 62.5t-37 103.5
q0 93 64 146t163 53q181 0 236 -138l-69 -32q-25 53 -65 76.5t-101 23.5q-58 0 -101 -31t-43 -85q0 -79 99 -109l148 -47q145 -48 145 -181z" />
    <glyph glyph-name="scaron" unicode="&#x161;" horiz-adv-x="483" 
d="M362 754l-91 -173h-67l-87 173h66l54 -110l59 110h66zM440 149v1q0 -76 -60.5 -119t-140.5 -43q-136 0 -203 77l53 50q64 -64 149 -64q46 0 84.5 22.5t38.5 60.5t-23 55.5t-75 28.5l-69 14q-132 27 -132 130q0 66 49 109.5t133 43.5q117 0 171 -58l-49 -49
q-29 24 -56.5 34t-71.5 10t-70.5 -21.5t-26.5 -54.5q0 -32 21 -49.5t63 -25.5l84 -17q57 -11 94 -43.5t37 -91.5z" />
    <glyph glyph-name="Ydieresis" unicode="&#x178;" horiz-adv-x="572" 
d="M420 789l-72 -1v98h72v-97zM227 788h-71v98h71v-98zM554 713l-228 -413v-300h-80v300l-228 413h89l180 -338l182 338h85z" />
    <glyph glyph-name="Zcaron" unicode="&#x17d;" horiz-adv-x="564" 
d="M423 954l-91 -173h-66l-87 173h66l54 -110l59 110h65zM516 658l-368 -587h367v-71h-466v59l368 584h-354v70h453v-55z" />
    <glyph glyph-name="zcaron" unicode="&#x17e;" horiz-adv-x="477" 
d="M369 754l-91 -173h-67l-87 173h66l54 -110l59 110h66zM421 0h-373v63l275 376h-265v64h360v-59l-277 -381h280v-63z" />
    <glyph glyph-name="florin" unicode="&#x192;" horiz-adv-x="354" 
d="M328 653q-63 7 -64 7q-28 0 -44.5 -17t-16.5 -44v-174h118v-60h-117v-558h-77v558h-102v59h101v163q0 57 31 97t104 40q27 0 67 -8v-63z" />
    <glyph glyph-name="circumflex" unicode="&#x2c6;" horiz-adv-x="386" 
d="M315 576h-66l-54 110l-59 -110h-65l91 173h67z" />
    <glyph glyph-name="caron" unicode="&#x2c7;" horiz-adv-x="386" 
d="M315 754l-91 -173h-67l-86 173h66l54 -110l59 110h65z" />
    <glyph glyph-name="breve" unicode="&#x2d8;" horiz-adv-x="368" 
d="M328 722q0 -67 -43.5 -101.5t-99.5 -34.5q-61 0 -103 36.5t-42 99.5h56q1 -38 26 -61.5t67 -23.5q33 0 59 23t27 62h53z" />
    <glyph glyph-name="dotaccent" unicode="&#x2d9;" horiz-adv-x="230" 
d="M156 606l-82 -1v96h82v-95z" />
    <glyph glyph-name="ring" unicode="&#x2da;" horiz-adv-x="297" 
d="M247 667q0 -40 -29 -68.5t-70 -28.5q-47 0 -72.5 27t-25.5 64q0 39 28 68t70 29q46 0 72.5 -26t26.5 -65zM198 664q0 21 -13 37t-37 16q-23 0 -36 -15t-13 -38q0 -22 14.5 -37t34.5 -15q21 0 35.5 15t14.5 37z" />
    <glyph glyph-name="ogonek" unicode="&#x2db;" horiz-adv-x="400" 
d="M280 -186v1q-41 -13 -70 -13q-47 0 -73.5 20.5t-26.5 58.5q0 45 35.5 80t88.5 55l36 -16q-22 -12 -35 -20.5t-29 -21.5t-24 -28t-8 -31q0 -53 59 -53q27 0 47 5v-37z" />
    <glyph glyph-name="tilde" unicode="&#x2dc;" horiz-adv-x="423" 
d="M377 685q-8 -45 -28 -69.5t-59 -24.5q-21 0 -75 13q-49 15 -79 15q-26 0 -36 -19q-1 -3 -4 -9.5t-4 -10.5l-46 8q22 96 92 96q26 0 74 -14q52 -14 78 -14q22 0 32 18q2 3 5.5 9.5t5.5 11.5z" />
    <glyph glyph-name="hungarumlaut" unicode="&#x2dd;" horiz-adv-x="422" 
d="M372 754l-111 -179h-60l83 179h88zM221 754l-111 -179h-60l84 179h87z" />
    <glyph glyph-name="Delta" unicode="&#x394;" 
 />
    <glyph glyph-name="Omega" unicode="&#x3a9;" 
 />
    <glyph glyph-name="mu" unicode="&#x3bc;" 
 />
    <glyph glyph-name="pi" unicode="&#x3c0;" 
 />
    <glyph glyph-name="endash" unicode="&#x2013;" horiz-adv-x="565" 
d="M532 248l-499 -1v59h499v-58z" />
    <glyph glyph-name="emdash" unicode="&#x2014;" horiz-adv-x="839" 
d="M806 248l-773 -1v59h773v-58z" />
    <glyph glyph-name="quoteleft" unicode="&#x2018;" horiz-adv-x="232" 
d="M158 490h-87v117l38 108h48l-27 -107h28v-118z" />
    <glyph glyph-name="quoteright" unicode="&#x2019;" horiz-adv-x="232" 
d="M161 597l-38 -107h-48l27 106h-28v119h87v-118z" />
    <glyph glyph-name="quotesinglbase" unicode="&#x201a;" horiz-adv-x="235" 
d="M161 4l-38 -107h-48l27 106h-28v119h87v-118z" />
    <glyph glyph-name="quotedblleft" unicode="&#x201c;" horiz-adv-x="386" 
d="M312 490h-87v117l38 108h48l-27 -107h28v-118zM158 490h-87v117l38 108h48l-27 -107h28v-118z" />
    <glyph glyph-name="quotedblright" unicode="&#x201d;" horiz-adv-x="386" 
d="M315 597l-38 -107h-48l26 106h-27v119h87v-118zM161 597l-38 -107h-48l27 106h-28v119h87v-118z" />
    <glyph glyph-name="quotedblbase" unicode="&#x201e;" horiz-adv-x="386" 
d="M315 4l-38 -107h-48l26 106h-27v119h87v-118zM161 4l-38 -107h-48l27 106h-28v119h87v-118z" />
    <glyph glyph-name="dagger" unicode="&#x2020;" horiz-adv-x="546" 
d="M475 477h-170v-630h-64v629h-170v59h169v179h65v-178h170v-59z" />
    <glyph glyph-name="daggerdbl" unicode="&#x2021;" horiz-adv-x="546" 
d="M475 28h-169v-181h-65v181h-170v58h170v390h-170v59h169v179h65v-178h170v-59h-170v-391h170v-58z" />
    <glyph glyph-name="bullet" unicode="&#x2022;" horiz-adv-x="377" 
d="M269 363q0 -33 -23.5 -57t-56.5 -24t-56.5 23.5t-23.5 56.5t23 56.5t57 23.5q33 0 56.5 -23t23.5 -56z" />
    <glyph glyph-name="ellipsis" unicode="&#x2026;" horiz-adv-x="662" 
d="M568 0h-87v122h87v-122zM374 0h-87v122h87v-122zM180 0h-87v122h87v-122z" />
    <glyph glyph-name="perthousand" unicode="&#x2030;" horiz-adv-x="1105" 
d="M1045 108q0 -57 -38.5 -88t-95.5 -31q-58 0 -93.5 30.5t-35.5 88.5v130q0 61 36.5 92.5t93.5 31.5q59 0 96 -31t37 -92v-131zM717 110q0 -57 -38.5 -88.5t-94.5 -31.5q-60 0 -95 30.5t-35 89.5v130q0 61 37 92.5t94 31.5q58 0 95 -31t37 -92v-131zM331 470
q0 -57 -38.5 -88t-95.5 -31q-58 0 -93.5 30.5t-35.5 88.5v130q0 61 36.5 92.5t93.5 31.5q59 0 96 -31t37 -92v-131zM983 107v137q0 31 -17 50t-53 19q-70 0 -70 -68v-138q0 -67 68 -67q36 0 54 18.5t18 48.5zM654 109l1 137q0 69 -69 69q-70 0 -70 -68v-138q0 -67 67 -67
q71 0 71 67zM268 469v137q0 69 -69 69q-70 0 -70 -68v-138q0 -67 67 -67q72 0 72 67zM661 722l-468 -734h-67l470 734h65z" />
    <glyph glyph-name="guilsinglleft" unicode="&#x2039;" horiz-adv-x="328" 
d="M283 117l-43 -40l-195 194l194 196l43 -41l-144 -154z" />
    <glyph glyph-name="guilsinglright" unicode="&#x203a;" horiz-adv-x="328" 
d="M283 272l-194 -195l-44 40l146 154l-145 155l42 41z" />
    <glyph glyph-name="fraction" unicode="&#x2044;" horiz-adv-x="544" 
d="M519 727l-434 -764h-70l436 764h68z" />
    <glyph glyph-name="Euro" unicode="&#x20ac;" horiz-adv-x="724" 
d="M659 213q0 -109 -68 -167t-177 -58q-115 0 -186.5 61t-71.5 177v19h-112v58h112v98h-112v58h111v11q0 116 70.5 186t188.5 70q113 0 179 -57.5t66 -161.5v-25h-78v16q0 75 -43 115.5t-126 40.5q-81 0 -127 -48t-46 -131v-15h231v-59h-231v-97h231v-59h-231v-13
q0 -82 46 -127.5t130 -45.5q82 0 123.5 39.5t41.5 113.5v19h79v-18z" />
    <glyph glyph-name="trademark" unicode="&#x2122;" horiz-adv-x="637" 
d="M573 413h-51v215l-64 -154h-38l-63 153v-214h-50v305h65l67 -165l68 165h66v-305zM263 670h-80v-257h-53v256h-83v49h216v-48z" />
    <glyph glyph-name="partialdiff" unicode="&#x2202;" 
 />
    <glyph glyph-name="product" unicode="&#x220f;" 
 />
    <glyph glyph-name="summation" unicode="&#x2211;" 
 />
    <glyph glyph-name="minus" unicode="&#x2212;" horiz-adv-x="597" 
d="M492 291h-387v52h387v-52z" />
    <glyph glyph-name="radical" unicode="&#x221a;" 
 />
    <glyph glyph-name="infinity" unicode="&#x221e;" 
 />
    <glyph glyph-name="integral" unicode="&#x222b;" 
 />
    <glyph glyph-name="approxequal" unicode="&#x2248;" 
 />
    <glyph glyph-name="notequal" unicode="&#x2260;" 
 />
    <glyph glyph-name="lessequal" unicode="&#x2264;" 
 />
    <glyph glyph-name="greaterequal" unicode="&#x2265;" 
 />
    <glyph glyph-name="lozenge" unicode="&#x25ca;" 
 />
    <glyph glyph-name="fi" unicode="&#xfb01;" horiz-adv-x="575" 
d="M500 610h-77v109h77v-109zM500 0h-77v503h77v-503zM325 652h1q-32 8 -55 8q-30 0 -49 -18t-19 -53v-90h118v-60h-117v-439h-77v438h-90v60h89v76q0 62 33.5 106t107.5 44q25 0 58 -7v-65z" />
    <glyph glyph-name="fl" unicode="&#xfb02;" horiz-adv-x="643" 
d="M617 3q-38 -13 -75 -13q-61 0 -91 35t-30 93v597h78v-594q0 -66 54 -66q34 0 64 7v-59zM325 652h1q-32 8 -55 8q-30 0 -49 -18t-19 -53v-90h118v-60h-117v-439h-77v438h-90v60h89v76q0 62 33.5 106t107.5 44q25 0 58 -7v-65z" />
    <glyph glyph-name="apple" horiz-adv-x="597" 
d="M492 291h-387v52h387v-52z" />
    </font>
</defs>
</svg>
