<?xml version="1.0" standalone="no"?>
<!DOCTYPE svg PUBLIC "-//W3C//DTD SVG 1.1//EN" "http://www.w3.org/Graphics/SVG/1.1/DTD/svg11.dtd" >
<svg>
<metadata>
Created by FontForge 20120731 at Wed Jun 24 20:38:13 2015
 By ,,,
Copyright (c) 1991, 1998 Adobe Systems Incorporated.  All Rights Reserved.Berthold Akzidenz-Grotesk is either a registered trademark or trademark of Berthold Types Limited in the United States and/or other countries.
</metadata>
<defs>
<font id="AkzidenzGroteskBE-BoldExIt" horiz-adv-x="854" >
  <font-face 
    font-family="Akzidenz Grotesk BE BoldEx"
    font-weight="700"
    font-style="italic"
    font-stretch="expanded"
    units-per-em="1000"
    panose-1="2 11 8 5 0 0 0 0 0 0"
    ascent="750"
    descent="-250"
    x-height="530"
    cap-height="706"
    bbox="-199 -250 1763 957.036"
    underline-thickness="50"
    underline-position="-50"
    slope="-13"
    unicode-range="U+0020-FB02"
  />
<missing-glyph horiz-adv-x="375" 
 />
    <glyph glyph-name=".notdef" horiz-adv-x="375" 
 />
    <glyph glyph-name=".null" horiz-adv-x="0" 
 />
    <glyph glyph-name="nonmarkingreturn" horiz-adv-x="333" 
 />
    <glyph glyph-name="space" unicode=" " horiz-adv-x="375" 
 />
    <glyph glyph-name="space" unicode="&#xa0;" horiz-adv-x="375" 
 />
    <glyph glyph-name="exclam" unicode="!" horiz-adv-x="375" 
d="M143 520l43 186h229l-48 -198l-74 -246h-191zM42 0l42 183h190l-42 -183h-190z" />
    <glyph glyph-name="quotedbl" unicode="&#x22;" horiz-adv-x="396" 
d="M419 669l-53 -261h-31l-55 250q-2 18 -2 24q0 32 22.5 49.5t52.5 17.5q28 0 47.5 -16.5t19.5 -45.5q0 -12 -1 -18zM211 669l-53 -261h-32l-54 250q-2 18 -2 24q0 32 22.5 49.5t51.5 17.5q28 0 48 -16.5t20 -45.5q0 -3 -0.5 -9t-0.5 -9z" />
    <glyph glyph-name="numbersign" unicode="#" horiz-adv-x="667" 
d="M502 186l-26 -186h-125l26 186h-99l-26 -186h-123l24 186h-94v123h112l13 96h-100v124h117l25 177h125l-26 -177h100l24 177h125l-24 -177h91v-124h-108l-13 -96h98v-123h-116zM295 309h99l14 96h-99z" />
    <glyph glyph-name="dollar" unicode="$" horiz-adv-x="833" 
d="M476 696l18 73h65l-18 -76q77 -8 121 -21q105 -35 148 -111q15 -28 28 -76l-238 -14q-15 35 -32 48.5t-61 27.5l-29 -125q130 -25 187 -44t91 -60q33 -42 33 -98q0 -82 -69 -146q-57 -52 -160 -73q-79 -17 -184 -15l-32 -138h-65l32 141q-77 13 -91 16q-132 33 -189 116
q-20 30 -41 89l247 12q9 -39 29.5 -58t78.5 -32l36 154q-68 12 -100.5 18.5t-79.5 23.5t-71 39q-48 45 -48 110q0 67 57 126q30 30 70 49t92 27.5t85 11.5t90 5zM415 432l28 120q-86 -5 -109 -32q-13 -15 -13 -33q0 -22 20 -33.5t74 -21.5zM444 275l-34 -147q92 5 120 35
q18 18 18 41q0 35 -38 53q-12 5 -66 18z" />
    <glyph glyph-name="percent" unicode="%" horiz-adv-x="1250" 
d="M348 0l447 681h119l-446 -681h-120zM331 691q101 3 169.5 -48.5t68.5 -152.5q0 -47 -16 -91t-48 -83t-88 -63t-129 -24q-81 0 -136 31q-90 51 -90 169q0 106 72.5 182t196.5 80zM333 592q-60 -2 -91 -59t-31 -119q0 -46 23.5 -68.5t58.5 -22.5t61.5 19t39.5 48.5t19 56
t6 49.5q0 48 -23.5 73t-62.5 23zM962 453h-1q102 3 170.5 -48.5t68.5 -151.5q0 -46 -16 -90.5t-47.5 -84t-88 -63.5t-129.5 -24q-81 0 -136 31q-90 51 -90 169q0 106 72.5 182t196.5 80zM964 354q-60 -2 -91 -58.5t-31 -119.5q0 -46 23.5 -68.5t58.5 -22.5t61.5 19
t39.5 48.5t19 56.5t6 50q0 47 -23 72t-63 23z" />
    <glyph glyph-name="ampersand" unicode="&#x26;" 
d="M535 0l-27 34q-44 -17 -70 -26t-71.5 -16.5t-101.5 -8.5q-71 -2 -122 12.5t-94 59.5q-33 34 -47 78t3 97t72 95q50 39 182 73q-36 62 -36 107q0 92 98 139q64 30 164 30q130 0 191.5 -40.5t61.5 -104.5q0 -42 -26 -79q-19 -29 -54.5 -52.5t-61 -34t-70.5 -26.5l62 -92
q23 19 33.5 30t27.5 37l174 -25q-39 -65 -65 -94.5t-85 -72.5l82 -120h-220zM455 441q33 12 48 19t31 21.5t16 32.5q0 15 -12 29.5t-40 14.5q-30 0 -46.5 -17.5t-16.5 -42.5q0 -27 20 -57zM426 151l-94 134q-6 -2 -19.5 -5.5t-21.5 -6.5t-20 -9.5t-23 -16.5q-38 -45 -17 -80
t72 -40q46 -7 123 24z" />
    <glyph glyph-name="quotesingle" unicode="'" horiz-adv-x="208" 
d="M221 669l-53 -261h-31l-55 250q-2 18 -2 24q0 32 22.5 49.5t52.5 17.5q28 0 47.5 -16.5t19.5 -45.5q0 -12 -1 -18z" />
    <glyph glyph-name="parenleft" unicode="(" horiz-adv-x="375" 
d="M277 -145l-126 -71q-26 56 -40 89t-34 88.5t-29 110.5t-9 113q0 70 14 135.5t43 121.5t55.5 98t69.5 87t66 66.5t63 56.5l106 -85q-32 -37 -51 -61t-49.5 -76t-52.5 -110q-62 -161 -62 -340q0 -103 36 -223z" />
    <glyph glyph-name="parenright" unicode=")" horiz-adv-x="375" 
d="M78 679l126 71q35 -73 54 -119t38.5 -126.5t19.5 -155.5q0 -61 -12.5 -119.5t-29 -103t-47 -92.5t-53 -78t-60.5 -69t-56 -55.5t-53 -47.5l-106 85q32 37 51 61t49.5 76t52.5 110q62 163 62 340q0 103 -36 223z" />
    <glyph glyph-name="asterisk" unicode="*" horiz-adv-x="437" 
d="M247 567l10 152l111 -26l-69 -138l152 41l10 -112l-157 20l85 -128l-103 -45l-30 151l-97 -120l-73 86l136 75l-147 51l59 98z" />
    <glyph glyph-name="plus" unicode="+" horiz-adv-x="667" 
d="M425 228v-228h-127v228h-229v127h229v228h127v-228h227v-127h-227z" />
    <glyph glyph-name="comma" unicode="," horiz-adv-x="333" 
d="M20 183h230l-44 -187q-9 -31 -14 -45.5t-20 -40t-35 -42.5q-60 -52 -167 -52q-18 0 -34 1l18 82q54 4 80 26q25 22 38 75h-94z" />
    <glyph glyph-name="hyphen" unicode="-" horiz-adv-x="458" 
d="M25 223l39 172h367l-39 -172h-367z" />
    <glyph glyph-name="hyphen" unicode="&#xad;" horiz-adv-x="458" 
d="M25 223l39 172h367l-39 -172h-367z" />
    <glyph glyph-name="period" unicode="." horiz-adv-x="333" 
d="M-20 0l42 184h230l-42 -184h-230z" />
    <glyph glyph-name="slash" unicode="/" horiz-adv-x="354" 
d="M-62 0l297 706h197l-296 -706h-198z" />
    <glyph glyph-name="zero" unicode="0" 
d="M457 696q74 3 139 -14.5t116.5 -54t81.5 -98t30 -141.5t-30.5 -156.5t-85.5 -130.5q-55 -53 -137.5 -84.5t-178.5 -31.5q-39 0 -79 6t-90.5 25.5t-88.5 51t-64.5 89t-26.5 133.5q0 55 14 109t46.5 107t79 93.5t117.5 67t157 29.5zM467 545q-52 0 -91.5 -29t-60.5 -73
t-31 -87t-10 -81q0 -13 1 -24.5t7.5 -35.5t19 -40.5t39 -30t62.5 -13.5q62 0 107 44.5t64 104t19 121.5q0 64 -32 104t-94 40z" />
    <glyph glyph-name="one" unicode="1" 
d="M210 442l34 148q110 16 193 60q17 9 51 31h172l-157 -681h-233l110 472q-57 -17 -85.5 -22t-84.5 -8z" />
    <glyph glyph-name="two" unicode="2" 
d="M336 422l-211 3q6 37 9.5 54.5t15 48t30.5 54.5q90 116 314 116q109 0 181 -23q136 -47 136 -160q0 -66 -54 -125q-40 -47 -109.5 -83t-228.5 -100q-33 -13 -45 -20q-22 -12 -47 -30h427l-36 -157h-693l36 155q38 44 68.5 67.5t106.5 64.5l248 114q28 12 44.5 21t35 27.5
t18.5 38.5q0 31 -38 48q-21 10 -61 10q-37 0 -64 -8.5t-41 -19t-23.5 -30.5t-12.5 -32t-6 -34z" />
    <glyph glyph-name="three" unicode="3" 
d="M304 471h-212q4 25 9 41t17.5 42.5t38 49.5t62.5 42q103 52 281 52q59 0 106 -8.5t76 -21t50.5 -31t31.5 -33t15.5 -33t6 -26t0.5 -15.5q0 -38 -25 -76q-26 -36 -74 -56q-29 -12 -89 -28q78 -26 108 -54q51 -46 51 -112q0 -65 -61 -122q-56 -53 -151.5 -75t-185.5 -22
q-142 0 -235 44q-35 17 -57.5 38t-33 46t-13.5 40.5t-6 41.5l213 16q6 -15 12.5 -24.5t21.5 -23.5t43.5 -21t67.5 -7q66 0 108 24t42 59q0 17 -13 36q-23 28 -106 28q-53 0 -120 -7l30 135q103 3 133 6t53 12q30 11 44 29.5t14 34.5q0 21 -17 36q-23 22 -74 22q-28 0 -60 -6
q-31 -6 -51.5 -14.5t-30 -20t-13 -18.5t-7.5 -20z" />
    <glyph glyph-name="four" unicode="4" 
d="M45 283l438 397h284l-92 -399h138l-36 -157h-139l-29 -124h-230l29 124h-399zM444 282l55 228l-249 -228h194z" />
    <glyph glyph-name="five" unicode="5" 
d="M81 287l104 394h657l-46 -156h-439l-31 -109q35 13 52.5 18.5t50 10.5t71.5 5q50 0 98 -9t96.5 -30.5t78 -64t29.5 -100.5q0 -77 -50 -140q-98 -121 -357 -121q-116 0 -202 26q-43 13 -74 32t-47 36t-27 41.5t-13.5 37.5t-5.5 36l240 8q7 -27 21 -39q3 -2 7 -5
q35 -24 109 -24q78 0 114.5 31t36.5 67q0 33 -25 58q-32 30 -103 30q-42 0 -69 -6.5t-37 -13.5t-24 -21z" />
    <glyph glyph-name="six" unicode="6" 
d="M834 512l-245 -8q-20 43 -92 43q-86 0 -144 -49q-38 -31 -52 -62t-26 -87q19 23 34 35q31 23 88.5 44t133.5 21q131 0 201.5 -58t70.5 -147q0 -30 -11.5 -63t-36 -68t-72 -65t-111.5 -46q-76 -17 -160 -17q-208 0 -302 104q-68 77 -68 196q0 96 48.5 185.5t126.5 143.5
q120 83 314 83q178 0 254 -76q16 -16 26.5 -36.5t14 -33.5t8.5 -39zM429 309q-66 -2 -110.5 -26t-44.5 -66q0 -12 5.5 -25t19 -27.5t43 -23.5t71.5 -9q65 0 106 26.5t41 68.5q0 34 -30.5 59t-100.5 23z" />
    <glyph glyph-name="seven" unicode="7" 
d="M117 518l38 162h707q-13 -91 -45 -158.5t-120 -144.5q-24 -21 -71.5 -58.5t-55.5 -43.5q-75 -61 -121 -118.5t-58 -86t-24 -70.5h-266q16 53 30 86t44.5 79t83.5 93.5t134 103.5q80 54 117 85q22 18 30.5 31t18.5 40h-442z" />
    <glyph glyph-name="eight" unicode="8" 
d="M659 350q40 -10 57 -19q73 -34 73 -116q0 -22 -6 -45.5t-34 -60.5t-76 -63q-111 -62 -290 -62q-152 0 -257.5 51t-105.5 148q0 41 22 77q18 29 50.5 49.5t53.5 27t62 16.5q-19 8 -31.5 15.5t-30 22.5t-27 37t-9.5 51q0 90 98.5 154t282.5 64q63 0 120 -10.5t106.5 -31.5
t79 -58.5t29.5 -87.5q0 -36 -19 -71.5t-58 -57.5q-29 -16 -90 -30zM469 550q-122 -5 -122 -69q0 -65 127 -65q68 0 97 28q21 19 21 42q0 25 -25 45q-26 19 -98 19zM407 293q-94 -1 -126 -43q-14 -19 -14 -39q0 -34 33.5 -55.5t96.5 -21.5q64 0 100 19q47 24 47 68
q0 74 -137 72z" />
    <glyph glyph-name="nine" unicode="9" 
d="M11 179l257 8q5 -12 8.5 -17.5t12.5 -13t23 -12.5q27 -11 67 -11q102 0 163 66q35 39 48 113q-97 -73 -237 -73q-49 0 -96 10.5t-92 33t-73 65t-28 99.5q0 71 42 124.5t115 85.5q90 39 219 39q105 0 182 -22q202 -65 202 -283q0 -62 -16.5 -120t-52.5 -110t-87.5 -91
t-127 -62t-166.5 -23q-166 0 -266 64q-32 21 -53 45t-28 40t-16 45zM459 547q-41 0 -67 -6q-28 -5 -46.5 -16t-26 -24.5t-10 -22t-2.5 -16.5q0 -41 40.5 -61t101.5 -20q69 0 108.5 22t39.5 61q0 25 -19 47q-33 36 -119 36z" />
    <glyph glyph-name="colon" unicode=":" horiz-adv-x="375" 
d="M101 347l42 183h230l-42 -183h-230zM21 0l42 183h230l-43 -183h-229z" />
    <glyph glyph-name="semicolon" unicode=";" horiz-adv-x="375" 
d="M100 347l42 184h230l-42 -184h-230zM62 183h230l-44 -187q-28 -93 -69 -128q-60 -52 -167 -52q-18 0 -35 1l19 82q54 4 79 26q28 25 38 75h-93z" />
    <glyph glyph-name="less" unicode="&#x3c;" horiz-adv-x="667" 
d="M704 136v-139l-667 292v124l667 296v-139l-489 -219z" />
    <glyph glyph-name="equal" unicode="=" horiz-adv-x="667" 
d="M694 251v-127h-667v127h667zM694 459v-126h-667v126h667z" />
    <glyph glyph-name="greater" unicode="&#x3e;" horiz-adv-x="667" 
d="M699 289l-667 -292v139l489 215l-489 219v139l667 -296v-124z" />
    <glyph glyph-name="question" unicode="?" horiz-adv-x="708" 
d="M428 262h-216q10 38 24 60t52 44q22 13 66 32.5t60 28.5q70 37 70 86q0 27 -25.5 49t-74.5 22q-39 0 -67 -11t-44.5 -34t-24 -39t-16.5 -46l-194 11q7 30 12.5 48.5t18.5 48t35 55t53 46.5q90 61 272 61q145 0 223.5 -50t78.5 -138q0 -35 -12 -64.5t-34.5 -50.5
t-39 -32.5t-40.5 -24.5l-129 -59q-22 -10 -31 -18t-17 -25zM152 0l42 184h216l-42 -184h-216z" />
    <glyph glyph-name="at" unicode="@" horiz-adv-x="896" 
d="M776 101l47 -62q-31 -29 -58.5 -50.5t-75.5 -51t-108 -45.5t-125 -16q-49 0 -99 10t-103.5 36t-94 65.5t-67 104.5t-26.5 146q0 126 59.5 234.5t166 174t234.5 65.5q137 0 217.5 -81.5t80.5 -210.5q0 -89 -33 -171t-88.5 -132.5t-116.5 -50.5q-75 0 -90 68
q-57 -68 -126 -68q-60 0 -99.5 44t-39.5 126q0 70 27 135.5t78 108.5t112 43q31 0 55 -12.5t31.5 -21.5t19.5 -26l9 39h91l-34 -158q-27 -143 -27 -163q0 -30 19 -30q22 0 51.5 35.5t53 99t23.5 130.5q0 58 -19.5 101.5t-53 68t-71 36t-79.5 11.5q-145 0 -257 -117.5
t-112 -278.5q0 -63 20 -113.5t51 -81.5t72.5 -51t81 -28t78.5 -8q142 0 266 93q38 30 59 53zM521 349q-1 39 -20 61.5t-48 22.5q-51 0 -84.5 -62.5t-33.5 -129.5q0 -28 8 -47.5t20 -26.5t20 -9.5t15 -2.5q41 0 77 48q23 30 35 72t11 74z" />
    <glyph glyph-name="A" unicode="A" horiz-adv-x="896" 
d="M-74 0l476 707h297l123 -707h-257l-13 113h-284l-65 -113h-277zM534 270l-30 251l-145 -251h175z" />
    <glyph glyph-name="B" unicode="B" horiz-adv-x="896" 
d="M162 706h474q242 0 242 -148q0 -67 -52 -117q-33 -33 -111 -61q23 -5 38.5 -10.5t39 -20.5t36.5 -43.5t13 -69.5q0 -63 -30.5 -115.5t-81.5 -81.5q-54 -31 -187 -39h-545zM358 544l-25 -109h205q42 0 63 19t21 41q0 28 -16 38.5t-51 10.5h-197zM297 282l-28 -124h213
q33 0 56 7.5t33 19.5t14 22t4 19q0 34 -20.5 45t-60.5 11h-211z" />
    <glyph glyph-name="C" unicode="C" horiz-adv-x="917" 
d="M662 259l225 -25q-4 -19 -20 -47t-51 -65t-82 -68t-122 -53t-162 -22q-98 0 -184.5 28t-139.5 88q-77 89 -77 221q0 56 17.5 112.5t56 111.5t94.5 97t140 68t185 26q213 0 316 -115q45 -51 57 -124l-225 -23q-21 104 -149 108q-64 0 -114.5 -23t-80 -60.5t-44.5 -81.5
t-15 -91q0 -84 48 -131t134 -47q89 3 136 38.5t57 77.5z" />
    <glyph glyph-name="D" unicode="D" horiz-adv-x="938" 
d="M-2 0l162 706h389q139 -1 217 -39t129 -119q36 -65 36 -150q2 -106 -56.5 -203t-156.5 -143q-22 -10 -46 -18t-39.5 -12.5t-45 -8.5t-39 -5.5t-46 -4t-43.5 -3.5h-461zM377 549l-91 -393h144q46 0 96.5 11t74.5 35q51 38 73 118t-4 148q-31 64 -116 75q-30 6 -177 6z" />
    <glyph glyph-name="E" unicode="E" 
d="M0 0l163 706h728l-36 -156h-478l-27 -117h456l-36 -156h-456l-28 -117h513l-37 -160h-762z" />
    <glyph glyph-name="F" unicode="F" horiz-adv-x="750" 
d="M-2 0l164 706h676l-37 -159h-427l-32 -137h403l-37 -158h-403l-59 -252h-248z" />
    <glyph glyph-name="G" unicode="G" horiz-adv-x="958" 
d="M497 392h416l-89 -391h-179l10 45q-108 -67 -240 -67q-160 0 -263.5 88t-103.5 245q0 61 18.5 120t58 113t97 95t140.5 65t183 24q82 0 148.5 -18t106 -47.5t62.5 -56t34 -53.5q10 -22 20 -74l-233 -5q0 1 -1 6t-2 7t-3 8t-4 9.5t-5.5 9t-7.5 9.5t-10.5 9.5t-13.5 9.5
t-16.5 8t-20.5 7q-84 24 -155 -5q-69 -24 -112 -90t-43 -152q0 -88 49.5 -130.5t135.5 -42.5q64 0 107 21q26 12 42.5 29t22.5 29t14 34h-196z" />
    <glyph glyph-name="H" unicode="H" horiz-adv-x="958" 
d="M-1 0l164 706h253l-60 -259h310l60 259h255l-165 -706h-253l62 272h-310l-63 -272h-253z" />
    <glyph glyph-name="I" unicode="I" horiz-adv-x="396" 
d="M0 0l163 706h253l-163 -706h-253z" />
    <glyph glyph-name="J" unicode="J" horiz-adv-x="479" 
d="M147 230l111 476h251l-111 -478q-10 -40 -18 -64.5t-29 -58t-50 -54.5q-69 -51 -205 -51h-155l36 161h75q45 2 64 15t31 54z" />
    <glyph glyph-name="K" unicode="K" horiz-adv-x="896" 
d="M-2 0l164 706h239l-60 -262l287 262h308l-352 -286l251 -420h-274l-154 276l-126 -103l-41 -173h-242z" />
    <glyph glyph-name="L" unicode="L" horiz-adv-x="708" 
d="M-2 0l163 706h253l-126 -544h364l-37 -162h-617z" />
    <glyph glyph-name="M" unicode="M" horiz-adv-x="1083" 
d="M-1 0l164 706h346l14 -480l231 480h351l-164 -706h-228l132 550l-277 -550h-190l-24 553l-120 -553h-235z" />
    <glyph glyph-name="N" unicode="N" horiz-adv-x="938" 
d="M-2 0l164 706h228l239 -447l103 447h228l-164 -706h-227l-236 443l-100 -443h-235z" />
    <glyph glyph-name="O" unicode="O" horiz-adv-x="979" 
d="M558 730q226 -4 328 -123q67 -79 67 -190q0 -55 -14.5 -111t-51 -115.5t-91.5 -105.5t-144.5 -75.5t-200.5 -29.5q-211 0 -317 107q-87 87 -87 218q0 54 16 110.5t55 114.5t96 102.5t146 72t198 25.5zM539 573q-60 -1 -108 -26t-76 -64.5t-42 -83.5t-14 -88
q0 -76 44.5 -126.5t125.5 -50.5q104 0 170 76t66 193q0 51 -16 86.5t-42.5 53t-52.5 24t-55 6.5z" />
    <glyph glyph-name="P" unicode="P" horiz-adv-x="875" 
d="M-1 0l164 707q487 0 510 -2q153 -11 202 -117q16 -35 16 -79q0 -51 -20.5 -100.5t-56.5 -82.5q-34 -32 -85 -49.5t-80 -20t-74 -4.5h-267l-59 -252h-250zM377 549l-32 -139h194q59 0 80.5 25.5t21.5 55.5q0 58 -79 58h-185z" />
    <glyph glyph-name="Q" unicode="Q" horiz-adv-x="979" 
d="M821 -127l-204 125q-118 -21 -182 -21q-47 0 -96 8.5t-103 32t-94.5 58.5t-67.5 93.5t-27 132.5q0 77 29.5 150.5t81.5 129.5q137 148 397 148q107 0 185 -29q88 -34 151 -109.5t63 -187.5q0 -117 -70 -219q-27 -39 -73 -87l146 -88zM541 572q-77 2 -135 -40.5
t-84 -100.5t-26 -117q0 -88 50.5 -134.5t126.5 -46.5q72 0 127 42.5t81 102.5t26 123t-26 103q-44 66 -140 68z" />
    <glyph glyph-name="R" unicode="R" horiz-adv-x="875" 
d="M-2 0l164 706h445q27 -1 41 -2t46.5 -6t52 -12.5t46.5 -23t42 -36t26.5 -52.5t11.5 -72q0 -53 -27 -104q-15 -27 -33 -47t-41 -34t-39.5 -21t-44.5 -17l115 -279h-253l-93 247h-155l-57 -247h-247zM373 549l-32 -139q135 -2 179.5 0.5t62.5 14.5q16 10 27.5 28.5
t11.5 34.5q0 61 -73 61h-176z" />
    <glyph glyph-name="S" unicode="S" horiz-adv-x="812" 
d="M14 216l229 10q0 -42 31 -66q39 -29 120 -27q57 2 88 20.5t31 52.5q0 27 -22 39.5t-76 28.5q-12 3 -19 5l-125 37q-38 12 -60.5 21t-54 34t-45.5 58q-14 32 -14 68q0 64 35 113.5t96 77.5q91 42 251 42q118 0 194 -30q44 -17 71.5 -40t38.5 -50.5t13.5 -44.5t2.5 -43
l-227 -18q4 33 -29 51.5t-95 18.5q-54 0 -82 -16.5t-28 -38.5q0 -37 87 -63l149 -42q89 -29 117 -48q30 -20 47 -50q22 -40 22 -87q0 -31 -10.5 -64t-46 -75t-92.5 -69q-92 -44 -241 -44q-116 0 -190 25t-108 56q-26 24 -39.5 54.5t-16 51t-2.5 52.5z" />
    <glyph glyph-name="T" unicode="T" horiz-adv-x="771" 
d="M55 547l36 159h770l-37 -159h-255l-127 -547h-252l127 547h-262z" />
    <glyph glyph-name="U" unicode="U" horiz-adv-x="958" 
d="M58 289l96 417h252l-96 -420q-14 -70 19.5 -113t128.5 -40q51 0 92 24q41 26 60 65t40 119l84 365h254l-104 -449q-2 -4 -13.5 -38.5t-22 -57t-38 -56t-64.5 -56.5q-108 -71 -320 -71q-138 0 -230.5 31t-125.5 90q-10 19 -15.5 40t-7.5 37t-1 35.5t3 30t5 27.5t4 20z" />
    <glyph glyph-name="V" unicode="V" horiz-adv-x="875" 
d="M240 0l-153 706h261l61 -451l276 451h283l-493 -706h-235z" />
    <glyph glyph-name="W" unicode="W" horiz-adv-x="1083" 
d="M76 0l23 706h219l-36 -523l222 523h241l-10 -526l202 526h235l-307 -706h-285l6 517l-225 -517h-285z" />
    <glyph glyph-name="X" unicode="X" horiz-adv-x="875" 
d="M104 706h279l99 -175l168 175h306l-368 -350l222 -356h-264l-120 200l-194 -200h-309l393 374z" />
    <glyph glyph-name="Y" unicode="Y" 
d="M265 213l-174 493h263l79 -295l221 295h300l-438 -498l-47 -208h-254z" />
    <glyph glyph-name="Z" unicode="Z" horiz-adv-x="833" 
d="M89 547l38 159h759l-37 -157l-532 -386h459l-37 -163h-781l37 162l523 385h-429z" />
    <glyph glyph-name="bracketleft" unicode="[" horiz-adv-x="375" 
d="M-45 -214l222 963h298l-32 -139h-106l-158 -685h107l-32 -139h-299z" />
    <glyph glyph-name="backslash" unicode="\" horiz-adv-x="354" 
d="M300 0h-198l-32 706h198z" />
    <glyph glyph-name="bracketright" unicode="]" horiz-adv-x="375" 
d="M70 610l32 139h298l-223 -961h-297l31 139h107l159 683h-107z" />
    <glyph glyph-name="asciicircum" unicode="^" horiz-adv-x="729" 
d="M438 706l194 -395h-138l-110 231l-116 -231h-137l203 395h104z" />
    <glyph glyph-name="underscore" unicode="_" horiz-adv-x="500" 
d="M457 -75v-50h-520v50h520z" />
    <glyph glyph-name="grave" unicode="`" horiz-adv-x="375" 
d="M368 611h-181l-180 121h276z" />
    <glyph glyph-name="a" unicode="a" horiz-adv-x="833" 
d="M305 367h-228q15 43 28 66t40 44q82 69 314 69q168 0 243 -34.5t75 -129.5q0 -33 -14 -93l-45 -199q-12 -47 6 -90h-247q-4 27 1 60q-36 -21 -62 -34t-81.5 -27.5t-116.5 -14.5q-97 0 -155.5 43t-58.5 114q0 77 66 128q24 19 60.5 31t90.5 17.5t94 8t113.5 4.5t106.5 3
q6 25 -2.5 42.5t-27.5 25t-37.5 10t-40.5 2.5q-52 -1 -81.5 -9.5t-40.5 -36.5zM512 235q-35 0 -52.5 -0.5t-55 -2t-59.5 -5.5t-47 -10.5t-37 -18.5t-12 -28q0 -38 58.5 -46.5t123.5 22.5t81 89z" />
    <glyph glyph-name="b" unicode="b" horiz-adv-x="833" 
d="M-11 0l164 707h232l-53 -226q27 18 45.5 28.5t65 23.5t101.5 13q67 0 116 -23q62 -29 94.5 -83.5t32.5 -125.5q0 -58 -19 -113.5t-57.5 -105t-106.5 -80t-156 -30.5q-132 0 -213 78l-14 -63h-232zM422 390q-69 -1 -104.5 -43t-35.5 -96q0 -29 10.5 -51t25 -32.5t33.5 -17
t30 -7.5t21 -1q67 0 104.5 43t37.5 96q0 57 -35 83.5t-87 25.5z" />
    <glyph glyph-name="c" unicode="c" horiz-adv-x="812" 
d="M551 211l234 -10q-28 -55 -48 -82q-62 -78 -183 -113q-76 -21 -170 -21q-177 0 -268 78q-41 35 -66 86t-25 105t24.5 104.5t72.5 93t129 68.5t183 26q187 0 283 -75q27 -22 43 -46.5t20 -39t7 -38.5l-230 -15q-2 29 -28.5 51t-83.5 22q-48 0 -84.5 -16t-55.5 -40.5
t-28 -49t-9 -47.5q0 -53 37.5 -88t104.5 -35q44 0 82 19q17 8 29.5 20.5t16.5 19.5t13 23z" />
    <glyph glyph-name="d" unicode="d" horiz-adv-x="833" 
d="M577 478l54 228h233l-165 -706h-232l10 44q-80 -59 -187 -59q-116 0 -190.5 67.5t-74.5 182.5q0 126 93.5 218t251.5 92q54 0 97 -11.5t63 -23t47 -32.5zM418 391q-75 0 -114 -42.5t-39 -99.5q0 -56 33 -84.5t89 -28.5q33 0 59.5 11t42 27.5t26 37.5t14.5 39t4 34
q0 53 -32 79.5t-83 26.5z" />
    <glyph glyph-name="e" unicode="e" horiz-adv-x="833" 
d="M790 219h-520q7 -21 11.5 -32.5t15 -23.5t26.5 -22q36 -19 82 -19q26 0 47.5 7t31.5 13.5t29 21.5l243 -15q-15 -25 -23.5 -38t-31 -34t-53.5 -38q-99 -53 -261 -53q-94 0 -165 21q-93 29 -143 89q-53 67 -53 154q0 79 47.5 147t127.5 106q88 42 218 42q147 0 232 -49
q80 -46 113 -121q20 -45 26 -156zM286 322h272q-6 15 -11.5 24.5t-19.5 25.5t-40 24t-62 8t-64 -11q-23 -8 -39.5 -21.5t-22.5 -23.5t-13 -26z" />
    <glyph glyph-name="f" unicode="f" horiz-adv-x="437" 
d="M361 706h148l-29 -128q-28 4 -45 4q-27 0 -42 -11.5t-19.5 -24t-10.5 -42.5h100l-32 -135h-91l-85 -369h-231l85 368h-80l31 136h80l21 79q14 54 45 82q52 44 155 41z" />
    <glyph glyph-name="g" unicode="g" horiz-adv-x="812" 
d="M-19 0h230q5 -16 11 -24q25 -35 94 -35q46 0 77 15q32 17 45 43.5t28 90.5q-87 -52 -195 -52q-48 0 -90.5 12t-78 36.5t-56 68t-20.5 101.5q0 48 19 97t56 92.5t100.5 71.5t142.5 28q51 0 94 -12t63 -23.5t56 -35.5l13 56h232l-106 -459q-12 -41 -19.5 -63.5t-27 -58
t-43 -57t-64.5 -42.5t-94 -31q-67 -11 -139 -11q-114 0 -192.5 31t-108.5 82q-12 20 -27 79zM398 396q-46 -2 -74 -17t-43.5 -43t-15.5 -58q0 -49 33.5 -69.5t76.5 -20.5q71 0 104.5 38t33.5 80q0 92 -115 90z" />
    <glyph glyph-name="h" unicode="h" horiz-adv-x="792" 
d="M-12 0l164 706h229l-55 -243q30 25 51 39t64 28.5t93 14.5q85 0 142 -43t57 -134q0 -32 -14 -104l-61 -264h-231l57 248q10 43 10 61q0 37 -23.5 56.5t-59.5 19.5q-54 0 -91 -41q-24 -28 -48 -113l-54 -231h-230z" />
    <glyph glyph-name="i" unicode="i" horiz-adv-x="354" 
d="M124 583l28 123h231l-28 -123h-231zM-10 0l122 530h230l-122 -530h-230z" />
    <glyph glyph-name="j" unicode="j" horiz-adv-x="354" 
d="M123 584l30 122h230l-28 -122h-232zM-7 25l118 506h231l-132 -569q-8 -26 -14 -41.5t-21 -36.5t-36 -35q-39 -27 -131 -31h-142l33 142q49 -1 67 9.5t27 55.5z" />
    <glyph glyph-name="k" unicode="k" horiz-adv-x="771" 
d="M151 706h231l-78 -338l216 161h298l-272 -199l157 -330h-247l-90 199l-120 -85l-27 -114h-231z" />
    <glyph glyph-name="l" unicode="l" horiz-adv-x="354" 
d="M-12 0l163 706h232l-163 -706h-232z" />
    <glyph glyph-name="m" unicode="m" horiz-adv-x="1146" 
d="M340 530l-15 -71q99 86 208 86q116 0 167 -91q18 17 30.5 27t40.5 27.5t64 26.5t77 9q80 0 130.5 -40t50.5 -116q0 -28 -17 -109l-64 -279h-227l63 276q9 33 9 50q0 61 -71 61q-26 0 -45.5 -9.5t-30.5 -27.5t-15.5 -29.5t-9.5 -29.5l-68 -291h-230l65 282q8 29 8 45
q0 12 -4 24t-20.5 24t-44.5 12t-48.5 -10.5t-32.5 -33.5t-17.5 -38.5t-13.5 -46.5l-60 -258h-229l123 530h227z" />
    <glyph glyph-name="n" unicode="n" horiz-adv-x="792" 
d="M340 530l-17 -75q15 14 31 28q36 29 88 45t101 16q88 0 140 -44.5t52 -124.5q0 -39 -10 -81l-68 -294h-231l62 270q5 18 5 35q0 30 -19.5 55.5t-65.5 25.5q-32 0 -56.5 -12.5t-39 -36.5t-21 -39.5t-14.5 -41.5l-59 -256h-229l123 530h228z" />
    <glyph glyph-name="o" unicode="o" 
d="M453 546q230 -4 312 -115q43 -58 43 -139q0 -130 -112 -218t-310 -88q-104 0 -180 25q-81 28 -121 75q-59 65 -59 167q0 75 35 132q43 75 142 120q98 43 250 41zM429 403q-47 -1 -81 -17t-49.5 -36t-24.5 -46t-10 -36.5t-1 -18.5q0 -50 34 -84.5t102 -34.5
q47 0 81.5 16.5t51 42t24 49t7.5 45.5q0 18 -5.5 36t-18.5 38.5t-41.5 33t-68.5 12.5z" />
    <glyph glyph-name="p" unicode="p" horiz-adv-x="833" 
d="M343 530l-11 -46q87 61 193 61q125 0 193.5 -70.5t68.5 -172.5q0 -81 -39 -152.5t-118.5 -118t-182.5 -46.5q-133 0 -212 76l-57 -243h-231l165 712h231zM434 387q-44 0 -76.5 -14.5t-48.5 -38t-23 -45t-7 -41.5q0 -50 32.5 -77t87.5 -27q75 0 111 45.5t36 93.5
q0 46 -27.5 74.5t-84.5 29.5z" />
    <glyph glyph-name="q" unicode="q" horiz-adv-x="833" 
d="M426 -182l49 215q-32 -16 -51.5 -24.5t-53.5 -16t-73 -7.5q-120 0 -194.5 68t-74.5 181q0 37 9.5 76.5t34 82t61.5 76t98 55t137 21.5q61 0 107.5 -14.5t63.5 -26.5t38 -33l14 59h230l-164 -712h-231zM412 388q-72 -1 -108.5 -43.5t-36.5 -92.5t31.5 -81t89.5 -31
q68 0 106.5 43t38.5 98q0 52 -33.5 79.5t-87.5 27.5z" />
    <glyph glyph-name="r" unicode="r" horiz-adv-x="479" 
d="M341 531l-19 -84q82 98 173 98l36 -3l-48 -208q-50 10 -77 10q-35 0 -59.5 -8.5t-37.5 -24t-18 -26.5t-10 -28q-22 -70 -61 -257h-231l122 531h230z" />
    <glyph glyph-name="s" unicode="s" horiz-adv-x="708" 
d="M363 194l-122 24q-37 8 -59 13.5t-52.5 20.5t-48.5 35q-31 36 -31 81q0 13 3.5 27.5t12.5 35t31 41t54 35.5q77 38 250 38q89 0 139 -15q103 -30 133 -91q10 -21 18 -71l-221 -8q0 59 -115 59q-24 0 -40.5 -4.5t-23.5 -12t-9.5 -13.5t-2.5 -12q0 -25 43 -33l112 -19
q56 -9 82 -15t56 -18.5t47 -31.5q33 -36 33 -90q0 -123 -166 -167q-75 -19 -188 -19q-130 0 -205.5 32.5t-98.5 79.5q-11 23 -19 69l239 9q2 -8 4 -14t8.5 -15t19.5 -15t33 -10q29 -5 61 -5q69 0 69 41q0 13 -9 21.5t-16.5 11t-20.5 5.5z" />
    <glyph glyph-name="t" unicode="t" horiz-adv-x="437" 
d="M127 506l36 148h228l-34 -148h89l-30 -136h-90l-37 -158q0 -2 -1.5 -10t-1.5 -12q0 -14 4.5 -23t13 -13.5t20 -6.5t25 -2h29.5l-33 -145q-76 -2 -113 -2q-47 0 -77.5 3.5t-58.5 14.5t-41.5 34t-13.5 58q0 17 6 49l48 213h-75l32 136h75z" />
    <glyph glyph-name="u" unicode="u" horiz-adv-x="792" 
d="M42 226l69 304h226l-56 -246q-21 -90 4 -116q22 -24 66 -24q31 0 56 12t39.5 26t27.5 40t17.5 40t12.5 40l53 228h223l-123 -530h-224l17 72q-40 -31 -62.5 -46t-63 -27.5t-89.5 -12.5q-93 0 -140 41q-28 23 -43.5 61t-15.5 77q0 21 6 61z" />
    <glyph glyph-name="v" unicode="v" horiz-adv-x="750" 
d="M171 0l-121 529h236l51 -334l207 335h257l-374 -530h-256z" />
    <glyph glyph-name="w" unicode="w" horiz-adv-x="1062" 
d="M87 0l-30 530h232l-5 -314l161 314h254l23 -312l133 312h252l-292 -530h-257l-24 341l-178 -341h-269z" />
    <glyph glyph-name="x" unicode="x" horiz-adv-x="771" 
d="M251 281l-187 249h257l78 -121l136 121h280l-315 -264l192 -266h-242l-96 141l-158 -141h-277z" />
    <glyph glyph-name="y" unicode="y" horiz-adv-x="688" 
d="M125 24l-68 507h231l10 -385l193 385h244l-287 -453q-34 -56 -51.5 -83t-45 -63.5t-49.5 -53t-54 -33.5t-68.5 -23t-84.5 -6q-49 0 -147 10l38 160q43 -4 109 -4q39 5 30 42z" />
    <glyph glyph-name="z" unicode="z" horiz-adv-x="750" 
d="M116 530h646l-33 -144l-395 -239h340l-34 -147h-674l32 138l384 245h-300z" />
    <glyph glyph-name="braceleft" unicode="{" horiz-adv-x="354" 
d="M33 218v86q24 5 38.5 16t20.5 28.5t7.5 31t1.5 36.5v95q1 60 2.5 85t9.5 54.5t26 49.5q23 25 60.5 31.5t171.5 11.5v-85q-36 -8 -52 -35q-10 -15 -12 -94v-41q0 -37 -0.5 -53t-1.5 -42.5t-3.5 -37t-7 -28t-11 -24.5t-16.5 -16.5t-23 -15t-30 -10.5q17 -5 30 -10.5t23 -15
t16.5 -16.5t11 -24.5t7 -28t3.5 -37t1.5 -42.5t0.5 -53v-42q2 -79 12 -94q16 -27 52 -35v-85q-134 5 -171.5 11.5t-60.5 31.5q-25 29 -31 66.5t-7 122.5v96q0 23 -1.5 36.5t-7.5 31t-20.5 28.5t-38.5 16z" />
    <glyph glyph-name="bar" unicode="|" horiz-adv-x="229" 
d="M145 750v-1000h-60v1000h60z" />
    <glyph glyph-name="braceright" unicode="}" horiz-adv-x="354" 
d="M372 304v-86q-24 -5 -38.5 -16t-20.5 -28.5t-7.5 -31t-1.5 -36.5v-96q-1 -60 -2.5 -85t-9.5 -54.5t-26 -49.5q-23 -25 -60.5 -31.5t-171.5 -11.5v85q36 8 52 35q10 15 12 94v42q0 37 0.5 53t1.5 42.5t3.5 37t7 28t11 24.5t16.5 16.5t23 15t30 10.5q-17 5 -30 10.5t-23 15
t-16.5 16.5t-11 24.5t-7 28t-3.5 37t-1.5 42.5t-0.5 53v41q-2 79 -12 94q-16 27 -52 35v85q134 -5 171.5 -11.5t60.5 -31.5q25 -29 31 -66.5t7 -122.5v-95q0 -23 1.5 -36.5t7.5 -31t20.5 -28.5t38.5 -16z" />
    <glyph glyph-name="asciitilde" unicode="~" horiz-adv-x="729" 
d="M581 387l52 -105q-77 -83 -156 -83q-35 0 -105 31q-74 37 -103 37q-30 0 -48 -13.5t-56 -56.5l-55 103q18 25 32.5 41t49 35t74.5 19q27 0 49.5 -8t89.5 -39q54 -23 76 -23q46 0 100 62z" />
    <glyph glyph-name="exclamdown" unicode="&#xa1;" horiz-adv-x="375" 
d="M122 525l42 181h190l-43 -181h-189zM22 181l81 265h191l-42 -266l-43 -180h-229z" />
    <glyph glyph-name="cent" unicode="&#xa2;" horiz-adv-x="812" 
d="M787 347l-230 -15q-2 18 -7.5 29t-23.5 22.5t-51 18.5l-64 -272q35 1 61 9t42 24t22.5 24.5t14.5 24.5l234 -10q-15 -29 -22 -42t-22 -34t-33.5 -37t-44.5 -33q-121 -77 -286 -70l-23 -99h-65l24 104q-132 20 -197 73q-39 31 -65 83.5t-26 106.5q0 74 43.5 138t119.5 102
q104 52 255 52l20 84h65l-20 -88q93 -10 154 -38q39 -18 65 -40t37.5 -46t15.5 -37.5t7 -33.5zM348 140l61 262q-45 -8 -76 -29q-29 -20 -47 -53.5t-18 -67.5q0 -41 25 -75q19 -23 55 -37z" />
    <glyph glyph-name="sterling" unicode="&#xa3;" horiz-adv-x="812" 
d="M76 369h128q-44 75 -44 124q0 79 63 135q80 70 278 70q197 0 262 -93q33 -46 37 -149l-224 -13q7 26 7 44q0 70 -82 70q-39 0 -69 -21t-30 -63q0 -34 35 -104h144l-16 -71h-109q0 -4 0.5 -14t0.5 -15q0 -62 -49 -130q41 -13 67 -13q39 0 58 19.5t32 61.5h206
q-8 -29 -12 -44t-14.5 -43t-20 -43t-26.5 -35.5t-36 -31t-47 -18.5t-61 -8q-18 0 -52 4q-47 6 -89 16.5t-61.5 18t-59.5 23.5q-38 -21 -60 -31.5t-59.5 -21t-73.5 -10.5q-43 0 -73.5 13.5t-44.5 35t-19.5 39t-5.5 32.5q0 17 7 36t22.5 39.5t47 34t74.5 13.5q56 0 149 -31
q0 36 -3 53t-15 50h-179zM194 100q-50 34 -86 34q-20 0 -31 -10.5t-11 -23.5q0 -30 44 -30q30 0 84 30z" />
    <glyph glyph-name="currency" unicode="&#xa4;" horiz-adv-x="667" 
d="M668 570l-82 -80q43 -72 43 -151t-43 -152l81 -82l-96 -95l-80 82q-75 -42 -150 -42q-78 0 -152 43l-81 -81l-95 95l82 81q-43 70 -43 151q0 80 42 151l-79 80l94 95l80 -80q74 43 152 43q76 0 151 -43l80 80zM504 339q1 74 -48.5 119.5t-114.5 45.5t-114.5 -45
t-49.5 -120t50 -120t115 -45q68 0 114.5 46.5t47.5 118.5z" />
    <glyph glyph-name="yen" unicode="&#xa5;" 
d="M954 695l-260 -291h135l-26 -113h-210l-67 -75h262l-26 -113h-269l-24 -103h-254l25 103h-241l26 113h237l-27 75h-195l27 113h128l-104 291h263l79 -290l221 290h300z" />
    <glyph glyph-name="brokenbar" unicode="&#xa6;" horiz-adv-x="229" 
d="M195 -175h-127v350h127v-350zM195 325h-127v350h127v-350z" />
    <glyph glyph-name="section" unicode="&#xa7;" horiz-adv-x="729" 
d="M309 64l-127 44q-90 36 -123 70q-41 44 -41 96q0 53 41 97q32 33 114 60q-17 18 -26 29t-18.5 33.5t-9.5 48.5q0 56 41 100q33 36 93 58q72 26 183 26q129 0 204 -33q43 -18 68.5 -46t31.5 -46t11 -46l-221 -14q-7 17 -13.5 26t-25.5 17.5t-48 8.5q-46 0 -67 -21
q-14 -16 -14 -33q0 -18 16.5 -32.5t29.5 -19.5t39 -14q12 -4 62.5 -19t77.5 -25q18 -7 31 -14t33.5 -22.5t32 -40.5t11.5 -57q0 -47 -35 -91q-15 -19 -35 -33t-32 -19t-39 -16q16 -18 24 -29t16 -32.5t8 -45.5q0 -84 -83 -143t-229 -59q-17 0 -49 2q-152 11 -219 76
q-49 46 -63 127l225 12q5 -16 10 -27t16.5 -26t31 -23t46.5 -8q37 0 54.5 17.5t17.5 34.5q0 34 -51 52zM279 363q-44 -27 -44 -65t44 -57q27 -13 157 -51q43 39 43 71q0 27 -21.5 41t-70.5 28q-16 5 -34 10.5t-40 12t-34 10.5z" />
    <glyph glyph-name="dieresis" unicode="&#xa8;" horiz-adv-x="375" 
d="M-100 610l28 121h206l-28 -121h-206zM243 610l28 122h205l-27 -121z" />
    <glyph glyph-name="copyright" unicode="&#xa9;" horiz-adv-x="833" 
d="M800 351q-1 -148 -104 -251t-253 -103q-143 0 -249 101t-106 255q0 151 105 253.5t251 102.5q153 0 255 -105t101 -253zM768 351q1 135 -92 230.5t-230 95.5t-231.5 -95t-94.5 -229q0 -136 95 -230t229 -94q136 0 229.5 94t94.5 228zM561 270l87 -80q-80 -84 -196 -84
q-118 0 -184 71t-66 176q0 106 67.5 178.5t182.5 72.5q114 0 196 -85l-87 -84q-51 49 -110 49q-62 0 -93.5 -38t-31.5 -92q0 -58 34.5 -93.5t92.5 -35.5q60 0 108 45z" />
    <glyph glyph-name="ordfeminine" unicode="&#xaa;" horiz-adv-x="542" 
d="M555 549l-29 -130q-7 -24 3 -58h-160q-3 18 1 39q-82 -50 -169 -50q-63 0 -101.5 28t-38.5 74q0 51 43 84q31 24 90.5 31t212.5 11q3 31 -15.5 41.5t-54.5 10.5q-30 0 -47.5 -5t-22.5 -10t-10 -15h-148q18 51 44 71q56 45 205 45q108 0 157 -22.5t49 -83.5q0 -25 -9 -61z
M392 514h-34.5t-35.5 -1t-39 -4t-30.5 -7t-24 -12t-7.5 -18q0 -21 27 -29q54 -9 94 14q37 19 50 57z" />
    <glyph glyph-name="guillemotleft" unicode="&#xab;" horiz-adv-x="542" 
d="M72 425l233 121l-43 -190l-111 -58l82 -66l-41 -174l-172 139zM315 429l234 121l-44 -192l-115 -59l85 -69l-40 -172l-173 140z" />
    <glyph glyph-name="logicalnot" unicode="&#xac;" horiz-adv-x="667" 
d="M562 0v227h-539v127h539h127v-354h-127z" />
    <glyph glyph-name="registered" unicode="&#xae;" horiz-adv-x="833" 
d="M278 586h163q74 0 108 -11q40 -13 60.5 -45t20.5 -68q0 -31 -15.5 -54.5t-29.5 -32t-35 -18.5q23 -15 33.5 -30.5t17.5 -55.5q16 -102 39 -143h-126q-14 29 -25 99q-10 68 -23.5 80.5t-77.5 12.5v-192h-110v458zM388 502v-95h48q49 0 64 9q20 11 20 40q0 42 -45 45
q-9 1 -87 1zM800 352q-1 -149 -104 -252t-253 -103q-143 0 -249 101t-106 255q0 152 105 254t251 102q153 0 255 -104.5t101 -252.5zM768 352q1 134 -92 229.5t-230 95.5t-231.5 -95t-94.5 -229q0 -136 95 -230t229 -94q136 0 229.5 94t94.5 229z" />
    <glyph glyph-name="macron" unicode="&#xaf;" horiz-adv-x="375" 
d="M-98 610l22 92h549l-22 -92h-549z" />
    <glyph glyph-name="macron" unicode="&#x2c9;" horiz-adv-x="375" 
d="M-98 610l22 92h549l-22 -92h-549z" />
    <glyph glyph-name="degree" unicode="&#xb0;" horiz-adv-x="354" 
d="M194 745q74 0 123.5 -51t49.5 -122t-50.5 -121.5t-122.5 -50.5q-71 0 -121.5 50.5t-50.5 121.5t49.5 122t122.5 51zM195 630q-23 0 -39.5 -16t-16.5 -40q0 -23 16.5 -39t39.5 -16t39.5 16t16.5 39q0 24 -16.5 40t-39.5 16z" />
    <glyph glyph-name="plusminus" unicode="&#xb1;" horiz-adv-x="667" 
d="M425 371v-209h-127v209h-229v127h229v208h127v-208h227v-127h-227zM652 127v-127h-583v127h583z" />
    <glyph glyph-name="twosuperior" unicode="&#xb2;" horiz-adv-x="562" 
d="M252 512l-137 2q3 18 4.5 27.5t8.5 31t16.5 35t28 31t42 27.5t59.5 17.5t81 7.5q71 0 117 -15q88 -33 88 -104q0 -88 -133 -148q-10 -5 -47 -20.5t-69.5 -29.5t-34.5 -15q-10 -5 -30 -19h277l-23 -102h-450l23 101q25 28 45 43.5t69 41.5l161 74q64 28 64 56q0 38 -64 38
q-30 0 -49.5 -7t-28.5 -21t-12 -24t-6 -28z" />
    <glyph glyph-name="threesuperior" unicode="&#xb3;" horiz-adv-x="562" 
d="M241 544h-138q13 79 82 113q68 34 182 34q64 0 108 -15q79 -29 79 -94q0 -27 -17 -49q-16 -24 -48 -37q-17 -7 -57 -18q48 -15 70 -35q33 -31 33 -72q0 -61 -71 -102t-188 -41q-92 0 -152 29q-23 11 -38 24.5t-21.5 30t-8.5 26.5t-4 27l138 10q6 -14 12 -22.5t27.5 -17.5
t55.5 -9q43 0 70 15.5t27 38.5q0 41 -77 41q-28 0 -78 -4l20 87q101 3 121 11q22 8 31.5 24t2.5 32q-9 17 -38 22.5t-57 -2.5q-26 -5 -41.5 -14.5t-18.5 -15.5t-6 -17z" />
    <glyph glyph-name="acute" unicode="&#xb4;" horiz-adv-x="375" 
d="M188 610h-180l85 122h273z" />
    <glyph glyph-name="mu" unicode="&#xb5;" horiz-adv-x="792" 
d="M433 0l17 72q-25 -25 -39.5 -38t-43.5 -27.5t-57 -14.5q-56 0 -88 36l-48 -211h-226l163 713h226l-61 -268q-5 -25 -5 -48q0 -70 80 -70q39 0 68 16t45.5 45t24 48.5t14.5 48.5l54 228h223l-123 -530h-224z" />
    <glyph glyph-name="mu" unicode="&#x3bc;" horiz-adv-x="792" 
d="M433 0l17 72q-25 -25 -39.5 -38t-43.5 -27.5t-57 -14.5q-56 0 -88 36l-48 -211h-226l163 713h226l-61 -268q-5 -25 -5 -48q0 -70 80 -70q39 0 68 16t45.5 45t24 48.5t14.5 48.5l54 228h223l-123 -530h-224z" />
    <glyph glyph-name="paragraph" unicode="&#xb6;" horiz-adv-x="667" 
d="M345 706h250v-78h-36v-795h-84v795h-118v-795h-84v459q-56 17 -83 38q-71 56 -71 161q0 101 66 161q26 24 59 36.5t52 14.5t49 3z" />
    <glyph glyph-name="periodcentered" unicode="&#xb7;" horiz-adv-x="333" 
d="M28 218l43 184h230l-43 -184h-230z" />
    <glyph glyph-name="periodcentered" unicode="&#x2219;" horiz-adv-x="333" 
d="M28 218l43 184h230l-43 -184h-230z" />
    <glyph glyph-name="cedilla" unicode="&#xb8;" horiz-adv-x="375" 
d="M131 -130l-32 38q71 70 141 137l52 -4l-59 -86q38 -2 66.5 -21.5t29.5 -60.5q0 -42 -42 -80t-121 -38q-47 0 -120 23l25 54q36 -10 66 -10q28 0 43.5 9.5t17 15.5t1.5 11q0 9 -8 17.5t-24 8.5q-18 0 -36 -14z" />
    <glyph glyph-name="onesuperior" unicode="&#xb9;" horiz-adv-x="562" 
d="M171 525l22 96q70 10 125 39q16 8 33 20h113l-103 -442h-151l71 306q-56 -16 -110 -19z" />
    <glyph glyph-name="ordmasculine" unicode="&#xba;" horiz-adv-x="521" 
d="M336 716q147 0 202 -75q28 -37 28 -91q0 -84 -73 -141t-201 -57q-66 0 -117 16q-49 16 -79 48q-38 44 -38 109q0 31 11.5 61t39.5 61.5t86.5 50.5t140.5 18zM320 623q-30 0 -52 -10.5t-32.5 -23.5t-16 -29.5t-6.5 -24t-1 -12.5q0 -33 22 -55.5t66 -22.5q58 0 82.5 32.5
t24.5 67.5q0 12 -3.5 23.5t-11.5 25t-27 21.5t-45 8z" />
    <glyph glyph-name="guillemotright" unicode="&#xbb;" horiz-adv-x="542" 
d="M308 376l40 176l174 -141l-53 -226l-234 -122l44 190l110 58zM65 381l40 171l174 -140l-53 -230l-234 -123l44 193l114 60z" />
    <glyph glyph-name="onequarter" unicode="&#xbc;" horiz-adv-x="1250" 
d="M110 525l23 96q71 10 125 39q11 6 33 20h112l-102 -442h-151l71 306q-56 -16 -111 -19zM298 0l447 681h120l-447 -681h-120zM691 185l285 257h184l-60 -259h90l-24 -102h-90l-18 -81h-150l19 81h-260zM950 184l36 148l-162 -148h126z" />
    <glyph glyph-name="onehalf" unicode="&#xbd;" horiz-adv-x="1250" 
d="M111 525l22 96q72 10 126 39q11 6 33 20h112l-102 -443h-151l71 307q-56 -16 -111 -19zM289 0l447 681h119l-446 -681h-120zM881 274l-137 2q3 18 4.5 27.5t8.5 31t16.5 35t28 31t42 27.5t59.5 17.5t81 7.5q71 0 117 -15q88 -33 88 -104q0 -88 -133 -148
q-10 -5 -47 -20.5t-69.5 -29.5t-34.5 -15q-10 -5 -30 -19h277l-23 -102h-450l23 101q25 28 45 43.5t69 41.5l161 74q64 28 64 56q0 38 -64 38q-30 0 -49.5 -7t-28.5 -21t-12 -24t-6 -28z" />
    <glyph glyph-name="threequarters" unicode="&#xbe;" horiz-adv-x="1250" 
d="M172 544h-138q13 79 82 113q68 34 182 34q64 0 108 -15q79 -29 79 -94q0 -27 -17 -49q-16 -24 -48 -37q-17 -7 -57 -18q48 -15 70 -35q33 -31 33 -72q0 -61 -71 -102t-188 -41q-92 0 -152 29q-30 14 -46.5 35.5t-20 36t-5.5 36.5l138 10q6 -14 12 -22.5t27.5 -17.5
t55.5 -9q43 0 70 15.5t27 38.5q0 41 -77 41q-28 0 -78 -4l20 87q101 3 121 11q37 14 37 42q0 19 -17.5 28.5t-41.5 9.5q-15 0 -39 -4q-26 -5 -41.5 -14.5t-18.5 -15.5t-6 -17zM348 0l447 681h120l-447 -681h-120zM691 185l285 258h184l-60 -260h90l-24 -102h-90l-18 -81
h-150l19 81h-260zM950 184l36 148l-162 -148h126z" />
    <glyph glyph-name="questiondown" unicode="&#xbf;" horiz-adv-x="708" 
d="M298 446h216q-10 -37 -24 -59t-52 -45q-22 -13 -66 -32.5t-60 -28.5q-70 -37 -70 -86q0 -27 25.5 -49t74.5 -22q39 0 67 11t44.5 34t24 39t16.5 46l194 -10q-7 -30 -12.5 -49t-18.5 -48.5t-35 -55t-53 -46.5q-91 -61 -272 -61q-145 0 -223.5 50t-78.5 138q0 36 12 65
t34.5 50t38.5 32t41 25l129 60q22 10 31 17.5t17 24.5zM574 706l-42 -183h-216l41 183h217z" />
    <glyph glyph-name="Agrave" unicode="&#xc0;" horiz-adv-x="896" 
d="M-74 0l476 707h297l123 -707h-257l-13 113h-284l-65 -113h-277zM534 270l-30 251l-145 -251h175zM506 775l-179 122h276l83 -122h-180z" />
    <glyph glyph-name="Aacute" unicode="&#xc1;" horiz-adv-x="896" 
d="M-74 0l476 707h297l123 -707h-257l-13 113h-284l-65 -113h-277zM534 270l-30 251l-145 -251h175zM423 776l85 121h273l-179 -121h-179z" />
    <glyph glyph-name="Acircumflex" unicode="&#xc2;" horiz-adv-x="896" 
d="M-74 0l476 707h297l123 -707h-257l-13 113h-284l-65 -113h-277zM534 270l-30 251l-145 -251h175zM317 776l119 121h305l53 -121h-186l-35 70l-68 -70h-188z" />
    <glyph glyph-name="Atilde" unicode="&#xc3;" horiz-adv-x="896" 
d="M-74 0l476 707h297l123 -707h-257l-13 113h-284l-65 -113h-277zM534 270l-30 251l-145 -251h175zM393 773h-88q17 32 27.5 48t30.5 37t48 30t67 9q25 0 51.5 -3.5t63.5 -11t51 -9.5q30 -4 46 -4q42 0 61 29h84q-10 -26 -18 -41.5t-26.5 -38.5t-49.5 -34.5t-74 -11.5
q-36 0 -154 20q-45 6 -60 6q-37 0 -60 -25z" />
    <glyph glyph-name="Adieresis" unicode="&#xc4;" horiz-adv-x="896" 
d="M-74 0l476 707h297l123 -707h-257l-13 113h-284l-65 -113h-277zM534 270l-30 251l-145 -251h175zM281 775l28 121h207l-29 -121h-206zM624 775l28 121h206l-28 -121h-206z" />
    <glyph glyph-name="Aring" unicode="&#xc5;" horiz-adv-x="896" 
d="M-74 0l476 707h297l123 -707h-257l-13 113h-284l-65 -113h-277zM534 270l-30 251l-145 -251h175zM572 957q70 1 102 -26t32 -65q0 -56 -45 -84.5t-113 -28.5q-50 0 -88 21t-38 71q0 42 33.5 76.5t116.5 35.5zM564 886q-7 0 -17 -1.5t-23.5 -10t-13.5 -22.5q0 -31 47 -31
q62 0 62 34q0 33 -55 31z" />
    <glyph glyph-name="AE" unicode="&#xc6;" horiz-adv-x="1042" 
d="M-73 0l487 706h630l-37 -159h-217l-27 -116h220l-37 -159h-220l-26 -114h284l-37 -158h-509l28 123h-205l-80 -123h-254zM567 560h-21l-184 -284h140z" />
    <glyph glyph-name="Ccedilla" unicode="&#xc7;" horiz-adv-x="917" 
d="M663 260l224 -26q-11 -28 -20.5 -47.5t-44.5 -59t-85 -70.5q-107 -68 -254 -77l-17 -25q20 -2 30 -5q31 -8 48.5 -28.5t17.5 -48.5q0 -42 -42 -80t-121 -38q-45 0 -120 23l25 54q36 -10 66 -10q28 0 43.5 9.5t17 15.5t1.5 11q0 9 -8 17.5t-24 8.5t-36 -14l-32 38
q24 24 37 36q1 1 18.5 18t19.5 19q-191 15 -281 114q-77 86 -77 220q0 57 17.5 114t56.5 112t95 97t139.5 67.5t183.5 25.5q213 0 316 -115q46 -52 57 -124l-224 -23q-5 20 -9.5 32t-20 30.5t-40.5 30.5q-33 15 -81 15q-83 0 -142 -39.5t-84.5 -96t-25.5 -120.5
q0 -84 48 -131t134 -47q52 0 98 19q31 13 51.5 31.5t28 31.5t16.5 35z" />
    <glyph glyph-name="Egrave" unicode="&#xc8;" 
d="M0 0l163 706h728l-36 -156h-478l-27 -117h456l-36 -156h-456l-28 -117h513l-37 -160h-762zM485 775l-179 122h276l83 -122h-180z" />
    <glyph glyph-name="Eacute" unicode="&#xc9;" 
d="M0 0l163 706h728l-36 -156h-478l-27 -117h456l-36 -156h-456l-28 -117h513l-37 -160h-762zM402 776l85 121h273l-179 -121h-179z" />
    <glyph glyph-name="Ecircumflex" unicode="&#xca;" 
d="M0 0l163 706h728l-36 -156h-478l-27 -117h456l-36 -156h-456l-28 -117h513l-37 -160h-762zM296 776l119 121h305l53 -121h-186l-35 70l-68 -70h-188z" />
    <glyph glyph-name="Edieresis" unicode="&#xcb;" 
d="M0 0l163 706h728l-36 -156h-478l-27 -117h456l-36 -156h-456l-28 -117h513l-37 -160h-762zM260 777l28 121h207l-29 -121h-206zM603 777l28 121h206l-28 -121h-206z" />
    <glyph glyph-name="Igrave" unicode="&#xcc;" horiz-adv-x="396" 
d="M0 0l163 706h253l-163 -706h-253zM256 775l-179 122h276l83 -122h-180z" />
    <glyph glyph-name="Iacute" unicode="&#xcd;" horiz-adv-x="396" 
d="M0 0l163 706h253l-163 -706h-253zM173 776l85 121h273l-179 -121h-179z" />
    <glyph glyph-name="Icircumflex" unicode="&#xce;" horiz-adv-x="396" 
d="M0 0l163 706h253l-163 -706h-253zM67 776l119 121h305l53 -121h-186l-35 70l-68 -70h-188z" />
    <glyph glyph-name="Idieresis" unicode="&#xcf;" horiz-adv-x="396" 
d="M0 0l163 706h253l-163 -706h-253zM31 777l28 121h207l-29 -121h-206zM374 777l28 121h206l-28 -121h-206z" />
    <glyph glyph-name="Eth" unicode="&#xd0;" horiz-adv-x="938" 
d="M-2 0l75 327h-73l26 89h67l67 290h396q126 -5 184 -28q105 -40 155 -130q36 -66 36 -151q0 -116 -67 -221q-68 -98 -173.5 -135.5t-255.5 -40.5h-437zM377 549l-31 -133h201l-24 -89h-197l-40 -171h147q36 2 56 4t49 10.5t51 22.5q44 29 69.5 86t25.5 114q0 48 -15 79.5
t-45 47t-59 21.5t-70 8h-118z" />
    <glyph glyph-name="Ntilde" unicode="&#xd1;" horiz-adv-x="938" 
d="M-2 0l164 706h228l239 -447l103 447h228l-164 -706h-227l-236 443l-100 -443h-235zM414 773h-88q17 32 27.5 48t30.5 37t48 30t67 9q25 0 51.5 -3.5t63.5 -11t51 -9.5q30 -4 46 -4q42 0 61 29h84q-10 -26 -18 -41.5t-26.5 -38.5t-49.5 -34.5t-74 -11.5q-36 0 -154 20
q-45 6 -60 6q-37 0 -60 -25z" />
    <glyph glyph-name="Ograve" unicode="&#xd2;" horiz-adv-x="979" 
d="M558 730q226 -4 328 -123q67 -79 67 -190q0 -55 -14.5 -111t-51 -115.5t-91.5 -105.5t-144.5 -75.5t-200.5 -29.5q-211 0 -317 107q-87 87 -87 218q0 54 16 110.5t55 114.5t96 102.5t146 72t198 25.5zM539 573q-60 -1 -108 -26t-76 -64.5t-42 -83.5t-14 -88
q0 -76 44.5 -126.5t125.5 -50.5q104 0 170 76t66 193q0 51 -16 86.5t-42.5 53t-52.5 24t-55 6.5zM547 775l-179 122h276l83 -122h-180z" />
    <glyph glyph-name="Oacute" unicode="&#xd3;" horiz-adv-x="979" 
d="M558 730q226 -4 328 -123q67 -79 67 -190q0 -55 -14.5 -111t-51 -115.5t-91.5 -105.5t-144.5 -75.5t-200.5 -29.5q-211 0 -317 107q-87 87 -87 218q0 54 16 110.5t55 114.5t96 102.5t146 72t198 25.5zM539 573q-60 -1 -108 -26t-76 -64.5t-42 -83.5t-14 -88
q0 -76 44.5 -126.5t125.5 -50.5q104 0 170 76t66 193q0 51 -16 86.5t-42.5 53t-52.5 24t-55 6.5zM464 776l85 121h273l-179 -121h-179z" />
    <glyph glyph-name="Ocircumflex" unicode="&#xd4;" horiz-adv-x="979" 
d="M558 730q226 -4 328 -123q67 -79 67 -190q0 -55 -14.5 -111t-51 -115.5t-91.5 -105.5t-144.5 -75.5t-200.5 -29.5q-211 0 -317 107q-87 87 -87 218q0 54 16 110.5t55 114.5t96 102.5t146 72t198 25.5zM539 573q-60 -1 -108 -26t-76 -64.5t-42 -83.5t-14 -88
q0 -76 44.5 -126.5t125.5 -50.5q104 0 170 76t66 193q0 51 -16 86.5t-42.5 53t-52.5 24t-55 6.5zM358 776l119 121h305l53 -121h-186l-35 70l-68 -70h-188z" />
    <glyph glyph-name="Otilde" unicode="&#xd5;" horiz-adv-x="979" 
d="M558 730q226 -4 328 -123q67 -79 67 -190q0 -55 -14.5 -111t-51 -115.5t-91.5 -105.5t-144.5 -75.5t-200.5 -29.5q-211 0 -317 107q-87 87 -87 218q0 54 16 110.5t55 114.5t96 102.5t146 72t198 25.5zM539 573q-60 -1 -108 -26t-76 -64.5t-42 -83.5t-14 -88
q0 -76 44.5 -126.5t125.5 -50.5q104 0 170 76t66 193q0 51 -16 86.5t-42.5 53t-52.5 24t-55 6.5zM434 773h-88q17 32 27.5 48t30.5 37t48 30t67 9q25 0 51.5 -3.5t63.5 -11t51 -9.5q30 -4 46 -4q42 0 61 29h84q-10 -26 -18 -41.5t-26.5 -38.5t-49.5 -34.5t-74 -11.5
q-36 0 -154 20q-45 6 -60 6q-37 0 -60 -25z" />
    <glyph glyph-name="Odieresis" unicode="&#xd6;" horiz-adv-x="979" 
d="M558 730q226 -4 328 -123q67 -79 67 -190q0 -55 -14.5 -111t-51 -115.5t-91.5 -105.5t-144.5 -75.5t-200.5 -29.5q-211 0 -317 107q-87 87 -87 218q0 54 16 110.5t55 114.5t96 102.5t146 72t198 25.5zM539 573q-60 -1 -108 -26t-76 -64.5t-42 -83.5t-14 -88
q0 -76 44.5 -126.5t125.5 -50.5q104 0 170 76t66 193q0 51 -16 86.5t-42.5 53t-52.5 24t-55 6.5zM322 776l28 121h207l-29 -121h-206zM665 776l28 121h206l-28 -121h-206z" />
    <glyph glyph-name="multiply" unicode="&#xd7;" horiz-adv-x="667" 
d="M632 110l-89 -91l-183 182l-182 -182l-90 91l182 181l-182 183l90 88l182 -180l183 180l89 -88l-181 -183z" />
    <glyph glyph-name="Oslash" unicode="&#xd8;" horiz-adv-x="979" 
d="M815 665l110 93l41 -49l-100 -85q30 -36 44.5 -56.5t28 -62t13.5 -93.5q0 -131 -71.5 -232t-176.5 -152q-108 -51 -254 -51q-69 0 -124 12t-79.5 23t-67.5 35l-108 -91l-41 49l98 83q-26 31 -39.5 51t-28.5 65.5t-15 100.5q0 57 17.5 114.5t57 114t97 99.5t145 69.5
t193.5 26.5q68 0 123.5 -11.5t79.5 -22.5t57 -30zM310 242l343 287q-17 14 -28.5 21.5t-34 14t-51.5 6.5q-106 0 -176 -73t-70 -175q0 -43 17 -81zM690 476l-345 -289q20 -17 31 -25t37 -17t57 -9t62.5 9.5t64.5 30.5t60 60.5t41 93.5q9 35 9 65q0 35 -17 81z" />
    <glyph glyph-name="Ugrave" unicode="&#xd9;" horiz-adv-x="958" 
d="M58 289l96 417h252l-96 -420q-14 -70 19.5 -113t128.5 -40q51 0 92 24q41 26 60 65t40 119l84 365h254l-104 -449q-2 -4 -13.5 -38.5t-22 -57t-38 -56t-64.5 -56.5q-108 -71 -320 -71q-138 0 -230.5 31t-125.5 90q-10 19 -15.5 40t-7.5 37t-1 35.5t3 30t5 27.5t4 20z
M537 775l-179 122h276l83 -122h-180z" />
    <glyph glyph-name="Uacute" unicode="&#xda;" horiz-adv-x="958" 
d="M58 289l96 417h252l-96 -420q-14 -70 19.5 -113t128.5 -40q51 0 92 24q41 26 60 65t40 119l84 365h254l-104 -449q-2 -4 -13.5 -38.5t-22 -57t-38 -56t-64.5 -56.5q-108 -71 -320 -71q-138 0 -230.5 31t-125.5 90q-10 19 -15.5 40t-7.5 37t-1 35.5t3 30t5 27.5t4 20z
M454 776l85 121h273l-179 -121h-179z" />
    <glyph glyph-name="Ucircumflex" unicode="&#xdb;" horiz-adv-x="958" 
d="M58 289l96 417h252l-96 -420q-14 -70 19.5 -113t128.5 -40q51 0 92 24q41 26 60 65t40 119l84 365h254l-104 -449q-2 -4 -13.5 -38.5t-22 -57t-38 -56t-64.5 -56.5q-108 -71 -320 -71q-138 0 -230.5 31t-125.5 90q-10 19 -15.5 40t-7.5 37t-1 35.5t3 30t5 27.5t4 20z
M348 776l119 121h305l53 -121h-186l-35 70l-68 -70h-188z" />
    <glyph glyph-name="Udieresis" unicode="&#xdc;" horiz-adv-x="958" 
d="M58 289l96 417h252l-96 -420q-14 -70 19.5 -113t128.5 -40q51 0 92 24q41 26 60 65t40 119l84 365h254l-104 -449q-2 -4 -13.5 -38.5t-22 -57t-38 -56t-64.5 -56.5q-108 -71 -320 -71q-138 0 -230.5 31t-125.5 90q-10 19 -15.5 40t-7.5 37t-1 35.5t3 30t5 27.5t4 20z
M311 776l28 121h207l-29 -121h-206zM654 776l28 121h206l-28 -121h-206z" />
    <glyph glyph-name="Yacute" unicode="&#xdd;" 
d="M265 213l-174 493h263l79 -295l221 295h300l-438 -498l-47 -208h-254zM402 776l85 121h273l-179 -121h-179z" />
    <glyph glyph-name="Thorn" unicode="&#xde;" horiz-adv-x="875" 
d="M-1 0l163 707h251l-25 -109h208q105 -2 160 -27q48 -22 79 -65.5t31 -104.5q0 -46 -22 -99.5t-55 -84.5q-77 -74 -239 -74h-268l-33 -143h-250zM352 440l-32 -139h186q70 0 94 33q16 21 16 49q0 25 -15 38.5t-28.5 15.5t-35.5 3h-185z" />
    <glyph glyph-name="germandbls" unicode="&#xdf;" horiz-adv-x="792" 
d="M-12 0l118 509q8 29 12.5 44t17 42.5t26 42.5t38.5 35t56 30t77 17.5t102 7.5q100 0 172 -17q18 -5 29 -8t34.5 -14.5t37.5 -25.5t26 -39.5t12 -56.5q0 -37 -18 -72t-51 -55q-15 -10 -60 -27q39 -10 59 -22q40 -23 59 -63q15 -33 15 -76q0 -109 -77.5 -185.5
t-213.5 -76.5q-47 0 -153 20l30 129q42 -12 62 -12q57 0 84 42.5t27 91.5q0 20 -6 34.5t-13 21.5t-19.5 11t-19.5 5t-19 1h-50l25 111q49 0 67 9q40 23 40 66q0 33 -17 51q-19 19 -58 19q-28 0 -48 -9t-31 -26t-16 -29.5t-10 -30.5l-114 -495h-232z" />
    <glyph glyph-name="agrave" unicode="&#xe0;" horiz-adv-x="833" 
d="M305 367h-228q15 43 28 66t40 44q82 69 314 69q168 0 243 -34.5t75 -129.5q0 -33 -14 -93l-45 -199q-12 -47 6 -90h-247q-4 27 1 60q-36 -21 -62 -34t-81.5 -27.5t-116.5 -14.5q-97 0 -155.5 43t-58.5 114q0 77 66 128q24 19 60.5 31t90.5 17.5t94 8t113.5 4.5t106.5 3
q6 25 -2.5 42.5t-27.5 25t-37.5 10t-40.5 2.5q-52 -1 -81.5 -9.5t-40.5 -36.5zM512 235q-35 0 -52.5 -0.5t-55 -2t-59.5 -5.5t-47 -10.5t-37 -18.5t-12 -28q0 -38 58.5 -46.5t123.5 22.5t81 89zM622 611h-181l-180 121h276z" />
    <glyph glyph-name="aacute" unicode="&#xe1;" horiz-adv-x="833" 
d="M305 367h-228q15 43 28 66t40 44q82 69 314 69q168 0 243 -34.5t75 -129.5q0 -33 -14 -93l-45 -199q-12 -47 6 -90h-247q-4 27 1 60q-36 -21 -62 -34t-81.5 -27.5t-116.5 -14.5q-97 0 -155.5 43t-58.5 114q0 77 66 128q24 19 60.5 31t90.5 17.5t94 8t113.5 4.5t106.5 3
q6 25 -2.5 42.5t-27.5 25t-37.5 10t-40.5 2.5q-52 -1 -81.5 -9.5t-40.5 -36.5zM512 235q-35 0 -52.5 -0.5t-55 -2t-59.5 -5.5t-47 -10.5t-37 -18.5t-12 -28q0 -38 58.5 -46.5t123.5 22.5t81 89zM528 610h-180l85 122h273z" />
    <glyph glyph-name="acircumflex" unicode="&#xe2;" horiz-adv-x="833" 
d="M305 367h-228q15 43 28 66t40 44q82 69 314 69q168 0 243 -34.5t75 -129.5q0 -33 -14 -93l-45 -199q-12 -47 6 -90h-247q-4 27 1 60q-36 -21 -62 -34t-81.5 -27.5t-116.5 -14.5q-97 0 -155.5 43t-58.5 114q0 77 66 128q24 19 60.5 31t90.5 17.5t94 8t113.5 4.5t106.5 3
q6 25 -2.5 42.5t-27.5 25t-37.5 10t-40.5 2.5q-52 -1 -81.5 -9.5t-40.5 -36.5zM512 235q-35 0 -52.5 -0.5t-55 -2t-59.5 -5.5t-47 -10.5t-37 -18.5t-12 -28q0 -38 58.5 -46.5t123.5 22.5t81 89zM243 611l118 121h305l53 -121h-186l-35 70l-68 -70h-187z" />
    <glyph glyph-name="atilde" unicode="&#xe3;" horiz-adv-x="833" 
d="M305 367h-228q15 43 28 66t40 44q82 69 314 69q168 0 243 -34.5t75 -129.5q0 -33 -14 -93l-45 -199q-12 -47 6 -90h-247q-4 27 1 60q-36 -21 -62 -34t-81.5 -27.5t-116.5 -14.5q-97 0 -155.5 43t-58.5 114q0 77 66 128q24 19 60.5 31t90.5 17.5t94 8t113.5 4.5t106.5 3
q6 25 -2.5 42.5t-27.5 25t-37.5 10t-40.5 2.5q-52 -1 -81.5 -9.5t-40.5 -36.5zM512 235q-35 0 -52.5 -0.5t-55 -2t-59.5 -5.5t-47 -10.5t-37 -18.5t-12 -28q0 -38 58.5 -46.5t123.5 22.5t81 89zM302 605h-88q16 32 26.5 48t30.5 37t48 30t67 9q25 0 52 -3.5t64 -11t51 -9.5
q37 -5 45 -5q41 0 61 30h85q-10 -27 -18 -42t-26.5 -38t-49.5 -34.5t-74 -11.5q-36 0 -154 19q-45 6 -60 6q-38 0 -60 -24z" />
    <glyph glyph-name="adieresis" unicode="&#xe4;" horiz-adv-x="833" 
d="M305 367h-228q15 43 28 66t40 44q82 69 314 69q168 0 243 -34.5t75 -129.5q0 -33 -14 -93l-45 -199q-12 -47 6 -90h-247q-4 27 1 60q-36 -21 -62 -34t-81.5 -27.5t-116.5 -14.5q-97 0 -155.5 43t-58.5 114q0 77 66 128q24 19 60.5 31t90.5 17.5t94 8t113.5 4.5t106.5 3
q6 25 -2.5 42.5t-27.5 25t-37.5 10t-40.5 2.5q-52 -1 -81.5 -9.5t-40.5 -36.5zM512 235q-35 0 -52.5 -0.5t-55 -2t-59.5 -5.5t-47 -10.5t-37 -18.5t-12 -28q0 -38 58.5 -46.5t123.5 22.5t81 89zM206 612l28 121h206l-28 -121h-206zM549 612l28 122h205l-27 -121z" />
    <glyph glyph-name="aring" unicode="&#xe5;" horiz-adv-x="833" 
d="M305 367h-228q15 43 28 66t40 44q82 69 314 69q168 0 243 -34.5t75 -129.5q0 -33 -14 -93l-45 -199q-12 -47 6 -90h-247q-4 27 1 60q-36 -21 -62 -34t-81.5 -27.5t-116.5 -14.5q-97 0 -155.5 43t-58.5 114q0 77 66 128q24 19 60.5 31t90.5 17.5t94 8t113.5 4.5t106.5 3
q6 25 -2.5 42.5t-27.5 25t-37.5 10t-40.5 2.5q-52 -1 -81.5 -9.5t-40.5 -36.5zM512 235q-35 0 -52.5 -0.5t-55 -2t-59.5 -5.5t-47 -10.5t-37 -18.5t-12 -28q0 -38 58.5 -46.5t123.5 22.5t81 89zM485 779q45 1 75.5 -9t42.5 -27t16.5 -29.5t4.5 -25.5q0 -45 -37 -78.5
t-119 -33.5q-13 0 -24 1t-31.5 6t-35 13.5t-26 27t-11.5 43.5t9 45q29 64 136 67zM479 708q-51 -4 -51 -35q0 -30 51 -30q58 0 58 36q0 32 -58 29z" />
    <glyph glyph-name="ae" unicode="&#xe6;" horiz-adv-x="1104" 
d="M274 377h-214q11 30 18.5 47t29.5 44t51.5 41.5t82.5 26t123 11.5q61 0 105.5 -12t60 -22t36.5 -28q25 17 44.5 27.5t65.5 22t103 11.5q69 0 121 -16q68 -23 103 -63q52 -59 52 -161q0 -26 -8 -84h-422q6 -42 20 -61q30 -40 102 -40q31 0 55.5 8t35 16t27.5 23l184 -17
q-9 -20 -14.5 -30.5t-17.5 -25.5t-30 -30q-93 -79 -240 -79q-99 0 -176 35q-35 17 -66 49q-30 -27 -54 -41q-73 -43 -194 -43q-126 0 -191 49t-65 124q0 57 37 99q25 28 70 44t72.5 19t81.5 7q82 4 116 4q11 0 33 -0.5t33 -0.5q5 17 5 31q0 53 -84 53q-31 0 -49.5 -5.5
t-25.5 -12t-17 -20.5zM646 327h237q-2 47 -34 71q-29 21 -74 21q-50 0 -84 -24q-14 -10 -24 -24.5t-12.5 -20.5t-8.5 -23zM423 222q-115 0 -142 -3q-72 -8 -72 -52q0 -26 21.5 -39t55.5 -13q71 0 105 39q18 19 32 68z" />
    <glyph glyph-name="ccedilla" unicode="&#xe7;" horiz-adv-x="812" 
d="M551 212l234 -10q-20 -38 -30 -55t-34 -43.5t-56 -47.5q-91 -58 -229 -68l-22 -33q20 -2 30 -4q31 -8 48.5 -28.5t17.5 -49.5q0 -42 -42 -80t-122 -38q-44 0 -119 23l25 54q36 -10 66 -10q28 0 43.5 9.5t17 15.5t1.5 11q0 9 -8 18t-24 9q-14 0 -37 -14l-31 38
q22 22 80 78q-83 5 -135 21q-58 17 -100 48.5t-62 68t-29 68t-9 61.5q0 73 42.5 137.5t120.5 103.5q102 52 250 52q132 0 225 -43q38 -18 64 -39.5t37.5 -45.5t15.5 -37.5t7 -33.5l-231 -15q-3 30 -24 48q-33 25 -88 25q-46 0 -82 -15.5t-55.5 -39.5t-29 -49.5t-9.5 -49.5
q0 -52 37 -87t105 -35q44 0 82 19q17 8 29.5 20.5t16.5 19.5t13 23z" />
    <glyph glyph-name="egrave" unicode="&#xe8;" horiz-adv-x="833" 
d="M790 219h-520q7 -21 11.5 -32.5t15 -23.5t26.5 -22q36 -19 82 -19q26 0 47.5 7t31.5 13.5t29 21.5l243 -15q-15 -25 -23.5 -38t-31 -34t-53.5 -38q-99 -53 -261 -53q-94 0 -165 21q-93 29 -143 89q-53 67 -53 154q0 79 47.5 147t127.5 106q88 42 218 42q147 0 232 -49
q80 -46 113 -121q20 -45 26 -156zM286 322h272q-6 15 -11.5 24.5t-19.5 25.5t-40 24t-62 8t-64 -11q-23 -8 -39.5 -21.5t-22.5 -23.5t-13 -26zM622 611h-181l-180 121h276z" />
    <glyph glyph-name="eacute" unicode="&#xe9;" horiz-adv-x="833" 
d="M790 219h-520q7 -21 11.5 -32.5t15 -23.5t26.5 -22q36 -19 82 -19q26 0 47.5 7t31.5 13.5t29 21.5l243 -15q-15 -25 -23.5 -38t-31 -34t-53.5 -38q-99 -53 -261 -53q-94 0 -165 21q-93 29 -143 89q-53 67 -53 154q0 79 47.5 147t127.5 106q88 42 218 42q147 0 232 -49
q80 -46 113 -121q20 -45 26 -156zM286 322h272q-6 15 -11.5 24.5t-19.5 25.5t-40 24t-62 8t-64 -11q-23 -8 -39.5 -21.5t-22.5 -23.5t-13 -26zM528 610h-180l85 122h273z" />
    <glyph glyph-name="ecircumflex" unicode="&#xea;" horiz-adv-x="833" 
d="M790 219h-520q7 -21 11.5 -32.5t15 -23.5t26.5 -22q36 -19 82 -19q26 0 47.5 7t31.5 13.5t29 21.5l243 -15q-15 -25 -23.5 -38t-31 -34t-53.5 -38q-99 -53 -261 -53q-94 0 -165 21q-93 29 -143 89q-53 67 -53 154q0 79 47.5 147t127.5 106q88 42 218 42q147 0 232 -49
q80 -46 113 -121q20 -45 26 -156zM286 322h272q-6 15 -11.5 24.5t-19.5 25.5t-40 24t-62 8t-64 -11q-23 -8 -39.5 -21.5t-22.5 -23.5t-13 -26zM243 611l118 121h305l53 -121h-186l-35 70l-68 -70h-187z" />
    <glyph glyph-name="edieresis" unicode="&#xeb;" horiz-adv-x="833" 
d="M790 219h-520q7 -21 11.5 -32.5t15 -23.5t26.5 -22q36 -19 82 -19q26 0 47.5 7t31.5 13.5t29 21.5l243 -15q-15 -25 -23.5 -38t-31 -34t-53.5 -38q-99 -53 -261 -53q-94 0 -165 21q-93 29 -143 89q-53 67 -53 154q0 79 47.5 147t127.5 106q88 42 218 42q147 0 232 -49
q80 -46 113 -121q20 -45 26 -156zM286 322h272q-6 15 -11.5 24.5t-19.5 25.5t-40 24t-62 8t-64 -11q-23 -8 -39.5 -21.5t-22.5 -23.5t-13 -26zM205 610l28 121h206l-28 -121h-206zM548 610l28 122h205l-27 -121z" />
    <glyph glyph-name="igrave" unicode="&#xec;" horiz-adv-x="354" 
d="M-11 0l122 531h231l-122 -531h-231zM382 611h-181l-180 121h276z" />
    <glyph glyph-name="iacute" unicode="&#xed;" horiz-adv-x="354" 
d="M-11 0l122 531h231l-122 -531h-231zM288 610h-180l85 122h273z" />
    <glyph glyph-name="icircumflex" unicode="&#xee;" horiz-adv-x="354" 
d="M-11 0l122 531h231l-122 -531h-231zM3 611l118 121h305l53 -121h-186l-35 70l-68 -70h-187z" />
    <glyph glyph-name="idieresis" unicode="&#xef;" horiz-adv-x="354" 
d="M-11 0l122 531h231l-122 -531h-231zM-35 610l28 121h206l-28 -121h-206zM308 610l28 122h205l-27 -121z" />
    <glyph glyph-name="eth" unicode="&#xf0;" 
d="M778 641l-88 -14q25 -30 40 -50.5t37 -58.5t33 -83.5t11 -95.5q0 -25 -3 -49q-19 -137 -128 -217q-116 -87 -300 -87q-196 0 -290 106q-65 75 -65 172q0 88 57 154.5t137.5 97.5t167.5 31q83 0 133 -32q6 -4 30 -23q0 1 -12 23.5t-15 26.5q-20 31 -45 59l-222 -33l-26 63
l187 27q-21 22 -44 43l207 29q14 -7 48 -42l119 16zM429 404q-49 -1 -84.5 -18t-52 -43.5t-23 -49t-6.5 -42.5q0 -53 34.5 -87t101.5 -34q47 0 81.5 16.5t51 42t24 49t7.5 45.5q0 19 -5.5 37.5t-18.5 38.5t-41.5 32.5t-68.5 12.5z" />
    <glyph glyph-name="ntilde" unicode="&#xf1;" horiz-adv-x="792" 
d="M340 530l-17 -75q15 14 31 28q36 29 88 45t101 16q88 0 140 -44.5t52 -124.5q0 -39 -10 -81l-68 -294h-231l62 270q5 18 5 35q0 30 -19.5 55.5t-65.5 25.5q-32 0 -56.5 -12.5t-39 -36.5t-21 -39.5t-14.5 -41.5l-59 -256h-229l123 530h228zM282 605h-88q16 32 26.5 48
t30.5 37t48 30t67 9q25 0 52 -3.5t64 -11t51 -9.5q37 -5 45 -5q41 0 61 30h85q-10 -27 -18 -42t-26.5 -38t-49.5 -34.5t-74 -11.5q-36 0 -154 19q-45 6 -60 6q-38 0 -60 -24z" />
    <glyph glyph-name="ograve" unicode="&#xf2;" 
d="M453 546q230 -4 312 -115q43 -58 43 -139q0 -130 -112 -218t-310 -88q-104 0 -180 25q-81 28 -121 75q-59 65 -59 167q0 75 35 132q43 75 142 120q98 43 250 41zM429 403q-47 -1 -81 -17t-49.5 -36t-24.5 -46t-10 -36.5t-1 -18.5q0 -50 34 -84.5t102 -34.5
q47 0 81.5 16.5t51 42t24 49t7.5 45.5q0 18 -5.5 36t-18.5 38.5t-41.5 33t-68.5 12.5zM633 611h-181l-180 121h276z" />
    <glyph glyph-name="oacute" unicode="&#xf3;" 
d="M453 546q230 -4 312 -115q43 -58 43 -139q0 -130 -112 -218t-310 -88q-104 0 -180 25q-81 28 -121 75q-59 65 -59 167q0 75 35 132q43 75 142 120q98 43 250 41zM429 403q-47 -1 -81 -17t-49.5 -36t-24.5 -46t-10 -36.5t-1 -18.5q0 -50 34 -84.5t102 -34.5
q47 0 81.5 16.5t51 42t24 49t7.5 45.5q0 18 -5.5 36t-18.5 38.5t-41.5 33t-68.5 12.5zM539 610h-180l85 122h273z" />
    <glyph glyph-name="ocircumflex" unicode="&#xf4;" 
d="M453 546q230 -4 312 -115q43 -58 43 -139q0 -130 -112 -218t-310 -88q-104 0 -180 25q-81 28 -121 75q-59 65 -59 167q0 75 35 132q43 75 142 120q98 43 250 41zM429 403q-47 -1 -81 -17t-49.5 -36t-24.5 -46t-10 -36.5t-1 -18.5q0 -50 34 -84.5t102 -34.5
q47 0 81.5 16.5t51 42t24 49t7.5 45.5q0 18 -5.5 36t-18.5 38.5t-41.5 33t-68.5 12.5zM254 611l118 121h305l53 -121h-186l-35 70l-68 -70h-187z" />
    <glyph glyph-name="otilde" unicode="&#xf5;" 
d="M453 546q230 -4 312 -115q43 -58 43 -139q0 -130 -112 -218t-310 -88q-104 0 -180 25q-81 28 -121 75q-59 65 -59 167q0 75 35 132q43 75 142 120q98 43 250 41zM429 403q-47 -1 -81 -17t-49.5 -36t-24.5 -46t-10 -36.5t-1 -18.5q0 -50 34 -84.5t102 -34.5
q47 0 81.5 16.5t51 42t24 49t7.5 45.5q0 18 -5.5 36t-18.5 38.5t-41.5 33t-68.5 12.5zM313 605h-88q16 32 26.5 48t30.5 37t48 30t67 9q25 0 52 -3.5t64 -11t51 -9.5q38 -5 45 -5q41 0 61 30h85q-10 -27 -18 -42t-26.5 -38t-49.5 -34.5t-74 -11.5q-36 0 -154 19q-45 6 -60 6
q-38 0 -60 -24z" />
    <glyph glyph-name="odieresis" unicode="&#xf6;" 
d="M453 546q230 -4 312 -115q43 -58 43 -139q0 -130 -112 -218t-310 -88q-104 0 -180 25q-81 28 -121 75q-59 65 -59 167q0 75 35 132q43 75 142 120q98 43 250 41zM429 403q-47 -1 -81 -17t-49.5 -36t-24.5 -46t-10 -36.5t-1 -18.5q0 -50 34 -84.5t102 -34.5
q47 0 81.5 16.5t51 42t24 49t7.5 45.5q0 18 -5.5 36t-18.5 38.5t-41.5 33t-68.5 12.5zM228 611l28 121h206l-28 -121h-206zM571 611l28 122h205l-27 -121z" />
    <glyph glyph-name="divide" unicode="&#xf7;" horiz-adv-x="667" 
d="M436 111q0 -32 -22.5 -56t-57.5 -24q-34 0 -57.5 22.5t-23.5 57.5q0 33 22.5 57t58.5 24q34 0 57 -24t23 -57zM436 469q0 -32 -22.5 -56t-58.5 -24q-33 0 -56.5 22.5t-23.5 57.5q0 33 22.5 57t58.5 24q34 0 57 -24t23 -57zM689 354v-127h-666v127h666z" />
    <glyph glyph-name="oslash" unicode="&#xf8;" 
d="M709 487l91 59l29 -46l-77 -50q16 -22 24 -33.5t19.5 -47t11.5 -77.5q0 -81 -40 -145q-99 -162 -386 -162q-62 0 -111 9.5t-72.5 19.5t-66.5 32l-89 -58l-29 45l75 50q-21 27 -31.5 43t-20.5 48t-10 70q0 20 2.5 41t15 56.5t34 65.5t65 61t101.5 50q86 27 200 27
q164 0 265 -58zM268 199l265 174q-43 35 -102 35q-49 0 -85.5 -16t-55 -41t-26.5 -48.5t-8 -44.5q0 -25 12 -59zM564 327l-263 -170q51 -33 105 -33q76 0 121 42t45 108q0 19 -8 53z" />
    <glyph glyph-name="ugrave" unicode="&#xf9;" horiz-adv-x="792" 
d="M42 226l69 304h226l-56 -246q-21 -90 4 -116q22 -24 66 -24q31 0 56 12t39.5 26t27.5 40t17.5 40t12.5 40l53 228h223l-123 -530h-224l17 72q-40 -31 -62.5 -46t-63 -27.5t-89.5 -12.5q-93 0 -140 41q-28 23 -43.5 61t-15.5 77q0 21 6 61zM602 611h-181l-180 121h276z
" />
    <glyph glyph-name="uacute" unicode="&#xfa;" horiz-adv-x="792" 
d="M42 226l69 304h226l-56 -246q-21 -90 4 -116q22 -24 66 -24q31 0 56 12t39.5 26t27.5 40t17.5 40t12.5 40l53 228h223l-123 -530h-224l17 72q-40 -31 -62.5 -46t-63 -27.5t-89.5 -12.5q-93 0 -140 41q-28 23 -43.5 61t-15.5 77q0 21 6 61zM508 610h-180l85 122h273z" />
    <glyph glyph-name="ucircumflex" unicode="&#xfb;" horiz-adv-x="792" 
d="M42 226l69 304h226l-56 -246q-21 -90 4 -116q22 -24 66 -24q31 0 56 12t39.5 26t27.5 40t17.5 40t12.5 40l53 228h223l-123 -530h-224l17 72q-40 -31 -62.5 -46t-63 -27.5t-89.5 -12.5q-93 0 -140 41q-28 23 -43.5 61t-15.5 77q0 21 6 61zM223 611l118 121h305l53 -121
h-186l-35 70l-68 -70h-187z" />
    <glyph glyph-name="udieresis" unicode="&#xfc;" horiz-adv-x="792" 
d="M42 226l69 304h226l-56 -246q-21 -90 4 -116q22 -24 66 -24q31 0 56 12t39.5 26t27.5 40t17.5 40t12.5 40l53 228h223l-123 -530h-224l17 72q-40 -31 -62.5 -46t-63 -27.5t-89.5 -12.5q-93 0 -140 41q-28 23 -43.5 61t-15.5 77q0 21 6 61zM184 610l28 121h206l-28 -121
h-206zM527 610l28 122h205l-27 -121z" />
    <glyph glyph-name="yacute" unicode="&#xfd;" horiz-adv-x="688" 
d="M125 24l-68 507h231l10 -385l193 385h244l-287 -453q-34 -56 -51.5 -83t-45 -63.5t-49.5 -53t-54 -33.5t-68.5 -23t-84.5 -6q-49 0 -147 10l38 160q43 -4 109 -4q39 5 30 42zM456 610h-180l85 122h273z" />
    <glyph glyph-name="thorn" unicode="&#xfe;" horiz-adv-x="833" 
d="M383 707l-51 -223q82 61 193 61q126 0 194 -71.5t68 -169.5q0 -46 -16.5 -96.5t-42.5 -87.5q-46 -67 -121.5 -101t-159.5 -34q-134 0 -212 76l-57 -243h-231l206 889h230zM434 387q-44 0 -76.5 -14.5t-48.5 -38t-23 -45t-7 -41.5q0 -49 32 -76.5t88 -27.5q75 0 111 45.5
t36 93.5q0 45 -27.5 74t-84.5 30z" />
    <glyph glyph-name="ydieresis" unicode="&#xff;" horiz-adv-x="688" 
d="M125 24l-68 507h231l10 -385l193 385h244l-287 -453q-34 -56 -51.5 -83t-45 -63.5t-49.5 -53t-54 -33.5t-68.5 -23t-84.5 -6q-49 0 -147 10l38 160q43 -4 109 -4q39 5 30 42zM133 610l28 121h206l-28 -121h-206zM476 610l28 122h205l-27 -121z" />
    <glyph glyph-name="dotlessi" unicode="&#x131;" horiz-adv-x="354" 
d="M-11 0l122 531h231l-122 -531h-231z" />
    <glyph glyph-name="Lslash" unicode="&#x141;" horiz-adv-x="708" 
d="M414 706l-68 -293l311 107l-26 -109l-310 -107l-33 -142h364l-37 -162h-617l48 209l-71 -25l25 110l72 25l89 387h253z" />
    <glyph glyph-name="lslash" unicode="&#x142;" horiz-adv-x="354" 
d="M383 706l-57 -245l58 22l-23 -103l-59 -22l-82 -358h-232l60 262l-57 -21l24 101l57 22l79 342h232z" />
    <glyph glyph-name="OE" unicode="&#x152;" horiz-adv-x="1125" 
d="M510 0l4 14q-65 -26 -129 -26q-145 0 -238 89t-93 243q0 131 72.5 228.5t181.5 142.5q90 36 206 36q42 0 74 -5.5t46.5 -11t36.5 -16.5l3 12h452l-36 -157h-218l-27 -120h223l-35 -155h-224l-28 -117h286l-37 -157h-520zM549 167l86 372q-52 25 -105 25q-66 0 -115.5 -23
t-74.5 -53.5t-40.5 -69.5t-19 -62.5t-3.5 -40.5v-3q2 -166 175 -166q50 0 97 21z" />
    <glyph glyph-name="oe" unicode="&#x153;" horiz-adv-x="1125" 
d="M1068 223h-417q1 -17 2 -25t5 -20.5t13 -22t23 -17.5q30 -17 75 -17q26 0 46.5 6t31 13t26.5 20l191 -13q-7 -12 -21 -34q-40 -56 -121.5 -91.5t-181.5 -35.5q-71 0 -127 19q-49 17 -88 60q-90 -80 -223 -80q-52 0 -99.5 13.5t-88 41.5t-65 78t-24.5 116q0 49 18.5 99.5
t57.5 100t112 81t169 31.5q69 0 124 -18q20 -7 35 -16t22 -15t21 -20q27 19 46.5 30.5t66.5 25t103 13.5q140 0 212 -69q65 -65 65 -172q0 -28 -9 -82zM672 327h235q-3 18 -5 27t-11 23t-24 24q-25 18 -68 18q-32 0 -59 -12q-48 -22 -68 -80zM372 416q-64 1 -99.5 -54.5
t-35.5 -121.5q0 -50 23 -80.5t67 -30.5q61 0 95 57.5t34 130.5q0 46 -21 72.5t-63 26.5z" />
    <glyph glyph-name="Scaron" unicode="&#x160;" horiz-adv-x="812" 
d="M14 216l229 10q0 -42 31 -66q39 -29 120 -27q57 2 88 20.5t31 52.5q0 27 -22 39.5t-76 28.5q-12 3 -19 5l-125 37q-38 12 -60.5 21t-54 34t-45.5 58q-14 32 -14 68q0 64 35 113.5t96 77.5q91 42 251 42q118 0 194 -30q44 -17 71.5 -40t38.5 -50.5t13.5 -44.5t2.5 -43
l-227 -18q4 33 -29 51.5t-95 18.5q-54 0 -82 -16.5t-28 -38.5q0 -37 87 -63l149 -42q89 -29 117 -48q30 -20 47 -50q22 -40 22 -87q0 -31 -10.5 -64t-46 -75t-92.5 -69q-92 -44 -241 -44q-116 0 -190 25t-108 56q-26 24 -39.5 54.5t-16 51t-2.5 52.5zM354 777l-52 121h186
l34 -70l68 70h187l-118 -121h-305z" />
    <glyph glyph-name="scaron" unicode="&#x161;" horiz-adv-x="708" 
d="M363 194l-122 24q-37 8 -59 13.5t-52.5 20.5t-48.5 35q-31 36 -31 81q0 13 3.5 27.5t12.5 35t31 41t54 35.5q77 38 250 38q89 0 139 -15q103 -30 133 -91q10 -21 18 -71l-221 -8q0 59 -115 59q-24 0 -40.5 -4.5t-23.5 -12t-9.5 -13.5t-2.5 -12q0 -25 43 -33l112 -19
q56 -9 82 -15t56 -18.5t47 -31.5q33 -36 33 -90q0 -123 -166 -167q-75 -19 -188 -19q-130 0 -205.5 32.5t-98.5 79.5q-11 23 -19 69l239 9q2 -8 4 -14t8.5 -15t19.5 -15t33 -10q29 -5 61 -5q69 0 69 41q0 13 -9 21.5t-16.5 11t-20.5 5.5zM259 611l-53 121h187l34 -69l68 69
h188l-119 -121h-305z" />
    <glyph glyph-name="Ydieresis" unicode="&#x178;" 
d="M265 213l-174 493h263l79 -295l221 295h300l-438 -498l-47 -208h-254zM260 777l28 121h207l-29 -121h-206zM603 777l28 121h206l-28 -121h-206z" />
    <glyph glyph-name="Zcaron" unicode="&#x17d;" horiz-adv-x="833" 
d="M89 547l38 159h759l-37 -157l-532 -386h459l-37 -163h-781l37 162l523 385h-429zM354 777l-52 121h186l34 -70l68 70h187l-118 -121h-305z" />
    <glyph glyph-name="zcaron" unicode="&#x17e;" horiz-adv-x="750" 
d="M116 530h646l-33 -144l-395 -239h340l-34 -147h-674l32 138l384 245h-300zM280 611l-53 121h187l34 -69l68 69h188l-119 -121h-305z" />
    <glyph glyph-name="florin" unicode="&#x192;" horiz-adv-x="437" 
d="M352 695h148l-29 -128q-24 4 -41 4q-21 0 -34.5 -4.5t-21.5 -17t-11.5 -22.5t-8.5 -34h100l-31 -135h-91l-83 -358q-20 -77 -30.5 -103.5t-33.5 -47.5q-47 -41 -155 -41h-157l29 127q36 -3 41 -3q21 0 34.5 4.5t21.5 15.5t11 20t8 28l82 357h-80l31 136h80l18 71
q8 27 13.5 42t24 36t45.5 34q42 19 120 19z" />
    <glyph glyph-name="circumflex" unicode="&#x2c6;" horiz-adv-x="375" 
d="M-50 611l118 121h305l53 -121h-186l-35 70l-68 -70h-187z" />
    <glyph glyph-name="caron" unicode="&#x2c7;" horiz-adv-x="375" 
d="M2 611l-53 121h187l34 -69l68 69h188l-119 -121h-305z" />
    <glyph glyph-name="breve" unicode="&#x2d8;" horiz-adv-x="375" 
d="M238 733h186q-100 -122 -261 -122q-81 0 -133 28q-21 10 -36 23.5t-23.5 29t-11.5 22t-7 19.5h185q9 -35 46 -35q36 0 55 35z" />
    <glyph glyph-name="dotaccent" unicode="&#x2d9;" horiz-adv-x="375" 
d="M70 610l28 121h206l-28 -121h-206z" />
    <glyph glyph-name="ring" unicode="&#x2da;" horiz-adv-x="375" 
d="M190 781q45 1 75.5 -9t42.5 -27t16.5 -29.5t4.5 -25.5q0 -45 -37 -78.5t-119 -33.5q-13 0 -24 1t-31.5 6t-35 13.5t-26 27t-11.5 43.5t9 45q29 64 136 67zM184 710q-51 -4 -51 -35q0 -30 51 -30q58 0 58 36q0 32 -58 29z" />
    <glyph glyph-name="ogonek" unicode="&#x2db;" horiz-adv-x="375" 
d="M173 0h77q-1 -1 -3.5 -2t-3.5 -2q-70 -40 -70 -97q0 -30 19.5 -43.5t41.5 -13.5q27 0 57 22l21 -44q-53 -41 -121 -41q-54 0 -91.5 25.5t-37.5 75.5q0 73 79 107q5 2 16.5 6.5t15.5 6.5z" />
    <glyph glyph-name="tilde" unicode="&#x2dc;" horiz-adv-x="375" 
d="M11 605h-88q16 32 26.5 48t30.5 37t48 30t67 9q25 0 52 -3.5t64 -11t51 -9.5q38 -5 45 -5q41 0 61 30h85q-10 -27 -18 -42t-26.5 -38t-49.5 -34.5t-74 -11.5q-36 0 -154 19q-45 6 -60 6q-38 0 -60 -24z" />
    <glyph glyph-name="hungarumlaut" unicode="&#x2dd;" horiz-adv-x="375" 
d="M39 610h-180l85 122h273zM339 610h-179l84 122h273z" />
    <glyph glyph-name="endash" unicode="&#x2013;" 
d="M27 225l40 170h762l-39 -170h-763z" />
    <glyph glyph-name="emdash" unicode="&#x2014;" horiz-adv-x="958" 
d="M27 225l40 170h866l-39 -170h-867z" />
    <glyph glyph-name="quoteleft" unicode="&#x2018;" horiz-adv-x="333" 
d="M287 341h-230l45 188q25 89 68 127q60 52 168 52q18 0 34 -1l-19 -82q-54 -4 -79 -26t-38 -75h94z" />
    <glyph glyph-name="quoteright" unicode="&#x2019;" horiz-adv-x="333" 
d="M141 706h230l-45 -187q-25 -90 -68 -128q-60 -52 -168 -52q-18 0 -34 1l19 82q54 4 79 26t38 75h-94z" />
    <glyph glyph-name="quotesinglbase" unicode="&#x201a;" horiz-adv-x="333" 
d="M20 183h230l-44 -187q-9 -30 -14 -45t-20 -40.5t-35 -42.5q-60 -52 -167 -52q-5 0 -15 0.5t-19 0.5l18 82q54 4 80 26q25 23 38 75h-94z" />
    <glyph glyph-name="quotedblleft" unicode="&#x201c;" horiz-adv-x="646" 
d="M599 341h-230l44 187q9 30 14 45t20 40.5t35 42.5q60 52 167 52q5 0 15 -0.5t19 -0.5l-18 -82q-54 -4 -80 -26q-25 -22 -38 -75h94zM288 341h-230l44 187q9 30 14 45t20 40.5t35 42.5q60 52 167 52q5 0 15 -0.5t19 -0.5l-19 -82q-53 -4 -79 -26q-25 -22 -38 -75h94z" />
    <glyph glyph-name="quotedblright" unicode="&#x201d;" horiz-adv-x="646" 
d="M143 706h230l-44 -187q-9 -30 -14 -45t-20 -40.5t-35 -42.5q-60 -52 -167 -52q-18 0 -34 1l18 82q54 4 80 26q25 22 38 75h-94zM455 706h229l-44 -187q-9 -30 -14 -45t-20 -40.5t-35 -42.5q-60 -52 -167 -52q-18 0 -34 1l19 82q53 4 79 26q25 22 38 75h-94z" />
    <glyph glyph-name="quotedblbase" unicode="&#x201e;" horiz-adv-x="646" 
d="M20 183h230l-44 -187q-9 -30 -14 -45t-20 -40.5t-35 -42.5q-60 -52 -167 -52q-5 0 -15 0.5t-19 0.5l18 82q54 4 80 26q25 22 38 75h-94zM331 183h230l-44 -187q-9 -30 -14 -45t-20 -40.5t-35 -42.5q-60 -52 -167 -52q-5 0 -15 0.5t-19 0.5l19 82q53 4 79 26q25 22 38 75
h-94z" />
    <glyph glyph-name="dagger" unicode="&#x2020;" horiz-adv-x="667" 
d="M261 529l41 177h246l-42 -177h190l-35 -154h-190l-112 -485h-245l111 485h-191l36 154h191z" />
    <glyph glyph-name="daggerdbl" unicode="&#x2021;" horiz-adv-x="667" 
d="M261 529l41 177h246l-42 -177h190l-35 -154h-190l-33 -140h190l-35 -154h-190l-44 -190h-245l43 190h-191l36 154h191l32 140h-191l36 154h191z" />
    <glyph glyph-name="bullet" unicode="&#x2022;" horiz-adv-x="333" 
d="M329 352q-1 -66 -43 -110.5t-109 -44.5q-71 0 -114.5 47.5t-43.5 107.5q0 63 45.5 109.5t111.5 46.5q62 0 107.5 -42.5t45.5 -113.5z" />
    <glyph glyph-name="ellipsis" unicode="&#x2026;" horiz-adv-x="1000" 
d="M-7 0l42 184h230l-42 -184h-230zM321 0l42 184h230l-42 -184h-230zM650 0l42 184h230l-42 -184h-230z" />
    <glyph glyph-name="perthousand" unicode="&#x2030;" horiz-adv-x="1813" 
d="M348 0l447 681h120l-447 -681h-120zM331 691q101 3 169.5 -48.5t68.5 -152.5q0 -47 -16 -91t-48 -83t-88 -63t-129 -24q-81 0 -136 31q-90 51 -90 169q0 106 72.5 182t196.5 80zM333 592q-60 -2 -91 -58.5t-31 -119.5q0 -46 23.5 -68.5t58.5 -22.5t61.5 19t39.5 48.5
t19 56.5t6 50q0 48 -23.5 72.5t-62.5 22.5zM962 453h-1q102 3 170.5 -48.5t68.5 -152.5q0 -46 -16 -90.5t-47.5 -83.5t-88 -63t-129.5 -24q-81 0 -136 31q-90 51 -90 169q0 106 72.5 182t196.5 80zM964 354q-60 -2 -91 -58.5t-31 -119.5q0 -46 23.5 -68.5t58.5 -22.5
t61.5 19t39.5 48.5t19 56.5t6 50q0 47 -23 72t-63 23zM1525 453q101 3 169.5 -48.5t68.5 -152.5q0 -46 -16 -90.5t-47.5 -83.5t-88 -63t-129.5 -24q-81 0 -136 31q-90 51 -90 169q0 106 72.5 182t196.5 80zM1527 354q-60 -2 -91 -58.5t-31 -119.5q0 -46 23.5 -68.5
t58.5 -22.5t61.5 19t39.5 48.5t19 56.5t6 50q0 47 -23 72t-63 23z" />
    <glyph glyph-name="guilsinglleft" unicode="&#x2039;" horiz-adv-x="292" 
d="M68 429l235 121l-45 -192l-114 -59l85 -69l-41 -172l-172 140z" />
    <glyph glyph-name="guilsinglright" unicode="&#x203a;" horiz-adv-x="292" 
d="M62 380l40 171l173 -140l-53 -230l-234 -123l44 193l115 60z" />
    <glyph glyph-name="fraction" unicode="&#x2044;" horiz-adv-x="125" 
d="M-199 0l464 706h94l-464 -706h-94z" />
    <glyph glyph-name="fraction" unicode="&#x2215;" horiz-adv-x="125" 
d="M-199 0l464 706h94l-464 -706h-94z" />
    <glyph glyph-name="Euro" unicode="&#x20ac;" 
d="M851 646l-35 -154q-57 51 -205 51q-179 0 -246 -102h379l-65 -85h-347q-4 -9 -6 -21q-5 -20 -4 -30h319l-64 -85h-254q21 -81 195 -81q65 0 130 16.5t99 39.5l-37 -163q-92 -46 -235 -46q-187 0 -273.5 59.5t-91.5 174.5h-112l63 85h57q2 15 5 26q3 14 7 25h-102l65 85
h66q29 55 67 97.5t94 80t137 58t182 20.5q77 0 133 -16t79 -35z" />
    <glyph glyph-name="trademark" unicode="&#x2122;" horiz-adv-x="688" 
d="M721 706v-332h-82q1 46 2 93.5t1.5 67t1.5 39.5t2 28.5t3 16.5q-10 -40 -14 -54l-56 -191h-75l-59 192q-10 35 -14 51q2 -10 3.5 -22t2.5 -33.5t1.5 -42.5t1.5 -63.5t2 -81.5h-81v332h106l76 -240l71 240h107zM233 639v-265h-84v265h-102v67h287v-67h-101z" />
    <glyph glyph-name="minus" unicode="&#x2212;" horiz-adv-x="667" 
d="M689 354v-127h-667v127h667z" />
    <glyph glyph-name="fi" unicode="&#xfb01;" horiz-adv-x="792" 
d="M361 706h148l-29 -127q-42 3 -45 3q-27 0 -42 -11.5t-19.5 -24t-10.5 -42.5h100l-32 -135h-91l-85 -369h-231l85 368h-80l31 136h80l17 71q6 21 10 31.5t13.5 28t24.5 30t36 22.5q41 19 120 19zM561 583l29 123h231l-29 -123h-231zM427 0l122 530h231l-122 -530h-231z
" />
    <glyph glyph-name="fl" unicode="&#xfb02;" horiz-adv-x="792" 
d="M361 706h148l-29 -128q-28 4 -45 4q-27 0 -42 -11.5t-19.5 -24t-10.5 -42.5h100l-32 -135h-91l-85 -369h-231l85 368h-80l31 136h80l17 71q6 21 10 31.5t13.5 28t24.5 30t36 22.5q41 19 120 19zM425 0l163 706h232l-162 -706h-233z" />
    </font>
</defs>
</svg>
