<?xml version="1.0" standalone="no"?>
<!DOCTYPE svg PUBLIC "-//W3C//DTD SVG 1.1//EN" "http://www.w3.org/Graphics/SVG/1.1/DTD/svg11.dtd" >
<svg>
<metadata>
Created by FontForge 20120731 at Wed Jun 24 20:38:12 2015
 By ,,,
Copyright (c) 1991, 1998 Adobe Systems Incorporated.  All Rights Reserved.Berthold Akzidenz-Grotesk is either a registered trademark or trademark of Berthold Types Limited in the United States and/or other countries.
</metadata>
<defs>
<font id="AkzidenzGroteskBE-XBdCnIt" horiz-adv-x="500" >
  <font-face 
    font-family="Akzidenz Grotesk BE XBdCn"
    font-weight="800"
    font-style="italic"
    font-stretch="condensed"
    units-per-em="1000"
    panose-1="2 11 9 6 0 0 0 0 0 0"
    ascent="750"
    descent="-250"
    x-height="535"
    cap-height="706"
    bbox="-101 -250 1142 896"
    underline-thickness="50"
    underline-position="-50"
    slope="-13"
    unicode-range="U+0020-FB02"
  />
<missing-glyph horiz-adv-x="250" 
 />
    <glyph glyph-name=".notdef" horiz-adv-x="250" 
 />
    <glyph glyph-name=".null" horiz-adv-x="0" 
 />
    <glyph glyph-name="nonmarkingreturn" horiz-adv-x="333" 
 />
    <glyph glyph-name="space" unicode=" " horiz-adv-x="250" 
 />
    <glyph glyph-name="space" unicode="&#xa0;" horiz-adv-x="250" 
 />
    <glyph glyph-name="exclam" unicode="!" horiz-adv-x="292" 
d="M225 706h148l-30 -128l-109 -349h-91l49 340zM62 0l35 152h148l-35 -152h-148z" />
    <glyph glyph-name="quotedbl" unicode="&#x22;" horiz-adv-x="396" 
d="M441 669l-53 -261h-31l-55 250q-2 10 -2 24q0 32 23 49.5t52 17.5q26 0 47 -15.5t21 -48.5q0 -6 -2 -16zM232 669l-53 -261h-31l-55 250q-2 10 -2 24q0 32 23 49.5t52 17.5q26 0 47 -15.5t21 -48.5q0 -6 -2 -16z" />
    <glyph glyph-name="numbersign" unicode="#" horiz-adv-x="667" 
d="M532 186l-26 -186h-125l26 186h-99l-26 -186h-123l24 186h-94v123h112l13 96h-100v124h117l25 177h125l-26 -177h100l24 177h125l-24 -177h91v-124h-108l-13 -96h98v-123h-116zM325 309h99l14 96h-99z" />
    <glyph glyph-name="dollar" unicode="$" horiz-adv-x="521" 
d="M357 718l20 91h79l-22 -95q23 -4 36 -6.5t36 -12t35.5 -21.5t23 -35t10.5 -53q0 -32 -18 -104h-162q15 71 15 78q0 17 -11.5 27.5t-32.5 10.5q-26 0 -39 -13q-13 -12 -21 -40.5t-8 -47.5q0 -29 29 -52q4 -4 67 -53q74 -58 96.5 -84t22.5 -69q0 -35 -16 -91.5t-39 -87.5
q-22 -30 -59 -47t-63 -20.5t-69 -6.5l-25 -103h-79l25 107q-22 4 -35.5 7t-38 13.5t-39 24t-26 38t-11.5 56.5q0 37 20 115h171q-19 -74 -19 -92q0 -46 52 -46q40 0 55 31q19 34 19 82q0 19 -14 33t-71 57q-81 60 -101.5 85t-20.5 73q0 71 46 163q28 53 64.5 68.5
t117.5 19.5z" />
    <glyph glyph-name="percent" unicode="%" horiz-adv-x="792" 
d="M403 560l-37 -155q-9 -35 -13.5 -51.5t-16 -39.5t-25.5 -33.5t-38.5 -18.5t-57.5 -8q-128 0 -128 94q0 31 13 81l33 144q9 37 15.5 55.5t23.5 42.5t46.5 34t75.5 10q56 0 86.5 -24.5t30.5 -70.5q0 -22 -8 -60zM236 584l-43 -182q-8 -32 -8 -43q0 -25 32 -25
q19 0 27.5 8.5t14.5 32.5l46 199q7 33 7 38q0 25 -26 25t-34 -10t-16 -43zM234 0l348 706h79l-348 -706h-79zM801 295l-37 -154q-11 -44 -17.5 -63.5t-22.5 -44t-42.5 -34t-68.5 -9.5q-128 0 -128 94q0 31 13 81l33 143q9 37 15.5 55.5t23.5 42.5t46.5 34t75.5 10
q56 0 86.5 -24.5t30.5 -70.5q0 -20 -8 -60zM634 319l-43 -182q-8 -29 -8 -42q0 -25 32 -25q19 0 27.5 8.5t14.5 32.5l46 198q7 33 7 39q0 24 -26 24t-34 -10t-16 -43z" />
    <glyph glyph-name="ampersand" unicode="&#x26;" horiz-adv-x="667" 
d="M645 101l-32 -115q-6 0 -16 -0.5t-15 -0.5q-94 0 -155 52q-33 -15 -52 -23t-53.5 -16t-69.5 -8q-91 0 -149.5 46.5t-58.5 129.5q0 47 18 86.5t52.5 69t55 43t54.5 31.5q-14 70 -14 104q0 53 17 92.5t40 60t54.5 33t52.5 15.5t42 3q76 0 118 -36t42 -96q0 -32 -13 -61.5
t-29 -50t-44.5 -42t-46.5 -32t-47 -26.5q15 -50 73 -141q39 56 52 149h139q-12 -66 -34 -117.5t-38 -72t-41 -47.5q39 -32 98 -30zM363 462q78 46 78 107q0 17 -9 27.5t-22 10.5q-21 0 -37 -21.5t-16 -63.5q0 -20 6 -60zM264 282q-57 -51 -57 -105q0 -67 83 -67q28 0 61 13
q-52 75 -87 159z" />
    <glyph glyph-name="quotesingle" unicode="'" horiz-adv-x="208" 
d="M241 669l-53 -261h-31l-55 250q-2 10 -2 24q0 32 23 49.5t52 17.5q26 0 47 -15.5t21 -48.5q0 -6 -2 -16z" />
    <glyph glyph-name="parenleft" unicode="(" horiz-adv-x="354" 
d="M77 84l107 466q10 43 26.5 72.5t34.5 46t45.5 25.5t51 11t59.5 2q21 0 73 -2l-14 -62q-65 2 -88.5 -13.5t-36.5 -72.5l-138 -593q-8 -38 -8 -57q0 -22 16 -33t33.5 -12t48.5 0l-15 -64q-32 0 -49.5 0.5t-47.5 4t-47.5 12.5t-36.5 24.5t-27.5 41.5t-8.5 61q0 42 22 142z
" />
    <glyph glyph-name="parenright" unicode=")" horiz-adv-x="354" 
d="M339 421l-107 -466q-10 -43 -26.5 -72.5t-34.5 -46t-45.5 -25.5t-51 -11t-59.5 -2q-21 0 -73 2l14 62q65 -2 88.5 13.5t36.5 72.5l138 593q8 38 8 57q0 22 -16 33t-33.5 12t-48.5 0l15 64q32 0 49.5 -0.5t47.5 -4t47.5 -12.5t36.5 -24.5t27.5 -41.5t8.5 -61
q0 -42 -22 -142z" />
    <glyph glyph-name="asterisk" unicode="*" horiz-adv-x="437" 
d="M279 612l57 105h12l40 -118l118 -22q0 -6 2 -12l-107 -65l17 -123q-1 -1 -5 -3t-5 -3l-100 79l-111 -54q-5 4 -9 6l45 118l-83 92q0 1 1 3.5t2 3.5z" />
    <glyph glyph-name="plus" unicode="+" horiz-adv-x="667" 
d="M435 228v-228h-127v228h-229v127h229v228h127v-228h227v-127h-227z" />
    <glyph glyph-name="comma" unicode="," horiz-adv-x="250" 
d="M24 0l35 153h150l-36 -153l-121 -154h-64l91 154h-55z" />
    <glyph glyph-name="hyphen" unicode="-" horiz-adv-x="333" 
d="M70 295l26 115h270l-26 -115h-270z" />
    <glyph glyph-name="hyphen" unicode="&#xad;" horiz-adv-x="333" 
d="M70 295l26 115h270l-26 -115h-270z" />
    <glyph glyph-name="period" unicode="." horiz-adv-x="250" 
d="M22 0l35 153h149l-35 -153h-149z" />
    <glyph glyph-name="slash" unicode="/" horiz-adv-x="292" 
d="M7 0l263 706h119l-266 -706h-116z" />
    <glyph glyph-name="zero" unicode="0" horiz-adv-x="521" 
d="M85 276l58 251q25 107 70 144q58 48 164 48q36 0 67 -7t59 -22.5t44.5 -46t16.5 -73.5q0 -45 -17 -116l-55 -241q-9 -40 -15 -60.5t-18 -52t-27 -47.5t-38.5 -33.5t-57 -24.5t-77.5 -7q-97 0 -149 40q-47 37 -47 106q0 47 22 142zM332 192l77 335q4 13 4 30q0 44 -49 44
q-24 0 -38.5 -12.5t-19.5 -26.5t-11 -42l-75 -326q-6 -21 -6 -40q0 -45 50 -45q31 0 45 21t23 62z" />
    <glyph glyph-name="one" unicode="1" horiz-adv-x="521" 
d="M194 470l33 144q68 10 98.5 32t51.5 60h131l-163 -706h-154l120 518q-47 -29 -117 -48z" />
    <glyph glyph-name="two" unicode="2" horiz-adv-x="521" 
d="M273 448h-159q2 9 15 60.5t15 57.5q7 25 12.5 39.5t22 39t38 38.5t61.5 25t92 11q81 0 131 -26q67 -36 67 -119q0 -49 -27 -143q-12 -37 -29 -62.5t-30 -36.5t-38 -28q-11 -8 -76 -49.5t-76 -49.5q-35 -25 -47 -40.5t-20 -37.5h268l-29 -127h-446q12 65 24.5 106t27 72.5
t44 59t59.5 50t90 60.5q93 59 109 81q13 17 23.5 58.5t10.5 65.5q0 48 -48 48q-35 0 -48.5 -26t-36.5 -127z" />
    <glyph glyph-name="three" unicode="3" horiz-adv-x="521" 
d="M284 488h-155q21 93 36 130.5t46 60.5q54 41 158 41q35 0 67 -7t60.5 -21.5t45.5 -42t17 -64.5q0 -61 -26 -134q-9 -26 -22 -43t-29.5 -24.5t-27.5 -9.5t-28 -4q14 -2 23 -5t23.5 -11t22.5 -25t8 -41q0 -12 -6 -51.5t-25 -99.5t-45 -89q-51 -60 -180 -60q-77 0 -126 27
q-66 37 -66 120q0 33 16 103h155q-17 -66 -17 -94q0 -19 11 -30t20 -13t17 -2q46 0 61 46q6 18 15.5 63t9.5 62q0 23 -14.5 31t-52.5 8h-50l28 119h57q19 0 29 1t23 7.5t20 20.5q6 13 14.5 50t8.5 56q0 17 -7 26q-12 16 -38 16q-37 0 -50 -23.5t-27 -93.5z" />
    <glyph glyph-name="four" unicode="4" horiz-adv-x="521" 
d="M51 269l310 438h207l-102 -442h66l-26 -113h-66l-35 -152h-155l36 152h-262zM313 269l42 177q17 68 37 138q-10 -25 -91 -142l-119 -173h131z" />
    <glyph glyph-name="five" unicode="5" horiz-adv-x="521" 
d="M110 326l98 381h381l-28 -122h-234l-44 -154q48 51 114 51q60 0 92 -34.5t32 -95.5q0 -47 -17 -123.5t-38 -122.5q-51 -118 -211 -118q-93 0 -146 41q-46 33 -46 106q0 28 13 93h156q-13 -48 -13 -71q0 -22 13.5 -35t35.5 -13q18 0 29.5 6t19.5 21.5t12 29t11 42.5
q23 95 23 121q0 18 -5 25q-10 24 -43 24q-44 0 -56 -52h-149z" />
    <glyph glyph-name="six" unicode="6" horiz-adv-x="521" 
d="M87 262l55 239q10 42 18 67t25.5 57.5t41 50t63 30t91.5 12.5q46 0 85.5 -10.5t71 -42t31.5 -80.5q0 -25 -13 -84h-149q12 45 12 56q0 21 -14 31t-33 10q-20 0 -33.5 -10.5t-18 -19.5t-9.5 -25q0 -2 -40 -148q47 47 113 47q13 0 26 -2t32.5 -9.5t34 -20t25 -36.5
t10.5 -57q0 -40 -18 -110.5t-30 -100.5q-7 -17 -13 -28t-22.5 -29.5t-36 -30t-54.5 -20.5t-78 -9q-71 0 -117 23q-75 38 -75 128q0 40 19 122zM307 335q-18 0 -31.5 -10t-19 -21t-11.5 -28t-16 -60.5t-10 -61.5q0 -46 48 -46q27 0 39 12t20 34q7 20 19.5 71t12.5 69
q0 41 -51 41z" />
    <glyph glyph-name="seven" unicode="7" horiz-adv-x="521" 
d="M116 491l50 215h445l-28 -121q-102 -141 -165 -262q-75 -147 -122 -323h-179q53 152 116.5 272.5t207.5 314.5l-164 -2l-22 -94h-139z" />
    <glyph glyph-name="eight" unicode="8" horiz-adv-x="521" 
d="M444 375q1 0 4 -1.5t7 -3t7 -3.5q42 -24 42 -87q0 -29 -15.5 -92t-28.5 -93q-50 -107 -191 -107q-28 0 -53 3t-54.5 13t-50 27t-34.5 46.5t-14 68.5q0 34 10.5 78.5t16.5 60.5q11 32 24 53.5t30 32.5t28.5 15.5t32.5 9.5q-61 21 -61 92q0 34 16.5 89t44.5 85
q52 56 164 56q85 0 136 -34q58 -39 58 -114q0 -16 -3.5 -38.5t-12.5 -56.5t-31 -61t-53 -35q-12 -4 -19 -4zM361 599q-17 0 -29 -8t-16.5 -16.5t-10.5 -24.5q-17 -56 -17 -83q0 -22 15 -34t39 -12q30 0 46 24q10 15 18 54t8 57q0 43 -53 43zM295 322q-19 0 -31.5 -10.5
t-16.5 -20t-8 -25.5q-25 -89 -25 -115q0 -19 8 -29q13 -19 42 -19q16 0 27.5 5.5t18.5 16t9.5 16t5.5 15.5q25 96 25 124q0 42 -55 42z" />
    <glyph glyph-name="nine" unicode="9" horiz-adv-x="521" 
d="M553 492l-65 -279q-20 -89 -40.5 -126.5t-52.5 -58.5q-58 -40 -144 -40q-30 0 -59.5 5.5t-60.5 19t-50.5 41.5t-19.5 66q0 24 12 86h150q-6 -19 -8.5 -31.5t-3 -30t11 -26.5t33.5 -9q29 0 42.5 15.5t22.5 49.5q4 11 20 74t17 65q-42 -48 -112 -48q-15 0 -32 3.5
t-41.5 14.5t-40 38t-15.5 67q0 28 12 86q12 53 20 81.5t26 65t41 54.5t62 31t92 13q73 0 123 -28q69 -35 69 -122q0 -35 -9 -77zM359 599q-20 0 -33.5 -11t-18 -21.5t-8.5 -26.5q-8 -23 -18 -66.5t-10 -58.5q0 -44 48 -44q42 0 60 46q10 26 21 73t11 61q0 48 -52 48z" />
    <glyph glyph-name="colon" unicode=":" horiz-adv-x="292" 
d="M62 0l35 153h149l-35 -153h-149zM152 389l35 153h150l-35 -153h-150z" />
    <glyph glyph-name="semicolon" unicode=";" horiz-adv-x="292" 
d="M155 389l35 153h151l-36 -153h-150zM65 0l35 153h151l-35 -153l-121 -155h-65l91 155h-56z" />
    <glyph glyph-name="less" unicode="&#x3c;" horiz-adv-x="667" 
d="M704 136v-139l-667 292v124l667 296v-139l-489 -219z" />
    <glyph glyph-name="equal" unicode="=" horiz-adv-x="667" 
d="M706 251v-127h-667v127h667zM706 459v-127h-667v127h667z" />
    <glyph glyph-name="greater" unicode="&#x3e;" horiz-adv-x="667" 
d="M731 289l-667 -292v139l489 215l-489 219v139l667 -296v-124z" />
    <glyph glyph-name="question" unicode="?" horiz-adv-x="458" 
d="M289 506h-146q22 92 32 120t31 49q47 45 160 45q176 0 176 -127q0 -45 -22 -107q-11 -29 -29 -46.5t-72 -54.5q-74 -51 -89 -70.5t-27 -83.5h-150q20 90 31 115.5t41 50.5q5 4 67 45.5t72 53.5q29 32 29 82q0 37 -37 37q-30 0 -40.5 -18.5t-26.5 -90.5zM100 0l35 153h150
l-36 -153h-149z" />
    <glyph glyph-name="at" unicode="@" horiz-adv-x="896" 
d="M816 101l47 -62q-34 -32 -64 -55t-77.5 -50.5t-106 -42.5t-123.5 -15q-48 0 -98 10.5t-102.5 37t-93 65.5t-66.5 103t-26 143q0 130 60.5 239.5t166.5 173.5t233 64q137 0 217.5 -81.5t80.5 -209.5q0 -138 -72.5 -246.5t-165.5 -108.5q-76 0 -90 69q-55 -68 -126 -68
q-61 0 -100 44.5t-39 122.5q0 112 63 201t154 89q31 0 55 -12.5t31.5 -21.5t19.5 -26l9 39h91l-34 -159q-27 -135 -27 -163q0 -30 19 -30q38 0 83 83.5t45 182.5q0 57 -19.5 100.5t-52.5 68t-71 36t-80 11.5q-71 0 -138.5 -31.5t-118.5 -84t-82 -126.5t-31 -154
q0 -78 29.5 -136t77 -88t97 -44t100.5 -14q174 0 325 146zM561 350q0 35 -18 59.5t-50 24.5q-51 0 -84.5 -62.5t-33.5 -129.5q0 -24 6.5 -41.5t14 -26t18.5 -13t15.5 -5t8.5 -0.5q46 0 84.5 60t38.5 134z" />
    <glyph glyph-name="A" unicode="A" horiz-adv-x="542" 
d="M-13 0l303 706h275l-51 -706h-168l15 157h-131l-60 -157h-183zM372 278l32 363l-128 -363h96z" />
    <glyph glyph-name="B" unicode="B" horiz-adv-x="542" 
d="M21 0l162 706h203q34 0 51.5 -0.5t47.5 -3.5t47 -10.5t35.5 -19.5t26.5 -32t8 -48q0 -57 -23 -126q-14 -42 -40 -60.5t-84 -27.5q17 -4 27.5 -8.5t26.5 -14t24.5 -26.5t8.5 -41q0 -26 -17.5 -101t-31.5 -107q-20 -44 -62 -62t-110 -18h-300zM383 579h-57l-36 -154h61
q33 0 50.5 10.5t25.5 43.5l11 47q2 12 2 18q0 16 -9.5 24.5t-19 9.5t-28.5 1zM329 305h-67l-41 -181h74q34 0 46 15t20 50l14 60q3 9 3 22q0 34 -49 34z" />
    <glyph glyph-name="C" unicode="C" horiz-adv-x="521" 
d="M584 525l-21 -87h-164l19 83q3 11 3 23q0 45 -53 45q-28 0 -38.5 -10.5t-18.5 -31.5l-84 -362q-6 -24 -6 -37q0 -39 49 -39q44 0 60 44q13 37 29 113h175l-25 -102q-24 -100 -74 -139t-174 -39q-76 0 -121 18q-36 14 -63.5 43.5t-27.5 78.5q0 33 16 99l68 297
q26 116 79 155q55 41 170 41q83 0 132 -21q76 -34 76 -122q0 -23 -6 -50z" />
    <glyph glyph-name="D" unicode="D" horiz-adv-x="542" 
d="M22 0l163 707h198q34 0 52.5 -0.5t46 -3t42.5 -7t33 -13t27 -21t15.5 -31.5t6.5 -44q0 -29 -8 -67l-80 -348q-23 -102 -59 -137t-136 -35h-301zM382 586h-54l-108 -468q61 0 75 2q11 2 19 4.5t20 18.5t18 43l78 343q2 12 2 18q0 23 -12.5 31t-37.5 8z" />
    <glyph glyph-name="E" unicode="E" horiz-adv-x="437" 
d="M20 0l163 706h355l-28 -122h-183l-37 -160h174l-27 -120h-175l-41 -180h200l-28 -124h-373z" />
    <glyph glyph-name="F" unicode="F" horiz-adv-x="417" 
d="M185 706h354l-27 -120h-185l-37 -161h178l-28 -121h-178l-70 -304h-170z" />
    <glyph glyph-name="G" unicode="G" horiz-adv-x="542" 
d="M577 531l-17 -74h-164l17 72q2 12 2 19q0 42 -45 42q-55 0 -72 -74l-75 -324q-4 -22 -4 -33q0 -17 7 -28q13 -20 45 -20q17 0 29.5 6.5t20 18.5t10.5 19.5t6 20.5q3 11 10 37.5t10 39.5h-69l26 114h231l-84 -367h-163l12 51q1 3 2.5 9t1.5 8q-19 -26 -33.5 -40.5
t-44.5 -27t-69 -12.5q-57 0 -90.5 32t-33.5 93q0 45 26 157q7 29 26.5 110t30.5 126q8 33 12.5 50t14.5 43.5t20.5 40.5t28.5 32t41 26.5t55.5 15t72.5 6.5q71 0 120 -18q50 -19 72 -51t22 -65q0 -21 -8 -55z" />
    <glyph glyph-name="H" unicode="H" horiz-adv-x="562" 
d="M184 707h172l-66 -288h117l66 288h172l-164 -707h-171l69 297h-117l-69 -297h-172z" />
    <glyph glyph-name="I" unicode="I" horiz-adv-x="271" 
d="M21 0l163 706h171l-163 -706h-171z" />
    <glyph glyph-name="J" unicode="J" horiz-adv-x="375" 
d="M180 210l111 496h172l-119 -515q-8 -35 -14.5 -57.5t-18 -46.5t-26.5 -38t-37.5 -26.5t-53.5 -17.5t-72 -5h-105l29 127h48q41 0 58.5 19t27.5 64z" />
    <glyph glyph-name="K" unicode="K" horiz-adv-x="542" 
d="M281 394l198 312h182l-228 -327l87 -379h-175l-67 379l-87 -379h-170l163 706h170z" />
    <glyph glyph-name="L" unicode="L" horiz-adv-x="396" 
d="M185 706h171l-135 -586h181l-28 -120h-352z" />
    <glyph glyph-name="M" unicode="M" horiz-adv-x="771" 
d="M22 0l163 706h236l-7 -199q0 -8 -1.5 -61.5t-1.5 -63.5q-3 -61 -10 -174q0 1 19.5 46.5t30.5 71.5q32 77 46 109l120 271h235l-163 -706h-159l133 524l-235 -524h-143l5 524l-109 -524h-159z" />
    <glyph glyph-name="N" unicode="N" horiz-adv-x="562" 
d="M185 706h166q34 -262 51 -438q20 124 43 234q20 95 43 204h157l-164 -706h-164l-25 203q-17 138 -25 232l-86 -435h-159z" />
    <glyph glyph-name="O" unicode="O" horiz-adv-x="542" 
d="M68 232l65 273q7 30 12 48.5t15 44t21.5 40.5t30 32t41.5 26.5t56 15.5t74 6q106 0 159 -37q55 -39 55 -116q0 -46 -26 -155l-56 -238q-25 -105 -78 -146t-169 -41q-39 0 -73 6.5t-67 22.5t-52.5 49.5t-19.5 80.5q0 35 12 88zM323 548q-14 -48 -56 -212.5t-42 -181.5
q0 -41 52 -41q33 0 47 21.5t28 75.5q10 36 64 265q15 59 15 71q0 45 -49 45q-20 0 -33.5 -7.5t-17.5 -15t-8 -20.5z" />
    <glyph glyph-name="P" unicode="P" horiz-adv-x="521" 
d="M22 0l163 706h265q150 0 150 -112q0 -29 -7 -57l-23 -103q-20 -88 -57 -120t-125 -32h-130l-65 -282h-171zM389 584h-61l-41 -174h67q13 0 21.5 1.5t18.5 11t17 26.5q5 12 13.5 49t8.5 52q0 34 -44 34z" />
    <glyph glyph-name="Q" unicode="Q" horiz-adv-x="542" 
d="M575 437l-56 -242q-24 -105 -63.5 -150.5t-132.5 -54.5q-16 -50 -16 -63q0 -18 14.5 -24.5t44.5 -6.5q14 0 44 2l-31 -102q-119 0 -145 3q-81 10 -83 79q0 17 30 117q-24 7 -38 13.5t-37.5 22.5t-35.5 45.5t-12 70.5q0 33 10 77l62 276q7 33 11.5 49.5t14.5 44t21 42.5
t29.5 33.5t42.5 28t58 16t77 6.5q97 0 152 -34q59 -36 59 -117q0 -43 -20 -132zM349 200l74 317q5 27 5 33q0 44 -52 44q-16 0 -27 -5t-17.5 -16t-10 -20t-7.5 -27l-85 -339q-4 -20 -4 -29q0 -44 53 -44q18 0 30.5 6.5t20.5 21t11.5 25.5t8.5 33z" />
    <glyph glyph-name="R" unicode="R" horiz-adv-x="542" 
d="M21 0l163 706h206q33 0 50.5 -0.5t46.5 -3.5t44.5 -10.5t32.5 -19.5t24.5 -32.5t7.5 -48.5t-10 -74t-23 -73q-19 -40 -49.5 -57.5t-76.5 -24.5q94 -17 94 -82q0 -11 -7 -51l-22 -107q-13 -65 -13 -77q0 -30 31 -42v-6l-148 5q-51 2 -51 44q0 12 7 44l26 126q7 35 7 43
q0 38 -50 38h-49l-69 -297h-172zM328 584l-38 -162h47q23 1 32.5 2t21 9.5t19.5 25.5q7 14 14 49t7 45q0 27 -33 30q-10 1 -70 1z" />
    <glyph glyph-name="S" unicode="S" horiz-adv-x="521" 
d="M59 243h170q-19 -71 -19 -91q0 -46 51 -46q35 0 51 22q10 12 17 40t7 45t-8 29.5t-29 29.5q-1 1 -67 51q-65 48 -84 72.5t-19 70.5q0 40 20 101t43 91q13 17 25 27t51 21.5t96 11.5q102 0 157 -30t55 -102q0 -29 -18 -104h-162q15 63 15 76q0 40 -45 40q-35 0 -47 -24
q-9 -13 -15 -38.5t-6 -39.5q0 -23 11.5 -36t58.5 -48q96 -72 120.5 -102t24.5 -75q0 -19 -5 -42q-20 -110 -73.5 -157.5t-176.5 -47.5q-220 0 -220 138q0 33 21 117z" />
    <glyph glyph-name="T" unicode="T" horiz-adv-x="417" 
d="M101 584l29 122h418l-28 -122h-118l-135 -584h-172l135 584h-129z" />
    <glyph glyph-name="U" unicode="U" horiz-adv-x="542" 
d="M77 293l98 414h170l-116 -505q-6 -18 -6 -39q0 -42 52 -42q23 0 38 13.5t20.5 27.5t12.5 40l116 505h170l-117 -505q-9 -39 -17.5 -64.5t-27 -56.5t-43.5 -49t-67 -30.5t-98 -12.5q-94 0 -153 37t-57 118q1 48 25 149z" />
    <glyph glyph-name="V" unicode="V" 
d="M130 706h164l-18 -268q-9 -155 -30 -296q42 132 52 158l150 406h184l-296 -706h-238z" />
    <glyph glyph-name="W" unicode="W" horiz-adv-x="812" 
d="M250 252l183 454h206l-33 -541q26 111 47 176l120 365h171l-259 -706h-214q6 148 10 268q2 108 16 259q-34 -110 -106 -282l-103 -245h-219l63 706h168l-34 -243q-2 -10 -9.5 -65.5t-8.5 -64.5q-12 -90 -32 -178q19 57 34 97z" />
    <glyph glyph-name="X" unicode="X" 
d="M193 398l-63 308h169l29 -209l106 209h183l-206 -335l58 -371h-167l-27 266l-126 -266h-182z" />
    <glyph glyph-name="Y" unicode="Y" horiz-adv-x="521" 
d="M320 418l144 288h191l-293 -476l-53 -230h-170l57 244l-67 462h167z" />
    <glyph glyph-name="Z" unicode="Z" horiz-adv-x="479" 
d="M123 583l28 124h425l-30 -131l-352 -446h249l-30 -130h-439l30 130l356 453h-237z" />
    <glyph glyph-name="bracketleft" unicode="[" horiz-adv-x="354" 
d="M218 707h258l-15 -65h-109l-186 -784h108l-14 -62h-258z" />
    <glyph glyph-name="backslash" unicode="\" horiz-adv-x="292" 
d="M265 0h-118l-16 706h116z" />
    <glyph glyph-name="bracketright" unicode="]" horiz-adv-x="354" 
d="M145 707h258l-215 -911h-258l14 62h112l181 784h-107z" />
    <glyph glyph-name="asciicircum" unicode="^" horiz-adv-x="729" 
d="M468 706l194 -395h-138l-110 231l-116 -231h-137l203 395h104z" />
    <glyph glyph-name="underscore" unicode="_" 
d="M480 -75v-50h-520v50h520z" />
    <glyph glyph-name="grave" unicode="`" horiz-adv-x="250" 
d="M-16 730h168l95 -124h-122z" />
    <glyph glyph-name="a" unicode="a" horiz-adv-x="479" 
d="M495 369l-71 -308q0 -3 -1 -7.5t-1.5 -8.5t-0.5 -8q0 -22 15 -37h-182l14 56q-25 -22 -40.5 -33.5t-45 -24t-58.5 -12.5q-8 0 -16 0.5t-26 6t-30.5 14.5t-23 29t-10.5 47q0 30 16 84.5t38 80.5q23 27 69.5 44.5t198.5 61.5q12 50 12 63q0 30 -43 30q-31 0 -43 -16
t-25 -62h-152q18 74 33.5 102.5t50.5 46.5q55 28 144 28q187 0 187 -117q0 -24 -9 -60zM284 122l33 129q-82 -25 -101 -40q-17 -13 -25 -43t-8 -45q0 -33 35 -33q30 0 66 32z" />
    <glyph glyph-name="b" unicode="b" 
d="M179 706h162l-52 -227q15 20 27 32t38.5 25t58.5 13q47 0 79.5 -27.5t32.5 -84.5q0 -58 -46 -249q-8 -34 -13.5 -52.5t-20 -51t-31.5 -50.5t-47 -32.5t-68 -14.5q-76 0 -107 73l-14 -60h-162zM310 152l48 208q7 29 7 41q0 16 -10.5 28t-32.5 12q-42 0 -52 -42l-57 -245
q-2 -12 -2 -19q0 -19 11.5 -29.5t30.5 -10.5q45 0 57 57z" />
    <glyph glyph-name="c" unicode="c" horiz-adv-x="479" 
d="M315 186h161q-20 -92 -51 -132q-54 -68 -177 -68q-25 0 -51 4t-62.5 17t-59 44.5t-22.5 77.5q0 31 15 102.5t29.5 125t16.5 59.5q15 44 40 72.5t57.5 40.5t58.5 15.5t61 3.5q86 0 136 -36t50 -100q0 -31 -13 -76h-154q14 54 14 68q0 16 -10.5 26t-29.5 10
q-30 0 -43.5 -18t-21.5 -52l-50 -214q-2 -12 -2 -19q0 -18 6 -24q11 -18 37 -18q31 0 42.5 20.5t22.5 70.5z" />
    <glyph glyph-name="d" unicode="d" 
d="M382 480l52 226h161l-163 -706h-161l16 65q-17 -21 -29 -33t-40 -26.5t-60 -14.5q-11 0 -23 2t-29 8.5t-30 17.5t-22.5 32t-9.5 49q0 34 27.5 154t35.5 143q10 33 18.5 54.5t26 47t45.5 38t66 12.5q34 0 69.5 -16t49.5 -53zM309 166l48 207q4 18 4 26q0 43 -42 43
q-19 0 -32 -12.5t-17.5 -25t-8.5 -31.5l-46 -200q-7 -28 -7 -43q0 -39 41 -39q20 0 33.5 14.5t17.5 26.5t9 34z" />
    <glyph glyph-name="e" unicode="e" 
d="M317 173h163q-22 -88 -54 -123q-55 -64 -179 -64q-97 0 -149 41q-44 34 -44 103q0 48 26.5 160t41.5 148q46 111 206 111q189 0 189 -131q0 -27 -9 -68q-8 -39 -26 -120h-256q-18 -70 -18 -98q0 -8 3 -16q12 -20 44 -20q16 0 26.5 4.5t17.5 18t9.5 22t8.5 32.5zM248 328
h103q14 59 14 73q0 18 -8 27q-12 14 -38 14q-34 0 -46 -23.5t-25 -90.5z" />
    <glyph glyph-name="f" unicode="f" horiz-adv-x="313" 
d="M173 536l12 52q5 22 8.5 32.5t9.5 26.5t13.5 23.5t19.5 16.5t27.5 13t38 7t51.5 3q43 0 94 -3l-23 -98q-43 1 -56.5 -2.5t-20.5 -18.5q-4 -9 -14 -52h70l-23 -96h-70l-101 -440h-160l101 440h-64l22 96h65z" />
    <glyph glyph-name="g" unicode="g" 
d="M256 -76l33 141q-16 -20 -28.5 -33t-40.5 -27t-61 -14q-46 0 -76 26q-33 30 -33 92q0 81 57 273q24 81 60.5 123.5t104.5 42.5q51 0 80.5 -27.5t29.5 -49.5l16 65h161l-125 -542q-13 -54 -19.5 -77t-20 -52.5t-32.5 -48.5q-57 -58 -173 -58q-15 0 -29 1t-39.5 4.5
t-45.5 12.5t-40 22.5t-31 37.5t-11 55q0 22 9 54h159q-10 -40 -10 -51q0 -37 45 -37q12 0 19.5 2t20.5 18t20 47zM312 163l51 222q2 10 2 16q0 41 -43 41q-47 0 -62 -65l-44 -189q-7 -30 -7 -48q0 -43 40 -43q49 0 63 66z" />
    <glyph glyph-name="h" unicode="h" 
d="M182 706h159l-54 -231q58 70 131 70q46 0 78 -24.5t32 -76.5q0 -16 -6 -46l-92 -398h-158l87 377q3 12 3 24q0 21 -12 31.5t-30 10.5q-14 0 -24 -5t-15.5 -14t-8 -15t-4.5 -15l-90 -394h-159z" />
    <glyph glyph-name="i" unicode="i" horiz-adv-x="250" 
d="M182 706h158l-27 -120h-159zM19 0l123 536h159l-124 -536h-158z" />
    <glyph glyph-name="j" unicode="j" horiz-adv-x="250" 
d="M156 587l28 120h157l-27 -120h-158zM11 -39l133 575h158l-134 -580q-5 -24 -10 -41.5t-12.5 -33t-12.5 -26t-17.5 -19.5t-19.5 -14t-26 -9t-30 -6t-38 -3t-44 -1h-54l24 105q30 0 42.5 2t23.5 13.5t17 37.5z" />
    <glyph glyph-name="k" unicode="k" 
d="M183 706h159l-86 -372l166 202h179l-208 -231l92 -305h-164l-76 288l-66 -288h-159z" />
    <glyph glyph-name="l" unicode="l" horiz-adv-x="250" 
d="M19 0l163 706h160l-163 -706h-160z" />
    <glyph glyph-name="m" unicode="m" horiz-adv-x="771" 
d="M304 536l-14 -61q22 31 55.5 48.5t53 21t35.5 3.5q35 0 65.5 -17t35.5 -57q60 75 157 75q24 0 46.5 -6t43 -28t20.5 -58q0 -16 -6 -46l-95 -411h-162l88 380q2 14 2 20q0 18 -10 30t-31 12q-44 0 -58 -61l-88 -381h-163l89 386q3 10 3 19q0 19 -11.5 30t-30.5 11
q-47 0 -60 -59l-89 -387h-160l123 536h161z" />
    <glyph glyph-name="n" unicode="n" 
d="M522 399l-92 -399h-159l86 377q3 12 3 25q0 17 -9.5 26.5t-15.5 10.5t-12 1q-48 0 -60 -64l-87 -376h-156l123 536h157l-13 -53q62 65 142 65q21 0 40.5 -5t39.5 -28.5t20 -63.5q0 -24 -7 -52z" />
    <glyph glyph-name="o" unicode="o" 
d="M313 550q206 0 206 -147q0 -38 -22 -137.5t-36 -142.5q-7 -22 -13.5 -36t-22.5 -35t-36.5 -33t-56 -21.5t-81.5 -9.5q-197 0 -197 145q0 38 21.5 133.5t32.5 129.5q9 29 18.5 49.5t31.5 47.5t61.5 42t93.5 15zM313 168l48 214q3 10 3 21q1 19 -11.5 29.5t-31.5 10.5
q-20 0 -33 -11.5t-17 -22t-7 -27.5l-50 -214q-4 -18 -4 -31q0 -17 10.5 -29t32.5 -12q20 0 33 12t17 23.5t10 36.5z" />
    <glyph glyph-name="p" unicode="p" 
d="M524 376l-52 -226q-19 -81 -56 -121.5t-100 -40.5q-45 0 -76 20t-40 53q-1 2 -1 9l-2 2l-61 -265h-161l168 729h161l-18 -68q20 24 33 37.5t42 28t63 14.5q48 0 78 -28t30 -80q0 -27 -8 -64zM312 151l48 209q8 34 8 45q0 20 -11 30.5t-30 10.5q-45 0 -55 -49l-51 -221
q-6 -26 -6 -40q0 -21 12.5 -31.5t29.5 -10.5q42 0 55 57z" />
    <glyph glyph-name="q" unicode="q" 
d="M225 -196l58 250q-54 -66 -124 -66q-47 0 -78 22q-37 27 -37 82q0 58 44 240q9 37 14 55.5t16 49t22.5 46.5t28.5 33.5t40.5 25t53.5 7.5q32 0 56 -9t36 -23t17 -24.5t7 -20.5l15 64h160l-169 -732h-160zM308 165l45 193q7 42 7 45q0 11 -4 20q-10 21 -40 21
q-41 0 -59 -69q-19 -68 -30 -115q-23 -92 -23 -126q0 -21 11.5 -32t29.5 -11q28 0 41.5 19t21.5 55z" />
    <glyph glyph-name="r" unicode="r" horiz-adv-x="333" 
d="M302 536l-25 -107q32 61 64 83.5t97 32.5l-40 -149q-11 1 -33 1q-62 0 -85 -28t-42 -108l-60 -261h-158l124 536h158z" />
    <glyph glyph-name="s" unicode="s" horiz-adv-x="458" 
d="M39 183h154q-11 -35 -11 -53q0 -34 40 -34q18 0 29 7q23 16 23 54q0 21 -20 38q-7 6 -32 24.5t-47 34.5t-23 17q-59 46 -59 99q0 50 27 99q44 79 184 79q82 0 134 -32t52 -91q0 -19 -8 -55h-151q9 30 9 43q0 2 -0.5 4.5t-2.5 7.5t-6 8.5t-12 6.5t-19 3q-13 0 -23 -5.5
t-14.5 -12t-7 -15.5t-3 -12.5t-0.5 -6.5q0 -21 31 -44l13 -9q13 -9 26.5 -19t16.5 -12q59 -41 80.5 -65t21.5 -64q0 -28 -11 -65.5t-30 -60.5q-51 -63 -175 -63q-79 0 -124 21q-74 33 -74 107q0 24 12 66z" />
    <glyph glyph-name="t" unicode="t" horiz-adv-x="313" 
d="M168 536l39 171h157l-40 -171h71l-23 -96h-70l-65 -279q-4 -18 -4 -31q0 -14 8 -20t19 -7t38 -1l-23 -102q-66 0 -94.5 1.5t-62 8.5t-45 24t-11.5 46q0 19 9 52l74 308h-64l22 96h65z" />
    <glyph glyph-name="u" unicode="u" 
d="M140 536h162l-81 -350q-9 -38 -9 -51q0 -19 11 -29t27 -10q20 0 34 16t19.5 31t10.5 39l81 354h161l-124 -536h-160l12 56q-63 -66 -136 -66q-40 0 -72.5 21t-32.5 76q0 27 8 60z" />
    <glyph glyph-name="v" unicode="v" horiz-adv-x="437" 
d="M94 536h155q-5 -56 -16 -211q-13 -167 -22 -238q41 139 70 217q6 15 89 232h166l-239 -536h-215z" />
    <glyph glyph-name="w" unicode="w" horiz-adv-x="729" 
d="M103 0l-7 536h154q-3 -47 -7 -148q-7 -129 -19 -262l39 124l103 286h180q-5 -90 -9 -191q-6 -108 -17 -219q21 80 37 124l106 286h167l-242 -536h-172q0 198 13 400q-17 -58 -68 -190q-57 -142 -82 -210h-176z" />
    <glyph glyph-name="x" unicode="x" horiz-adv-x="458" 
d="M177 286l-72 250h158l30 -146l84 146h166l-181 -269l72 -267h-156l-34 156l-93 -156h-175z" />
    <glyph glyph-name="y" unicode="y" horiz-adv-x="437" 
d="M95 535h159l-44 -471q11 53 29 104l125 367h173l-217 -495q-29 -66 -49 -102.5t-43.5 -66.5t-53 -42.5t-66.5 -18.5t-95 -6q-11 0 -35 0.5t-36 0.5l22 118q78 -2 96 8t19 63z" />
    <glyph glyph-name="z" unicode="z" horiz-adv-x="417" 
d="M94 436l23 100h370l-23 -98l-265 -330h206l-25 -108h-398l23 102l270 334h-181z" />
    <glyph glyph-name="braceleft" unicode="{" horiz-adv-x="396" 
d="M91 210v86q24 4 35.5 8.5t25 18.5t18.5 42.5t5 74.5v68q0 42 1.5 62.5t9.5 46t25 43.5q19 22 49 32.5t54.5 12t78.5 2.5v-73q-25 0 -41.5 -5.5t-25.5 -12.5t-13 -25.5t-4.5 -32.5t-0.5 -45v-59q0 -36 -1 -54.5t-6.5 -48.5t-16.5 -46t-32.5 -30.5t-53.5 -18.5v-6
q32 -4 53.5 -18.5t32.5 -30.5t16.5 -45.5t6.5 -48t1 -53.5v-70q0 -27 1 -40t5 -30t13 -24t25 -12.5t41 -5.5v-73q-54 1 -78.5 2.5t-54.5 12t-49 32.5q-17 19 -25 44t-9.5 45.5t-1.5 65.5v53q0 31 -0.5 46.5t-5 39t-12.5 35.5t-25 22.5t-41 12.5z" />
    <glyph glyph-name="bar" unicode="|" horiz-adv-x="229" 
d="M225 750v-1000h-127v1000h127z" />
    <glyph glyph-name="braceright" unicode="}" horiz-adv-x="396" 
d="M395 296v-86q-25 -5 -36 -9t-24.5 -18t-18.5 -42.5t-5 -74.5v-68q0 -42 -1.5 -62.5t-9.5 -46t-25 -43.5q-20 -22 -50 -32.5t-54 -12t-78 -2.5v73q25 0 41.5 5.5t25.5 12.5t13 25.5t4.5 32.5t0.5 45v59q0 36 1 54.5t6.5 48.5t16.5 46t32.5 30.5t53.5 18.5v6
q-27 4 -46.5 13t-31 25.5t-18.5 31.5t-10 40.5t-3.5 40.5t-0.5 44v71q0 27 -1 40t-5 30t-13 24t-25 12.5t-41 5.5v73q54 -1 78 -2.5t54 -12t50 -32.5q17 -19 25 -44t9.5 -45.5t1.5 -65.5v-53q0 -31 0.5 -46.5t5 -39t12.5 -35.5t25 -22.5t41 -12.5z" />
    <glyph glyph-name="asciitilde" unicode="~" horiz-adv-x="729" 
d="M621 387l52 -104q-77 -84 -156 -84q-42 0 -105 32q-74 37 -102 37q-30 0 -48.5 -13.5t-56.5 -56.5l-55 103q18 25 32.5 41t49 34.5t73.5 18.5q27 0 50 -8t90 -38q46 -23 76 -23q44 0 100 61z" />
    <glyph glyph-name="exclamdown" unicode="&#xa1;" horiz-adv-x="292" 
d="M147 553l36 153h148l-36 -153h-148zM49 127l109 349h92l-51 -340l-31 -136h-148z" />
    <glyph glyph-name="cent" unicode="&#xa2;" horiz-adv-x="479" 
d="M145 -142l31 135q-123 28 -123 136q0 31 15 102t29 124t17 61q11 33 28.5 57t33.5 36.5t41.5 21t41 10.5t44.5 5l26 109h78l-27 -113q20 -3 33 -6.5t34.5 -13t35 -22.5t24 -37t10.5 -55q0 -29 -13 -72h-154q14 54 14 68q0 36 -39 36q-27 0 -41.5 -15t-24.5 -55l-50 -214
q-2 -12 -2 -19q0 -18 6 -24q11 -18 37 -18q31 0 42.5 20.5t22.5 70.5h161q-9 -38 -14.5 -58t-21.5 -50.5t-39 -48.5q-25 -20 -69.5 -33t-79.5 -10l-30 -128h-77z" />
    <glyph glyph-name="sterling" unicode="&#xa3;" horiz-adv-x="646" 
d="M112 367h124q-21 82 -21 131q0 221 234 221q90 0 141 -30q59 -33 59 -107q0 -36 -20 -114h-152q18 75 18 88q0 47 -51 47q-41 0 -55 -38q-20 -46 -20 -110q0 -33 11 -88h199l-13 -57h-177q8 -44 8 -67q0 -41 -26 -104q25 -16 43 -16q30 0 42 22.5t29 90.5h156
q-10 -45 -15 -64t-15 -52.5t-17.5 -47.5t-21.5 -34.5t-29 -28.5t-37 -14.5t-49 -6.5q-35 0 -65.5 12.5t-43.5 23t-32 29.5q-62 -65 -153 -65q-70 0 -107.5 35t-37.5 86q0 53 38 93t103 40q26 0 48 -6t33.5 -12t31.5 -19q2 48 -18 105h-155zM253 116q-41 50 -87 50
q-26 0 -41 -14.5t-15 -36.5q0 -26 19.5 -37.5t39.5 -11.5q44 0 84 50z" />
    <glyph glyph-name="currency" unicode="&#xa4;" horiz-adv-x="667" 
d="M713 571l-82 -80q43 -70 43 -151q0 -82 -43 -153l81 -82l-96 -95l-80 82q-72 -42 -150 -42q-76 0 -152 43l-81 -81l-95 95l82 81q-43 69 -43 152q0 37 8 70t14.5 45l19.5 36l-79 80l94 95l80 -80q72 43 152 43q82 0 151 -43l80 80zM549 340q0 75 -50 120t-113 45
q-65 0 -114.5 -45t-49.5 -121q0 -75 50.5 -120t113.5 -45q70 0 116.5 48t46.5 118z" />
    <glyph glyph-name="yen" unicode="&#xa5;" horiz-adv-x="521" 
d="M655 707l-169 -274h74l-23 -94h-110l-37 -62h130l-20 -94h-150l-41 -183h-170l42 183h-147l24 94h132l-8 62h-110l23 94h74l-40 274h167l23 -292l145 292h191z" />
    <glyph glyph-name="brokenbar" unicode="&#xa6;" horiz-adv-x="229" 
d="M98 -175v350h127v-350h-127zM225 325h-127v350h127v-350z" />
    <glyph glyph-name="section" unicode="&#xa7;" horiz-adv-x="458" 
d="M22 96l78 81q72 -77 128 -77q43 0 43 28q0 12 -9 22t-37 31q-81 61 -109.5 93.5t-28.5 82.5q0 30 9 53.5t27 39t28 21.5t28 15q-43 43 -43 92q0 60 49 100.5t136 40.5q111 0 196 -85l-74 -79q-31 28 -56.5 43t-57.5 15q-40 0 -40 -27q0 -12 9.5 -20.5t51.5 -39.5
q52 -38 73.5 -56.5t38 -46t16.5 -61.5q0 -30 -9 -53.5t-26.5 -40.5t-29 -25t-28.5 -18q39 -48 39 -93q0 -59 -45 -101.5t-140 -42.5q-131 0 -217 108zM224 448q-25 -25 -25 -48q0 -25 29 -49l24 -19q25 -18 53 -39t35 -27q29 25 29 47q0 19 -11.5 31t-53.5 43q-19 14 -80 61
z" />
    <glyph glyph-name="dieresis" unicode="&#xa8;" horiz-adv-x="250" 
d="M151 604l28 125h140l-28 -125h-140zM-41 729h139l-29 -125h-138z" />
    <glyph glyph-name="copyright" unicode="&#xa9;" horiz-adv-x="833" 
d="M820 351q0 -145 -102.5 -249.5t-254.5 -104.5q-143 0 -249 101t-106 255q0 152 105 254t251 102q150 0 253 -103t103 -255zM788 351q0 137 -93 231.5t-231 94.5q-133 0 -228.5 -94.5t-95.5 -229.5q0 -136 95 -230t229 -94q138 0 231 95.5t93 226.5zM581 270l87 -80
q-79 -84 -196 -84q-115 0 -182.5 69.5t-67.5 180.5q0 101 66.5 174.5t183.5 73.5q114 0 196 -85l-87 -84q-50 49 -111 49q-60 0 -92 -38t-32 -91q0 -61 35.5 -95.5t91.5 -34.5q57 0 108 45z" />
    <glyph glyph-name="ordfeminine" unicode="&#xaa;" horiz-adv-x="313" 
d="M390 604l-44 -192q-2 -10 -2 -15q0 -14 11 -24h-118l7 32q-48 -41 -86 -41q-6 0 -13.5 1.5t-21.5 6t-23 18.5t-9 35t10 55t24 50q25 29 166 66q7 34 7 38q0 17 -25 17q-7 0 -11 -1t-10.5 -5t-11.5 -14.5t-8 -27.5h-97q12 44 16 56t13 21q32 35 113 35q63 0 94 -23
q24 -17 24 -50q0 -8 -5 -38zM256 451l20 77q-48 -13 -60 -23q-10 -8 -15 -26t-5 -28q0 -19 21 -19q17 0 39 19z" />
    <glyph glyph-name="guillemotleft" unicode="&#xab;" horiz-adv-x="437" 
d="M281 350l191 132l-34 -145l-81 -57l55 -57l-30 -127l-130 127zM82 351l190 130l-33 -143l-83 -57l56 -58l-29 -125l-131 125z" />
    <glyph glyph-name="logicalnot" unicode="&#xac;" horiz-adv-x="667" 
d="M574 0v227h-539v127h666v-354h-127z" />
    <glyph glyph-name="registered" unicode="&#xae;" horiz-adv-x="833" 
d="M297 586h163q77 0 109 -11q41 -12 61 -44.5t20 -68.5q0 -31 -15 -54t-29 -32t-36 -19q23 -14 33.5 -30t17.5 -56q15 -98 39 -143h-126q-14 27 -25 99q-4 28 -6 38.5t-7.5 25t-9.5 17.5t-17 7.5t-25 4.5h-37v-192h-110v458zM407 502v-95h48q29 0 43 1.5t28 13t14 34.5
q0 19 -10.5 30t-19 13t-16.5 2q-8 1 -87 1zM820 352q0 -145 -102 -250t-255 -105q-143 0 -249 101t-106 255q0 151 104.5 253.5t250.5 102.5q151 0 254 -103t103 -254zM788 352q0 136 -93 230.5t-232 94.5q-133 0 -228 -94t-95 -230t94.5 -230t228.5 -94q139 0 232 95.5
t93 227.5z" />
    <glyph glyph-name="macron" unicode="&#xaf;" horiz-adv-x="250" 
d="M-27 691h324l-19 -87h-325z" />
    <glyph glyph-name="macron" unicode="&#x2c9;" horiz-adv-x="250" 
d="M-27 691h324l-19 -87h-325z" />
    <glyph glyph-name="degree" unicode="&#xb0;" horiz-adv-x="354" 
d="M269 745q73 0 122.5 -51t49.5 -122q0 -70 -50.5 -121t-121.5 -51t-121.5 50.5t-50.5 121.5t49.5 122t122.5 51zM270 630q-23 0 -39.5 -16t-16.5 -40q0 -23 16.5 -39t39.5 -16t39 16t16 39q0 24 -16.5 40t-38.5 16z" />
    <glyph glyph-name="plusminus" unicode="&#xb1;" horiz-adv-x="667" 
d="M445 371v-209h-127v209h-229v127h229v208h127v-208h227v-127h-227zM672 127v-127h-583v127h583z" />
    <glyph glyph-name="twosuperior" unicode="&#xb2;" horiz-adv-x="333" 
d="M346 265h-280q9 71 30 110t58 66q7 5 38.5 25.5t59 39.5t32.5 26q9 11 15.5 38.5t6.5 39.5q0 26 -28 26q-22 0 -30.5 -17t-21.5 -77h-101q6 31 9.5 45t10.5 37t13.5 32.5t17.5 23.5t25 19t34 9.5t46 4.5q129 0 129 -89q0 -58 -25 -113q-12 -27 -28.5 -41t-59.5 -40
q-56 -34 -73 -48t-27 -35h168z" />
    <glyph glyph-name="threesuperior" unicode="&#xb3;" horiz-adv-x="333" 
d="M229 570h-99q7 31 11 45t12.5 35t17.5 29.5t25 18.5t37.5 13.5t51.5 3.5q50 0 85.5 -20.5t35.5 -64.5q0 -36 -16 -84q-14 -43 -54 -49q-2 -1 -4 -1l4 -1q35 -9 35 -49q0 -16 -10 -61.5t-26 -72.5q-32 -54 -128 -54q-122 0 -122 92q0 24 10 66h99q-11 -46 -11 -59
q0 -27 34 -27q26 0 36 27q3 9 9 38t6 40q0 16 -11 19t-61 3l18 77q46 0 56 1t17 7q10 8 15.5 35t5.5 39q0 25 -28 25q-25 0 -33.5 -13.5t-17.5 -57.5z" />
    <glyph glyph-name="acute" unicode="&#xb4;" horiz-adv-x="250" 
d="M-4 605l93 125h166l-138 -125h-121z" />
    <glyph glyph-name="mu" unicode="&#xb5;" 
d="M271 0l13 56q-23 -34 -36.5 -46.5t-31.5 -12.5q-17 0 -35 16l-48 -206h-161l168 729h161l-80 -350q-9 -40 -9 -51q0 -18 11.5 -28.5t26.5 -10.5q19 0 33 14.5t19.5 30.5t11.5 41l81 354h161l-124 -536h-161z" />
    <glyph glyph-name="mu" unicode="&#x3bc;" 
d="M271 0l13 56q-23 -34 -36.5 -46.5t-31.5 -12.5q-17 0 -35 16l-48 -206h-161l168 729h161l-80 -350q-9 -40 -9 -51q0 -18 11.5 -28.5t26.5 -10.5q19 0 33 14.5t19.5 30.5t11.5 41l81 354h161l-124 -536h-161z" />
    <glyph glyph-name="paragraph" unicode="&#xb6;" horiz-adv-x="667" 
d="M355 706h250v-78h-36v-795h-84v795h-118v-795h-84v459q-154 41 -154 199q0 100 66 161q57 54 160 54z" />
    <glyph glyph-name="periodcentered" unicode="&#xb7;" horiz-adv-x="250" 
d="M82 274l35 153h150l-36 -153h-149z" />
    <glyph glyph-name="periodcentered" unicode="&#x2219;" horiz-adv-x="250" 
d="M82 274l35 153h150l-36 -153h-149z" />
    <glyph glyph-name="cedilla" unicode="&#xb8;" horiz-adv-x="250" 
d="M123 0h82l-47 -56q11 -2 16.5 -2.5t18 -5t19 -11t12.5 -19t6 -28.5q0 -37 -30.5 -66.5t-89.5 -29.5q-39 0 -91 25v46q41 -15 59 -15q27 0 39 15.5t12 30.5t-11.5 25.5t-28.5 10.5q-7 0 -19 -2q-1 4 -2.5 13t-1.5 13z" />
    <glyph glyph-name="onesuperior" unicode="&#xb9;" horiz-adv-x="333" 
d="M256 265h-98l73 320q-34 -19 -73 -29l22 94q69 7 95 56h84z" />
    <glyph glyph-name="ordmasculine" unicode="&#xba;" horiz-adv-x="313" 
d="M264 715q130 0 130 -92q0 -24 -15.5 -94.5t-26.5 -97.5q-8 -18 -17 -29.5t-37.5 -25t-71.5 -13.5q-123 0 -123 91q0 24 13 84t20 80q5 19 11.5 32t20.5 30t38 26t58 9zM263 477l30 133q2 8 2 13q0 23 -26 23t-33 -37l-31 -133q-3 -9 -3 -19q0 -24 25 -24q12 0 19.5 7
t10 14t6.5 23z" />
    <glyph glyph-name="guillemotright" unicode="&#xbb;" horiz-adv-x="437" 
d="M97 356l29 128l131 -128l-30 -128l-190 -131l33 143l82 60zM296 356l29 125l131 -125l-30 -128l-189 -130l33 143l83 57z" />
    <glyph glyph-name="onequarter" unicode="&#xbc;" horiz-adv-x="792" 
d="M256 265h-98l73 320q-29 -16 -73 -29l22 94q69 7 95 57h84zM216 0l348 707h79l-348 -707h-79zM462 93l17 77l193 272h131l-63 -274h41l-16 -73h-41l-23 -95h-100l23 93h-162zM565 170h78l17 74q12 50 30 115q-31 -49 -63 -97z" />
    <glyph glyph-name="onehalf" unicode="&#xbd;" horiz-adv-x="792" 
d="M256 265h-99l74 319q-34 -18 -74 -28l22 94q70 7 95 56h85zM203 0l348 706h80l-349 -706h-79zM743 0h-280q9 71 30 110t58 66q7 5 38.5 25.5t59 39.5t32.5 26q9 11 15.5 38.5t6.5 39.5q0 26 -28 26q-22 0 -30.5 -17t-21.5 -77h-101q6 31 9.5 45t10.5 37t13.5 32.5
t17.5 23.5t25 19t34 9.5t46 4.5q129 0 129 -89q0 -58 -25 -113q-12 -27 -28.5 -41t-59.5 -40q-56 -34 -73 -48t-27 -35h168z" />
    <glyph glyph-name="threequarters" unicode="&#xbe;" horiz-adv-x="792" 
d="M245 0l348 707h79l-348 -707h-79zM462 93l17 77l193 272h131l-64 -274h42l-17 -73h-40l-23 -95h-101l23 93h-161zM565 170h78l17 74q21 86 30 115q-17 -27 -63 -97zM229 570h-99q7 31 11 45t12.5 35t17.5 29.5t25 18.5t37.5 13.5t51.5 3.5q50 0 85.5 -20.5t35.5 -64.5
q0 -36 -16 -84q-14 -43 -54 -49q-2 -1 -4 -1l4 -1q35 -9 35 -49q0 -16 -10 -61.5t-26 -72.5q-32 -54 -128 -54q-122 0 -122 92q0 24 10 66h99q-11 -46 -11 -59q0 -27 34 -27q26 0 36 27q3 9 9 38t6 40q0 16 -11 19t-61 3l18 77q46 0 56 1t17 7q10 8 15.5 35t5.5 39
q0 25 -28 25q-25 0 -33.5 -13.5t-17.5 -57.5z" />
    <glyph glyph-name="questiondown" unicode="&#xbf;" horiz-adv-x="458" 
d="M277 201h146q-22 -92 -32 -120t-31 -49q-47 -45 -160 -45q-176 0 -176 127q0 46 22 106q11 30 29 47.5t72 54.5q74 51 89 70.5t27 83.5h150q-20 -90 -31 -115.5t-41 -50.5q-7 -6 -68 -47t-71 -52q-29 -32 -29 -82q0 -37 37 -37q30 0 40.5 18.5t26.5 90.5zM467 707
l-36 -153h-150l36 153h150z" />
    <glyph glyph-name="Agrave" unicode="&#xc0;" horiz-adv-x="542" 
d="M-13 0l303 706h275l-51 -706h-168l15 157h-131l-60 -157h-183zM372 278l32 363l-128 -363h96zM249 877h169l93 -123h-121z" />
    <glyph glyph-name="Aacute" unicode="&#xc1;" horiz-adv-x="542" 
d="M-13 0l303 706h275l-51 -706h-168l15 157h-131l-60 -157h-183zM372 278l32 363l-128 -363h96zM345 754l93 124h166l-137 -124h-122z" />
    <glyph glyph-name="Acircumflex" unicode="&#xc2;" horiz-adv-x="542" 
d="M-13 0l303 706h275l-51 -706h-168l15 157h-131l-60 -157h-183zM372 278l32 363l-128 -363h96zM388 878h127l71 -125h-105l-37 62l-66 -62h-123z" />
    <glyph glyph-name="Atilde" unicode="&#xc3;" horiz-adv-x="542" 
d="M-13 0l303 706h275l-51 -706h-168l15 157h-131l-60 -157h-183zM372 278l32 363l-128 -363h96zM321 763h-46q3 17 5 28.5t9.5 30t17.5 29.5t29 20t44 9t65 -14q52 -19 68 -19q14 0 23.5 5.5t12.5 10t8 14.5h45q-3 -18 -5.5 -28t-10.5 -29.5t-18 -31t-29.5 -21t-43.5 -9.5
q-29 0 -68 15q-49 20 -66 20q-19 0 -27 -8t-13 -22z" />
    <glyph glyph-name="Adieresis" unicode="&#xc4;" horiz-adv-x="542" 
d="M-13 0l303 706h275l-51 -706h-168l15 157h-131l-60 -157h-183zM372 278l32 363l-128 -363h96zM474 751l29 125h140l-30 -125h-139zM282 876h139l-29 -125h-139z" />
    <glyph glyph-name="Aring" unicode="&#xc5;" horiz-adv-x="542" 
d="M-13 0l303 706h275l-51 -706h-168l15 157h-131l-60 -157h-183zM372 278l32 363l-128 -363h96zM451 723q-44 0 -75 24t-31 63q1 42 29 64t73 22q46 0 75.5 -21.5t31.5 -65.5q0 -43 -31.5 -64.5t-71.5 -21.5zM496 809q0 18 -10.5 32.5t-35.5 14.5t-36.5 -15t-11.5 -32
q0 -18 11.5 -33t36.5 -15q24 0 35 16t11 32z" />
    <glyph glyph-name="AE" unicode="&#xc6;" horiz-adv-x="792" 
d="M-10 0l409 706h494l-29 -122h-182l-38 -163h172l-28 -121h-172l-41 -178h200l-28 -122h-370l46 196h-137l-103 -196h-193zM451 318l73 312l-172 -312h99z" />
    <glyph glyph-name="Ccedilla" unicode="&#xc7;" horiz-adv-x="521" 
d="M534 267l-25 -103q-24 -97 -68 -134.5t-148 -42.5l-36 -43q13 -2 21 -4t22 -8.5t21.5 -20t7.5 -33.5q0 -37 -30.5 -66.5t-89.5 -29.5q-39 0 -91 25v46q41 -15 59 -15q27 0 39 15.5t12 30.5t-11.5 25.5t-28.5 10.5q-7 0 -19 -2q-1 3 -2.5 12.5t-1.5 13.5l44 44
q-84 9 -122 48.5t-38 89.5q0 33 16 99l68 298q12 50 25 80.5t39.5 59.5t71.5 42t113 13q114 0 161 -37.5t47 -105.5q0 -23 -6 -50l-21 -87h-164l19 83q3 11 3 23q0 45 -53 45q-47 0 -57 -42l-84 -362q-6 -24 -6 -36q0 -40 49 -40q38 0 52.5 28.5t36.5 129.5h175z" />
    <glyph glyph-name="Egrave" unicode="&#xc8;" horiz-adv-x="437" 
d="M20 0l163 706h355l-28 -122h-183l-37 -160h174l-27 -120h-175l-41 -180h200l-28 -124h-373zM192 877h169l93 -123h-121z" />
    <glyph glyph-name="Eacute" unicode="&#xc9;" horiz-adv-x="437" 
d="M20 0l163 706h355l-28 -122h-183l-37 -160h174l-27 -120h-175l-41 -180h200l-28 -124h-373zM288 754l93 124h166l-137 -124h-122z" />
    <glyph glyph-name="Ecircumflex" unicode="&#xca;" horiz-adv-x="437" 
d="M20 0l163 706h355l-28 -122h-183l-37 -160h174l-27 -120h-175l-41 -180h200l-28 -124h-373zM331 878h127l71 -125h-105l-37 62l-66 -62h-123z" />
    <glyph glyph-name="Edieresis" unicode="&#xcb;" horiz-adv-x="437" 
d="M20 0l163 706h355l-28 -122h-183l-37 -160h174l-27 -120h-175l-41 -180h200l-28 -124h-373zM406 751l29 125h140l-30 -125h-139zM214 876h139l-29 -125h-139z" />
    <glyph glyph-name="Igrave" unicode="&#xcc;" horiz-adv-x="271" 
d="M21 0l163 706h171l-163 -706h-171zM103 877h169l93 -123h-121z" />
    <glyph glyph-name="Iacute" unicode="&#xcd;" horiz-adv-x="271" 
d="M21 0l163 706h171l-163 -706h-171zM199 754l93 124h166l-137 -124h-122z" />
    <glyph glyph-name="Icircumflex" unicode="&#xce;" horiz-adv-x="271" 
d="M21 0l163 706h171l-163 -706h-171zM242 878h127l71 -125h-105l-37 62l-66 -62h-123z" />
    <glyph glyph-name="Idieresis" unicode="&#xcf;" horiz-adv-x="271" 
d="M21 0l163 706h171l-163 -706h-171zM317 751l29 125h140l-30 -125h-139zM125 876h139l-29 -125h-139z" />
    <glyph glyph-name="Eth" unicode="&#xd0;" horiz-adv-x="542" 
d="M22 0l77 333h-54l24 102h54l62 272h198q34 0 52.5 -0.5t46 -3t42.5 -7t33 -13t27 -21t15.5 -31.5t6.5 -44q0 -28 -8 -68l-80 -347q-23 -102 -59 -137t-136 -35h-301zM334 333h-64l-50 -215q61 0 75 2q11 2 19 4.5t20 18.5t18 43l78 342q2 12 2 19q0 23 -12.5 31t-37.5 8
h-54l-35 -151h65z" />
    <glyph glyph-name="Ntilde" unicode="&#xd1;" horiz-adv-x="562" 
d="M185 706h166q34 -262 51 -438q20 124 43 234q20 95 43 204h157l-164 -706h-164l-25 203q-17 138 -25 232l-86 -435h-159zM321 763h-46q3 17 5 28.5t9.5 30t17.5 29.5t29 20t44 9t65 -14q52 -19 68 -19q14 0 23.5 5.5t12.5 10t8 14.5h45q-3 -18 -5.5 -28t-10.5 -29.5
t-18 -31t-29.5 -21t-43.5 -9.5q-29 0 -68 15q-49 20 -66 20q-19 0 -27 -8t-13 -22z" />
    <glyph glyph-name="Ograve" unicode="&#xd2;" horiz-adv-x="542" 
d="M68 232l65 273q7 30 12 48.5t15 44t21.5 40.5t30 32t41.5 26.5t56 15.5t74 6q106 0 159 -37q55 -39 55 -116q0 -46 -26 -155l-56 -238q-25 -105 -78 -146t-169 -41q-39 0 -73 6.5t-67 22.5t-52.5 49.5t-19.5 80.5q0 35 12 88zM323 548q-14 -48 -56 -212.5t-42 -181.5
q0 -41 52 -41q33 0 47 21.5t28 75.5q10 36 64 265q15 59 15 71q0 45 -49 45q-20 0 -33.5 -7.5t-17.5 -15t-8 -20.5zM239 877h169l93 -123h-121z" />
    <glyph glyph-name="Oacute" unicode="&#xd3;" horiz-adv-x="542" 
d="M68 232l65 273q7 30 12 48.5t15 44t21.5 40.5t30 32t41.5 26.5t56 15.5t74 6q106 0 159 -37q55 -39 55 -116q0 -46 -26 -155l-56 -238q-25 -105 -78 -146t-169 -41q-39 0 -73 6.5t-67 22.5t-52.5 49.5t-19.5 80.5q0 35 12 88zM323 548q-14 -48 -56 -212.5t-42 -181.5
q0 -41 52 -41q33 0 47 21.5t28 75.5q10 36 64 265q15 59 15 71q0 45 -49 45q-20 0 -33.5 -7.5t-17.5 -15t-8 -20.5zM340 754l93 124h166l-137 -124h-122z" />
    <glyph glyph-name="Ocircumflex" unicode="&#xd4;" horiz-adv-x="542" 
d="M68 232l65 273q7 30 12 48.5t15 44t21.5 40.5t30 32t41.5 26.5t56 15.5t74 6q106 0 159 -37q55 -39 55 -116q0 -46 -26 -155l-56 -238q-25 -105 -78 -146t-169 -41q-39 0 -73 6.5t-67 22.5t-52.5 49.5t-19.5 80.5q0 35 12 88zM323 548q-14 -48 -56 -212.5t-42 -181.5
q0 -41 52 -41q33 0 47 21.5t28 75.5q10 36 64 265q15 59 15 71q0 45 -49 45q-20 0 -33.5 -7.5t-17.5 -15t-8 -20.5zM383 878h127l71 -125h-105l-37 62l-66 -62h-123z" />
    <glyph glyph-name="Otilde" unicode="&#xd5;" horiz-adv-x="542" 
d="M68 232l65 273q7 30 12 48.5t15 44t21.5 40.5t30 32t41.5 26.5t56 15.5t74 6q106 0 159 -37q55 -39 55 -116q0 -46 -26 -155l-56 -238q-25 -105 -78 -146t-169 -41q-39 0 -73 6.5t-67 22.5t-52.5 49.5t-19.5 80.5q0 35 12 88zM323 548q-14 -48 -56 -212.5t-42 -181.5
q0 -41 52 -41q33 0 47 21.5t28 75.5q10 36 64 265q15 59 15 71q0 45 -49 45q-20 0 -33.5 -7.5t-17.5 -15t-8 -20.5zM316 763h-46q3 17 5 28.5t9.5 30t17.5 29.5t29 20t44 9t65 -14q52 -19 68 -19q14 0 23.5 5.5t12.5 10t8 14.5h45q-3 -18 -5.5 -28t-10.5 -29.5t-18 -31
t-29.5 -21t-43.5 -9.5q-29 0 -68 15q-49 20 -66 20q-19 0 -27 -8t-13 -22z" />
    <glyph glyph-name="Odieresis" unicode="&#xd6;" horiz-adv-x="542" 
d="M68 232l65 273q7 30 12 48.5t15 44t21.5 40.5t30 32t41.5 26.5t56 15.5t74 6q106 0 159 -37q55 -39 55 -116q0 -46 -26 -155l-56 -238q-25 -105 -78 -146t-169 -41q-39 0 -73 6.5t-67 22.5t-52.5 49.5t-19.5 80.5q0 35 12 88zM323 548q-14 -48 -56 -212.5t-42 -181.5
q0 -41 52 -41q33 0 47 21.5t28 75.5q10 36 64 265q15 59 15 71q0 45 -49 45q-20 0 -33.5 -7.5t-17.5 -15t-8 -20.5zM465 751l29 125h140l-30 -125h-139zM273 876h139l-29 -125h-139z" />
    <glyph glyph-name="multiply" unicode="&#xd7;" horiz-adv-x="667" 
d="M652 110l-89 -91l-183 182l-182 -182l-90 91l182 181l-182 183l90 88l182 -180l183 180l89 -88l-181 -183z" />
    <glyph glyph-name="Oslash" unicode="&#xd8;" horiz-adv-x="542" 
d="M11 43l52 56q-5 25 -5 45q0 35 27 159q31 133 59 232q11 37 17.5 55t24.5 47.5t40 44t61.5 26t92.5 11.5q59 0 101.5 -11.5t58 -21.5t33.5 -28l38 40l42 -40l-55 -59q3 -16 3 -28q0 -43 -36 -195q-24 -102 -52 -203q-13 -47 -24.5 -74t-36 -56t-67 -42t-104.5 -13
q-59 0 -99 9t-55 18.5t-36 27.5l-38 -39zM238 290l199 219q3 18 3 36q0 19 -8 31t-20 16.5t-18.5 5.5t-12.5 1q-41 0 -59 -32.5t-44 -125.5q-5 -19 -13.5 -51.5t-15.5 -57t-11 -42.5zM415 399l-195 -214q-2 -14 -2 -22q0 -29 17.5 -41.5t40.5 -12.5q36 0 54 26t36 84
q5 17 49 180z" />
    <glyph glyph-name="Ugrave" unicode="&#xd9;" horiz-adv-x="542" 
d="M77 293l98 414h170l-116 -505q-6 -18 -6 -39q0 -42 52 -42q23 0 38 13.5t20.5 27.5t12.5 40l116 505h170l-117 -505q-9 -39 -17.5 -64.5t-27 -56.5t-43.5 -49t-67 -30.5t-98 -12.5q-94 0 -153 37t-57 118q1 48 25 149zM239 877h169l93 -123h-121z" />
    <glyph glyph-name="Uacute" unicode="&#xda;" horiz-adv-x="542" 
d="M77 293l98 414h170l-116 -505q-6 -18 -6 -39q0 -42 52 -42q23 0 38 13.5t20.5 27.5t12.5 40l116 505h170l-117 -505q-9 -39 -17.5 -64.5t-27 -56.5t-43.5 -49t-67 -30.5t-98 -12.5q-94 0 -153 37t-57 118q1 48 25 149zM335 754l93 124h166l-137 -124h-122z" />
    <glyph glyph-name="Ucircumflex" unicode="&#xdb;" horiz-adv-x="542" 
d="M77 293l98 414h170l-116 -505q-6 -18 -6 -39q0 -42 52 -42q23 0 38 13.5t20.5 27.5t12.5 40l116 505h170l-117 -505q-9 -39 -17.5 -64.5t-27 -56.5t-43.5 -49t-67 -30.5t-98 -12.5q-94 0 -153 37t-57 118q1 48 25 149zM378 878h127l71 -125h-105l-37 62l-66 -62h-123z
" />
    <glyph glyph-name="Udieresis" unicode="&#xdc;" horiz-adv-x="542" 
d="M77 293l98 414h170l-116 -505q-6 -18 -6 -39q0 -42 52 -42q23 0 38 13.5t20.5 27.5t12.5 40l116 505h170l-117 -505q-9 -39 -17.5 -64.5t-27 -56.5t-43.5 -49t-67 -30.5t-98 -12.5q-94 0 -153 37t-57 118q1 48 25 149zM454 751l29 125h140l-30 -125h-139zM262 876h139
l-29 -125h-139z" />
    <glyph glyph-name="Yacute" unicode="&#xdd;" horiz-adv-x="521" 
d="M320 418l144 288h191l-293 -476l-53 -230h-170l57 244l-67 462h167zM324 754l93 124h166l-137 -124h-122z" />
    <glyph glyph-name="Thorn" unicode="&#xde;" horiz-adv-x="521" 
d="M22 0l163 707l172 4l-28 -122h94q150 0 150 -112q0 -29 -7 -58l-23 -103q-13 -61 -36 -98q-37 -54 -147 -54h-130l-37 -164h-171zM362 467h-61l-41 -175h67q13 0 21.5 1.5t18.5 11t17 26.5q22 71 22 102q0 15 -9 23t-15.5 9t-19.5 2z" />
    <glyph glyph-name="germandbls" unicode="&#xdf;" horiz-adv-x="521" 
d="M18 0l127 548q10 44 22 71t35.5 52t64.5 36.5t102 11.5q83 0 139.5 -28t56.5 -90q0 -37 -13 -85q-14 -61 -32 -88t-62 -36q-2 0 -5 -1t-5.5 -1.5t-4.5 -0.5q1 0 7 -2l9 -3q59 -21 59 -80q0 -24 -18.5 -105.5t-32.5 -117.5q-37 -87 -161 -87q-34 0 -102 6l20 86
q39 -3 40 -3q31 0 41.5 16t23.5 70l22 95q1 7 3.5 19.5t3.5 18.5q4 30 -12.5 40t-54.5 11l22 98q33 -1 48.5 2t25.5 16t18.5 51.5t8.5 55.5q0 36 -48 36q-28 0 -40.5 -14t-20.5 -50l-127 -548h-160z" />
    <glyph glyph-name="agrave" unicode="&#xe0;" horiz-adv-x="479" 
d="M495 369l-71 -308q0 -3 -1 -7.5t-1.5 -8.5t-0.5 -8q0 -22 15 -37h-182l14 56q-25 -22 -40.5 -33.5t-45 -24t-58.5 -12.5q-8 0 -16 0.5t-26 6t-30.5 14.5t-23 29t-10.5 47q0 30 16 84.5t38 80.5q23 27 69.5 44.5t198.5 61.5q12 50 12 63q0 30 -43 30q-31 0 -43 -16
t-25 -62h-152q18 74 33.5 102.5t50.5 46.5q55 28 144 28q187 0 187 -117q0 -24 -9 -60zM284 122l33 129q-82 -25 -101 -40q-17 -13 -25 -43t-8 -45q0 -33 35 -33q30 0 66 32zM162 730h168l95 -124h-122z" />
    <glyph glyph-name="aacute" unicode="&#xe1;" horiz-adv-x="479" 
d="M495 369l-71 -308q0 -3 -1 -7.5t-1.5 -8.5t-0.5 -8q0 -22 15 -37h-182l14 56q-25 -22 -40.5 -33.5t-45 -24t-58.5 -12.5q-8 0 -16 0.5t-26 6t-30.5 14.5t-23 29t-10.5 47q0 30 16 84.5t38 80.5q23 27 69.5 44.5t198.5 61.5q12 50 12 63q0 30 -43 30q-31 0 -43 -16
t-25 -62h-152q18 74 33.5 102.5t50.5 46.5q55 28 144 28q187 0 187 -117q0 -24 -9 -60zM284 122l33 129q-82 -25 -101 -40q-17 -13 -25 -43t-8 -45q0 -33 35 -33q30 0 66 32zM267 605l93 125h166l-138 -125h-121z" />
    <glyph glyph-name="acircumflex" unicode="&#xe2;" horiz-adv-x="479" 
d="M495 369l-71 -308q0 -3 -1 -7.5t-1.5 -8.5t-0.5 -8q0 -22 15 -37h-182l14 56q-25 -22 -40.5 -33.5t-45 -24t-58.5 -12.5q-8 0 -16 0.5t-26 6t-30.5 14.5t-23 29t-10.5 47q0 30 16 84.5t38 80.5q23 27 69.5 44.5t198.5 61.5q12 50 12 63q0 30 -43 30q-31 0 -43 -16
t-25 -62h-152q18 74 33.5 102.5t50.5 46.5q55 28 144 28q187 0 187 -117q0 -24 -9 -60zM284 122l33 129q-82 -25 -101 -40q-17 -13 -25 -43t-8 -45q0 -33 35 -33q30 0 66 32zM310 730h126l71 -125h-105l-37 62l-67 -62h-122z" />
    <glyph glyph-name="atilde" unicode="&#xe3;" horiz-adv-x="479" 
d="M495 369l-71 -308q0 -3 -1 -7.5t-1.5 -8.5t-0.5 -8q0 -22 15 -37h-182l14 56q-25 -22 -40.5 -33.5t-45 -24t-58.5 -12.5q-8 0 -16 0.5t-26 6t-30.5 14.5t-23 29t-10.5 47q0 30 16 84.5t38 80.5q23 27 69.5 44.5t198.5 61.5q12 50 12 63q0 30 -43 30q-31 0 -43 -16
t-25 -62h-152q18 74 33.5 102.5t50.5 46.5q55 28 144 28q187 0 187 -117q0 -24 -9 -60zM284 122l33 129q-82 -25 -101 -40q-17 -13 -25 -43t-8 -45q0 -33 35 -33q30 0 66 32zM243 615h-44q2 17 4 27.5t9 29.5t17.5 30.5t29.5 20.5t45 9q27 0 65 -14q49 -18 68 -18
q30 0 43 29h45q-3 -17 -5.5 -28t-10.5 -30.5t-18.5 -30.5t-29.5 -20.5t-44 -9.5q-28 0 -66 15q-55 20 -68 20q-26 0 -40 -30z" />
    <glyph glyph-name="adieresis" unicode="&#xe4;" horiz-adv-x="479" 
d="M495 369l-71 -308q0 -3 -1 -7.5t-1.5 -8.5t-0.5 -8q0 -22 15 -37h-182l14 56q-25 -22 -40.5 -33.5t-45 -24t-58.5 -12.5q-8 0 -16 0.5t-26 6t-30.5 14.5t-23 29t-10.5 47q0 30 16 84.5t38 80.5q23 27 69.5 44.5t198.5 61.5q12 50 12 63q0 30 -43 30q-31 0 -43 -16
t-25 -62h-152q18 74 33.5 102.5t50.5 46.5q55 28 144 28q187 0 187 -117q0 -24 -9 -60zM284 122l33 129q-82 -25 -101 -40q-17 -13 -25 -43t-8 -45q0 -33 35 -33q30 0 66 32zM381 604l28 125h140l-28 -125h-140zM189 729h139l-29 -125h-138z" />
    <glyph glyph-name="aring" unicode="&#xe5;" horiz-adv-x="479" 
d="M495 369l-71 -308q0 -3 -1 -7.5t-1.5 -8.5t-0.5 -8q0 -22 15 -37h-182l14 56q-25 -22 -40.5 -33.5t-45 -24t-58.5 -12.5q-8 0 -16 0.5t-26 6t-30.5 14.5t-23 29t-10.5 47q0 30 16 84.5t38 80.5q23 27 69.5 44.5t198.5 61.5q12 50 12 63q0 30 -43 30q-31 0 -43 -16
t-25 -62h-152q18 74 33.5 102.5t50.5 46.5q55 28 144 28q187 0 187 -117q0 -24 -9 -60zM284 122l33 129q-82 -25 -101 -40q-17 -13 -25 -43t-8 -45q0 -33 35 -33q30 0 66 32zM362 587q-44 0 -75 24t-31 63q1 42 29 64t73 22q46 0 75.5 -21.5t31.5 -65.5q0 -43 -31.5 -64.5
t-71.5 -21.5zM407 673q0 18 -10.5 32.5t-35.5 14.5t-36.5 -15t-11.5 -32q0 -18 11.5 -33t36.5 -15q24 0 35 16t11 32z" />
    <glyph glyph-name="ae" unicode="&#xe6;" horiz-adv-x="729" 
d="M237 365h-153q15 61 23.5 84.5t24.5 42.5q49 57 170 57q95 0 134 -55q43 55 141 55q72 0 112 -25q59 -33 59 -107q0 -41 -32 -179h-252q-18 -77 -18 -102q0 -39 40 -39q21 0 34 12.5t18 26t11 41.5h163q-10 -36 -16 -55.5t-23 -47.5t-40 -45q-57 -42 -154 -42
q-130 0 -161 75q-55 -76 -169 -76q-12 0 -24 1t-32.5 7t-35.5 16.5t-26.5 31.5t-11.5 50q0 25 9.5 62t19.5 59t22 36.5t33.5 25.5t39 17t55.5 18l133 40q12 48 12 59q0 38 -41 38q-20 0 -32 -10t-17.5 -23.5t-15.5 -48.5zM485 332h97q14 63 14 71q0 39 -43 39q-33 0 -46 -27
q-5 -11 -22 -83zM277 118l30 130q-65 -22 -82.5 -30.5t-28.5 -28.5q-17 -32 -17 -63q0 -38 37 -38q31 0 61 30z" />
    <glyph glyph-name="ccedilla" unicode="&#xe7;" horiz-adv-x="479" 
d="M315 187h161q-8 -37 -14.5 -59.5t-21.5 -50.5t-35 -44t-53.5 -29t-79.5 -17l-36 -43q11 -2 16.5 -2.5t18 -5t19 -11t12.5 -19t6 -28.5q0 -37 -30.5 -66.5t-89.5 -29.5q-39 0 -91 25v46q41 -15 59 -15q27 0 39 15.5t12 30.5t-11.5 25.5t-28.5 10.5q-7 0 -19 -2
q0 3 -2 12.5t-2 13.5l47 47q-18 4 -29 6.5t-34 13t-37 24t-26 38.5t-12 57q0 31 15 102.5t29.5 124.5t16.5 59q15 44 40 72.5t58 40.5t59 15.5t61 3.5q85 0 135 -35.5t50 -100.5q0 -30 -13 -76h-154q14 54 14 68q0 36 -40 36q-30 0 -43.5 -18t-21.5 -52l-50 -214
q-2 -12 -2 -18q0 -16 6 -25q11 -18 37 -18q31 0 42.5 20.5t22.5 71.5z" />
    <glyph glyph-name="egrave" unicode="&#xe8;" 
d="M317 173h163q-22 -88 -54 -123q-55 -64 -179 -64q-97 0 -149 41q-44 34 -44 103q0 48 26.5 160t41.5 148q46 111 206 111q189 0 189 -131q0 -27 -9 -68q-8 -39 -26 -120h-256q-18 -70 -18 -98q0 -8 3 -16q12 -20 44 -20q16 0 26.5 4.5t17.5 18t9.5 22t8.5 32.5zM248 328
h103q14 59 14 73q0 18 -8 27q-12 14 -38 14q-34 0 -46 -23.5t-25 -90.5zM172 730h168l95 -124h-122z" />
    <glyph glyph-name="eacute" unicode="&#xe9;" 
d="M317 173h163q-22 -88 -54 -123q-55 -64 -179 -64q-97 0 -149 41q-44 34 -44 103q0 48 26.5 160t41.5 148q46 111 206 111q189 0 189 -131q0 -27 -9 -68q-8 -39 -26 -120h-256q-18 -70 -18 -98q0 -8 3 -16q12 -20 44 -20q16 0 26.5 4.5t17.5 18t9.5 22t8.5 32.5zM248 328
h103q14 59 14 73q0 18 -8 27q-12 14 -38 14q-34 0 -46 -23.5t-25 -90.5zM277 605l93 125h166l-138 -125h-121z" />
    <glyph glyph-name="ecircumflex" unicode="&#xea;" 
d="M317 173h163q-22 -88 -54 -123q-55 -64 -179 -64q-97 0 -149 41q-44 34 -44 103q0 48 26.5 160t41.5 148q46 111 206 111q189 0 189 -131q0 -27 -9 -68q-8 -39 -26 -120h-256q-18 -70 -18 -98q0 -8 3 -16q12 -20 44 -20q16 0 26.5 4.5t17.5 18t9.5 22t8.5 32.5zM248 328
h103q14 59 14 73q0 18 -8 27q-12 14 -38 14q-34 0 -46 -23.5t-25 -90.5zM320 730h126l71 -125h-105l-37 62l-67 -62h-122z" />
    <glyph glyph-name="edieresis" unicode="&#xeb;" 
d="M317 173h163q-22 -88 -54 -123q-55 -64 -179 -64q-97 0 -149 41q-44 34 -44 103q0 48 26.5 160t41.5 148q46 111 206 111q189 0 189 -131q0 -27 -9 -68q-8 -39 -26 -120h-256q-18 -70 -18 -98q0 -8 3 -16q12 -20 44 -20q16 0 26.5 4.5t17.5 18t9.5 22t8.5 32.5zM248 328
h103q14 59 14 73q0 18 -8 27q-12 14 -38 14q-34 0 -46 -23.5t-25 -90.5zM396 604l28 125h140l-28 -125h-140zM204 729h139l-29 -125h-138z" />
    <glyph glyph-name="igrave" unicode="&#xec;" horiz-adv-x="250" 
d="M19 0l123 536h160l-124 -536h-159zM47 730h168l95 -124h-122z" />
    <glyph glyph-name="iacute" unicode="&#xed;" horiz-adv-x="250" 
d="M19 0l123 536h160l-124 -536h-159zM152 605l93 125h166l-138 -125h-121z" />
    <glyph glyph-name="icircumflex" unicode="&#xee;" horiz-adv-x="250" 
d="M19 0l123 536h160l-124 -536h-159zM195 730h126l71 -125h-105l-37 62l-67 -62h-122z" />
    <glyph glyph-name="idieresis" unicode="&#xef;" horiz-adv-x="250" 
d="M19 0l123 536h160l-124 -536h-159zM271 604l28 125h140l-28 -125h-140zM79 729h139l-29 -125h-138z" />
    <glyph glyph-name="eth" unicode="&#xf0;" 
d="M546 655l-57 -17q37 -67 37 -153q0 -54 -15 -147.5t-42 -186.5q-7 -25 -11.5 -38t-15.5 -36t-25.5 -35.5t-36.5 -26.5t-54.5 -20.5t-74.5 -6.5q-198 0 -198 144q0 38 21.5 135t32.5 129q46 156 182 156q68 0 98 -40q-3 44 -27 91l-119 -34l-22 59l109 31q-22 32 -24 34
l125 39q1 -2 13 -18t14 -19l67 20zM312 168l50 214q3 10 3 21q0 19 -12.5 29.5t-31.5 10.5q-16 0 -26.5 -5.5t-17 -17t-9 -18t-5.5 -20.5l-49 -214q-5 -15 -5 -31q0 -17 11 -29t33 -12q20 0 32.5 11.5t17 24.5t9.5 36z" />
    <glyph glyph-name="ntilde" unicode="&#xf1;" 
d="M522 399l-92 -399h-159l86 377q3 12 3 25q0 17 -9.5 26.5t-15.5 10.5t-12 1q-48 0 -60 -64l-87 -376h-156l123 536h157l-13 -53q62 65 142 65q21 0 40.5 -5t39.5 -28.5t20 -63.5q0 -24 -7 -52zM253 615h-44q2 17 4 27.5t9 29.5t17.5 30.5t29.5 20.5t45 9q27 0 65 -14
q49 -18 68 -18q30 0 43 29h45q-3 -17 -5.5 -28t-10.5 -30.5t-18.5 -30.5t-29.5 -20.5t-44 -9.5q-28 0 -66 15q-55 20 -68 20q-26 0 -40 -30z" />
    <glyph glyph-name="ograve" unicode="&#xf2;" 
d="M313 550q206 0 206 -147q0 -38 -22 -137.5t-36 -142.5q-7 -22 -13.5 -36t-22.5 -35t-36.5 -33t-56 -21.5t-81.5 -9.5q-197 0 -197 145q0 38 21.5 133.5t32.5 129.5q9 29 18.5 49.5t31.5 47.5t61.5 42t93.5 15zM313 168l48 214q3 10 3 21q1 19 -11.5 29.5t-31.5 10.5
q-20 0 -33 -11.5t-17 -22t-7 -27.5l-50 -214q-4 -18 -4 -31q0 -17 10.5 -29t32.5 -12q20 0 33 12t17 23.5t10 36.5zM172 730h168l95 -124h-122z" />
    <glyph glyph-name="oacute" unicode="&#xf3;" 
d="M313 550q206 0 206 -147q0 -38 -22 -137.5t-36 -142.5q-7 -22 -13.5 -36t-22.5 -35t-36.5 -33t-56 -21.5t-81.5 -9.5q-197 0 -197 145q0 38 21.5 133.5t32.5 129.5q9 29 18.5 49.5t31.5 47.5t61.5 42t93.5 15zM313 168l48 214q3 10 3 21q1 19 -11.5 29.5t-31.5 10.5
q-20 0 -33 -11.5t-17 -22t-7 -27.5l-50 -214q-4 -18 -4 -31q0 -17 10.5 -29t32.5 -12q20 0 33 12t17 23.5t10 36.5zM277 605l93 125h166l-138 -125h-121z" />
    <glyph glyph-name="ocircumflex" unicode="&#xf4;" 
d="M313 550q206 0 206 -147q0 -38 -22 -137.5t-36 -142.5q-7 -22 -13.5 -36t-22.5 -35t-36.5 -33t-56 -21.5t-81.5 -9.5q-197 0 -197 145q0 38 21.5 133.5t32.5 129.5q9 29 18.5 49.5t31.5 47.5t61.5 42t93.5 15zM313 168l48 214q3 10 3 21q1 19 -11.5 29.5t-31.5 10.5
q-20 0 -33 -11.5t-17 -22t-7 -27.5l-50 -214q-4 -18 -4 -31q0 -17 10.5 -29t32.5 -12q20 0 33 12t17 23.5t10 36.5zM320 730h126l71 -125h-105l-37 62l-67 -62h-122z" />
    <glyph glyph-name="otilde" unicode="&#xf5;" 
d="M313 550q206 0 206 -147q0 -38 -22 -137.5t-36 -142.5q-7 -22 -13.5 -36t-22.5 -35t-36.5 -33t-56 -21.5t-81.5 -9.5q-197 0 -197 145q0 38 21.5 133.5t32.5 129.5q9 29 18.5 49.5t31.5 47.5t61.5 42t93.5 15zM313 168l48 214q3 10 3 21q1 19 -11.5 29.5t-31.5 10.5
q-20 0 -33 -11.5t-17 -22t-7 -27.5l-50 -214q-4 -18 -4 -31q0 -17 10.5 -29t32.5 -12q20 0 33 12t17 23.5t10 36.5zM253 615h-44q2 17 4 27.5t9 29.5t17.5 30.5t29.5 20.5t45 9q27 0 65 -14q49 -18 68 -18q30 0 43 29h45q-3 -17 -5.5 -28t-10.5 -30.5t-18.5 -30.5
t-29.5 -20.5t-44 -9.5q-28 0 -66 15q-55 20 -68 20q-26 0 -40 -30z" />
    <glyph glyph-name="odieresis" unicode="&#xf6;" 
d="M313 550q206 0 206 -147q0 -38 -22 -137.5t-36 -142.5q-7 -22 -13.5 -36t-22.5 -35t-36.5 -33t-56 -21.5t-81.5 -9.5q-197 0 -197 145q0 38 21.5 133.5t32.5 129.5q9 29 18.5 49.5t31.5 47.5t61.5 42t93.5 15zM313 168l48 214q3 10 3 21q1 19 -11.5 29.5t-31.5 10.5
q-20 0 -33 -11.5t-17 -22t-7 -27.5l-50 -214q-4 -18 -4 -31q0 -17 10.5 -29t32.5 -12q20 0 33 12t17 23.5t10 36.5zM397 604l28 125h140l-28 -125h-140zM205 729h139l-29 -125h-138z" />
    <glyph glyph-name="divide" unicode="&#xf7;" horiz-adv-x="667" 
d="M451 110q0 -32 -22 -56t-59 -24q-33 0 -56.5 22.5t-23.5 57.5q0 33 22.5 57t58.5 24q34 0 57 -23.5t23 -57.5zM451 468q0 -32 -22 -56t-59 -24q-33 0 -56.5 22.5t-23.5 57.5q0 33 22.5 57t58.5 24q34 0 57 -23.5t23 -57.5zM704 353v-127h-666v127h666z" />
    <glyph glyph-name="oslash" unicode="&#xf8;" 
d="M456 519l44 51l37 -30l-42 -50q26 -38 26 -81q0 -42 -19.5 -127.5t-38.5 -143.5q-23 -77 -68.5 -114t-145.5 -37q-95 0 -150 38l-40 -47l-36 31l44 52q-16 28 -16 70q0 39 19.5 123t37.5 138q27 84 73 120.5t135 36.5q88 0 140 -30zM255 381l-50 -160l167 199
q-14 29 -48 29q-49 0 -69 -68zM371 344l-179 -211q1 -8 2.5 -12.5t6.5 -14t16.5 -14.5t27.5 -5q44 0 66 54q7 16 22 67t27 94t11 42z" />
    <glyph glyph-name="ugrave" unicode="&#xf9;" 
d="M140 536h162l-81 -350q-9 -38 -9 -51q0 -19 11 -29t27 -10q20 0 34 16t19.5 31t10.5 39l81 354h161l-124 -536h-160l12 56q-63 -66 -136 -66q-40 0 -72.5 21t-32.5 76q0 27 8 60zM172 730h168l95 -124h-122z" />
    <glyph glyph-name="uacute" unicode="&#xfa;" 
d="M140 536h162l-81 -350q-9 -38 -9 -51q0 -19 11 -29t27 -10q20 0 34 16t19.5 31t10.5 39l81 354h161l-124 -536h-160l12 56q-63 -66 -136 -66q-40 0 -72.5 21t-32.5 76q0 27 8 60zM277 605l93 125h166l-138 -125h-121z" />
    <glyph glyph-name="ucircumflex" unicode="&#xfb;" 
d="M140 536h162l-81 -350q-9 -38 -9 -51q0 -19 11 -29t27 -10q20 0 34 16t19.5 31t10.5 39l81 354h161l-124 -536h-160l12 56q-63 -66 -136 -66q-40 0 -72.5 21t-32.5 76q0 27 8 60zM320 730h126l71 -125h-105l-37 62l-67 -62h-122z" />
    <glyph glyph-name="udieresis" unicode="&#xfc;" 
d="M140 536h162l-81 -350q-9 -38 -9 -51q0 -19 11 -29t27 -10q20 0 34 16t19.5 31t10.5 39l81 354h161l-124 -536h-160l12 56q-63 -66 -136 -66q-40 0 -72.5 21t-32.5 76q0 27 8 60zM404 604l28 125h140l-28 -125h-140zM212 729h139l-29 -125h-138z" />
    <glyph glyph-name="yacute" unicode="&#xfd;" horiz-adv-x="437" 
d="M95 535h159l-44 -471q11 53 29 104l125 367h173l-217 -495q-29 -66 -49 -102.5t-43.5 -66.5t-53 -42.5t-66.5 -18.5t-95 -6q-11 0 -35 0.5t-36 0.5l22 118q78 -2 96 8t19 63zM247 605l93 125h166l-138 -125h-121z" />
    <glyph glyph-name="thorn" unicode="&#xfe;" 
d="M524 376l-52 -226q-19 -81 -55.5 -121.5t-100.5 -40.5q-45 0 -76 20t-40 53q-1 2 -1 9l-2 2l-61 -265h-161l208 899h161l-58 -239q20 24 33 37.5t42 28t63 14.5q47 0 77.5 -27.5t30.5 -80.5q0 -28 -8 -63zM312 150l48 209q8 34 8 45q0 20 -11 30.5t-30 10.5
q-45 0 -55 -49l-51 -221q-6 -24 -6 -39q0 -21 12.5 -31.5t29.5 -10.5q42 0 55 56z" />
    <glyph glyph-name="ydieresis" unicode="&#xff;" horiz-adv-x="437" 
d="M95 535h159l-44 -471q11 53 29 104l125 367h173l-217 -495q-29 -66 -49 -102.5t-43.5 -66.5t-53 -42.5t-66.5 -18.5t-95 -6q-11 0 -35 0.5t-36 0.5l22 118q78 -2 96 8t19 63zM366 604l28 125h140l-28 -125h-140zM174 729h139l-29 -125h-138z" />
    <glyph glyph-name="dotlessi" unicode="&#x131;" horiz-adv-x="250" 
d="M19 0l123 536h160l-124 -536h-159z" />
    <glyph glyph-name="Lslash" unicode="&#x141;" horiz-adv-x="396" 
d="M40 305l63 45l82 356h171l-48 -209l127 91l-32 -139l-127 -91l-55 -238h181l-28 -120h-352l49 211l-63 -45z" />
    <glyph glyph-name="lslash" unicode="&#x142;" horiz-adv-x="250" 
d="M59 352l49 33l74 321h160l-45 -195l48 32l-28 -121l-48 -32l-90 -390h-160l61 263l-48 -33z" />
    <glyph glyph-name="OE" unicode="&#x152;" horiz-adv-x="708" 
d="M303 0l10 43q-15 -17 -25.5 -25.5t-37 -19t-60.5 -10.5q-138 0 -138 131q0 72 79 377q17 65 30.5 101.5t35.5 67t52.5 42.5t76.5 12q37 0 66 -9t39.5 -16.5t26.5 -22.5l8 35h350l-28 -122h-179l-37 -161h168l-28 -123h-169l-40 -177h194l-28 -123h-366zM367 274l52 226
q9 45 9 60q0 44 -49 44q-36 0 -50.5 -29t-41.5 -139q-61 -244 -61 -293q0 -22 13.5 -32.5t30.5 -10.5q40 0 55.5 31.5t41.5 142.5z" />
    <glyph glyph-name="oe" unicode="&#x153;" horiz-adv-x="750" 
d="M574 174h162q-22 -89 -56 -126q-52 -60 -167 -60q-98 0 -134 58q-59 -59 -155 -59q-68 0 -115 30q-55 36 -55 111q0 45 24.5 149.5t35.5 140.5q5 16 10 28t20.5 33.5t35.5 35.5t57 25t83 11q91 0 135 -56q29 25 49 34q44 20 106 20q74 0 120.5 -32.5t46.5 -95.5
q0 -30 -35 -185h-252q-21 -89 -21 -102q0 -17 11.5 -26.5t29.5 -9.5q17 0 28 5t18 18t10 22.5t8 30.5zM510 330h99q14 58 14 75q0 39 -41 39q-15 0 -25.5 -6.5t-17 -13t-12.5 -26t-8.5 -29.5t-8.5 -39zM307 152l50 212q6 32 6 41q0 37 -43 37q-27 0 -40 -19.5t-22 -58.5
l-46 -197q-4 -17 -4 -31q0 -19 12.5 -29t29.5 -10q21 0 34 11t16.5 20.5t6.5 23.5z" />
    <glyph glyph-name="Scaron" unicode="&#x160;" horiz-adv-x="521" 
d="M59 243h170q-19 -71 -19 -91q0 -46 51 -46q35 0 51 22q10 12 17 40t7 45t-8 29.5t-29 29.5q-1 1 -67 51q-65 48 -84 72.5t-19 70.5q0 40 20 101t43 91q13 17 25 27t51 21.5t96 11.5q102 0 157 -30t55 -102q0 -29 -18 -104h-162q15 63 15 76q0 40 -45 40q-35 0 -47 -24
q-9 -13 -15 -38.5t-6 -39.5q0 -23 11.5 -36t58.5 -48q96 -72 120.5 -102t24.5 -75q0 -19 -5 -42q-20 -110 -73.5 -157.5t-176.5 -47.5q-220 0 -220 138q0 33 21 117zM267 878h105l37 -61l67 61h121l-132 -124h-126z" />
    <glyph glyph-name="scaron" unicode="&#x161;" horiz-adv-x="458" 
d="M39 183h154q-11 -35 -11 -53q0 -34 40 -34q18 0 29 7q23 16 23 54q0 21 -20 38q-7 6 -32 24.5t-47 34.5t-23 17q-59 46 -59 99q0 50 27 99q44 79 184 79q82 0 134 -32t52 -91q0 -19 -8 -55h-151q9 30 9 43q0 2 -0.5 4.5t-2.5 7.5t-6 8.5t-12 6.5t-19 3q-13 0 -23 -5.5
t-14.5 -12t-7 -15.5t-3 -12.5t-0.5 -6.5q0 -21 31 -44l13 -9q13 -9 26.5 -19t16.5 -12q59 -41 80.5 -65t21.5 -64q0 -28 -11 -65.5t-30 -60.5q-51 -63 -175 -63q-79 0 -124 21q-74 33 -74 107q0 24 12 66zM199 730h105l38 -61l66 61h122l-133 -124h-127z" />
    <glyph glyph-name="Ydieresis" unicode="&#x178;" horiz-adv-x="521" 
d="M320 418l144 288h191l-293 -476l-53 -230h-170l57 244l-67 462h167zM437 751l29 125h140l-30 -125h-139zM245 876h139l-29 -125h-139z" />
    <glyph glyph-name="Zcaron" unicode="&#x17d;" horiz-adv-x="479" 
d="M123 583l28 124h425l-30 -131l-352 -446h249l-30 -130h-439l30 130l356 453h-237zM241 878h105l37 -61l67 61h121l-132 -124h-126z" />
    <glyph glyph-name="zcaron" unicode="&#x17e;" horiz-adv-x="417" 
d="M94 436l23 100h370l-23 -98l-265 -330h206l-25 -108h-398l23 102l270 334h-181zM169 730h105l38 -61l66 61h122l-133 -124h-127z" />
    <glyph glyph-name="florin" unicode="&#x192;" horiz-adv-x="333" 
d="M182 536l13 52q6 26 10 37.5t12 29t18 25t27.5 16t42 11.5t58.5 3q47 0 94 -3l-23 -98q-54 2 -68 -8q-10 -7 -24 -65h70l-23 -96h-70l-116 -494q-9 -37 -16.5 -55t-24.5 -36t-47 -24.5t-79 -6.5q-48 0 -95 3l23 98q50 -1 62.5 4.5t20.5 33.5q37 131 113 477h-65l23 96h64
z" />
    <glyph glyph-name="circumflex" unicode="&#x2c6;" horiz-adv-x="250" 
d="M94 730h126l71 -125h-105l-37 62l-67 -62h-122z" />
    <glyph glyph-name="caron" unicode="&#x2c7;" horiz-adv-x="250" 
d="M-40 730h105l38 -61l66 61h122l-133 -124h-127z" />
    <glyph glyph-name="breve" unicode="&#x2d8;" horiz-adv-x="250" 
d="M201 727h70q-9 -45 -49 -83.5t-114 -38.5q-56 0 -92 29t-36 69l3 24h68q1 -13 3 -20t16.5 -15t42.5 -8q43 0 61 10t27 33z" />
    <glyph glyph-name="dotaccent" unicode="&#x2d9;" horiz-adv-x="250" 
d="M70 729h138l-28 -125h-139z" />
    <glyph glyph-name="ring" unicode="&#x2da;" horiz-adv-x="250" 
d="M126 587q-44 0 -75 24t-31 63q1 42 29 64t73 22q46 0 75.5 -21.5t31.5 -65.5q0 -43 -31.5 -64.5t-71.5 -21.5zM171 673q0 18 -10.5 32.5t-35.5 14.5t-36.5 -15t-11.5 -32q0 -18 11.5 -33t36.5 -15q24 0 35 16t11 32z" />
    <glyph glyph-name="ogonek" unicode="&#x2db;" horiz-adv-x="250" 
d="M90 0h100q-43 -48 -43 -67q0 -21 41 -21q12 0 30 2l-25 -104q-39 -3 -44 -3q-117 0 -117 75q0 26 11.5 47.5t46.5 70.5z" />
    <glyph glyph-name="tilde" unicode="&#x2dc;" horiz-adv-x="250" 
d="M6 615h-44q2 17 4 27.5t9 29.5t17.5 30.5t29.5 20.5t45 9q27 0 65 -14q50 -18 68 -18q30 0 43 29h45q-3 -17 -5.5 -28t-10.5 -30.5t-18.5 -30.5t-29.5 -20.5t-44 -9.5q-28 0 -66 15q-55 20 -68 20q-26 0 -40 -30z" />
    <glyph glyph-name="hungarumlaut" unicode="&#x2dd;" horiz-adv-x="250" 
d="M14 606h-115l94 119h159zM211 606h-117l94 119h163z" />
    <glyph glyph-name="endash" unicode="&#x2013;" horiz-adv-x="521" 
d="M73 295l26 115h453l-26 -115h-453z" />
    <glyph glyph-name="emdash" unicode="&#x2014;" horiz-adv-x="583" 
d="M73 295l27 114h513l-26 -114h-514z" />
    <glyph glyph-name="quoteleft" unicode="&#x2018;" horiz-adv-x="250" 
d="M269 706h64l-91 -153h56l-36 -154h-150l36 154z" />
    <glyph glyph-name="quoteright" unicode="&#x2019;" horiz-adv-x="250" 
d="M151 554l35 153h151l-35 -153l-122 -155h-65l91 155h-55z" />
    <glyph glyph-name="quotesinglbase" unicode="&#x201a;" horiz-adv-x="250" 
d="M18 0l36 153h151l-36 -153l-122 -155h-64l91 155h-56z" />
    <glyph glyph-name="quotedblleft" unicode="&#x201c;" horiz-adv-x="437" 
d="M344 550l119 157h67l-91 -157h55l-35 -150h-149zM143 550l116 157h69l-89 -157h53l-35 -150h-149z" />
    <glyph glyph-name="quotedblright" unicode="&#x201d;" horiz-adv-x="437" 
d="M385 707h149l-35 -152l-116 -155h-69l90 155h-54zM148 555l35 152h150l-35 -152l-120 -155h-66l91 155h-55z" />
    <glyph glyph-name="quotedblbase" unicode="&#x201e;" horiz-adv-x="437" 
d="M10 0l35 153h149l-35 -153l-118 -154h-66l90 154h-55zM212 0l36 153h148l-35 -153l-116 -154h-68l88 154h-53z" />
    <glyph glyph-name="dagger" unicode="&#x2020;" horiz-adv-x="437" 
d="M230 536l39 171h156l-39 -171h126l-29 -129h-127l-94 -407h-160l98 407h-123l29 129h124z" />
    <glyph glyph-name="daggerdbl" unicode="&#x2021;" horiz-adv-x="458" 
d="M278 0h-151l37 156h-129l29 121h128l42 177h-128l28 122h128l31 130h151l-31 -130h123l-28 -122h-122l-43 -177h123l-28 -121h-122z" />
    <glyph glyph-name="bullet" unicode="&#x2022;" horiz-adv-x="333" 
d="M374 352q0 -66 -42 -110.5t-110 -44.5q-71 0 -114.5 47.5t-43.5 107.5q0 63 45.5 109.5t111.5 46.5q62 0 107.5 -42.5t45.5 -113.5z" />
    <glyph glyph-name="ellipsis" unicode="&#x2026;" horiz-adv-x="1000" 
d="M64 0l35 153h149l-35 -153h-149zM397 0l35 153h149l-35 -153h-149zM730 0l35 153h150l-36 -153h-149z" />
    <glyph glyph-name="perthousand" unicode="&#x2030;" horiz-adv-x="1125" 
d="M403 560l-37 -155q-9 -35 -13.5 -51.5t-16 -39.5t-25.5 -33.5t-38.5 -18.5t-57.5 -8q-128 0 -128 94q0 31 13 81l33 144q9 37 15.5 55.5t23.5 42.5t46.5 34t75.5 10q56 0 86.5 -24.5t30.5 -70.5q0 -22 -8 -60zM236 584l-43 -182q-8 -32 -8 -43q0 -25 32 -25
q19 0 27.5 8.5t14.5 32.5l46 199q7 33 7 38q0 25 -26 25t-34 -10t-16 -43zM234 0l348 706h79l-348 -706h-79zM801 295l-37 -154q-11 -44 -17.5 -63.5t-22.5 -44t-42.5 -34t-68.5 -9.5q-128 0 -128 94q0 31 13 81l33 143q9 37 15.5 55.5t23.5 42.5t46.5 34t75.5 10
q56 0 86.5 -24.5t30.5 -70.5q0 -20 -8 -60zM634 319l-43 -182q-8 -29 -8 -42q0 -25 32 -25q19 0 27.5 8.5t14.5 32.5l46 198q7 33 7 39q0 24 -26 24t-34 -10t-16 -43zM1134 295l-37 -154q-11 -44 -17.5 -63.5t-22.5 -44t-42.5 -34t-68.5 -9.5q-128 0 -128 94q0 31 13 81
l33 143q9 37 15.5 55.5t23.5 42.5t46.5 34t75.5 10q56 0 86.5 -24.5t30.5 -70.5q0 -20 -8 -60zM967 319l-43 -182q-8 -29 -8 -42q0 -25 32 -25q19 0 27.5 8.5t14.5 32.5l46 198q7 33 7 39q0 24 -26 24t-34 -10t-16 -43z" />
    <glyph glyph-name="guilsinglleft" unicode="&#x2039;" horiz-adv-x="229" 
d="M47 220l31 128l190 132l-34 -146l-84 -55l59 -59l-30 -125z" />
    <glyph glyph-name="guilsinglright" unicode="&#x203a;" horiz-adv-x="229" 
d="M221 227l-190 -132l33 146l84 56l-57 57l29 126l131 -126z" />
    <glyph glyph-name="fraction" unicode="&#x2044;" horiz-adv-x="125" 
d="M-100 0l348 706h79l-348 -706h-79z" />
    <glyph glyph-name="fraction" unicode="&#x2215;" horiz-adv-x="125" 
d="M-100 0l348 706h79l-348 -706h-79z" />
    <glyph glyph-name="Euro" unicode="&#x20ac;" horiz-adv-x="521" 
d="M609 685l-31 -131q-26 41 -108 41q-111 0 -156 -121h216l-51 -92h-197q-5 -22 -7 -27q-5 -26 -6 -31h177l-51 -93h-136q-10 -119 100 -119q75 0 126 39l-30 -131q-47 -31 -149 -31q-209 0 -189 242h-76l52 93h36q1 11 6 31q1 3 3.5 12.5t4.5 14.5h-67l51 92h45
q93 245 303 245q95 0 134 -34z" />
    <glyph glyph-name="trademark" unicode="&#x2122;" horiz-adv-x="688" 
d="M766 706v-332h-82l4 177q0 28 6 68q-2 -7 -6.5 -26.5t-7.5 -27.5l-56 -191h-75l-59 192q-3 7 -14 51q6 -44 7 -66l4 -177h-81v332h106l76 -240l71 240h107zM279 639v-265h-84v265h-102v67h286v-67h-100z" />
    <glyph glyph-name="minus" unicode="&#x2212;" horiz-adv-x="667" 
d="M704 354v-127h-667v127h667z" />
    <glyph glyph-name="fi" unicode="&#xfb01;" horiz-adv-x="562" 
d="M173 536l12 52q9 38 15.5 54t23.5 35.5t47.5 26t80.5 6.5q47 0 95 -3l-23 -98q-43 1 -56.5 -2.5t-20.5 -18.5q-4 -9 -14 -52h70l-23 -96h-70l-101 -440h-160l101 440h-64l22 96h65zM494 706h159l-28 -120h-159zM331 0l124 536h159l-124 -536h-159z" />
    <glyph glyph-name="fl" unicode="&#xfb02;" horiz-adv-x="562" 
d="M173 536l12 52q9 38 15.5 54t23.5 35.5t47.5 26t80.5 6.5q47 0 95 -3l-23 -98q-43 1 -56.5 -2.5t-20.5 -18.5q-4 -9 -14 -52h70l-23 -96h-70l-101 -440h-160l101 440h-64l22 96h65zM332 0l163 706h160l-163 -706h-160z" />
    </font>
</defs>
</svg>
