<?xml version="1.0" standalone="no"?>
<!DOCTYPE svg PUBLIC "-//W3C//DTD SVG 1.1//EN" "http://www.w3.org/Graphics/SVG/1.1/DTD/svg11.dtd" >
<svg>
<metadata>
Created by FontForge 20120731 at Wed Jun 24 20:38:12 2015
 By ,,,
Copyright (c) 1991, 1998 Adobe Systems Incorporated.  All Rights Reserved.Berthold Akzidenz-Grotesk is either a registered trademark or trademark of Berthold Types Limited in the United States and/or other countries.
</metadata>
<defs>
<font id="AkzidenzGroteskBE-MdCn" horiz-adv-x="313" >
  <font-face 
    font-family="Akzidenz Grotesk BE MdCn"
    font-weight="500"
    font-stretch="condensed"
    units-per-em="1000"
    panose-1="2 11 6 6 0 0 0 0 0 0"
    ascent="750"
    descent="-250"
    x-height="535"
    cap-height="706"
    bbox="-115 -250 872 897"
    underline-thickness="50"
    underline-position="-50"
    unicode-range="U+0020-FB02"
  />
<missing-glyph horiz-adv-x="208" 
 />
    <glyph glyph-name=".notdef" horiz-adv-x="208" 
 />
    <glyph glyph-name=".null" horiz-adv-x="0" 
 />
    <glyph glyph-name="nonmarkingreturn" horiz-adv-x="333" 
 />
    <glyph glyph-name="space" unicode=" " horiz-adv-x="208" 
 />
    <glyph glyph-name="space" unicode="&#xa0;" horiz-adv-x="208" 
 />
    <glyph glyph-name="exclam" unicode="!" horiz-adv-x="187" 
d="M71 451v248h79v-272l-17 -206h-44zM71 0v129h80v-129h-80z" />
    <glyph glyph-name="quotedbl" unicode="&#x22;" horiz-adv-x="396" 
d="M343 690l-41 -256h-23l-38 244q-2 12 -2 17q0 28 17.5 41t37.5 13q23 0 38 -15.5t11 -43.5zM156 690l-41 -256h-23l-38 244q-2 12 -2 17q0 28 17.5 41t37.5 13q23 0 38 -15.5t11 -43.5z" />
    <glyph glyph-name="numbersign" unicode="#" horiz-adv-x="583" 
d="M559 307v-77h-150l-33 -230h-80l33 230h-111l-32 -230h-81l33 230h-138v77h149l16 107h-141v77h151l31 215h80l-30 -215h110l31 215h78l-29 -215h138v-77h-149l-16 -107h140zM229 307h111l15 107h-111z" />
    <glyph glyph-name="dollar" unicode="$" horiz-adv-x="333" 
d="M140 713v59h46v-57q67 -13 89 -55.5t22 -124.5q0 -7 -0.5 -22t-0.5 -22h-78q0 88 -5 107q-9 43 -45 43q-25 0 -38 -20.5t-13 -53.5q0 -28 10.5 -56t21 -44t36.5 -52l43 -57q49 -66 65.5 -112t16.5 -95q0 -65 -30 -107t-93 -49v-70h-46v70q-27 6 -46 16t-31 28t-19 34
t-10.5 48.5t-4 57.5t-0.5 73h83q1 -109 6 -134q7 -51 50 -51q56 0 56 83q0 66 -48 131l-46 59q-98 128 -98 227q0 56 27.5 95.5t79.5 50.5z" />
    <glyph glyph-name="percent" unicode="%" horiz-adv-x="583" 
d="M114 -5l309 736l49 -20l-309 -736zM379 99v253q0 97 91 97q94 0 94 -103v-233q0 -21 -0.5 -32.5t-5.5 -30.5t-14 -29t-27.5 -18t-45.5 -8q-26 0 -44.5 8t-27.5 18t-14 26.5t-5.5 26t-0.5 25.5zM507 82v272q0 15 -1.5 23.5t-10 16.5t-23.5 8q-17 0 -25.5 -7.5t-9.5 -15
t-1 -21.5v-267q0 -14 1 -21.5t9.5 -16t25.5 -8.5q35 0 35 37zM22 362v254q0 96 90 96q94 0 94 -102v-234q0 -21 -0.5 -32.5t-5.5 -30t-14 -29t-27.5 -18.5t-45.5 -8q-26 0 -44.5 8t-27 18t-13.5 26.5t-5.5 26t-0.5 25.5zM149 345v272q0 15 -1.5 23.5t-10 16.5t-23.5 8
q-16 0 -24.5 -7.5t-9.5 -15t-1 -21.5v-267q0 -14 1 -21.5t9.5 -16t24.5 -8.5q35 0 35 37z" />
    <glyph glyph-name="ampersand" unicode="&#x26;" horiz-adv-x="437" 
d="M437 84v-90q-80 12 -127 55q-50 -57 -121 -57q-69 0 -114.5 50.5t-45.5 140.5q0 42 13.5 80.5t25.5 56.5t37 51q-42 78 -42 161q0 74 38 119t98 45q56 0 85.5 -35.5t29.5 -85.5q0 -39 -19.5 -82.5t-38.5 -69t-49 -60.5q34 -75 88 -163q19 58 21 154h80q-3 -153 -44 -229
q43 -37 85 -41zM167 443q34 43 50 72.5t16 61.5q0 49 -37 49q-26 0 -38.5 -22.5t-12.5 -54.5q0 -42 22 -106zM147 289q-35 -51 -35 -101q0 -46 22 -79.5t56 -33.5q32 0 58 35q-55 86 -101 179z" />
    <glyph glyph-name="quotesingle" unicode="'" horiz-adv-x="208" 
d="M156 690l-41 -256h-23l-38 244q-2 12 -2 17q0 28 17.5 41t37.5 13q23 0 38 -15.5t11 -43.5z" />
    <glyph glyph-name="parenleft" unicode="(" horiz-adv-x="250" 
d="M233 -151v-59q-28 21 -47 38.5t-49 60.5t-52 96q-54 131 -54 282q0 130 40 240q51 144 163 221v-59q-69 -64 -94 -198q-20 -101 -20 -206q0 -297 113 -416z" />
    <glyph glyph-name="parenright" unicode=")" horiz-adv-x="250" 
d="M17 668v60q29 -23 47 -39.5t49 -59.5t53 -96q53 -130 53 -283q0 -130 -40 -240q-51 -143 -163 -220v58q68 63 94 198q20 101 20 207q0 296 -113 415z" />
    <glyph glyph-name="asterisk" unicode="*" horiz-adv-x="396" 
d="M159 632v75h72v-75l-14 -52l57 25l69 19l20 -71l-76 -19h-61l48 -34l44 -66l-61 -40l-45 65l-16 62l-12 -62l-45 -65l-62 37l40 63l47 39l-56 -1l-75 22l20 75l73 -28l50 -28z" />
    <glyph glyph-name="plus" unicode="+" horiz-adv-x="500" 
d="M468 331v-80h-179v-179h-80v179h-178v80h178v179h80v-179h179z" />
    <glyph glyph-name="comma" unicode="," horiz-adv-x="146" 
d="M31 0v129h80v-107q0 -69 -15 -99t-61 -58v22q22 16 29 37.5t7 75.5h-40z" />
    <glyph glyph-name="hyphen" unicode="-" horiz-adv-x="229" 
d="M29 284v84h177v-84h-177z" />
    <glyph glyph-name="hyphen" unicode="&#xad;" horiz-adv-x="229" 
d="M29 284v84h177v-84h-177z" />
    <glyph glyph-name="period" unicode="." horiz-adv-x="146" 
d="M30 0v132h82v-132h-82z" />
    <glyph glyph-name="slash" unicode="/" horiz-adv-x="250" 
d="M9 0l153 706h77l-152 -706h-78z" />
    <glyph glyph-name="zero" unicode="0" horiz-adv-x="354" 
d="M32 162v407q0 73 35 107q38 39 113 39q40 0 69 -12.5t42.5 -27.5t21 -39.5t8.5 -38t1 -32.5v-413q0 -23 -1 -37.5t-8.5 -40.5t-21.5 -41t-43.5 -27.5t-70.5 -12.5q-42 0 -71 12t-43 27t-21.5 42t-8.5 43t-1 45zM236 129v443q0 15 -1.5 25t-6 23t-17.5 20t-33 7
q-60 0 -60 -63v-449q0 -15 1 -23.5t6 -21t18 -19t33 -6.5q60 0 60 64z" />
    <glyph glyph-name="one" unicode="1" horiz-adv-x="354" 
d="M67 533v69q85 9 106 100h61v-702h-89v533h-78z" />
    <glyph glyph-name="two" unicode="2" horiz-adv-x="354" 
d="M36 472v107q0 19 1 31t8 34t21 34.5t42 23t68 10.5q71 0 106 -31q24 -21 29.5 -50t5.5 -94q0 -93 -11.5 -128t-76.5 -129q-30 -43 -44.5 -66t-31 -60.5t-22.5 -74.5h190v-79h-281q0 101 24 166.5t108 180.5q37 51 47.5 77t10.5 79v70q0 13 -1 21.5t-5.5 21.5t-16 20
t-30.5 7t-31.5 -5.5t-17 -16.5t-5.5 -18t-1 -19v-112h-86z" />
    <glyph glyph-name="three" unicode="3" horiz-adv-x="354" 
d="M33 533v63q0 13 1 23t8 30t20 32.5t40.5 23t65.5 10.5q37 0 63 -8.5t38.5 -19.5t19 -29.5t7.5 -29t1 -27.5v-107q0 -48 -15 -67t-54 -28q49 -9 66.5 -37.5t17.5 -90.5v-122q0 -27 -1 -42t-8 -40t-21 -38t-42 -24t-68 -11q-39 0 -67.5 10.5t-42 23t-20.5 32.5t-8 30.5
t-1 24.5v99h85v-90q0 -11 1 -18t5.5 -18t16 -17t30.5 -6q55 0 55 62v134q0 58 -26.5 72t-99.5 12v83q60 -3 86 13t26 57v103q0 47 -46 47q-22 0 -33.5 -10.5t-13 -19t-1.5 -22.5v-63h-85z" />
    <glyph glyph-name="four" unicode="4" horiz-adv-x="354" 
d="M8 236l149 466h129v-464h50v-75h-50v-163h-84v163h-194v73zM202 238v370l-114 -370h114z" />
    <glyph glyph-name="five" unicode="5" horiz-adv-x="354" 
d="M46 347v355h253v-81h-174v-152q35 29 81 29q113 0 113 -114v-261q0 -17 -1 -28t-8 -33t-20.5 -36t-41.5 -25t-67 -11q-60 0 -97 24q-43 29 -43 99v104h85v-95q0 -12 1 -19.5t5.5 -18.5t16 -16.5t29.5 -5.5q19 0 31.5 6.5t17 20t5.5 23t1 25.5v228q0 59 -55 59
q-27 0 -40 -12.5t-15 -25.5t-2 -39h-75z" />
    <glyph glyph-name="six" unicode="6" horiz-adv-x="354" 
d="M41 143v419q0 30 1 45.5t10 37.5t26 37q36 33 107 33q38 0 65 -11.5t40 -25.5t20 -37.5t8 -36.5t1 -32v-71h-82v77q0 21 -5.5 35.5t-15.5 20t-17.5 7t-17.5 1.5q-19 0 -31.5 -6.5t-17 -19.5t-5.5 -22.5t-1 -25.5v-178q33 42 87 42q31 0 53 -11t32.5 -24.5t16.5 -36
t6.5 -35t0.5 -32.5v-163q0 -54 -19 -84q-41 -53 -123 -53q-54 0 -89 24q-23 16 -35 40.5t-13.5 41t-1.5 44.5zM238 126v164q0 14 -1 22t-5.5 20.5t-17 18.5t-31.5 6q-57 0 -57 -68v-158q0 -13 1 -21t6 -21t17.5 -20t32.5 -7q55 0 55 64z" />
    <glyph glyph-name="seven" unicode="7" horiz-adv-x="354" 
d="M42 619v80h265v-76q-58 -128 -89 -285q-31 -155 -36 -338h-102q13 189 43 322.5t106 296.5h-187z" />
    <glyph glyph-name="eight" unicode="8" horiz-adv-x="354" 
d="M42 466v104q0 138 137 138q39 0 66.5 -11.5t41 -25.5t20.5 -38.5t8 -38.5t1 -37v-55q0 -59 -14.5 -88.5t-60.5 -44.5q22 -4 37 -13t23 -19t12.5 -26t5 -27.5t0.5 -30.5v-125q0 -76 -45 -109q-37 -28 -100 -28q-142 0 -142 147v85q0 76 15 105t66 41q-42 16 -56.5 36.5
t-14.5 60.5zM127 577v-114q0 -11 1 -18t5 -17.5t15 -16t28 -5.5q19 0 31 6t17 18.5t6 21.5t1 24v91q0 17 -1 26.5t-5.5 22t-15.5 18.5t-29 6q-24 0 -37 -12.5t-14.5 -23t-1.5 -27.5zM234 153v113q0 31 -11 47.5t-47 16.5q-17 0 -28.5 -5.5t-17.5 -12t-9 -21t-3.5 -24.5
t-0.5 -30v-106q0 -69 58 -69q21 0 34 7t18 22.5t6 27t1 34.5z" />
    <glyph glyph-name="nine" unicode="9" horiz-adv-x="354" 
d="M314 565v-419q0 -25 -1 -39t-8.5 -38.5t-21.5 -38.5t-43.5 -25t-70.5 -11q-38 0 -65 11.5t-40 25.5t-20 37t-8 36t-1 32v72h82v-78q0 -28 11 -43t21 -17.5t24 -2.5q19 0 31.5 6.5t17.5 19.5t6 22.5t1 25.5v177q-34 -42 -88 -42q-31 0 -53 11t-32.5 24.5t-16.5 36t-6.5 35
t-0.5 32.5v164q0 16 1 27.5t8.5 34t21 37t42.5 26.5t69 12q56 0 90 -24q23 -16 35 -40.5t13.5 -41t1.5 -45.5zM116 583v-165q0 -14 1 -22t5.5 -20.5t17 -18.5t31.5 -6q58 0 58 68v158q0 15 -1 23.5t-6 21t-17.5 19t-32.5 6.5q-26 0 -39.5 -12.5t-15 -23.5t-1.5 -28z" />
    <glyph glyph-name="colon" unicode=":" horiz-adv-x="187" 
d="M72 323v129h82v-129h-82zM72 0v132h82v-132h-82z" />
    <glyph glyph-name="semicolon" unicode=";" horiz-adv-x="187" 
d="M70 324v129h82v-129h-82zM70 0v132h81v-121q0 -63 -18.5 -94t-59.5 -52v23q23 17 29.5 37.5t6.5 74.5h-39z" />
    <glyph glyph-name="less" unicode="&#x3c;" horiz-adv-x="500" 
d="M500 155v-87l-500 242v86l500 242v-87l-401 -198z" />
    <glyph glyph-name="equal" unicode="=" horiz-adv-x="500" 
d="M500 238v-78h-500v78h500zM500 419v-78h-500v78h500z" />
    <glyph glyph-name="greater" unicode="&#x3e;" horiz-adv-x="500" 
d="M500 310l-500 -242v87l401 198l-401 198v87l500 -242v-86z" />
    <glyph glyph-name="question" unicode="?" horiz-adv-x="333" 
d="M130 503h-76q-1 92 8 121q24 79 118 79q66 0 98.5 -42t32.5 -101q0 -71 -53 -173q-42 -79 -50 -101.5t-9 -64.5h-71q0 45 6 72.5t27 71.5q46 99 55.5 127t9.5 65q0 36 -9.5 54.5t-37.5 18.5q-34 0 -41.5 -25.5t-7.5 -101.5zM125 129h80v-129h-80v129z" />
    <glyph glyph-name="at" unicode="@" horiz-adv-x="896" 
d="M787 76l33 -40q-167 -160 -366 -160q-49 0 -99 10.5t-102.5 37t-92.5 66t-65.5 103t-25.5 142.5q0 92 34.5 179t94.5 152.5t147 105.5t185 40q134 0 215.5 -78t81.5 -211q0 -88 -33 -170t-86.5 -132.5t-110.5 -50.5q-27 0 -45 9t-25.5 25t-10 26t-3.5 25
q-62 -84 -144 -84q-8 0 -17.5 1t-32 10t-38.5 24.5t-29 49.5t-13 80q0 108 64.5 195t147.5 87q77 0 114 -85l15 62h68l-33 -150q-28 -136 -28 -175q0 -15 4.5 -22t16.5 -17h10q47 0 99 90t52 199q0 115 -68 176.5t-180 61.5q-101 0 -192 -55.5t-147.5 -154.5t-56.5 -216
q0 -61 18.5 -111.5t50 -85t74 -58.5t88.5 -35t95 -11q184 0 336 145zM541 348q0 55 -25.5 80t-56.5 25q-42 0 -75.5 -36t-49.5 -84t-16 -95q0 -29 8 -50t17.5 -31t23 -15.5t19 -6t10.5 -0.5q58 0 101.5 66.5t43.5 146.5z" />
    <glyph glyph-name="A" unicode="A" horiz-adv-x="333" 
d="M106 706h113l109 -706h-91l-18 130h-106l-16 -130h-90zM166 573h-8q-3 -104 -5 -114l-30 -243h84l-35 245q-5 31 -6 112z" />
    <glyph glyph-name="B" unicode="B" horiz-adv-x="354" 
d="M42 0v706h165q33 0 53 -6.5t32 -15.5t17.5 -34.5t6.5 -48t1 -71.5q0 -34 -0.5 -49.5t-2.5 -37t-6 -30.5t-12 -19t-20 -13.5t-30 -4.5v-5q17 -1 27 -3.5t23.5 -14.5t17.5 -34q3 -18 3 -143q0 -60 -3 -88.5t-16.5 -51.5t-39 -29.5t-73.5 -6.5h-143zM132 622v-212
q54 0 67 2.5t19 16.5q7 15 7 96q0 14 -2 50q-3 37 -12 43q-7 4 -79 4zM184 333h-52v-246h48q35 0 41 14q6 12 6 110q0 82 -7 102t-36 20z" />
    <glyph glyph-name="C" unicode="C" horiz-adv-x="375" 
d="M40 170v341q0 28 1 46t9.5 51t23.5 53t47 36t77 16q35 0 61.5 -8.5t41.5 -25.5t24.5 -33t13 -39.5t4.5 -35.5t1 -31v-90h-93v109q0 73 -58 73q-21 0 -34 -8t-18 -23.5t-6 -26.5t-1 -30v-390q0 -20 1 -30.5t6 -24.5t17.5 -20.5t32.5 -6.5q21 0 34 7t18 22.5t6 26.5t1 33
v131h94v-119q0 -182 -155 -182q-89 0 -127 63q-22 36 -22 116z" />
    <glyph glyph-name="D" unicode="D" horiz-adv-x="354" 
d="M39 0v706h171q36 0 59 -9t33 -27t13 -35t3 -43v-470q0 -70 -21.5 -96t-78.5 -26h-179zM186 620h-54v-533h62q19 0 24.5 9.5t5.5 29.5v445q0 17 -1.5 25.5t-10.5 16t-26 7.5z" />
    <glyph glyph-name="E" unicode="E" horiz-adv-x="292" 
d="M42 0v706h233v-89h-138v-206h124v-87h-124v-235h139v-89h-234z" />
    <glyph glyph-name="F" unicode="F" horiz-adv-x="292" 
d="M42 0v707h242v-88h-149v-205h135v-86h-134v-328h-94z" />
    <glyph glyph-name="G" unicode="G" horiz-adv-x="354" 
d="M40 165v349q0 38 1 56.5t7 42.5t18 43q36 58 116 58q36 0 61.5 -12t37.5 -27t18.5 -40t7.5 -39t1 -37v-74h-86v79q0 18 -1 28.5t-5 22t-13 16.5t-24 5q-17 0 -27 -6.5t-14 -20t-5 -23.5t-1 -28v-406q0 -23 1 -34t5 -25t13.5 -20t26.5 -6q47 0 47 63v160h-57v86h149v-376
h-56l-8 33q-11 -13 -17 -19.5t-25 -15.5t-43 -9q-31 0 -54 9t-36 26t-21.5 33t-12 40t-4 36.5t-0.5 31.5z" />
    <glyph glyph-name="H" unicode="H" horiz-adv-x="354" 
d="M39 706h93v-287h87v287h93v-706h-94v328h-86v-328h-93v706z" />
    <glyph glyph-name="I" unicode="I" horiz-adv-x="167" 
d="M37 706h92v-706h-92v706z" />
    <glyph glyph-name="J" unicode="J" horiz-adv-x="292" 
d="M160 197v509h93v-490q0 -50 -0.5 -72t-5 -47.5t-14.5 -42.5q-33 -59 -127 -59q-38 0 -98 9v85q42 -14 87 -14q46 0 55.5 21.5t9.5 100.5z" />
    <glyph glyph-name="K" unicode="K" horiz-adv-x="354" 
d="M149 436l84 270h94l-116 -350l138 -356h-95l-104 276l-18 54v-330h-93v706h94v-280q0 -12 -0.5 -28.5t-0.5 -24.5q8 36 17 63z" />
    <glyph glyph-name="L" unicode="L" horiz-adv-x="292" 
d="M42 707h94v-621h154v-86h-248v707z" />
    <glyph glyph-name="M" unicode="M" horiz-adv-x="500" 
d="M43 706h132l58 -357q12 -71 13 -154h8q2 95 11 152l53 359h137v-706h-86v475q0 34 2 102h-8q0 -4 -3.5 -34.5t-6.5 -57t-4 -35.5l-62 -450h-78l-62 436q-7 48 -15 141h-9q6 -100 6 -161v-416h-86v706z" />
    <glyph glyph-name="N" unicode="N" horiz-adv-x="375" 
d="M41 706h100l105 -452q3 -15 8 -38.5t7 -31.5h6q-8 66 -10 100l-4 66l-4 356h87v-706h-103l-116 529h-6l5 -61l4 -61l8 -407h-87v706z" />
    <glyph glyph-name="O" unicode="O" horiz-adv-x="375" 
d="M39 162v353q0 56 6.5 89t28.5 58q43 49 116 49q69 0 106 -40q19 -20 27.5 -47.5t10 -51.5t1.5 -78v-335q0 -22 -1 -38t-9.5 -42.5t-23.5 -43t-46 -29.5t-74 -13q-91 0 -125 69q-17 32 -17 100zM243 166v356q0 24 -0.5 35.5t-3 28.5t-8 24.5t-16 13.5t-26.5 6
q-40 0 -52 -34q-5 -14 -5 -73v-379q0 -22 2.5 -35.5t15 -26t36.5 -12.5q26 0 39 15t15.5 32t2.5 49z" />
    <glyph glyph-name="P" unicode="P" horiz-adv-x="333" 
d="M41 0v706h181q62 0 79.5 -28t17.5 -93v-134q0 -79 -16.5 -105t-77.5 -26h-93v-320h-91zM190 620h-57v-216h59q18 0 25.5 6.5t7.5 25.5v148q0 20 -6.5 28t-28.5 8z" />
    <glyph glyph-name="Q" unicode="Q" horiz-adv-x="375" 
d="M39 151v350q0 63 5.5 95t23.5 57q42 58 126 58q58 0 95 -33q29 -27 38 -63t9 -101v-331q0 -31 -1 -49.5t-7 -45t-17.5 -42.5t-33.5 -30t-54 -19q0 -20 2 -29t12 -16.5t31 -7.5q17 0 45 2v-86q-41 -1 -63.5 0.5t-46 8.5t-34.5 22.5t-19 41t-9 65.5q-24 7 -38.5 15t-31 24
t-24.5 44.5t-8 69.5zM244 169v375q0 21 -1.5 33.5t-6.5 26t-16.5 20t-30.5 6.5q-57 0 -57 -64v-416q0 -20 1 -30.5t5.5 -24t16.5 -19.5t31 -6q37 0 47.5 21.5t10.5 77.5z" />
    <glyph glyph-name="R" unicode="R" horiz-adv-x="354" 
d="M41 0v706h152q83 0 105 -31.5t22 -139.5q0 -104 -13 -139.5t-66 -34.5v-4q48 -6 62 -35.5t14 -104.5v-77q0 -63 3 -85.5t15 -54.5h-97q-15 77 -15 148v50q0 81 -12 106q-8 15 -20.5 18t-56.5 3v-325h-93zM183 621h-48v-218h44q34 0 41.5 23.5t7.5 114.5q0 57 -7 68.5
t-38 11.5z" />
    <glyph glyph-name="S" unicode="S" horiz-adv-x="333" 
d="M118 258v-129q0 -13 1 -21.5t5 -21t14.5 -19t27.5 -6.5q16 0 25.5 7t13.5 21t5 25t1 29q0 49 -14 84t-62 106q-35 51 -51.5 78t-31 69t-14.5 85q0 57 24 97q36 58 119 58q119 0 119 -121v-126h-85v125q0 48 -37 48q-29 0 -38 -19t-9 -52q0 -51 17 -87t74 -118
q30 -44 43.5 -67.5t27 -64t13.5 -83.5q0 -75 -33 -121q-35 -47 -106 -47q-135 0 -135 153v118h86z" />
    <glyph glyph-name="T" unicode="T" horiz-adv-x="333" 
d="M11 623v83h312v-83h-110v-623h-95v623h-107z" />
    <glyph glyph-name="U" unicode="U" horiz-adv-x="375" 
d="M40 154v552h91v-546q0 -24 1 -35.5t6 -28t17.5 -23.5t32.5 -7t32 7t17 24t6 30t1 39v540h92v-535q0 -23 -1 -38.5t-9 -45.5t-22.5 -49t-45 -34t-73.5 -15q-145 0 -145 165z" />
    <glyph glyph-name="V" unicode="V" horiz-adv-x="333" 
d="M190 307l50 400h92l-108 -707h-109l-109 707h93l53 -407q12 -98 14 -157h10q1 68 14 164z" />
    <glyph glyph-name="W" unicode="W" horiz-adv-x="479" 
d="M193 706h84l47 -433q6 -56 8 -132h7q0 76 7 159l34 406h93l-82 -706h-108l-39 384q-4 40 -4 123h-9q0 -90 -2 -112l-38 -395h-106l-79 706h91l36 -443q4 -45 6 -123h6q0 86 5 133z" />
    <glyph glyph-name="X" unicode="X" horiz-adv-x="333" 
d="M6 706h93l52 -162q6 -21 8 -66h9q3 53 12 82l45 146h93l-104 -341l114 -365h-94l-59 196q-3 11 -7 63h-8q-6 -61 -7 -66l-56 -193h-92l108 364z" />
    <glyph glyph-name="Y" unicode="Y" horiz-adv-x="333" 
d="M3 706h96l41 -164q12 -47 20 -136h7q7 82 24 144l44 156h94l-117 -410v-296h-101v295z" />
    <glyph glyph-name="Z" unicode="Z" horiz-adv-x="292" 
d="M55 707h225v-61l-165 -561h151v-85h-251v62l167 562h-127v83z" />
    <glyph glyph-name="bracketleft" unicode="[" horiz-adv-x="271" 
d="M227 -148v-48h-167v929h169v-48h-86v-833h84z" />
    <glyph glyph-name="backslash" unicode="\" horiz-adv-x="250" 
d="M239 0h-77l-153 706h78z" />
    <glyph glyph-name="bracketright" unicode="]" horiz-adv-x="271" 
d="M46 685v48h167v-929h-169v48h86v833h-84z" />
    <glyph glyph-name="asciicircum" unicode="^" horiz-adv-x="729" 
d="M407 706l180 -369h-97l-124 259l-128 -259h-96l188 369h77z" />
    <glyph glyph-name="underscore" unicode="_" horiz-adv-x="500" 
d="M510 -75v-50h-520v50h520z" />
    <glyph glyph-name="grave" unicode="`" horiz-adv-x="208" 
d="M17 692h102l72 -120h-48z" />
    <glyph glyph-name="a" unicode="a" 
d="M40 364v65q0 116 116 116q33 0 56.5 -9t34.5 -20.5t17 -30.5t7 -29t1 -26v-339q0 -60 15 -91h-86q-8 19 -14 43q-10 -15 -17 -23.5t-23.5 -17t-36.5 -8.5q-76 0 -76 90v95q0 25 1.5 37.5t13 30t34.5 32.5l77 48q32 21 32 31v80q0 41 -35 41t-35 -40v-75h-82zM192 140v126
q-14 -13 -49 -35q-29 -20 -29 -55v-54q0 -20 1 -30.5t8.5 -22t22.5 -11.5q46 0 46 82z" />
    <glyph glyph-name="b" unicode="b" 
d="M39 0v706h80v-208q26 45 77 45q46 0 67 -33q14 -22 14 -59v-338q0 -15 -2 -28.5t-10 -38.5t-30 -40t-56 -15q-56 0 -77 54q-12 -21 -18 -45h-45zM196 110v317q0 45 -35 45q-42 0 -42 -52v-299q0 -18 1 -27.5t10 -19.5t27 -10q39 0 39 46z" />
    <glyph glyph-name="c" unicode="c" horiz-adv-x="292" 
d="M36 105v317q0 123 120 123q121 0 121 -129v-73h-81v91q0 43 -40 43q-15 0 -24 -4.5t-12 -13.5t-4 -16t-1 -19v-325q0 -42 39 -42q19 0 29 10t11.5 19.5t1.5 26.5v99h80v-97q0 -125 -120 -125q-32 0 -55.5 8t-35.5 19t-19 28t-8.5 30t-1.5 30z" />
    <glyph glyph-name="d" unicode="d" 
d="M195 503v204h81v-707h-81v37q-10 -14 -16 -21t-22 -15.5t-36 -8.5q-81 0 -81 96v356q0 99 82 99q35 0 73 -40zM195 127v292q0 51 -37 51q-39 0 -39 -55v-308q0 -43 36 -43q40 0 40 63z" />
    <glyph glyph-name="e" unicode="e" 
d="M39 102v287q0 67 10 90q12 31 41.5 48t68.5 17q118 0 118 -120v-174h-159v-150q0 -44 38 -44q40 0 40 49v94h81v-76q0 -132 -122 -132q-27 0 -48 7q-68 22 -68 104zM196 317v112q0 15 -1 23.5t-10 17t-26 8.5q-19 0 -28.5 -10.5t-11 -20t-1.5 -27.5v-103h78z" />
    <glyph glyph-name="f" unicode="f" horiz-adv-x="187" 
d="M54 534v94q0 41 13.5 60t58.5 19q22 0 54 -3v-69q-17 1 -24.5 0t-13.5 -8.5t-6 -22.5v-70h47v-66h-48v-468h-82v468h-44v66h45z" />
    <glyph glyph-name="g" unicode="g" 
d="M37 86v360q0 51 23 76q23 23 58 23q50 0 76 -47v38h80v-554q0 -81 -56 -111q-28 -14 -65 -14q-17 0 -34.5 4t-38 15t-32.5 34.5t-11 56.5h80q-1 -7 0 -15t10.5 -18t28.5 -10q37 0 37 44v69q-30 -42 -74 -42q-82 0 -82 91zM194 127v277q0 32 -7.5 50t-33.5 18
q-14 0 -22 -4.5t-11.5 -17.5t-4 -24.5t-0.5 -37.5v-264q0 -19 1.5 -29t10 -19t25.5 -9q42 0 42 60z" />
    <glyph glyph-name="h" unicode="h" 
d="M40 707h80v-207q30 44 76 44q29 0 47 -12t25 -33.5t8.5 -35.5t1.5 -34v-429h-81v421q0 49 -37 49q-40 0 -40 -55v-415h-80v707z" />
    <glyph glyph-name="i" unicode="i" horiz-adv-x="167" 
d="M45 704h79v-107h-79v107zM43 0v535h80v-535h-80z" />
    <glyph glyph-name="j" unicode="j" horiz-adv-x="167" 
d="M46 703h81v-107h-81v107zM46 -34v569h81v-543q0 -32 -3 -51.5t-14 -40t-35 -30.5t-62 -10q-11 0 -31 2v69q18 -2 27 -2q37 0 37 37z" />
    <glyph glyph-name="k" unicode="k" horiz-adv-x="292" 
d="M41 706h80v-384l81 213h86l-93 -204l90 -331h-85l-62 246l-17 -42v-204h-80v706z" />
    <glyph glyph-name="l" unicode="l" horiz-adv-x="167" 
d="M43 0v706h81v-706h-81z" />
    <glyph glyph-name="m" unicode="m" horiz-adv-x="479" 
d="M121 536v-37q10 14 16.5 21.5t22 15.5t36.5 8q25 0 42.5 -11t23 -19.5t11.5 -22.5q31 53 82 53q29 0 47.5 -11t25.5 -32t9 -35.5t2 -36.5v-429h-81v422q0 16 -1.5 24.5t-10 16.5t-25.5 8q-19 0 -28.5 -10.5t-10.5 -19t-1 -26.5v-415h-81v420q0 16 -1.5 25t-10 18t-24.5 9
q-41 0 -41 -56v-416h-81v536h79z" />
    <glyph glyph-name="n" unicode="n" 
d="M118 535v-34q36 44 79 44q23 0 39.5 -8.5t24 -19.5t12 -29t5 -28t0.5 -26v-434h-82v419q0 16 -1 24.5t-9.5 18t-24.5 9.5q-15 0 -24 -6t-12.5 -17.5t-4.5 -20t-1 -22.5v-405h-80v535h79z" />
    <glyph glyph-name="o" unicode="o" 
d="M38 144v247q0 23 1 37t7 38.5t18 39.5t36.5 26.5t59.5 11.5q34 0 57.5 -10t35 -22t17.5 -32.5t7 -31.5t1 -29v-301q0 -127 -122 -127q-34 0 -57.5 10.5t-35 24t-17.5 38t-7 39.5t-1 41zM199 111v316q0 16 -1.5 25t-10.5 17.5t-27 8.5q-15 0 -24 -5t-12.5 -15.5
t-4.5 -17.5t-1 -20v-315q0 -15 1.5 -23t10.5 -16.5t27 -8.5q27 0 34.5 14.5t7.5 39.5z" />
    <glyph glyph-name="p" unicode="p" 
d="M118 536v-37q34 45 77 45q80 0 80 -100v-341q0 -110 -82 -110q-42 0 -75 45v-183h-80v681h80zM195 117v303q0 27 -7.5 40t-28.5 13q-14 0 -23.5 -6t-12.5 -18t-4 -20t-1 -21v-293q0 -49 39 -49q38 0 38 51z" />
    <glyph glyph-name="q" unicode="q" 
d="M36 86v338q0 20 0.5 31t4.5 30.5t12 30.5t24.5 20t39.5 9q50 0 83 -53q15 22 22 44h51v-680h-81v183q-36 -44 -80 -44q-76 0 -76 91zM193 136v266q0 23 -1.5 35t-11 23t-27.5 11q-38 0 -38 -46v-313q0 -14 1 -21.5t9 -16t24 -8.5q44 0 44 70z" />
    <glyph glyph-name="r" unicode="r" horiz-adv-x="229" 
d="M121 536v-62q8 17 12.5 25t14.5 20t23.5 17.5t31.5 5.5q8 0 22 -2v-93q-23 16 -48 16q-20 0 -33 -10t-17.5 -29t-6 -32t-1.5 -33v-359h-80v536h82z" />
    <glyph glyph-name="s" unicode="s" horiz-adv-x="292" 
d="M146 222l-43 43q-42 44 -56.5 73t-14.5 73q0 60 28.5 96t90.5 36q32 0 54 -10.5t33.5 -24t17.5 -40t7 -43.5t1 -50h-75q0 54 -8 74t-35 20q-39 0 -39 -51q0 -24 8.5 -42t34.5 -43l37 -36q27 -26 41 -43t27 -49t13 -70q0 -72 -34.5 -108.5t-89.5 -36.5q-85 0 -110 70
q-7 20 -8.5 42.5t-1.5 94.5h76q0 -88 3 -103q9 -33 43 -33q20 0 30 13t11.5 24.5t1.5 31.5q0 26 -8 45t-35 47z" />
    <glyph glyph-name="t" unicode="t" horiz-adv-x="187" 
d="M56 650h80v-116h46v-66h-46v-370q0 -26 10.5 -33t41.5 -5v-61q-35 -5 -46 -5q-56 0 -71.5 19.5t-15.5 68.5v386h-48v66h49v116z" />
    <glyph glyph-name="u" unicode="u" 
d="M197 0v34q-34 -44 -79 -44q-23 0 -39.5 8.5t-24 19.5t-12 29t-5 28t-0.5 26v434h82v-419q0 -16 1 -24.5t9.5 -18t24.5 -9.5q15 0 24 6t12.5 17.5t4.5 20t1 22.5v405h80v-535h-79z" />
    <glyph glyph-name="v" unicode="v" horiz-adv-x="271" 
d="M183 535h82l-83 -535h-96l-79 535h82l33 -273q6 -51 10 -157h8q3 103 7 132z" />
    <glyph glyph-name="w" unicode="w" horiz-adv-x="396" 
d="M8 535h77l20 -267q4 -55 4 -154h6q7 77 14 133l38 288h58l35 -294q1 -5 2.5 -24.5t4.5 -52t5 -51.5h7q0 98 6 173l21 249h79l-67 -535h-90l-20 170q-9 69 -9 170h-8q0 -72 -5 -127l-26 -213h-89z" />
    <glyph glyph-name="x" unicode="x" horiz-adv-x="292" 
d="M18 537h80l21 -78q19 -69 25 -117h6q13 77 25 120l19 73h80l-83 -245l91 -290h-83l-39 162q-6 24 -10 55h-6q-16 -66 -18 -73l-44 -144h-78l97 288z" />
    <glyph glyph-name="y" unicode="y" horiz-adv-x="271" 
d="M4 535h82l35 -318q1 -10 5 -53.5t5 -53.5h8q2 97 15 199l28 225h83l-102 -596q-13 -81 -98 -81q-13 0 -43 2v78q14 -1 22 0t19.5 5t17 15.5t5.5 29.5q0 8 -2 24z" />
    <glyph glyph-name="z" unicode="z" horiz-adv-x="271" 
d="M46 461v74h215v-76l-163 -383h159v-76h-246v76l163 385h-128z" />
    <glyph glyph-name="braceleft" unicode="{" horiz-adv-x="354" 
d="M71 231v55q46 12 59 40.5t13 117.5v76q0 44 1 65.5t9.5 49.5t24.5 47q17 19 43.5 30t44 13t48.5 3v-53q-27 -3 -44 -11.5t-26.5 -18.5t-13.5 -37.5t-5 -49.5t-1 -74q0 -43 -0.5 -63t-2.5 -49.5t-7 -43t-14 -29.5t-23.5 -24.5t-34.5 -13.5v-4q17 -5 30 -13t22 -16.5
t14.5 -26t9 -29.5t5 -39.5t1.5 -45v-54.5q0 -44 0.5 -63t3 -45.5t7.5 -36.5t15 -22t24.5 -16.5t36.5 -7.5v-53q-35 3 -52 5.5t-41 12.5t-40 29q-17 19 -25 47t-9 49.5t-1 65.5v71q0 89 -13 121t-59 41z" />
    <glyph glyph-name="bar" unicode="|" horiz-adv-x="229" 
d="M154 750v-1000h-80v1000h80z" />
    <glyph glyph-name="braceright" unicode="}" horiz-adv-x="354" 
d="M283 286v-55q-46 -12 -59 -40.5t-13 -116.5v-76q0 -44 -1 -65.5t-9 -49.5t-25 -47t-43.5 -30t-44 -13t-48.5 -3v53q27 3 44 11.5t26.5 18.5t13.5 37.5t5 49.5t1 74v54.5t1.5 44.5t5 39.5t9 29.5t14.5 25.5t22 16.5t30 13v4q-17 5 -30 13t-22 16.5t-14.5 25.5t-9 29.5
t-5 39.5t-1.5 44.5v54.5q0 44 -0.5 63t-3 45.5t-7.5 36.5t-15 22t-24.5 16.5t-36.5 7.5v53q35 -3 52 -5.5t41 -12.5t40 -29q17 -19 25 -47t9 -49t1 -65v-72q0 -89 13 -120.5t59 -41.5z" />
    <glyph glyph-name="asciitilde" unicode="~" horiz-adv-x="729" 
d="M567 366l38 -72q-62 -79 -137 -79q-34 0 -99 31q-79 39 -110 39q-27 0 -43.5 -12.5t-51.5 -54.5l-40 71q12 16 21 27t26 26t39 23t47 8q38 0 111 -33q76 -36 102 -36q48 0 97 62z" />
    <glyph glyph-name="exclamdown" unicode="&#xa1;" horiz-adv-x="187" 
d="M119 248v-248h-79v272l17 206h44zM119 699v-129h-80v129h80z" />
    <glyph glyph-name="cent" unicode="&#xa2;" 
d="M176 601v-56q35 -4 57.5 -16.5t32 -32.5t12.5 -37t3 -42v-73h-81v91q0 43 -40 43q-15 0 -24 -4.5t-12 -13.5t-4 -16t-1 -19v-325q0 -42 39 -42q19 0 29 10t11.5 19.5t1.5 26.5v99h80v-97q0 -20 -2.5 -35t-11.5 -36.5t-31.5 -35t-58.5 -17.5v-65h-38v65q-54 6 -76 34
t-22 80v317q0 107 98 121v57h38z" />
    <glyph glyph-name="sterling" unicode="&#xa3;" horiz-adv-x="479" 
d="M62 372h80q-38 104 -38 172q0 82 44 126t111 44q36 0 63 -9t42.5 -28.5t24.5 -37t12.5 -49t4 -49.5t0.5 -52h-86q0 31 -0.5 45t-2 35.5t-5 30t-10 19t-16.5 14t-24 3.5q-64 0 -64 -88q0 -71 43 -175h105v-67h-78q10 -52 10 -80q0 -57 -27 -120q60 -35 79 -35q24 0 31 23
q6 18 6 106h81q0 -10 0.5 -29.5t0.5 -30.5q0 -26 -2 -43t-10.5 -43t-31 -40t-58.5 -14q-60 0 -125 57q-17 -19 -27.5 -29t-35.5 -22t-54 -12q-35 0 -60 18.5t-25 53.5q0 38 29.5 59t70.5 21q26 0 72 -12q7 30 7 48q0 43 -32 123h-105v67zM168 82q-36 12 -56 12
q-43 0 -43 -28q0 -10 8.5 -17.5t22.5 -7.5q40 0 68 41z" />
    <glyph glyph-name="currency" unicode="&#xa4;" horiz-adv-x="667" 
d="M624 570l-75 -75q18 -30 26 -45t16 -44t8 -64q0 -38 -8 -69t-16.5 -46.5t-26.5 -43.5l76 -77l-61 -59l-75 76q-29 -18 -45.5 -26.5t-46 -16t-65.5 -7.5q-35 0 -65.5 8.5t-46.5 17t-41 25.5l-76 -76l-60 60l76 75q-18 28 -26.5 43.5t-16.5 46t-8 67.5q0 85 51 155l-75 75
l60 60l75 -75q74 51 155 51q36 0 66 -8t45.5 -16.5t43.5 -26.5l76 75zM519 340q0 86 -56.5 137t-125.5 51q-84 0 -137 -54.5t-53 -130.5q0 -88 56.5 -140t127.5 -52q81 0 134.5 54t53.5 135z" />
    <glyph glyph-name="yen" unicode="&#xa5;" horiz-adv-x="333" 
d="M99 706l41 -164q14 -54 21 -142h5q11 99 25 150l44 156h93l-86 -303h70v-63h-88l-12 -46v-9h100v-63h-100v-222h-101v222h-97v63h97v9l-12 46h-85v63h68l-78 303h95z" />
    <glyph glyph-name="brokenbar" unicode="&#xa6;" horiz-adv-x="229" 
d="M75 -175v350h80v-350h-80zM155 325h-80v350h80v-350z" />
    <glyph glyph-name="section" unicode="&#xa7;" horiz-adv-x="396" 
d="M32 101h86q-2 -48 3 -65q15 -46 68 -46q33 0 52.5 20t19.5 49q0 35 -27 61q-17 16 -88 52q-112 56 -112 155q0 35 15 64.5t27.5 41t33.5 26.5q-20 19 -31 32t-22.5 40t-11.5 57q0 62 42.5 104t110.5 42q69 0 108 -41q19 -19 28 -44.5t8.5 -48t-0.5 -46.5h-76q2 16 0.5 36
t-6 37.5t-20.5 29t-41 11.5q-29 0 -47.5 -17.5t-18.5 -45.5q0 -23 10.5 -42.5t33 -36t38.5 -25.5t46 -24q22 -11 33.5 -18.5t33 -25.5t32.5 -44t11 -59q0 -78 -74 -146q53 -52 53 -113q0 -63 -44 -106.5t-120 -43.5q-87 0 -129 58q-25 36 -25 122zM181 419
q-17 -11 -27 -18.5t-22 -26t-12 -40.5q0 -18 6.5 -32t24 -28t31.5 -22t46 -25q58 36 58 86q0 20 -8 36.5t-25.5 29.5t-31.5 20.5t-40 19.5z" />
    <glyph glyph-name="dieresis" unicode="&#xa8;" horiz-adv-x="208" 
d="M2 592v101h73v-101h-73zM133 693h73v-101h-73v101z" />
    <glyph glyph-name="copyright" unicode="&#xa9;" horiz-adv-x="833" 
d="M557 258l56 -49q-76 -91 -188 -91q-107 0 -172.5 68.5t-65.5 165.5q0 105 67.5 172.5t168.5 67.5q50 0 92 -17.5t58.5 -32.5t39.5 -40l-56 -53q-22 22 -35 33.5t-40 23t-58 11.5q-64 0 -111.5 -44t-47.5 -120q0 -71 47 -115.5t112 -44.5q34 0 63.5 13t41 23.5t28.5 28.5z
M772 352q0 -146 -102 -250.5t-254 -104.5q-145 0 -250 101t-105 256q0 150 104 252.5t251 102.5q151 0 253.5 -103t102.5 -254zM740 352q0 137 -92.5 231t-229.5 94t-231 -95t-94 -228q0 -138 95 -231.5t229 -93.5q136 0 229.5 94.5t93.5 228.5z" />
    <glyph glyph-name="ordfeminine" unicode="&#xaa;" horiz-adv-x="187" 
d="M159 643v-169q0 -36 7 -55h-49q-1 3 -3.5 9t-3.5 9q-19 -21 -40 -21q-43 0 -43 58q0 51 1 58q2 17 10 25.5t38 27.5q28 17 34 27q0 43 -2 51t-12 8q-13 0 -15 -8.5t-1 -51.5h-49q0 58 6 71q15 30 57 30q65 0 65 -69zM110 500v55q-26 -18 -28 -21q-7 -7 -7 -30
q0 -36 3 -43q2 -5 10 -6t15.5 10t6.5 35z" />
    <glyph glyph-name="guillemotleft" unicode="&#xab;" horiz-adv-x="333" 
d="M27 378l131 119v-100l-78 -72l79 -71v-100l-132 119v105zM174 381l132 116v-100l-79 -71l80 -71v-98l-133 116v108z" />
    <glyph glyph-name="logicalnot" unicode="&#xac;" horiz-adv-x="667" 
d="M587 0v253h-587v79h667v-332h-80z" />
    <glyph glyph-name="registered" unicode="&#xae;" horiz-adv-x="833" 
d="M266 580h146q75 0 105 -11q35 -12 53.5 -41t18.5 -63q0 -83 -92 -106q31 -13 44.5 -34t19.5 -60q14 -93 34 -134h-91q-12 24 -24 98q-11 72 -31 88t-103 16v-202h-80v449zM347 518v-121h66q18 0 29.5 1t29.5 6.5t27.5 19t9.5 35.5q0 38 -32 53q-16 6 -79 6h-51zM773 352
q0 -145 -102 -250t-255 -105q-143 0 -249 101t-106 255q0 151 104.5 253.5t250.5 102.5q150 0 253.5 -103t103.5 -254zM741 352q0 136 -93 230.5t-232 94.5q-133 0 -228 -94t-95 -230t95 -230t229 -94q138 0 231 95.5t93 227.5z" />
    <glyph glyph-name="macron" unicode="&#xaf;" horiz-adv-x="208" 
d="M2 592v62h204v-62h-204z" />
    <glyph glyph-name="macron" unicode="&#x2c9;" horiz-adv-x="208" 
d="M2 592v62h204v-62h-204z" />
    <glyph glyph-name="degree" unicode="&#xb0;" horiz-adv-x="354" 
d="M177 755q67 0 114 -47.5t47 -113.5q0 -67 -47 -114t-114 -47t-114.5 47t-47.5 114t47.5 114t114.5 47zM177 675q-33 0 -56 -23t-23 -56t23 -56t56 -23t56 23t23 56t-23.5 56t-55.5 23z" />
    <glyph glyph-name="plusminus" unicode="&#xb1;" horiz-adv-x="500" 
d="M291 342v-181h-79v181h-181v79h181v179h79v-179h178v-79h-178zM469 79v-79h-438v79h438z" />
    <glyph glyph-name="twosuperior" unicode="&#xb2;" horiz-adv-x="229" 
d="M81 557h-57v62q0 18 1.5 29.5t9 28t26.5 25t50 8.5q48 0 73 -23q13 -14 16 -30.5t3 -61.5q0 -56 -8 -77q-7 -22 -54 -90q-47 -67 -53 -111h117v-52h-181q0 69 16.5 107.5t68.5 110.5q24 33 30 49t6 53q0 51 -4.5 64.5t-26.5 13.5q-33 0 -33 -44v-62z" />
    <glyph glyph-name="threesuperior" unicode="&#xb3;" horiz-adv-x="229" 
d="M81 594h-57q0 33 1.5 48t9 34t25.5 26.5t49 7.5q30 0 49 -7.5t26 -21.5t8.5 -22.5t1.5 -22.5v-56q0 -35 -11 -49.5t-33 -18.5q36 -10 44 -27.5t8 -59.5v-69q0 -22 -1.5 -34.5t-9 -30t-27 -26t-50.5 -8.5q-77 0 -89 55q-2 11 -2 86h57v-54q0 -38 33 -38q32 0 32 41v77
q0 37 -15.5 45t-63.5 8v55q50 0 62 14q7 8 8 20.5t1 70.5q0 9 -1 13.5t-7 9.5t-19 5q-15 0 -22 -7q-5 -5 -6 -13.5t-1 -50.5z" />
    <glyph glyph-name="acute" unicode="&#xb4;" horiz-adv-x="208" 
d="M18 571l72 121h99l-125 -121h-46z" />
    <glyph glyph-name="mu" unicode="&#xb5;" 
d="M37 -145v680h82v-419q0 -16 1 -24.5t9.5 -18t24.5 -9.5q15 0 24 6t12.5 17.5t4.5 20t1 22.5v405h80v-535h-79v34q-24 -39 -49 -39q-13 0 -29 13v-153h-82z" />
    <glyph glyph-name="mu" unicode="&#x3bc;" 
d="M37 -145v680h82v-419q0 -16 1 -24.5t9.5 -18t24.5 -9.5q15 0 24 6t12.5 17.5t4.5 20t1 22.5v405h80v-535h-79v34q-24 -39 -49 -39q-13 0 -29 13v-153h-82z" />
    <glyph glyph-name="paragraph" unicode="&#xb6;" horiz-adv-x="667" 
d="M309 706h230v-54h-34v-818h-58v818h-145v-818h-57v485q-25 5 -38.5 9t-33 15t-35.5 28q-51 52 -51 135q0 20 3.5 40.5t17 51t36 53t65.5 39t100 16.5z" />
    <glyph glyph-name="periodcentered" unicode="&#xb7;" horiz-adv-x="146" 
d="M30 259v132h82v-132h-82z" />
    <glyph glyph-name="periodcentered" unicode="&#x2219;" horiz-adv-x="146" 
d="M30 259v132h82v-132h-82z" />
    <glyph glyph-name="cedilla" unicode="&#xb8;" horiz-adv-x="208" 
d="M107 41h47l-43 -78q81 -4 81 -56q0 -15 -7 -27.5t-24.5 -25.5t-54.5 -20t-90 -5v31q94 -5 94 32q0 17 -18.5 22.5t-55.5 7.5z" />
    <glyph glyph-name="onesuperior" unicode="&#xb9;" horiz-adv-x="229" 
d="M48 594v46q30 5 44.5 20t23.5 46h40v-442h-59v330h-49z" />
    <glyph glyph-name="ordmasculine" unicode="&#xba;" horiz-adv-x="187" 
d="M28 498v142q0 73 68 73q23 0 37.5 -7.5t19.5 -21t6.5 -22.5t1.5 -22v-150q0 -14 -1.5 -22.5t-6.5 -22.5t-19.5 -21.5t-37.5 -7.5q-24 0 -39 8.5t-20.5 24t-7 25t-1.5 24.5zM112 487v155q0 29 -17 29q-19 0 -19 -31v-154q0 -28 17 -28q13 0 16 7t3 22z" />
    <glyph glyph-name="guillemotright" unicode="&#xbb;" horiz-adv-x="333" 
d="M308 273l-131 -119v100l78 72l-79 71v100l132 -119v-105zM160 271l-132 -117v100l79 71l-80 71v98l133 -116v-107z" />
    <glyph glyph-name="onequarter" unicode="&#xbc;" horiz-adv-x="583" 
d="M48 594v46q30 5 44.5 20t23.5 46h40v-442h-59v330h-49zM114 -5l309 736l49 -21l-309 -735zM364 149l96 290h82v-290h31v-50h-31v-99h-53v99h-125v50zM417 149h72v237z" />
    <glyph glyph-name="onehalf" unicode="&#xbd;" horiz-adv-x="583" 
d="M48 594v46q30 5 44.5 20t23.5 46h40v-442h-59v330h-49zM99 -5l309 736l49 -21l-309 -735zM435 292h-57v62q0 18 1.5 29.5t9 28t26.5 25t50 8.5q48 0 73 -23q13 -14 16 -30.5t3 -61.5q0 -56 -8 -77q-7 -22 -54 -90q-47 -67 -53 -111h117v-52h-181q0 69 16.5 107.5
t68.5 110.5q24 33 30 49t6 53q0 51 -4.5 64.5t-26.5 13.5q-33 0 -33 -44v-62z" />
    <glyph glyph-name="threequarters" unicode="&#xbe;" horiz-adv-x="583" 
d="M81 594h-57q0 33 1.5 48t9 34t25.5 26.5t49 7.5q30 0 49 -7.5t26 -21.5t8.5 -22.5t1.5 -22.5v-56q0 -35 -11 -49.5t-33 -18.5q36 -10 44 -27.5t8 -59.5v-69q0 -22 -1.5 -34.5t-9 -30t-27 -26t-50.5 -8.5q-77 0 -89 55q-2 11 -2 86h57v-54q0 -38 33 -38q32 0 32 41v77
q0 37 -15.5 45t-63.5 8v55q50 0 62 14q7 8 8 20.5t1 70.5q0 9 -1 13.5t-7 9.5t-19 5q-15 0 -22 -7q-5 -5 -6 -13.5t-1 -50.5zM135 -5l309 736l49 -20l-309 -736zM364 149l96 290h82v-290h31v-50h-31v-99h-53v99h-125v50zM417 149h72v237z" />
    <glyph glyph-name="questiondown" unicode="&#xbf;" horiz-adv-x="333" 
d="M204 196h76q1 -92 -8 -121q-24 -79 -118 -79q-67 0 -99 42t-32 101q0 71 53 173q42 79 50 101.5t9 64.5h71q0 -45 -6 -72.5t-27 -71.5q-46 -99 -55.5 -127t-9.5 -65q0 -36 9.5 -54.5t37.5 -18.5q34 0 41.5 25.5t7.5 101.5zM209 570h-80v129h80v-129z" />
    <glyph glyph-name="Agrave" unicode="&#xc0;" horiz-adv-x="333" 
d="M106 706h113l109 -706h-91l-18 130h-106l-16 -130h-90zM166 573h-8q-3 -104 -5 -114l-30 -243h84l-35 245q-5 31 -6 112zM22 895h102l73 -121h-50z" />
    <glyph glyph-name="Aacute" unicode="&#xc1;" horiz-adv-x="333" 
d="M106 706h113l109 -706h-91l-18 130h-106l-16 -130h-90zM166 573h-8q-3 -104 -5 -114l-30 -243h84l-35 245q-5 31 -6 112zM129 775l71 122h102l-126 -122h-47z" />
    <glyph glyph-name="Acircumflex" unicode="&#xc2;" horiz-adv-x="333" 
d="M106 706h113l109 -706h-91l-18 130h-106l-16 -130h-90zM166 573h-8q-3 -104 -5 -114l-30 -243h84l-35 245q-5 31 -6 112zM49 775l89 120h57l89 -120h-57l-60 71l-64 -71h-54z" />
    <glyph glyph-name="Atilde" unicode="&#xc3;" horiz-adv-x="333" 
d="M106 706h113l109 -706h-91l-18 130h-106l-16 -130h-90zM166 573h-8q-3 -104 -5 -114l-30 -243h84l-35 245q-5 31 -6 112zM69 786h-25q14 47 31 71t52 24q17 0 70 -19q24 -8 29 -8q21 0 37 30h28q-22 -50 -38.5 -70t-39.5 -20q-17 0 -39 11q-48 21 -61 21q-15 0 -27 -11.5
t-17 -28.5z" />
    <glyph glyph-name="Adieresis" unicode="&#xc4;" horiz-adv-x="333" 
d="M106 706h113l109 -706h-91l-18 130h-106l-16 -130h-90zM166 573h-8q-3 -104 -5 -114l-30 -243h84l-35 245q-5 31 -6 112zM65 774v101h73v-101h-73zM196 875h73v-101h-73v101z" />
    <glyph glyph-name="Aring" unicode="&#xc5;" horiz-adv-x="333" 
d="M106 706h113l109 -706h-91l-18 130h-106l-16 -130h-90zM166 573h-8q-3 -104 -5 -114l-30 -243h84l-35 245q-5 31 -6 112zM113 762q-22 22 -22 54q0 31 22 53t53 22t53 -22t22 -53t-22 -53.5t-53 -22.5t-53 22zM131 780q19 -14 35 -14q20 0 34.5 14.5t14.5 35.5
q0 20 -14.5 34.5t-34.5 14.5t-34.5 -14.5t-14.5 -34.5q0 -22 14 -36z" />
    <glyph glyph-name="AE" unicode="&#xc6;" horiz-adv-x="479" 
d="M-10 0l147 707h311v-88h-142v-215h123v-78h-123v-238h155v-88h-245v326h-72l-62 -326h-92zM219 648h-15l-45 -245h57v172q0 40 3 73z" />
    <glyph glyph-name="Ccedilla" unicode="&#xc7;" horiz-adv-x="375" 
d="M344 292v-132q0 -150 -128 -168l-16 -29q81 -4 81 -56q0 -14 -6.5 -26.5t-23.5 -26t-54.5 -20.5t-91.5 -5v31q94 -5 94 32q0 10 -5 16t-18.5 8.5t-22 3.5t-28.5 2l42 70q-30 4 -53 14.5t-36.5 27t-21.5 31t-11.5 37.5t-4 35t-0.5 33v340q0 28 1 46t9.5 51.5t23.5 53.5
t47 36t77 16q35 0 61.5 -8.5t41.5 -25.5t24.5 -33t13 -39.5t4.5 -35.5t1 -31v-90h-93v109q0 73 -58 73q-21 0 -34 -8t-18 -24t-6 -27t-1 -30v-390q0 -20 1 -30t6 -24.5t17.5 -21t32.5 -6.5q17 0 29 5.5t17.5 13t8.5 20.5t3.5 21t0.5 23v138h94z" />
    <glyph glyph-name="Egrave" unicode="&#xc8;" horiz-adv-x="292" 
d="M42 0v706h233v-89h-138v-206h124v-87h-124v-235h139v-89h-234zM7 895h102l73 -121h-50z" />
    <glyph glyph-name="Eacute" unicode="&#xc9;" horiz-adv-x="292" 
d="M42 0v706h233v-89h-138v-206h124v-87h-124v-235h139v-89h-234zM118 775l71 122h102l-126 -122h-47z" />
    <glyph glyph-name="Ecircumflex" unicode="&#xca;" horiz-adv-x="292" 
d="M42 0v706h233v-89h-138v-206h124v-87h-124v-235h139v-89h-234zM38 775l89 120h57l89 -120h-57l-60 71l-64 -71h-54z" />
    <glyph glyph-name="Edieresis" unicode="&#xcb;" horiz-adv-x="292" 
d="M42 0v706h233v-89h-138v-206h124v-87h-124v-235h139v-89h-234zM49 774v101h73v-101h-73zM180 875h73v-101h-73v101z" />
    <glyph glyph-name="Igrave" unicode="&#xcc;" horiz-adv-x="167" 
d="M37 706h92v-706h-92v706zM-56 895h102l73 -121h-50z" />
    <glyph glyph-name="Iacute" unicode="&#xcd;" horiz-adv-x="167" 
d="M37 706h92v-706h-92v706zM45 775l71 122h102l-126 -122h-47z" />
    <glyph glyph-name="Icircumflex" unicode="&#xce;" horiz-adv-x="167" 
d="M37 706h92v-706h-92v706zM-35 775l89 120h57l89 -120h-57l-60 71l-64 -71h-54z" />
    <glyph glyph-name="Idieresis" unicode="&#xcf;" horiz-adv-x="167" 
d="M37 706h92v-706h-92v706zM-19 774v101h73v-101h-73zM112 875h73v-101h-73v101z" />
    <glyph glyph-name="Eth" unicode="&#xd0;" horiz-adv-x="354" 
d="M39 0v353h-39v68h39v285h171q36 0 59 -9t33 -27t13 -35t3 -43v-470q0 -70 -21.5 -96t-78.5 -26h-179zM184 353h-52v-266h62q19 0 24.5 9.5t5.5 29.5v445q0 17 -1.5 25.5t-10.5 16t-26 7.5h-54v-199h52v-68z" />
    <glyph glyph-name="Ntilde" unicode="&#xd1;" horiz-adv-x="375" 
d="M41 706h100l105 -452q3 -15 8 -38.5t7 -31.5h6q-8 66 -10 100l-4 66l-4 356h87v-706h-103l-116 529h-6l5 -61l4 -61l8 -407h-87v706zM95 786h-25q14 47 31 71t52 24q17 0 70 -19q24 -8 29 -8q21 0 37 30h28q-22 -50 -38.5 -70t-39.5 -20q-17 0 -39 11q-48 21 -61 21
q-15 0 -27 -11.5t-17 -28.5z" />
    <glyph glyph-name="Ograve" unicode="&#xd2;" horiz-adv-x="375" 
d="M39 162v353q0 56 6.5 89t28.5 58q43 49 116 49q69 0 106 -40q19 -20 27.5 -47.5t10 -51.5t1.5 -78v-335q0 -22 -1 -38t-9.5 -42.5t-23.5 -43t-46 -29.5t-74 -13q-91 0 -125 69q-17 32 -17 100zM243 166v356q0 24 -0.5 35.5t-3 28.5t-8 24.5t-16 13.5t-26.5 6
q-40 0 -52 -34q-5 -14 -5 -73v-379q0 -22 2.5 -35.5t15 -26t36.5 -12.5q26 0 39 15t15.5 32t2.5 49zM48 895h102l73 -121h-50z" />
    <glyph glyph-name="Oacute" unicode="&#xd3;" horiz-adv-x="375" 
d="M39 162v353q0 56 6.5 89t28.5 58q43 49 116 49q69 0 106 -40q19 -20 27.5 -47.5t10 -51.5t1.5 -78v-335q0 -22 -1 -38t-9.5 -42.5t-23.5 -43t-46 -29.5t-74 -13q-91 0 -125 69q-17 32 -17 100zM243 166v356q0 24 -0.5 35.5t-3 28.5t-8 24.5t-16 13.5t-26.5 6
q-40 0 -52 -34q-5 -14 -5 -73v-379q0 -22 2.5 -35.5t15 -26t36.5 -12.5q26 0 39 15t15.5 32t2.5 49zM149 775l71 122h102l-126 -122h-47z" />
    <glyph glyph-name="Ocircumflex" unicode="&#xd4;" horiz-adv-x="375" 
d="M39 162v353q0 56 6.5 89t28.5 58q43 49 116 49q69 0 106 -40q19 -20 27.5 -47.5t10 -51.5t1.5 -78v-335q0 -22 -1 -38t-9.5 -42.5t-23.5 -43t-46 -29.5t-74 -13q-91 0 -125 69q-17 32 -17 100zM243 166v356q0 24 -0.5 35.5t-3 28.5t-8 24.5t-16 13.5t-26.5 6
q-40 0 -52 -34q-5 -14 -5 -73v-379q0 -22 2.5 -35.5t15 -26t36.5 -12.5q26 0 39 15t15.5 32t2.5 49zM69 775l89 120h57l89 -120h-57l-60 71l-64 -71h-54z" />
    <glyph glyph-name="Otilde" unicode="&#xd5;" horiz-adv-x="375" 
d="M39 162v353q0 56 6.5 89t28.5 58q43 49 116 49q69 0 106 -40q19 -20 27.5 -47.5t10 -51.5t1.5 -78v-335q0 -22 -1 -38t-9.5 -42.5t-23.5 -43t-46 -29.5t-74 -13q-91 0 -125 69q-17 32 -17 100zM243 166v356q0 24 -0.5 35.5t-3 28.5t-8 24.5t-16 13.5t-26.5 6
q-40 0 -52 -34q-5 -14 -5 -73v-379q0 -22 2.5 -35.5t15 -26t36.5 -12.5q26 0 39 15t15.5 32t2.5 49zM95 786h-25q14 47 31 71t52 24q17 0 70 -19q24 -8 29 -8q21 0 37 30h28q-22 -50 -38.5 -70t-39.5 -20q-17 0 -39 11q-48 21 -61 21q-15 0 -27 -11.5t-17 -28.5z" />
    <glyph glyph-name="Odieresis" unicode="&#xd6;" horiz-adv-x="375" 
d="M39 162v353q0 56 6.5 89t28.5 58q43 49 116 49q69 0 106 -40q19 -20 27.5 -47.5t10 -51.5t1.5 -78v-335q0 -22 -1 -38t-9.5 -42.5t-23.5 -43t-46 -29.5t-74 -13q-91 0 -125 69q-17 32 -17 100zM243 166v356q0 24 -0.5 35.5t-3 28.5t-8 24.5t-16 13.5t-26.5 6
q-40 0 -52 -34q-5 -14 -5 -73v-379q0 -22 2.5 -35.5t15 -26t36.5 -12.5q26 0 39 15t15.5 32t2.5 49zM86 775v101h73v-101h-73zM217 876h73v-101h-73v101z" />
    <glyph glyph-name="multiply" unicode="&#xd7;" horiz-adv-x="500" 
d="M307 293l150 -152l-56 -56l-150 150l-152 -150l-56 56l152 152l-152 150l56 55l152 -150l150 150l56 -55z" />
    <glyph glyph-name="Oslash" unicode="&#xd8;" horiz-adv-x="375" 
d="M314 664l25 51l37 -17l-40 -83q5 -37 5 -66v-362q0 -63 -8 -98.5t-38 -62.5q-39 -34 -100 -34q-80 0 -125 51l-28 -57l-35 17l39 83q-9 27 -9 68v385q0 66 22 104q39 70 133 70q75 0 122 -49zM128 261l121 260q0 67 -9 84q-12 29 -50 29q-22 0 -35.5 -8t-18.5 -24
t-6.5 -27.5t-1.5 -29.5v-284zM249 162v265l-122 -262q1 -20 2 -29t4.5 -24.5t9.5 -22.5t17.5 -13t27.5 -6q17 0 29.5 6.5t18.5 14.5t9 22.5t3.5 23.5t0.5 25z" />
    <glyph glyph-name="Ugrave" unicode="&#xd9;" horiz-adv-x="375" 
d="M40 154v552h91v-546q0 -24 1 -35.5t6 -28t17.5 -23.5t32.5 -7t32 7t17 24t6 30t1 39v540h92v-535q0 -23 -1 -38.5t-9 -45.5t-22.5 -49t-45 -34t-73.5 -15q-145 0 -145 165zM48 895h102l73 -121h-50z" />
    <glyph glyph-name="Uacute" unicode="&#xda;" horiz-adv-x="375" 
d="M40 154v552h91v-546q0 -24 1 -35.5t6 -28t17.5 -23.5t32.5 -7t32 7t17 24t6 30t1 39v540h92v-535q0 -23 -1 -38.5t-9 -45.5t-22.5 -49t-45 -34t-73.5 -15q-145 0 -145 165zM149 775l71 122h102l-126 -122h-47z" />
    <glyph glyph-name="Ucircumflex" unicode="&#xdb;" horiz-adv-x="375" 
d="M40 154v552h91v-546q0 -24 1 -35.5t6 -28t17.5 -23.5t32.5 -7t32 7t17 24t6 30t1 39v540h92v-535q0 -23 -1 -38.5t-9 -45.5t-22.5 -49t-45 -34t-73.5 -15q-145 0 -145 165zM69 775l89 120h57l89 -120h-57l-60 71l-64 -71h-54z" />
    <glyph glyph-name="Udieresis" unicode="&#xdc;" horiz-adv-x="375" 
d="M40 154v552h91v-546q0 -24 1 -35.5t6 -28t17.5 -23.5t32.5 -7t32 7t17 24t6 30t1 39v540h92v-535q0 -23 -1 -38.5t-9 -45.5t-22.5 -49t-45 -34t-73.5 -15q-145 0 -145 165zM85 776v101h73v-101h-73zM216 877h73v-101h-73v101z" />
    <glyph glyph-name="Yacute" unicode="&#xdd;" horiz-adv-x="333" 
d="M3 706h96l41 -164q12 -47 20 -136h7q7 82 24 144l44 156h94l-117 -410v-296h-101v295zM129 775l71 122h102l-126 -122h-47z" />
    <glyph glyph-name="Thorn" unicode="&#xde;" horiz-adv-x="333" 
d="M41 0v707h92v-118h89q62 0 79.5 -28t17.5 -93v-134q0 -80 -16 -106t-78 -26h-94v-202h-90zM190 503h-57v-217h59q18 0 25.5 6.5t7.5 25.5v149q0 20 -6.5 28t-28.5 8z" />
    <glyph glyph-name="germandbls" unicode="&#xdf;" 
d="M40 0v591q0 121 117 121q60 0 87.5 -29.5t27.5 -78.5q0 -66 -5 -82.5t-31 -32.5q28 -10 36.5 -28t8.5 -58v-295q0 -15 -0.5 -25t-6 -28.5t-15.5 -29.5t-31 -20t-50 -9q-14 0 -38 4v71q5 -1 15 -1q21 0 32 11t12.5 22t1.5 29v265q0 36 -11.5 49t-45.5 12v61q18 -2 29 2
t15 15t5 20.5t1 29.5q0 31 -7.5 44.5t-31.5 13.5q-17 0 -25.5 -9t-9.5 -17t-1 -22v-596h-79z" />
    <glyph glyph-name="agrave" unicode="&#xe0;" 
d="M40 364v65q0 116 116 116q33 0 56.5 -9t34.5 -20.5t17 -30.5t7 -29t1 -26v-339q0 -60 15 -91h-86q-8 19 -14 43q-10 -15 -17 -23.5t-23.5 -17t-36.5 -8.5q-76 0 -76 90v95q0 25 1.5 37.5t13 30t34.5 32.5l77 48q32 21 32 31v80q0 41 -35 41t-35 -40v-75h-82zM192 140v126
q-14 -13 -49 -35q-29 -20 -29 -55v-54q0 -20 1 -30.5t8.5 -22t22.5 -11.5q46 0 46 82zM21 692h102l72 -120h-48z" />
    <glyph glyph-name="aacute" unicode="&#xe1;" 
d="M40 364v65q0 116 116 116q33 0 56.5 -9t34.5 -20.5t17 -30.5t7 -29t1 -26v-339q0 -60 15 -91h-86q-8 19 -14 43q-10 -15 -17 -23.5t-23.5 -17t-36.5 -8.5q-76 0 -76 90v95q0 25 1.5 37.5t13 30t34.5 32.5l77 48q32 21 32 31v80q0 41 -35 41t-35 -40v-75h-82zM192 140v126
q-14 -13 -49 -35q-29 -20 -29 -55v-54q0 -20 1 -30.5t8.5 -22t22.5 -11.5q46 0 46 82zM122 571l72 121h99l-125 -121h-46z" />
    <glyph glyph-name="acircumflex" unicode="&#xe2;" 
d="M40 364v65q0 116 116 116q33 0 56.5 -9t34.5 -20.5t17 -30.5t7 -29t1 -26v-339q0 -60 15 -91h-86q-8 19 -14 43q-10 -15 -17 -23.5t-23.5 -17t-36.5 -8.5q-76 0 -76 90v95q0 25 1.5 37.5t13 30t34.5 32.5l77 48q32 21 32 31v80q0 41 -35 41t-35 -40v-75h-82zM192 140v126
q-14 -13 -49 -35q-29 -20 -29 -55v-54q0 -20 1 -30.5t8.5 -22t22.5 -11.5q46 0 46 82zM44 572l91 120h56l89 -121h-57l-60 72l-64 -71h-55z" />
    <glyph glyph-name="atilde" unicode="&#xe3;" 
d="M40 364v65q0 116 116 116q33 0 56.5 -9t34.5 -20.5t17 -30.5t7 -29t1 -26v-339q0 -60 15 -91h-86q-8 19 -14 43q-10 -15 -17 -23.5t-23.5 -17t-36.5 -8.5q-76 0 -76 90v95q0 25 1.5 37.5t13 30t34.5 32.5l77 48q32 21 32 31v80q0 41 -35 41t-35 -40v-75h-82zM192 140v126
q-14 -13 -49 -35q-29 -20 -29 -55v-54q0 -20 1 -30.5t8.5 -22t22.5 -11.5q46 0 46 82zM65 584h-25q14 47 31 71t52 24q17 0 70 -19q24 -8 29 -8q21 0 37 30h28q-22 -50 -38.5 -70t-39.5 -20q-18 0 -38 11q-49 21 -61 21q-32 0 -45 -40z" />
    <glyph glyph-name="adieresis" unicode="&#xe4;" 
d="M40 364v65q0 116 116 116q33 0 56.5 -9t34.5 -20.5t17 -30.5t7 -29t1 -26v-339q0 -60 15 -91h-86q-8 19 -14 43q-10 -15 -17 -23.5t-23.5 -17t-36.5 -8.5q-76 0 -76 90v95q0 25 1.5 37.5t13 30t34.5 32.5l77 48q32 21 32 31v80q0 41 -35 41t-35 -40v-75h-82zM192 140v126
q-14 -13 -49 -35q-29 -20 -29 -55v-54q0 -20 1 -30.5t8.5 -22t22.5 -11.5q46 0 46 82zM55 594v101h73v-101h-73zM186 695h73v-101h-73v101z" />
    <glyph glyph-name="aring" unicode="&#xe5;" 
d="M40 364v65q0 116 116 116q33 0 56.5 -9t34.5 -20.5t17 -30.5t7 -29t1 -26v-339q0 -60 15 -91h-86q-8 19 -14 43q-10 -15 -17 -23.5t-23.5 -17t-36.5 -8.5q-76 0 -76 90v95q0 25 1.5 37.5t13 30t34.5 32.5l77 48q32 21 32 31v80q0 41 -35 41t-35 -40v-75h-82zM192 140v126
q-14 -13 -49 -35q-29 -20 -29 -55v-54q0 -20 1 -30.5t8.5 -22t22.5 -11.5q46 0 46 82zM102 592q-22 22 -22 54q0 31 22 53t54 22t54 -22t22 -53t-22 -53.5t-54 -22.5t-54 22zM121 611q14 -14 35 -14t35.5 14.5t14.5 34.5t-14.5 34.5t-35.5 14.5q-20 0 -34.5 -14.5
t-14.5 -34.5q0 -21 14 -35z" />
    <glyph glyph-name="ae" unicode="&#xe6;" horiz-adv-x="458" 
d="M34 363v60q0 122 118 122q43 0 76 -23q36 24 78 23q44 0 73 -19q20 -14 30 -33t11.5 -32.5t1.5 -37.5v-174h-156v-144q0 -15 1 -23t10 -16.5t26 -8.5q39 0 39 47v94h80v-80q0 -127 -115 -127q-81 0 -110 58q-31 -58 -94 -58q-26 0 -42.5 9t-22.5 26t-7.5 28t-1.5 30v105
q0 38 12 55.5t47 41.5l84 55q10 6 12 11.5t2 19.5v62q0 14 -1 21t-9 15t-24 8q-17 0 -26.5 -8.5t-10.5 -16t-1 -19.5v-71h-80zM342 316v116q0 46 -35 46q-14 0 -23.5 -4.5t-12.5 -13t-4 -14.5t-1 -15v-115h76zM186 127v138q-15 -13 -51 -36q-16 -11 -21.5 -22.5t-5.5 -39.5
v-64q0 -45 32 -45q46 0 46 69z" />
    <glyph glyph-name="ccedilla" unicode="&#xe7;" horiz-adv-x="292" 
d="M276 212v-97q0 -112 -102 -124l-15 -28q81 -4 81 -56q0 -14 -6.5 -26.5t-23.5 -26t-55 -20.5t-92 -5v31q95 -5 95 32q0 10 -5.5 16t-19 8.5t-21.5 3.5t-29 2l42 70q-89 13 -89 113v317q0 123 120 123q121 0 121 -128v-74h-81v91q0 43 -40 43q-15 0 -24 -4.5t-12 -13.5
t-4 -16t-1 -19v-325q0 -42 39 -42q15 0 24 5t12.5 15t4.5 17t1 19v99h80z" />
    <glyph glyph-name="egrave" unicode="&#xe8;" 
d="M39 102v287q0 67 10 90q12 31 41.5 48t68.5 17q118 0 118 -120v-174h-159v-150q0 -44 38 -44q40 0 40 49v94h81v-76q0 -132 -122 -132q-27 0 -48 7q-68 22 -68 104zM196 317v112q0 15 -1 23.5t-10 17t-26 8.5q-19 0 -28.5 -10.5t-11 -20t-1.5 -27.5v-103h78zM21 692h102
l72 -120h-48z" />
    <glyph glyph-name="eacute" unicode="&#xe9;" 
d="M39 102v287q0 67 10 90q12 31 41.5 48t68.5 17q118 0 118 -120v-174h-159v-150q0 -44 38 -44q40 0 40 49v94h81v-76q0 -132 -122 -132q-27 0 -48 7q-68 22 -68 104zM196 317v112q0 15 -1 23.5t-10 17t-26 8.5q-19 0 -28.5 -10.5t-11 -20t-1.5 -27.5v-103h78zM122 571
l72 121h99l-125 -121h-46z" />
    <glyph glyph-name="ecircumflex" unicode="&#xea;" 
d="M39 102v287q0 67 10 90q12 31 41.5 48t68.5 17q118 0 118 -120v-174h-159v-150q0 -44 38 -44q40 0 40 49v94h81v-76q0 -132 -122 -132q-27 0 -48 7q-68 22 -68 104zM196 317v112q0 15 -1 23.5t-10 17t-26 8.5q-19 0 -28.5 -10.5t-11 -20t-1.5 -27.5v-103h78zM44 572
l91 120h56l89 -121h-57l-60 72l-64 -71h-55z" />
    <glyph glyph-name="edieresis" unicode="&#xeb;" 
d="M39 102v287q0 67 10 90q12 31 41.5 48t68.5 17q118 0 118 -120v-174h-159v-150q0 -44 38 -44q40 0 40 49v94h81v-76q0 -132 -122 -132q-27 0 -48 7q-68 22 -68 104zM196 317v112q0 15 -1 23.5t-10 17t-26 8.5q-19 0 -28.5 -10.5t-11 -20t-1.5 -27.5v-103h78zM64 592v101
h73v-101h-73zM195 693h73v-101h-73v101z" />
    <glyph glyph-name="igrave" unicode="&#xec;" horiz-adv-x="167" 
d="M43 0v535h80v-535h-80zM-53 692h102l72 -120h-48z" />
    <glyph glyph-name="iacute" unicode="&#xed;" horiz-adv-x="167" 
d="M43 0v535h80v-535h-80zM48 571l72 121h99l-125 -121h-46z" />
    <glyph glyph-name="icircumflex" unicode="&#xee;" horiz-adv-x="167" 
d="M43 0v535h80v-535h-80zM-35 572l91 120h56l89 -121h-57l-60 72l-64 -71h-55z" />
    <glyph glyph-name="idieresis" unicode="&#xef;" horiz-adv-x="167" 
d="M43 0v535h80v-535h-80zM-15 592v101h73v-101h-73zM116 693h73v-101h-73v101z" />
    <glyph glyph-name="eth" unicode="&#xf0;" 
d="M285 640l-45 -18q20 -31 29 -80q9 -48 9 -122v-302q0 -127 -122 -127q-34 0 -57.5 10.5t-35 24t-17.5 38t-7 39.5t-1 41v247q0 48 6.5 73.5t23.5 44.5q32 37 80 37q35 0 53 -19q-7 39 -26 73l-94 -37l-21 43l85 35q-22 25 -46 44l63 32q31 -28 36 -34q11 -12 16 -17
l48 19zM199 111v316q0 16 -1.5 25t-10.5 17.5t-27 8.5q-15 0 -24 -5t-12.5 -15.5t-4.5 -17.5t-1 -20v-315q0 -15 1.5 -23t10.5 -16.5t27 -8.5q27 0 34.5 14.5t7.5 39.5z" />
    <glyph glyph-name="ntilde" unicode="&#xf1;" 
d="M118 535v-34q36 44 79 44q23 0 39.5 -8.5t24 -19.5t12 -29t5 -28t0.5 -26v-434h-82v419q0 16 -1 24.5t-9.5 18t-24.5 9.5q-15 0 -24 -6t-12.5 -17.5t-4.5 -20t-1 -22.5v-405h-80v535h79zM60 584h-25q14 47 31 71t52 24q17 0 70 -19q24 -8 29 -8q21 0 37 30h28
q-22 -50 -38.5 -70t-39.5 -20q-18 0 -38 11q-49 21 -61 21q-32 0 -45 -40z" />
    <glyph glyph-name="ograve" unicode="&#xf2;" 
d="M38 144v247q0 23 1 37t7 38.5t18 39.5t36.5 26.5t59.5 11.5q34 0 57.5 -10t35 -22t17.5 -32.5t7 -31.5t1 -29v-301q0 -127 -122 -127q-34 0 -57.5 10.5t-35 24t-17.5 38t-7 39.5t-1 41zM199 111v316q0 16 -1.5 25t-10.5 17.5t-27 8.5q-15 0 -24 -5t-12.5 -15.5
t-4.5 -17.5t-1 -20v-315q0 -15 1.5 -23t10.5 -16.5t27 -8.5q27 0 34.5 14.5t7.5 39.5zM21 692h102l72 -120h-48z" />
    <glyph glyph-name="oacute" unicode="&#xf3;" 
d="M38 144v247q0 23 1 37t7 38.5t18 39.5t36.5 26.5t59.5 11.5q34 0 57.5 -10t35 -22t17.5 -32.5t7 -31.5t1 -29v-301q0 -127 -122 -127q-34 0 -57.5 10.5t-35 24t-17.5 38t-7 39.5t-1 41zM199 111v316q0 16 -1.5 25t-10.5 17.5t-27 8.5q-15 0 -24 -5t-12.5 -15.5
t-4.5 -17.5t-1 -20v-315q0 -15 1.5 -23t10.5 -16.5t27 -8.5q27 0 34.5 14.5t7.5 39.5zM122 571l72 121h99l-125 -121h-46z" />
    <glyph glyph-name="ocircumflex" unicode="&#xf4;" 
d="M38 144v247q0 23 1 37t7 38.5t18 39.5t36.5 26.5t59.5 11.5q34 0 57.5 -10t35 -22t17.5 -32.5t7 -31.5t1 -29v-301q0 -127 -122 -127q-34 0 -57.5 10.5t-35 24t-17.5 38t-7 39.5t-1 41zM199 111v316q0 16 -1.5 25t-10.5 17.5t-27 8.5q-15 0 -24 -5t-12.5 -15.5
t-4.5 -17.5t-1 -20v-315q0 -15 1.5 -23t10.5 -16.5t27 -8.5q27 0 34.5 14.5t7.5 39.5zM44 572l91 120h56l89 -121h-57l-60 72l-64 -71h-55z" />
    <glyph glyph-name="otilde" unicode="&#xf5;" 
d="M38 144v247q0 23 1 37t7 38.5t18 39.5t36.5 26.5t59.5 11.5q34 0 57.5 -10t35 -22t17.5 -32.5t7 -31.5t1 -29v-301q0 -127 -122 -127q-34 0 -57.5 10.5t-35 24t-17.5 38t-7 39.5t-1 41zM199 111v316q0 16 -1.5 25t-10.5 17.5t-27 8.5q-15 0 -24 -5t-12.5 -15.5
t-4.5 -17.5t-1 -20v-315q0 -15 1.5 -23t10.5 -16.5t27 -8.5q27 0 34.5 14.5t7.5 39.5zM65 584h-25q14 47 31 71t52 24q17 0 70 -19q24 -8 29 -8q21 0 37 30h28q-22 -50 -38.5 -70t-39.5 -20q-18 0 -38 11q-49 21 -61 21q-32 0 -45 -40z" />
    <glyph glyph-name="odieresis" unicode="&#xf6;" 
d="M38 144v247q0 23 1 37t7 38.5t18 39.5t36.5 26.5t59.5 11.5q34 0 57.5 -10t35 -22t17.5 -32.5t7 -31.5t1 -29v-301q0 -127 -122 -127q-34 0 -57.5 10.5t-35 24t-17.5 38t-7 39.5t-1 41zM199 111v316q0 16 -1.5 25t-10.5 17.5t-27 8.5q-15 0 -24 -5t-12.5 -15.5
t-4.5 -17.5t-1 -20v-315q0 -15 1.5 -23t10.5 -16.5t27 -8.5q27 0 34.5 14.5t7.5 39.5zM55 594v101h73v-101h-73zM186 695h73v-101h-73v101z" />
    <glyph glyph-name="divide" unicode="&#xf7;" horiz-adv-x="500" 
d="M308 145q0 -23 -16.5 -39t-40.5 -16t-40 16t-16 40t17 40t40 16t39.5 -16t16.5 -41zM308 434q0 -20 -14.5 -37.5t-41.5 -17.5q-24 0 -40.5 15.5t-16.5 38.5q0 24 16 41t41 17t40.5 -17t15.5 -40zM500 330v-79h-500v79h500z" />
    <glyph glyph-name="oslash" unicode="&#xf8;" 
d="M253 510l19 37l28 -15l-27 -61q4 -26 4 -43v-318q0 -65 -34.5 -92.5t-85.5 -27.5q-54 0 -92 36l-18 -37l-28 14l27 59q-8 26 -8 50v302q0 64 30 95q32 35 95 35q51 0 90 -34zM117 216l82 171q0 48 -1 59t-7 18q-10 13 -31 13q-20 0 -30 -11.5t-11.5 -21.5t-1.5 -27v-201z
M198 116v196l-81 -172v-42q0 -40 39 -40q19 0 29 11t11.5 21t1.5 26z" />
    <glyph glyph-name="ugrave" unicode="&#xf9;" 
d="M197 0v34q-34 -44 -79 -44q-23 0 -39.5 8.5t-24 19.5t-12 29t-5 28t-0.5 26v434h82v-419q0 -16 1 -24.5t9.5 -18t24.5 -9.5q15 0 24 6t12.5 17.5t4.5 20t1 22.5v405h80v-535h-79zM21 692h102l72 -120h-48z" />
    <glyph glyph-name="uacute" unicode="&#xfa;" 
d="M197 0v34q-34 -44 -79 -44q-23 0 -39.5 8.5t-24 19.5t-12 29t-5 28t-0.5 26v434h82v-419q0 -16 1 -24.5t9.5 -18t24.5 -9.5q15 0 24 6t12.5 17.5t4.5 20t1 22.5v405h80v-535h-79zM122 571l72 121h99l-125 -121h-46z" />
    <glyph glyph-name="ucircumflex" unicode="&#xfb;" 
d="M197 0v34q-34 -44 -79 -44q-23 0 -39.5 8.5t-24 19.5t-12 29t-5 28t-0.5 26v434h82v-419q0 -16 1 -24.5t9.5 -18t24.5 -9.5q15 0 24 6t12.5 17.5t4.5 20t1 22.5v405h80v-535h-79zM39 572l91 120h56l89 -121h-57l-60 72l-64 -71h-55z" />
    <glyph glyph-name="udieresis" unicode="&#xfc;" 
d="M197 0v34q-34 -44 -79 -44q-23 0 -39.5 8.5t-24 19.5t-12 29t-5 28t-0.5 26v434h82v-419q0 -16 1 -24.5t9.5 -18t24.5 -9.5q15 0 24 6t12.5 17.5t4.5 20t1 22.5v405h80v-535h-79zM56 594v101h73v-101h-73zM187 695h73v-101h-73v101z" />
    <glyph glyph-name="yacute" unicode="&#xfd;" horiz-adv-x="271" 
d="M4 535h82l35 -318q1 -10 5 -53.5t5 -53.5h8q2 97 15 199l28 225h83l-102 -596q-13 -81 -98 -81q-13 0 -43 2v78q14 -1 22 0t19.5 5t17 15.5t5.5 29.5q0 8 -2 24zM101 571l72 121h99l-125 -121h-46z" />
    <glyph glyph-name="thorn" unicode="&#xfe;" 
d="M275 444v-341q0 -110 -82 -110q-42 0 -75 45v-183h-80v852h82v-209q21 46 75 46q80 0 80 -100zM195 117v303q0 27 -7.5 40t-28.5 13q-14 0 -23.5 -6t-12.5 -18t-4 -20t-1 -21v-293q0 -49 39 -49q38 0 38 51z" />
    <glyph glyph-name="ydieresis" unicode="&#xff;" horiz-adv-x="271" 
d="M4 535h82l35 -318q1 -10 5 -53.5t5 -53.5h8q2 97 15 199l28 225h83l-102 -596q-13 -81 -98 -81q-13 0 -43 2v78q14 -1 22 0t19.5 5t17 15.5t5.5 29.5q0 8 -2 24zM38 592v101h73v-101h-73zM169 693h73v-101h-73v101z" />
    <glyph glyph-name="dotlessi" unicode="&#x131;" horiz-adv-x="167" 
d="M43 0v535h80v-535h-80z" />
    <glyph glyph-name="Lslash" unicode="&#x141;" horiz-adv-x="292" 
d="M136 707v-273l96 110v-87l-96 -109v-262h154v-86h-248v241l-43 -48v86l43 48v380h94z" />
    <glyph glyph-name="lslash" unicode="&#x142;" horiz-adv-x="167" 
d="M124 706v-228l43 47v-84l-43 -46v-395h-81v308l-42 -46v82l42 46v316h81z" />
    <glyph glyph-name="OE" unicode="&#x152;" horiz-adv-x="479" 
d="M39 181v324q0 45 1 67.5t8.5 54t22.5 46.5t43.5 26t71.5 11q5 0 29 -1.5t26 -1.5h218v-88h-144v-209h123v-86h-123v-239h150v-85h-236l-11 -1q-11 -1 -23 -2t-16 -1q-78 0 -114 52q-18 25 -22 53.5t-4 79.5zM222 157v396q0 24 -1.5 36t-12 23.5t-31.5 11.5q-51 0 -51 -65
v-384q0 -21 0.5 -31.5t3 -25t7.5 -21t14.5 -11.5t23.5 -5q22 0 33 13.5t12.5 26t1.5 36.5z" />
    <glyph glyph-name="oe" unicode="&#x153;" horiz-adv-x="479" 
d="M37 105v316q0 70 38 101q33 25 84 25q48 0 82 -25q39 25 82 25q54 0 85 -27q35 -29 35 -92v-178h-163v-144q0 -48 41 -48q14 0 23.5 5t12.5 15.5t4 17t1 17.5v85h81v-81q0 -12 -0.5 -22t-7 -31.5t-18 -36t-35.5 -26t-58 -11.5q-52 0 -84 28q-35 -28 -84 -28q-47 0 -77 19
q-42 28 -42 96zM200 109v317q0 12 -1 19t-4.5 16t-13 13.5t-24.5 4.5q-41 0 -41 -56v-317q0 -50 41 -50q43 0 43 53zM363 316v113q0 10 -1 17t-4.5 15.5t-12.5 13t-23 4.5q-15 0 -24 -5t-12 -16t-4 -18.5t-1 -22.5v-101h82z" />
    <glyph glyph-name="Scaron" unicode="&#x160;" horiz-adv-x="333" 
d="M118 258v-129q0 -13 1 -21.5t5 -21t14.5 -19t27.5 -6.5q16 0 25.5 7t13.5 21t5 25t1 29q0 49 -14 84t-62 106q-35 51 -51.5 78t-31 69t-14.5 85q0 57 24 97q36 58 119 58q119 0 119 -121v-126h-85v125q0 48 -37 48q-29 0 -38 -19t-9 -52q0 -51 17 -87t74 -118
q30 -44 43.5 -67.5t27 -64t13.5 -83.5q0 -75 -33 -121q-35 -47 -106 -47q-135 0 -135 153v118h86zM53 895h57l60 -70l64 71h55l-91 -120h-55z" />
    <glyph glyph-name="scaron" unicode="&#x161;" horiz-adv-x="292" 
d="M146 222l-43 43q-42 44 -56.5 73t-14.5 73q0 60 28.5 96t90.5 36q32 0 54 -10.5t33.5 -24t17.5 -40t7 -43.5t1 -50h-75q0 54 -8 74t-35 20q-39 0 -39 -51q0 -24 8.5 -42t34.5 -43l37 -36q27 -26 41 -43t27 -49t13 -70q0 -72 -34.5 -108.5t-89.5 -36.5q-85 0 -110 70
q-7 20 -8.5 42.5t-1.5 94.5h76q0 -88 3 -103q9 -33 43 -33q20 0 30 13t11.5 24.5t1.5 31.5q0 26 -8 45t-35 47zM35 692h57l59 -72l65 72h54l-91 -120h-56z" />
    <glyph glyph-name="Ydieresis" unicode="&#x178;" horiz-adv-x="333" 
d="M3 706h96l41 -164q12 -47 20 -136h7q7 82 24 144l44 156h94l-117 -410v-296h-101v295zM65 774v101h73v-101h-73zM196 875h73v-101h-73v101z" />
    <glyph glyph-name="Zcaron" unicode="&#x17d;" horiz-adv-x="292" 
d="M55 707h225v-61l-165 -561h151v-85h-251v62l167 562h-127v83zM37 895h57l60 -70l64 71h55l-91 -120h-55z" />
    <glyph glyph-name="zcaron" unicode="&#x17e;" horiz-adv-x="271" 
d="M46 461v74h215v-76l-163 -383h159v-76h-246v76l163 385h-128zM31 692h57l59 -72l65 72h54l-91 -120h-56z" />
    <glyph glyph-name="florin" unicode="&#x192;" horiz-adv-x="271" 
d="M111 534l10 94q5 41 21 60t60 19q22 0 54 -3l-8 -69q-17 1 -25 -0.5t-14.5 -8.5t-8.5 -22l-8 -70h47l-8 -66h-48l-59 -517q-4 -40 -20 -59.5t-61 -19.5q-23 0 -54 3l8 69q17 -1 25 0.5t14.5 8.5t8.5 22l57 493h-44l8 66h45z" />
    <glyph glyph-name="circumflex" unicode="&#x2c6;" horiz-adv-x="208" 
d="M-14 572l91 120h56l89 -121h-57l-60 72l-64 -71h-55z" />
    <glyph glyph-name="caron" unicode="&#x2c7;" horiz-adv-x="208" 
d="M-13 692h57l59 -72l65 72h54l-91 -120h-56z" />
    <glyph glyph-name="breve" unicode="&#x2d8;" horiz-adv-x="208" 
d="M174 691h37q-7 -118 -108 -118q-104 0 -106 118h35q9 -63 70 -63q21 0 35.5 6.5t21.5 19.5t9.5 19.5t5.5 17.5z" />
    <glyph glyph-name="dotaccent" unicode="&#x2d9;" horiz-adv-x="208" 
d="M68 593v102h72v-102h-72z" />
    <glyph glyph-name="ring" unicode="&#x2da;" horiz-adv-x="208" 
d="M50 592q-22 22 -22 54q0 31 22 53t54 22t54 -22t22 -53t-22 -53.5t-54 -22.5t-54 22zM69 611q14 -14 35 -14t35.5 14.5t14.5 34.5t-14.5 34.5t-35.5 14.5q-20 0 -34.5 -14.5t-14.5 -34.5q0 -21 14 -35z" />
    <glyph glyph-name="ogonek" unicode="&#x2db;" horiz-adv-x="208" 
d="M88 0h67q-21 -24 -31.5 -40t-12 -22.5t-1.5 -17.5q0 -2 2.5 -6.5t10 -9.5t18.5 -5q2 0 13.5 0.5t13.5 0.5v-61q-29 0 -42.5 0.5t-34 3.5t-29.5 8.5t-16 16.5t-7 28q0 39 49 104z" />
    <glyph glyph-name="tilde" unicode="&#x2dc;" horiz-adv-x="208" 
d="M6 584h-25q14 47 31 71t52 24q17 0 70 -19q24 -8 29 -8q21 0 37 30h28q-22 -50 -38.5 -70t-39.5 -20q-18 0 -38 11q-49 21 -61 21q-32 0 -45 -40z" />
    <glyph glyph-name="hungarumlaut" unicode="&#x2dd;" horiz-adv-x="208" 
d="M-46 571l72 121h99l-125 -121h-46zM83 571l72 121h100l-125 -121h-47z" />
    <glyph glyph-name="endash" unicode="&#x2013;" horiz-adv-x="354" 
d="M30 284v84h296v-84h-296z" />
    <glyph glyph-name="emdash" unicode="&#x2014;" horiz-adv-x="500" 
d="M29 284v84h443v-84h-443z" />
    <glyph glyph-name="quoteleft" unicode="&#x2018;" horiz-adv-x="146" 
d="M113 569v-129h-80v107q0 70 15 100t61 57v-22q-22 -16 -29 -37.5t-7 -75.5h40z" />
    <glyph glyph-name="quoteright" unicode="&#x2019;" horiz-adv-x="146" 
d="M32 577v129h80v-107q0 -70 -15 -100t-61 -57v22q22 16 29 37.5t7 75.5h-40z" />
    <glyph glyph-name="quotesinglbase" unicode="&#x201a;" horiz-adv-x="146" 
d="M31 0v129h80v-107q0 -69 -15 -99t-61 -58v22q22 16 29 37.5t7 75.5h-40z" />
    <glyph glyph-name="quotedblleft" unicode="&#x201c;" horiz-adv-x="292" 
d="M258 571v-129h-80v107q0 70 15 100t61 57v-22q-22 -16 -29 -37.5t-7 -75.5h40zM127 571v-129h-80v107q0 70 15 100t61 57v-22q-22 -16 -29 -37.5t-7 -75.5h40z" />
    <glyph glyph-name="quotedblright" unicode="&#x201d;" horiz-adv-x="292" 
d="M174 575v131h80v-109q0 -70 -15 -100t-61 -57v22q22 16 29 37.5t7 75.5h-40zM41 575v131h80v-109q0 -69 -15 -99t-61 -57v21q22 17 29 38.5t7 74.5h-40z" />
    <glyph glyph-name="quotedblbase" unicode="&#x201e;" horiz-adv-x="292" 
d="M169 0v129h80v-107q0 -69 -15 -99t-61 -58v22q22 16 29 37.5t7 75.5h-40zM38 0v129h80v-107q0 -69 -15 -99t-61 -58v22q22 16 29 37.5t7 75.5h-40z" />
    <glyph glyph-name="dagger" unicode="&#x2020;" horiz-adv-x="333" 
d="M122 525v182h95v-183h104v-92h-104v-432h-95v433h-105v92h105z" />
    <glyph glyph-name="daggerdbl" unicode="&#x2021;" horiz-adv-x="333" 
d="M120 563v140h93v-140h104v-85h-104v-234h104v-85h-104v-160h-93v160h-104v85h104v234h-104v85h104z" />
    <glyph glyph-name="bullet" unicode="&#x2022;" horiz-adv-x="333" 
d="M297 353q0 -59 -37 -94.5t-90 -35.5q-58 0 -95.5 38t-37.5 92q0 53 38 91.5t93 38.5t92 -36.5t37 -93.5z" />
    <glyph glyph-name="ellipsis" unicode="&#x2026;" horiz-adv-x="1000" 
d="M124 0v132h82v-132h-82zM457 0v132h82v-132h-82zM790 0v132h82v-132h-82z" />
    <glyph glyph-name="perthousand" unicode="&#x2030;" horiz-adv-x="812" 
d="M22 395v195q0 21 0.5 33t5.5 31.5t14 30t28 19t46 8.5q32 0 52 -10.5t27.5 -31.5t9.5 -35t2 -38v-234q0 -20 -2 -33t-9.5 -32t-28 -29t-52.5 -10q-27 0 -45.5 8.5t-27.5 19t-14 32t-5.5 35t-0.5 41.5zM149 363v252q0 17 -1 25t-9 16t-24 8t-24 -7t-9.5 -16t-1.5 -26v-252
q0 -18 1 -27t9.5 -18t24.5 -9q23 0 28.5 12.5t5.5 41.5zM115 -5l308 736l49 -20l-309 -736zM376 130v195q0 21 0.5 33t5.5 31.5t14 30t28 19t46 8.5q32 0 52 -10.5t27.5 -31.5t9.5 -35t2 -38v-234q0 -20 -2 -33t-9.5 -32t-28 -29t-52.5 -10q-27 0 -45.5 8.5t-27.5 19t-14 32
t-5.5 35t-0.5 41.5zM503 98v252q0 17 -1 25t-9 16t-24 8t-24 -7t-9.5 -16t-1.5 -26v-252q0 -18 1 -27t9.5 -18t24.5 -9q23 0 28.5 12.5t5.5 41.5zM605 130v195q0 21 0.5 33t5.5 31.5t14 30t28 19t46 8.5q32 0 52 -10.5t27.5 -31.5t9.5 -35t2 -38v-234q0 -20 -2 -33t-9.5 -32
t-28 -29t-52.5 -10q-27 0 -45.5 8.5t-27.5 19t-14 32t-5.5 35t-0.5 41.5zM732 98v252q0 17 -1 25t-9 16t-24 8t-24 -7t-9.5 -16t-1.5 -26v-252q0 -18 1 -27t9.5 -18t24.5 -9q23 0 28.5 12.5t5.5 41.5z" />
    <glyph glyph-name="guilsinglleft" unicode="&#x2039;" horiz-adv-x="187" 
d="M28 378l131 119v-100l-78 -72l79 -71v-100l-132 119v105z" />
    <glyph glyph-name="guilsinglright" unicode="&#x203a;" horiz-adv-x="187" 
d="M161 271l-132 -117v100l79 71l-80 71v98l133 -116v-107z" />
    <glyph glyph-name="fraction" unicode="&#x2044;" horiz-adv-x="125" 
d="M-115 -5l309 736l49 -20l-309 -736z" />
    <glyph glyph-name="fraction" unicode="&#x2215;" horiz-adv-x="125" 
d="M-115 -5l309 736l49 -20l-309 -736z" />
    <glyph glyph-name="Euro" unicode="&#x20ac;" horiz-adv-x="354" 
d="M324 691v-78q-24 26 -77 26q-90 0 -98 -181h149l-16 -65h-137v-38v-36h119l-15 -65h-100q7 -185 97 -185q54 0 78 27v-80q-22 -22 -92 -22q-71 0 -111 62t-49 198h-54l15 65h33q-1 9 -1 36q0 25 1 38h-48l15 65h37q18 257 163 257q63 0 91 -24z" />
    <glyph glyph-name="trademark" unicode="&#x2122;" horiz-adv-x="687" 
d="M636 706v-332h-57l2 205l3 68l-84 -273h-52l-84 272l4 -67l2 -205h-56v332h79l83 -262l81 262h79zM181 657v-283h-58v283h-107v49h270v-49h-105z" />
    <glyph glyph-name="minus" unicode="&#x2212;" horiz-adv-x="500" 
d="M500 333v-81h-500v81h500z" />
    <glyph glyph-name="fi" unicode="&#xfb01;" horiz-adv-x="354" 
d="M54 534v94q0 41 13.5 60t58.5 19q22 0 54 -3v-69q-17 1 -24.5 0t-13.5 -8.5t-6 -22.5v-70h46v-66h-47v-468h-82v468h-44v66h45zM232 704h79v-107h-79v107zM230 0v535h80v-535h-80z" />
    <glyph glyph-name="fl" unicode="&#xfb02;" horiz-adv-x="354" 
d="M54 534v94q0 41 13.5 60t58.5 19q22 0 54 -3v-69q-17 1 -24.5 0t-13.5 -8.5t-6 -22.5v-70h47v-66h-48v-468h-82v468h-44v66h45zM230 0v707h81v-707h-81z" />
    </font>
</defs>
</svg>
